<?xml version="1.0" encoding="utf-8"?>
<!-- Generator: Adobe Illustrator 25.1.0, SVG Export Plug-In . SVG Version: 6.00 Build 0)  -->
<svg version="1.1" id="Layer_1" xmlns="http://www.w3.org/2000/svg" xmlns:xlink="http://www.w3.org/1999/xlink" x="0px" y="0px"
	 viewBox="0 0 451.7 182.4" style="enable-background:new 0 0 451.7 182.4;" xml:space="preserve">
<style type="text/css">
	.st0{fill:#FFFFFF;}
</style>
<path class="st0" d="M303.1,100.4h9.1c0.3,0,0.6,0,0.9,0c1.2,0,1.4,0.2,1.5,1.4c0.2,2.2,0.5,4.3,1,6.4c3.4,15.2,13.6,28.1,27.5,35
	c5.3,2.6,11,4.3,16.8,5c2,0.3,4,0.4,6,0.4c4.7,0,9.3-0.6,13.9-1.9c7.2-2,14-5.6,19.7-10.4c2.2-1.8,4.2-3.8,6-6.1
	c0.5-0.7,1.3-1,2.1-1c7.9,0,15.8,0,23.6,0h0.2c1.3,0,1.4,0.2,0.8,1.3c-1.3,2.6-2.8,5.1-4.5,7.6c-3.4,5-7.4,9.7-11.9,13.8
	c-11.2,10.2-25.3,16.7-40.4,18.6c-4.4,0.6-8.8,0.8-13.2,0.5c-8.9-0.5-17.7-2.5-25.9-6.1c-6.8-3-13.1-6.9-18.7-11.8
	c-5.1-4.4-9.7-9.5-13.4-15.1c-5.9-8.8-9.8-18.7-11.5-29.2c-0.4-2.3-0.7-4.7-0.8-7.1c-0.1-1.3,0-1.4,1.3-1.4
	C296.4,100.4,299.8,100.4,303.1,100.4L303.1,100.4z"/>
<path class="st0" d="M405.8,122.3h-41.1c-0.5,0-0.9,0-1.4,0c-0.6-0.1-0.7-0.3-0.4-0.9c0.4-0.8,0.9-1.5,1.4-2.3
	c3.8-6.1,7.6-12.1,11.3-18.2c0.5-0.9,1.5-1.4,2.5-1.4c12.5,0,24.9,0,37.4,0c2.4,0,2.1,0,2.1-2.2c0.3-19.6-10.6-37.6-28.1-46.6
	c-1-0.5-2-1-3-1.4s-1-0.6-0.5-1.5c1.4-2.2,2.8-4.5,4.2-6.7c2.1-3.4,4.3-6.9,6.4-10.3c0.1-0.2,0.2-0.3,0.3-0.4
	c0.6-0.8,0.6-0.9,1.5-0.5c1.4,0.7,2.8,1.3,4.1,2.1c5.2,3,10.1,6.6,14.5,10.8c9,8.5,15.8,19.2,19.6,31c1.7,5.1,2.8,10.4,3.3,15.7
	c0.4,3.1,0.5,6.2,0.4,9.3c-0.1,0.3,0.1,0.6,0.4,0.7c0.1,0,0.1,0,0.2,0c0.3,0,0.7,0,1,0h5.4c1.7,0,1.8,0.1,1.8,1.8V120
	c0,0.3,0,0.7,0,1c0,1.1-0.2,1.2-1.3,1.3c-0.4,0-0.9,0-1.3,0L405.8,122.3z"/>
<path class="st0" d="M303.1,93.2h-9.2c-0.3,0-0.5,0-0.8,0c-1.2,0-1.4-0.2-1.4-1.4c0.1-2.4,0.4-4.8,0.9-7.2
	c2.3-13.6,8.3-26.2,17.3-36.6c1.2-1.3,2.4-2.6,3.6-3.9c0.7-0.8,0.7-0.8,0-1.6l-8.3-9.5c-0.7-0.8-1.4-1.6-2.1-2.4s-0.7-0.8,0.1-1.5
	l6-5.2l9.4-8.2c0.9-0.8,0.9-0.8,1.7,0.1c3.3,3.8,6.7,7.6,10,11.4L349,48.6l19.6,22.6c3.1,3.5,6.1,7.1,9.2,10.6
	c0.7,0.8,0.7,0.8,0.1,1.7c-3.7,5.9-7.4,11.8-11.1,17.8c-0.9,1.5-0.9,1.4-2.1,0.1c-4.3-4.9-8.6-9.9-12.9-14.8l-15.7-18.1
	c-2.1-2.4-4.2-4.8-6.3-7.2c-0.7-0.8-0.7-0.8-1.5,0c-2.8,2.8-5.2,6-7.1,9.4c-3.2,5.5-5.4,11.5-6.4,17.7c-0.2,1.1-0.3,2.3-0.4,3.4
	s-0.2,1.3-1.4,1.3C309.8,93.2,306.4,93.2,303.1,93.2L303.1,93.2z"/>
<path class="st0" d="M384,9.3c0,0.6-0.3,1.2-0.6,1.6c-0.2,0.3-0.2,0.7,0.1,0.9c0,0,0.1,0.1,0.1,0.1c1.5,0.9,2.9,1.8,4.3,2.7
	c0.5,0.3,0.8,0.3,1.1-0.2c0.2-0.3,0.4-0.6,0.6-0.8c0.7-0.8,1.8-0.9,2.7-0.4c0.8,0.6,1.2,1.6,0.8,2.6c-0.2,0.5-0.8,1-0.5,1.6
	c0.3,0.5,0.9,0.7,1.3,1c1.8,1.1,1.4,1,0.6,2.4c-7.3,11.8-14.7,23.5-22,35.3c-1.1,1.8-0.9,1.7-2.7,0.7l-0.3-0.2
	c-1.2-0.7-1.2-0.7-2,0.4c-0.6,1-1.9,1.3-2.8,0.7c0,0,0,0-0.1,0c-0.9-0.6-1.2-1.8-0.7-2.8c0.6-1.3,0.6-1.3-0.6-2.1s-2.4-1.5-3.6-2.2
	c-0.5-0.3-0.9-0.3-1.2,0.2c-0.2,0.3-0.4,0.6-0.7,0.9c-0.7,0.7-1.8,0.8-2.6,0.2c-0.8-0.5-1.1-1.5-0.8-2.3c0.1-0.3,0.3-0.7,0.5-1
	c0.2-0.3,0.2-0.7-0.1-1c0,0-0.1-0.1-0.2-0.1c-0.6-0.4-1.3-0.8-1.9-1.2c-0.3-0.1-0.5-0.4-0.4-0.8c0-0.1,0.1-0.2,0.2-0.2
	c0.5-0.8,1-1.7,1.5-2.5l21.4-34.3c0.6-0.9,0.7-0.9,1.6-0.4l1.6,1c0.3,0.2,0.7,0.2,0.9-0.1c0.1-0.1,0.1-0.1,0.1-0.2
	c0.2-0.3,0.4-0.6,0.6-0.8c0.6-0.6,1.5-0.8,2.3-0.4C383.6,7.7,384.1,8.4,384,9.3z"/>
<path class="st0" d="M104.2,43.2c2.3,0,4.6,0,6.9,0c1.6,0,3.2,0.2,4.8,0.6c4.4,1,7.3,3.7,8.2,8.2c1,5.2,0.7,10.3-1.9,15
	c-1.9,3.6-5.4,6.1-9.4,6.7c-1.8,0.3-3.7,0.3-5.4-0.1c-4.4-0.8-7.9-4-9.2-8.3c-1.6-4.7-1.3-9.9,0.9-14.4c0.1-0.2,0.1-0.3,0.2-0.5
	c0.2-0.5,0.1-0.7-0.4-0.7c-0.8,0-1.5,0-2.3,0c-1.2,0-1.4-0.2-1.4-1.4s0-2.5,0-3.7s0.2-1.3,1.3-1.3C99.1,43.2,101.7,43.2,104.2,43.2
	L104.2,43.2z M109.7,49.6c-0.6,0-1.3,0-1.9,0c-0.8-0.1-1.5,0.4-1.7,1.1c-0.2,0.4-0.4,0.8-0.5,1.3c-0.9,2.8-1.2,5.8-0.9,8.7
	c0.1,1.2,0.4,2.4,1,3.5c0.6,1.4,1.8,2.4,3.2,2.9c2.7,1,5.7-0.2,6.9-2.8c1.7-3.5,2-7.4,1-11.2c-0.4-1.7-1.8-2.9-3.5-3.2
	C112.2,49.7,111,49.5,109.7,49.6z"/>
<path class="st0" d="M20,43.2h8.2c1.3,0,2.6,0.2,3.9,0.5c2.9,0.6,5.3,2.7,6.1,5.6c0.4,1.2,0.6,2.4,0.7,3.6c0.2,4,0.2,8.1,0.2,12.1
	c0,2.3-0.1,4.7-0.2,7c0,0.9-0.2,1.1-1,1.1c-1.6,0-3.2,0-4.8,0c-0.9,0-1.1-0.2-1.1-1.1c0-2.2-0.1-4.3,0.1-6.5c0.2-1.7,0.2-3.5,0-5.2
	c-0.2-2-0.1-4.1-0.2-6.1c-0.2-3.3-1.3-4.4-4.6-4.5c-1.9,0-3.8,0-5.6,0c-1,0-1.1,0.1-1.2,1.1c-0.4,3.2-0.5,6.4-0.4,9.7
	c0.1,2.2,0.2,4.5,0.2,6.8c0,1.5-0.2,3.1-0.4,4.6c-0.1,1.1-0.3,1.3-1.5,1.3c-3,0-6,0.1-8.9,0.1c-0.3,0-0.7,0-1-0.1
	c-0.3,0-0.6-0.3-0.6-0.7c0,0,0,0,0,0c0.2-1.6,0.4-3.3,0.6-4.9c0.1-0.5,0.5-0.5,0.9-0.5c0.9,0,1.9,0,2.8,0c1.3,0,1.4-0.1,1.3-1.4
	c0-0.8-0.2-1.7-0.2-2.5c0.1-3.8,0.4-7.6,0.9-11.4c0-0.2,0.1-0.5,0.1-0.8c0-0.9-0.1-1-1-1s-1.9,0-2.8,0c-0.5,0.1-0.9-0.2-1-0.7
	c0-0.1,0-0.2,0-0.3c0-1.5,0-3,0-4.5c0-0.8,0.2-1,1.1-1.1c0.3,0,0.7,0,1,0L20,43.2z"/>
<path class="st0" d="M66.1,54.5v-1.2c-0.1-2.8-2-4.4-5.1-4.1c-0.8,0.1-1.5,0.3-2.2,0.4s-1,0.1-1.1-0.7c-0.2-1.3-0.4-2.6-0.6-3.9
	c-0.2-0.5,0.1-1.1,0.6-1.3c0,0,0.1,0,0.1,0c1.5-0.7,3.2-1,4.8-1.1c1-0.1,2-0.1,3.1,0.1c3.4,0.5,6.1,3,7,6.3c0.8,3,0.9,6.1,0.1,9.1
	c-1.3,6.2-5.6,11.3-11.5,13.5c-2.9,1.2-6,1.9-9.2,2c-1.2,0.2-2.5,0.2-3.7,0c-1-0.2-1.1-0.2-1.1-1.2c-0.1-2.1-0.2-4.2-0.3-6.2
	c-0.2-3.5-0.4-7-0.7-10.5c-0.1-2.2-0.2-4.5-0.4-6.7c-0.1-1.4-0.2-2.7-0.2-4.1s0.1-1.5,1.4-1.7s2.8-0.3,4.2-0.5c0.9-0.1,1.1,0,1.3,1
	c0,0.2,0,0.5,0.1,0.8c0.3,4.9,0.6,9.8,0.8,14.8c0.1,2.2,0.3,4.3,0.4,6.5c0.1,1.1,0.2,1.2,1.3,1c2.3-0.3,4.5-1.1,6.3-2.5
	C64.5,61.8,66.2,58.3,66.1,54.5z"/>
<path class="st0" d="M171.7,106c-0.2,0.1-0.2,0.3-0.2,0.4c-0.1,3-0.2,6-0.2,9c0,2-0.3,3.9-0.2,5.9c0,1-0.1,1.1-1.1,1.1
	c-1.4,0-2.9,0-4.3,0c-1.2,0-1.3-0.1-1.3-1.4c0-4.6,0.4-9.2,1.4-13.7c0.4-2.1,0.8-4.2,1.3-6.2c0.2-0.6,0-1.3-0.4-1.8
	c-0.8-0.9-1.5-1.8-2.2-2.8s-0.6-0.9,0.1-1.6c1.2-1,2.4-2,3.7-3c0.7-0.6,0.7-0.6,1.3,0.2c2,2.5,4.1,5,6.1,7.5
	c2.2,2.7,4.4,5.4,6.6,8.1c0.2,0.2,0.4,0.6,0.8,0.6c0.3-0.5,0.6-1.1,0.8-1.7c0.7-1.8,1.3-3.7,1.7-5.6c0.2-0.8-0.1-1.7-0.9-2.2
	c-0.8-0.5-1.6-1-2.4-1.5c-0.4-0.2-0.6-0.6-0.5-1c0-0.1,0.1-0.2,0.1-0.2c0.7-1.2,1.4-2.5,2.1-3.8c0.2-0.4,0.6-0.6,1.1-0.5
	c0,0,0.1,0,0.1,0c1.9,0.6,3.6,1.5,5.3,2.5c1.7,1,2.5,3.1,2.1,5c-0.5,2.5-1.3,4.9-2.5,7.2c-0.9,1.9-1.9,3.7-2.9,5.5
	c-0.6,0.9-0.5,0.9,0.1,1.8c1.3,1.6,2.6,3.2,3.8,4.8c0.6,0.8,0.6,0.9-0.1,1.6c-1.1,1-2.2,1.9-3.4,2.9c-0.9,0.8-1,0.7-1.7-0.2
	l-9.5-11.8l-3.9-4.9C172.1,106.2,172,106,171.7,106z"/>
<path class="st0" d="M258.9,59.3c1-2.4,1.8-4.9,2.4-7.4c0.2-0.9-0.2-1.9-1.1-2.3c-0.7-0.4-1.4-0.8-2.1-1.2c-0.8-0.5-0.8-0.7-0.4-1.5
	c0.6-1.2,1.4-2.4,2-3.6c0.2-0.5,0.7-0.7,1.2-0.6c0.1,0,0.1,0,0.2,0.1c1.7,0.6,3.4,1.4,5,2.3c1.8,1,2.8,3.2,2.3,5.2
	c-0.4,2.2-1.1,4.4-2.1,6.4c-1,2.1-2.1,4.1-3.3,6.1c-0.6,1-0.6,1.1,0.1,2c1.2,1.5,2.5,3,3.7,4.6c0.8,0.9,0.8,1-0.1,1.7
	c-1.1,1-2.2,2-3.4,2.9c-0.8,0.6-0.9,0.6-1.6-0.2c-2.2-2.7-4.4-5.4-6.6-8.1l-7-8.6c-0.2-0.2-0.3-0.4-0.6-0.5
	c-0.3,0.2-0.2,0.5-0.2,0.8c0,4.6-0.4,9.1-0.3,13.6v0.3c-0.1,1.7-0.2,1.8-1.9,1.8c-1.1,0-2.3,0-3.4,0c-1.4,0-1.5-0.1-1.6-1.5
	c0-2.9,0.2-5.8,0.6-8.6c0.5-3.7,1.2-7.4,2.1-11c0.2-0.7,0-1.5-0.5-2c-0.8-0.9-1.5-1.8-2.2-2.7s-0.6-0.9,0.2-1.5
	c1.1-0.9,2.2-1.8,3.4-2.8c1-0.8,1-0.8,1.8,0.2c1.8,2.2,3.5,4.4,5.3,6.6l7.2,8.8C258.2,58.8,258.5,59.1,258.9,59.3z"/>
<path class="st0" d="M168.5,73.1h-10.6c-0.4,0-0.8,0-1.1,0c-0.3,0-0.6-0.2-0.6-0.6c0-0.1,0-0.1,0-0.2c0.1-1.5,0.2-3.1,0.4-4.6
	c0.1-0.8,0.3-1,1.2-1s1.7,0,2.6,0c3.1,0,6.2,0,9.3,0c1.3,0,1.4-0.1,1.4-1.4c0-3.5,0-7-0.1-10.6c0-0.9-0.2-1.8-0.4-2.6
	c-0.3-1.1-1.3-2-2.4-2.2c-0.7-0.2-1.5-0.2-2.3-0.2c-2.3,0-4.7,0-7,0c-1.2,0-1.3-0.1-1.3-1.3s0-2.6,0-4c0-1,0.1-1.2,1.1-1.2
	c4,0,7.9-0.3,11.9,0.2c3.4,0.5,5.9,2.2,7,5.7c0.3,1,0.5,2,0.6,3c0,2.8,0.4,5.5,0.1,8.3c-0.1,1.8-0.1,3.6-0.1,5.4
	c0,0.6,0.3,0.9,0.9,0.9s1.5,0,2.3,0c1,0,1.1,0.2,1,1.2c-0.2,1.4-0.5,2.8-0.8,4.1c-0.2,1-0.3,1.1-1.3,1.1c-1.1,0-2.3,0-3.4,0
	L168.5,73.1z"/>
<path class="st0" d="M257.4,122.4h-10.6c-0.3,0-0.7,0-1,0c-0.8-0.1-1-0.2-0.9-1c0.1-1.5,0.3-3,0.5-4.4c0-0.6,0.4-1,1-1
	c0,0,0.1,0,0.1,0h12c1.4,0,1.4-0.1,1.4-1.4c0-2.8,0-5.7,0-8.6c0-1.3-0.1-2.7-0.4-4c-0.2-1.7-1.8-2.9-3.5-2.8c-2.6,0-5.2,0-7.8,0
	c-2,0-2,0-2-2c0-1.1,0-2.1,0-3.2s0.1-1.3,1.2-1.3c3.6,0,7.2-0.1,10.9,0c4.5,0.2,7.3,2.4,8.2,6.8c0.4,1.8,0.5,3.6,0.5,5.4
	c0,3,0,6-0.1,9c0,0.3,0,0.7,0,1c-0.1,0.5,0.3,0.9,0.7,0.9c0.1,0,0.2,0,0.3,0c0.7,0,1.4,0,2,0c1.2,0,1.3,0.2,1.1,1.4
	s-0.5,2.6-0.7,3.9c-0.2,1.1-0.3,1.2-1.5,1.2c-3.1,0-6.1,0-9.2,0L257.4,122.4z"/>
<path class="st0" d="M127.6,99.1c-1.8,0-3.6,0-5.4,0c-1.3,0-1.4-0.1-1.7-1.4c-0.5-2.4-0.9-4.8-1.1-7.2c-0.2-1.8-0.3-3.7-0.4-5.6
	c0-0.3,0-0.6,0-0.9c0-0.7,0.4-1,1-1.1c1.4-0.2,2.9-0.3,4.3-0.5c1.1-0.1,1.3,0.1,1.4,1.2c0.1,2.5,0.4,5.1,0.8,7.6
	c0.2,1.3,0.2,1.4,1.6,1.4h10.2c1.5,0,1.6,0.1,2.1,1.5c1.4,4.2,1.1,8.7-0.9,12.6c-1.2,2.5-2.8,4.9-4.7,6.9c-2.9,3.2-6,6.2-9.3,8.9
	c-0.9,0.8-1,0.8-1.7-0.1c-1-1.2-2-2.3-2.9-3.5c-0.6-0.7-0.6-0.8,0-1.3c2.1-2,4.3-3.9,6.4-5.9c2.3-2.1,4.3-4.5,5.9-7.1
	c0.8-1.3,1.2-2.8,1.2-4.4c-0.1-1-0.2-1.2-1.2-1.2C131.1,99.1,129.3,99.1,127.6,99.1L127.6,99.1z"/>
<path class="st0" d="M207,73.1h-6.1c-0.3,0-0.7,0-1,0c-0.4,0-0.8-0.3-0.8-0.7c0-0.1,0-0.1,0-0.2c0.2-1.6,0.4-3.1,0.6-4.7
	c0-0.4,0.4-0.8,0.9-0.7h1.1h5.3c1.4,0,1.5-0.1,1.4-1.4c0-1.8-0.2-3.6-0.2-5.3c-0.1-3-0.4-6-0.3-9c0-1.1-0.1-1.2-1.3-1.2s-2.6,0-4,0
	c-0.9,0-1.1-0.2-1.1-1c0-1.3,0-2.7,0-4.1c0-1.1,0.2-1.3,1.4-1.3c3.4,0,6.9,0,10.3,0h0.4c0.8,0.1,0.9,0.2,1,1c0.2,1.5,0.2,3,0.2,4.5
	c0,3.3,0.2,6.6,0.3,9.9c0.1,2.8,0.1,5.7,0.3,8.5c0,1.7-0.1,3.5-0.4,5.2c0,0.4-0.4,0.8-0.9,0.7c-0.5,0-1,0-1.5,0L207,73.1z"/>
<path class="st0" d="M232.2,112.4c0-2.8,0-5.6,0-8.4c0-0.8-0.1-1.5-0.3-2.3c-0.2-1.5-1.5-2.6-3.1-2.6c-0.8-0.1-1.5,0-2.3,0
	c-2.5,0-4.9,0-7.4,0c-1.3,0-1.5-0.2-1.5-1.5s0-2.4,0-3.6s0.1-1.4,1.4-1.4c1.5,0,3,0,4.5,0c2.3,0,4.6,0,6.9,0
	c2.5-0.1,4.9,0.9,6.6,2.8c1.4,1.7,2.2,3.9,2.2,6.1c0.4,6.4,0.1,12.8,0.2,19.1c0,0.3,0,0.6-0.1,0.9c0,0.5-0.4,0.9-0.9,0.9
	c0,0,0,0,0,0h-5.3c-0.4,0.1-0.8-0.2-0.9-0.7c0-0.1,0-0.1,0-0.2c0-0.9,0-1.8,0-2.7L232.2,112.4L232.2,112.4z"/>
<path class="st0" d="M150.6,62.3c0,3.1,0,6.1,0,9.2c0,0.3,0,0.5,0,0.8c0,0.5-0.3,0.8-0.8,0.8c-1.8,0-3.6,0-5.5,0
	c-0.6,0-0.9-0.5-0.9-1c0-1.6,0-3.1,0.1-4.7c0.2-3.3,0.2-6.7,0-10.1c-0.1-0.8-0.1-1.6-0.1-2.4c0-0.9-0.1-1.9-0.4-2.8
	c-0.3-1.1-1.2-1.9-2.3-2.1c-0.7-0.2-1.5-0.3-2.3-0.3c-2.7,0-5.4,0-8.2,0c-1.3,0-1.4-0.1-1.4-1.4s0-2.5,0-3.8c0-1,0.2-1.3,1.2-1.2
	c4.2,0,8.4-0.2,12.6,0.2c3.6,0.1,6.6,2.7,7.4,6.2c0.3,1.2,0.5,2.5,0.5,3.8c0,1.5,0,3,0.1,4.5S150.7,60.8,150.6,62.3L150.6,62.3z"/>
<path class="st0" d="M113.1,111v16.6c0,1.7,0,1.7-1.7,1.7c-1.4,0-2.9,0-4.3,0c-0.9,0-1-0.2-1.1-1c0-0.4,0-0.9,0-1.3v-25.9
	c0-1.9,0-2-2-1.9c-2.8,0-2.4-0.2-2.4-2.5c0-0.9,0-1.9,0-2.8s0.1-1.2,1.2-1.2c2.5,0,4.9,0,7.4,0h2c0.4-0.1,0.8,0.2,0.9,0.7
	c0,0.1,0,0.1,0,0.2c0,0.4,0,0.8,0,1.3L113.1,111z"/>
<path class="st0" d="M233.1,58.2c0,4.3,0,8.7,0,13c0,1.8-0.1,1.9-1.9,1.9c-1.4,0-2.7,0-4.1,0c-1,0-1.2-0.2-1.2-1.2
	c0-0.6,0-1.1,0-1.7c0-6.1,0-12.2,0-18.2c0-0.3,0-0.6,0-0.9c0-1.3-0.1-1.4-1.4-1.4h-2.2c-0.5,0.1-0.9-0.3-1-0.8c0-0.1,0-0.1,0-0.2
	c0-1.5,0-3,0-4.5c-0.1-0.5,0.3-0.9,0.8-1c0.1,0,0.2,0,0.2,0h0.5c2.9,0,5.9,0,8.8,0c1.3,0,1.5,0.2,1.5,1.5
	C233.1,49.2,233.1,53.7,233.1,58.2z"/>
<path class="st0" d="M21.2,149c0.5,0.4,1,0.7,1.5,1.1c2.7,2.2,2,7.3-1.3,8.8c-1.1,0.5-2.3,0.8-3.5,0.8c-2.4,0-4.8,0-7.3,0
	c-1.2,0-1.3-0.1-1.3-1.3c0-5.7,0-11.5,0-17.2c0-1.2,0.2-1.4,1.4-1.4c2.3-0.1,4.6,0,6.9,0.2c0.6,0.1,1.3,0.2,1.9,0.4
	c2.6,0.8,4,3.5,3.2,6c-0.2,0.8-0.7,1.5-1.2,2.1C21.4,148.6,21.2,148.8,21.2,149z M13.6,153.9L13.6,153.9c0,0.6,0,1.2,0,1.8
	s0.3,0.8,0.9,0.8c1.3,0,2.7-0.1,4-0.3c0.8-0.1,1.4-0.7,1.6-1.4c0.5-1.2,0-2.7-1.3-3.2c-0.2-0.1-0.4-0.1-0.6-0.2
	c-1.3-0.2-2.6-0.2-3.9-0.1c-0.4,0-0.7,0.2-0.7,0.6c0,0,0,0.1,0,0.1C13.5,152.6,13.6,153.2,13.6,153.9L13.6,153.9z M13.6,145.5v1.8
	c0,0.5,0.2,0.7,0.7,0.7c0.9,0.1,1.9,0,2.8-0.1c1.3-0.3,2.1-1.6,1.7-2.9c-0.2-0.8-0.8-1.5-1.6-1.7c-0.9-0.2-1.9-0.3-2.9-0.2
	c-0.5,0-0.7,0.3-0.7,0.8L13.6,145.5z"/>
<path class="st0" d="M128.1,146.7c0-1.9,0-3.8,0-5.7c0-1.1,0.2-1.3,1.2-1.3c0.6,0,1.3,0,1.9,0c0.8,0.1,1,0.2,1,1.1c0,0.7,0,1.4,0,2
	c0,2.9,0,5.9,0,8.8c0,0.8,0.1,1.5,0.3,2.3c0.4,1.3,1.4,2.3,2.8,2.5c1,0.2,2,0.2,2.9,0c1.6-0.3,2.8-1.5,3-3.1
	c0.2-0.9,0.3-1.8,0.3-2.6c0-3.1,0-6.1,0-9.2c0-0.3,0-0.7,0-1c0-0.4,0.3-0.7,0.6-0.7c0,0,0,0,0.1,0c0.9,0,1.7,0,2.6,0
	c0.5,0,0.9,0.4,0.9,0.8c0,0,0,0.1,0,0.1c0,0.3,0,0.7,0,1c0,2.6,0,5.1,0,7.6c0,1.3-0.1,2.6-0.3,3.9c-0.3,2.8-2.1,5.3-4.8,6.2
	c-2.7,1-5.6,0.9-8.2-0.2c-2.1-0.9-3.7-2.7-4.1-5c-0.2-0.9-0.3-1.8-0.3-2.7L128.1,146.7L128.1,146.7z"/>
<path class="st0" d="M88.8,52.3c0,2.5,0,5,0,7.5c0,1.4-0.2,1.5-1.6,1.5c-1.2,0-2.5,0-3.7,0c-1.8,0-1.9-0.1-1.9-1.8
	c0-2.6,0-5.1,0-7.7c0-0.3,0-0.6,0-0.9c0-1.2-0.1-1.3-1.3-1.3h-1.9c-0.4,0-0.8-0.3-0.9-0.7c0-0.1,0-0.1,0-0.2v-4.6
	c-0.1-0.5,0.3-0.9,0.7-1c0.1,0,0.2,0,0.2,0H79c2.8,0,5.6,0,8.4,0c1.2,0,1.4,0.2,1.4,1.4C88.8,47.2,88.8,49.7,88.8,52.3z"/>
<path class="st0" d="M194.8,52.3c0,2.5,0,5,0,7.5c0,1.3-0.1,1.5-1.4,1.5c-1.4,0-2.9,0-4.3,0c-1.1,0-1.2-0.2-1.2-1.3
	c0-2.8,0-5.6,0-8.4c0-0.3,0-0.5,0-0.8c0-1.1-0.1-1.2-1.1-1.2c-0.7,0-1.4,0-2,0c-0.8,0-1-0.2-1.1-0.9c0-1.5,0-3.1,0-4.6
	c0-0.5,0.3-0.8,0.7-0.9c0,0,0.1,0,0.1,0c0.4,0,0.8,0,1.1,0c2.6,0,5.1,0,7.6,0c1.5,0,1.6,0.1,1.6,1.6
	C194.9,47.3,194.9,49.8,194.8,52.3z"/>
<path class="st0" d="M157.6,101.7c0,2.5,0,5,0,7.5c0,1.3-0.1,1.4-1.4,1.4c-1.5,0-3,0-4.5,0c-1,0-1.2-0.2-1.2-1.2c0-2.7,0-5.3,0-8
	c0-0.3,0-0.6,0-0.9c0-1.3-0.1-1.3-1.4-1.3c-0.6,0-1.2,0-1.8,0c-0.9-0.1-1-0.2-1.1-1.1c0-1.4,0-2.9,0-4.3c0-0.9,0.2-1,1.1-1
	c3,0,5.9,0,8.9,0c1.1,0,1.2,0.1,1.3,1.2C157.6,96.5,157.6,99.1,157.6,101.7z"/>
<path class="st0" d="M39.8,151.8c0,1.1,0,2.3,0,3.4c0,0.6,0.1,1.2,0.8,1.4c0.3,0.1,0.6,0.4,0.5,0.7c0,0,0,0,0,0c0,0.2,0,0.4,0,0.6
	c0,1.8-0.2,2-2.1,1.8c-0.9,0-1.7-0.3-2.3-0.9c-0.4-0.5-0.8-0.4-1.3-0.1c-1.3,0.8-2.9,1.2-4.4,1.1c-2.5,0-4.5-2.1-4.5-4.6
	c0-2,1.3-3.8,3.3-4.3c0.9-0.3,1.8-0.4,2.8-0.4h1.7c1.2,0,1.4-0.1,1.5-0.8c0.2-1.2-0.1-2-1.1-2.3c-1.2-0.2-2.4-0.2-3.5,0
	c-0.6,0.1-1.2,0.2-1.9,0.4c-0.3,0.1-0.7-0.1-0.9-0.4c0,0,0-0.1,0-0.1c0,0,0-0.1,0-0.1c-0.7-2.3-0.8-2.2,1.5-2.9
	c1.9-0.5,4-0.6,5.9-0.3c2.8,0.3,4.1,1.9,4.2,4.7C39.8,149.8,39.8,150.8,39.8,151.8L39.8,151.8z M33.5,153.2c-0.2,0-0.8,0.1-1.3,0.1
	c-0.2,0-0.4,0.1-0.6,0.2c-0.7,0.3-1.1,1.1-0.9,1.9c0.1,0.7,0.7,1.2,1.4,1.2c1,0.1,2.1-0.1,3-0.6c0.3-0.1,0.5-0.3,0.6-0.6
	c0.5-1.6-0.1-2.4-1.7-2.3L33.5,153.2z"/>
<path class="st0" d="M98.5,151.9c0,1.1,0,2.3,0,3.4c0,0.6,0.2,1.1,0.8,1.3s0.7,0.5,0.6,1.1c0,0.2-0.1,0.4-0.1,0.6
	c-0.1,1.5-0.3,1.7-1.8,1.5c-1,0-1.9-0.4-2.7-1c-0.3-0.4-0.8-0.4-1.1-0.2c0,0-0.1,0-0.1,0.1c-1.4,0.9-3,1.3-4.6,1.1
	c-2.3-0.1-4.1-1.8-4.3-4.1c-0.2-2.1,1.1-4.1,3.1-4.7c1.3-0.4,2.6-0.6,3.9-0.5c0.4,0,0.8,0,1.2,0c1.1,0,1.3-0.2,1.1-1.3
	c0-1-0.8-1.8-1.8-1.9c-0.1,0-0.1,0-0.2,0c-1.4-0.1-2.9,0-4.3,0.4c-1,0.2-1,0.2-1.3-0.8c-0.6-2-0.6-2.1,1.4-2.6
	c2-0.5,4.1-0.6,6.1-0.3c2.9,0.4,4.1,1.9,4.1,4.8C98.5,149.9,98.5,150.9,98.5,151.9L98.5,151.9z M94.6,154.5c0-0.4,0.2-1.1-0.5-1.2
	c-1.3-0.2-2.5-0.1-3.8,0.3c-0.7,0.3-1.1,1.1-0.9,1.9c0.1,0.7,0.7,1.2,1.4,1.2c0.9,0.1,1.8-0.1,2.6-0.4
	C94.5,155.9,94.6,155.8,94.6,154.5z"/>
<path class="st0" d="M199.9,153.2c-1.3,0-2.6,0-3.8,0c-0.9,0-0.9,0.2-0.8,1c0.2,1,1,1.9,2,2.1c1.2,0.4,2.5,0.4,3.8,0.2
	c0.7-0.1,1.4-0.2,2.1-0.4c0.4-0.1,0.9,0.1,1,0.6c0,0,0,0,0,0c0.8,2,0.5,2.4-1.5,2.9c-1.9,0.4-3.9,0.5-5.8,0.2c-3-0.5-4.8-2-5.4-4.9
	c-0.5-2.2-0.4-4.5,0.3-6.6c0.9-2.6,2.7-4,5.7-4.3c0.6,0,1.2,0,1.8,0c2.3-0.1,4.4,1.4,5.2,3.6c0.5,1.4,0.8,3,0.7,4.5
	c-0.1,0.9-0.2,1.1-1.2,1.1C202.6,153.2,201.2,153.2,199.9,153.2L199.9,153.2z M198.1,150.3h2c0.5,0,0.7-0.2,0.7-0.7
	c0-1.4-1.1-2.6-2.6-2.7c-1.5,0-2.7,1.1-2.9,2.6c-0.1,0.5,0.1,0.8,0.7,0.8L198.1,150.3z"/>
<path class="st0" d="M102.8,151.8c0-2.1,0-4.2,0-6.2c0-1.3,0.1-1.4,1.4-1.4c0.6,0,1.1,0,1.7,0s0.8,0.1,0.9,0.5
	c0.2,0.9,0.7,0.5,1.1,0.2c1.6-1,3.4-1.3,5.3-1c1.8,0.2,3.3,1.6,3.5,3.4c0.1,0.5,0.2,1.1,0.2,1.6c0,3.1,0,6.1,0,9.2
	c0,1.4-0.1,1.5-1.4,1.5c-0.6,0-1.2,0-1.8,0c-0.4,0-0.8-0.3-0.8-0.7c0,0,0-0.1,0-0.1c0-0.3,0-0.7,0-1v-7.5c0-0.4,0-0.8,0-1.1
	c0-0.9-0.7-1.7-1.6-1.7c0,0,0,0-0.1,0c-1.2-0.1-2.5,0.2-3.6,0.8c-0.6,0.3-0.6,0.9-0.6,1.4v7.8c0,0.4,0,0.9,0,1.3
	c0.1,0.5-0.3,0.9-0.7,0.9c-0.1,0-0.1,0-0.2,0c-0.6,0-1.3,0-1.9,0c-1,0-1.2-0.1-1.2-1.2c0-1.9,0-3.8,0-5.7L102.8,151.8L102.8,151.8z"
	/>
<path class="st0" d="M261.1,155.6c0.7-2.1,1.4-4.1,2.1-6.1c0.5-1.4,1-2.8,1.4-4.2c0.1-0.7,0.7-1.1,1.4-1c0.6,0,1.2,0,1.8,0
	c1.1,0,1.2,0.2,0.8,1.2s-0.8,2.4-1.2,3.6c-1.8,5.1-3.6,10.2-5.4,15.3c-0.5,1.4-0.5,1.4-2,1.4c-0.5,0-1,0-1.5,0
	c-0.7,0-0.8-0.2-0.6-0.9c0.4-1.2,0.8-2.4,1.2-3.6c0.1-0.3,0.2-0.6,0.3-0.9s0-0.7-0.4-0.7c-0.7-0.1-0.9-0.6-1.1-1.1
	c-1.5-4.4-2.9-8.7-4.4-13.1c-0.4-1.1-0.3-1.3,0.9-1.3c0.6,0,1.2,0,1.8,0c1.2,0,1.3,0,1.6,1.2c0.8,2.6,1.6,5.3,2.4,8
	c0.2,0.7,0.4,1.5,0.6,2.2L261.1,155.6z"/>
<path class="st0" d="M153.9,145.6c1.3-0.9,2.7-1.5,4.2-1.7c1.2-0.1,2.4,0.1,3.5,0.6c1.2,0.7,2,1.9,2,3.3c0.3,3.6,0.3,7.2,0.2,10.8
	c0,0.9-0.2,1-1.1,1.1c-0.5,0-0.9,0-1.4,0c-1.6,0-1.7,0-1.7-1.6c0-2.6,0-5.1,0-7.6c0-0.4,0-0.8,0-1.1c0-1-0.8-1.8-1.8-1.8
	c-0.1,0-0.1,0-0.2,0c-1.2,0-2.4,0.3-3.4,0.8c-0.6,0.3-0.6,0.8-0.6,1.3c0,2.7,0,5.4,0,8c0,2.1,0,2.1-2.1,2.1c-1.9,0-1.9,0-1.9-1.9
	V146c0-0.3,0-0.7,0-1c0-0.4,0.3-0.8,0.7-0.8c0,0,0.1,0,0.1,0c0.6,0,1.1,0,1.7,0C153.5,144.2,153.5,144.2,153.9,145.6z"/>
<path class="st0" d="M181.9,155.5c0.5-1.9,1.2-3.6,1.8-5.4c0.5-1.5,1-3.1,1.6-4.6c0.4-1.2,0.5-1.2,1.7-1.3c0.7,0,1.4,0,2.2,0
	c0.4,0,0.6,0.2,0.5,0.7c-0.1,0.2-0.1,0.5-0.2,0.7l-4.9,12.8c-0.5,1.3-0.5,1.3-1.9,1.3h-2.6c-0.5,0.1-1-0.3-1.2-0.8
	c-0.1-0.3-0.3-0.6-0.4-0.9c-1.4-4-2.8-8-4.1-11.9c-0.6-1.8-0.6-1.8,1.2-1.8c0.4,0,0.8,0,1.1,0c1.3,0,1.4,0,1.8,1.3
	c1,3.1,1.9,6.2,2.8,9.3C181.5,155.1,181.7,155.3,181.9,155.5z"/>
<path class="st0" d="M224.1,160.1c-1.3-0.1-2.6-0.2-3.9-0.5c-0.6-0.1-0.9-0.4-0.8-1.1c0-0.1,0-0.2,0-0.3c0.2-2,0.2-2,2.2-1.8
	c0.9,0.1,1.8,0.2,2.7,0.2c0.6,0,1.3-0.1,1.9-0.3c0.4-0.1,0.8-0.4,0.8-0.9c0-0.4-0.2-0.8-0.6-1c-0.5-0.3-1.1-0.6-1.6-0.7
	c-1-0.3-2-0.7-2.9-1.2c-1.9-1-2.9-3.3-2.1-5.3c0.4-1.3,1.4-2.3,2.7-2.7c2.3-0.8,4.8-0.8,7.1,0c0.6,0.2,0.8,0.6,0.6,1.2
	c-0.3,2-0.5,2.1-2.5,1.8c-0.9-0.2-1.9-0.3-2.8-0.1c-0.4,0-0.8,0.2-1.1,0.6c-0.3,0.5-0.2,1.1,0.2,1.5c0.5,0.4,1.1,0.7,1.7,0.8
	c1,0.3,2,0.8,3,1.4c2.1,1.1,2.9,3.7,1.8,5.8c-0.4,0.8-1.1,1.4-1.9,1.8C227.2,159.8,225.7,160.2,224.1,160.1z"/>
<path class="st0" d="M245,141.1c1.9,0,2-0.1,2,1.9c0,1,0.1,1.1,1.1,1.1c0.9,0,1.7,0,2.5,0s1,0.2,1.1,1.1c0,0.1,0,0.3,0,0.4
	c0,1.6-0.1,1.7-1.7,1.8h-2.3c-0.4-0.1-0.7,0.2-0.8,0.6c0,0.1,0,0.1,0,0.2c0,2.3,0,4.6,0,6.9c0,1,0.5,1.4,1.6,1.4
	c0.8,0,1.6,0,2.4-0.2c0.8-0.1,1,0,1.2,0.8c0.4,2.5,0.6,2.4-1.8,2.8c-1.2,0.2-2.5,0.2-3.7,0c-2.2-0.2-3.8-2.1-3.7-4.3
	c0-2.2,0-4.3,0-6.5c0-0.3,0-0.6,0-0.9c0-0.5-0.2-0.8-0.8-0.8c-0.3,0-0.5,0-0.8,0c-0.7-0.1-0.8-0.2-0.8-1.3c0-0.6-0.4-1.5,0.7-1.8
	c0.5-0.1,1.2,0.2,1.5-0.4c0.1-0.5,0.2-1,0.1-1.5c0-1,0.1-1.1,1.1-1.1C244.4,141.1,244.7,141.1,245,141.1z"/>
<path class="st0" d="M204.6,92.7c2,0,4,0,6,0c1.2,0,1.2,0.1,1.1,1.2s-0.2,2.6-0.4,3.9c-0.1,1-0.3,1.1-1.2,1.1c-4.1,0-8.2,0-12.4,0
	c-1,0-1.1-0.1-1-1.1c0.1-1.3,0.2-2.6,0.4-3.9c0.1-1.1,0.3-1.2,1.4-1.2C200.5,92.6,202.6,92.7,204.6,92.7z"/>
<path class="st0" d="M80.7,147.9c0,2.3,0,4.5,0,6.8c0,1.4,0.1,1.5,1.5,1.6c0.5,0,1,0.4,1,0.9c0,0,0,0,0,0c0.5,2.2,0.4,2.3-1.8,2.6
	c-0.2,0-0.5,0.1-0.8,0.1c-2.5,0-3.9-1.3-3.9-3.5c0-5.1,0-10.2,0-15.3c0-1.2,0.1-1.3,1.3-1.3c0.4,0,0.8,0,1.2,0
	c1.4,0,1.5,0.1,1.5,1.4C80.7,143.4,80.7,145.6,80.7,147.9z"/>
<path class="st0" d="M212.4,145.5c0.6-0.4,1.1-0.7,1.6-1c1-0.5,2.1-0.7,3.2-0.5c0.9,0.1,1,0.3,0.9,1.2c0,0.2-0.1,0.4-0.1,0.6
	c-0.3,1.6-0.3,1.6-2,1.6c-0.6,0-1.2,0.1-1.8,0.3c-1.6,0.5-2,1.1-2,2.8c0,2.6,0,5.2,0,7.8c0,1.4-0.1,1.4-1.4,1.5h-1.4
	c-1.2,0-1.3-0.1-1.3-1.4c0-4.2,0-8.4,0-12.6c0-1.3,0.2-1.5,1.5-1.5c0.4,0,0.9,0,1.3,0C212,144.2,212,144.2,212.4,145.5z"/>
<path class="st0" d="M72.8,149.7c0,2.9,0,5.7,0,8.5c0,1.4-0.1,1.4-1.4,1.5h-1.4c-1.2,0-1.3-0.1-1.3-1.4c0-5.7,0-11.5,0-17.2
	c0-1.2,0.2-1.4,1.4-1.4c0.5,0,0.9,0,1.4,0c1.2,0,1.3,0.1,1.3,1.3c0,1.9,0,3.7,0,5.6V149.7z"/>
<path class="st0" d="M48.4,145.6c1.2-1.1,2.7-1.7,4.3-1.6c1.3,0.1,1.4,0.3,1.2,1.6c0,0.1,0,0.2,0,0.2c-0.3,1.6-0.3,1.6-2,1.6
	c-0.6,0-1.3,0.1-1.9,0.3c-1.6,0.6-1.9,1-1.9,2.7c0,2.6,0,5.2,0,7.8c0,1.3-0.1,1.4-1.5,1.4c-3,0-2.7,0.3-2.7-2.6c0-3.6,0-7.2,0-10.8
	c0-0.4,0-0.8,0-1.1c0-0.4,0.3-0.8,0.7-0.8c0,0,0.1,0,0.1,0c0.8,0,1.6,0,2.4,0S48.1,144.9,48.4,145.6z"/>
<path class="st0" d="M171.8,152c0,2.1,0,4.2,0,6.2c0,1.3-0.1,1.4-1.4,1.4c-0.6,0-1.2,0-1.8,0c-0.4,0.1-0.8-0.3-0.9-0.7
	c0-0.1,0-0.1,0-0.2c0-0.3,0-0.6,0-0.9v-12c0-0.2,0-0.5,0-0.8c0-0.6,0.3-1,0.9-0.9s1.3,0,1.9,0c1,0,1.2,0.1,1.2,1.2
	c0,1.9,0,3.8,0,5.7L171.8,152L171.8,152z"/>
<path class="st0" d="M238.2,151.9c0,2,0,4.1,0,6.1c0,1.5-0.1,1.6-1.6,1.6h-1.8c-0.4,0-0.7-0.2-0.8-0.6c0-0.1,0-0.1,0-0.2
	c0-0.2,0-0.4,0-0.6c0-4.2,0-8.3,0-12.5c0-1.4,0.1-1.5,1.5-1.5c0.4,0,0.9,0,1.3,0c1.1,0,1.3,0.2,1.4,1.4
	C238.2,147.7,238.2,149.8,238.2,151.9L238.2,151.9z"/>
<path class="st0" d="M60.5,153.5c-1,0-2,0-3.1,0s-1.1-0.2-1.2-1.1c-0.1-2.2-0.1-2.3,2.2-2.3c1.6,0,3.1,0,4.7,0
	c1.3,0,1.4,0.1,1.4,1.4c0.1,2,0,2-2,2L60.5,153.5z"/>
<path class="st0" d="M236,142.3c-1-0.7-1.9-1.6-2.6-2.6c0-0.3,0.1-0.5,0.3-0.6c0.5-0.6,1.1-1.1,1.6-1.6s0.8-0.5,1.2,0
	c0.6,0.6,1.2,1.2,1.8,1.8c0.2,0.2,0.4,0.5,0.1,0.8c-0.7,0.7-1.4,1.4-2.1,2.2C236.3,142.3,236.1,142.3,236,142.3z"/>
<path class="st0" d="M172.3,139.6c0,0.2-0.1,0.5-0.2,0.6l-1.8,1.8c-0.2,0.3-0.6,0.4-0.9,0.2c-0.1,0-0.1-0.1-0.2-0.2
	c-0.6-0.6-1.1-1.2-1.7-1.7c-0.3-0.2-0.4-0.6-0.2-0.9c0-0.1,0.1-0.1,0.2-0.2c0.6-0.6,1.1-1.1,1.7-1.7c0.2-0.3,0.7-0.4,1-0.2
	c0.1,0.1,0.1,0.1,0.2,0.2c0.5,0.6,1.1,1.1,1.6,1.6C172.1,139.3,172.2,139.4,172.3,139.6z"/>
</svg>
