<?xml version="1.0" encoding="utf-8"?>
<!-- Generator: Adobe Illustrator 25.1.0, SVG Export Plug-In . SVG Version: 6.00 Build 0)  -->
<svg version="1.1" id="Layer_1" xmlns="http://www.w3.org/2000/svg" xmlns:xlink="http://www.w3.org/1999/xlink" x="0px" y="0px"
	 viewBox="0 0 489.7 120" style="enable-background:new 0 0 489.7 120;" xml:space="preserve">
<style type="text/css">
	.st0{fill:#FFFFFF;}
</style>
<path class="st0" d="M310.1,21.9c8.8-5.3,16.2-7.3,25.9-6.5c-24.5-18.2-33.8,11.2-59.5,3.5c-9.7-2.9-15.3-11.2-27-9.4
	c-15.3,2-26.2,19.2-50.3,5.3c13.6,19.2,30.9,13.8,43,6.8c5.9-3.5,18.2-9.4,25-5.6c1.8,1.2,3.3,2.5,4.7,4.1c1.3,1.4,2.8,2.7,4.4,3.9
	l0,0c1,0.8,2.1,1.5,3.2,2c-12.1,4.7-23.3,15.3-43.6,3.6c13.6,19.2,30.9,13.8,43,6.8c5.9-3.6,18.2-9.4,25-5.6
	c1.7,1.2,3.3,2.5,4.7,4.1c1.3,1.4,2.8,2.7,4.4,3.9l0,0c10.9,7.7,23.9,4.1,34.5-2c8.8-5.3,16.2-7.3,25.9-6.5
	C349,12.1,339.6,41.5,314,33.8c-5-1.5-9.1-4.4-13.2-6.8C303.4,25.4,306.9,23.7,310.1,21.9"/>
<path class="st0" d="M46.5,93.1h5.6c-0.5,4.9-3,9.3-6.8,12.4c-3.9,3.2-8.5,4.7-14.1,4.7c-6.8,0-12.4-2.1-16.5-6.5
	c-4.3-4.4-6.6-10.3-6.5-16.5c0-6.8,2-12.4,6.1-16.5s9.7-6.2,16.5-6.2c5-0.1,9.8,1.4,13.8,4.4c3.7,2.7,6.1,6.7,6.8,11.2h-5.9
	c-0.8-3.1-2.7-5.8-5.3-7.7c-2.8-1.8-6.1-2.7-9.4-2.7c-5,0-9.1,1.5-12.4,4.7C15.5,77.6,14,81.7,14,87s1.5,9.4,4.7,12.6
	c2.9,3.2,7.3,4.7,12.4,4.7c3.6,0,7.1-1.1,10-3.2C43.9,99.4,45.8,96.5,46.5,93.1 M59.2,108.8V50.5h5.3v23.3c2-2.8,4.6-5,7.7-6.5
	c3.2-1.6,6.7-2.4,10.3-2.4c5.6,0,9.7,1.2,12.4,3.9S99,75.3,99,80.9v27.7h-5.6V84.7c0-5.3-0.9-9.2-2.7-11.2s-4.7-3.2-9.2-3.2
	c-4.4-0.1-8.7,1.3-12.1,4.1c-3.1,2.5-4.9,6.3-4.7,10.3v24.4h-5.5L59.2,108.8L59.2,108.8z M152.2,103.5v4.7c-0.8,0.3-1.5,0.5-2.4,0.6
	c-0.9,0-1.5,0.3-2.4,0.3c-1.5,0.1-3-0.5-4.1-1.5c-0.9-0.9-1.5-2.7-1.5-5.3c-2.2,2.6-4.9,4.6-8,5.9c-3.4,1.2-7,1.8-10.6,1.7
	c-5.3,0-9.1-1.2-12.1-3.2c-2.9-2.4-4.1-5.3-4.1-9.4c-0.1-1.7,0.3-3.5,1.2-5c0.7-1.5,1.8-2.9,3.2-3.9s3-1.6,4.7-2
	c3.4-0.8,6.9-1.4,10.3-1.7c1.5-0.1,3-0.3,4.4-0.6c7.1-0.9,10.3-2.9,10.3-6.2c0.1-2.2-1-4.3-2.9-5.3c-2.1-1.2-5-1.7-8.8-1.7
	c-5,0-8.5,0.9-11.2,2.4c-2.5,1.6-4.1,4.4-4.1,7.3h-5.6c0.3-5,2-8.8,5.6-11.2c3.2-2.4,8.2-3.9,14.4-3.9c4.1,0,7.3,0.3,9.7,1.2
	c2.3,0.7,4.3,2.1,5.9,3.9c0.9,1.1,1.5,2.5,1.7,3.9c0.4,2.1,0.6,4.3,0.6,6.5v18.5c0,1.2,0.2,2.4,0.6,3.6c0.3,0.6,0.9,0.6,1.7,0.6h1.2
	C150.8,103.5,151.5,103.5,152.2,103.5L152.2,103.5z M141.5,85.5c-1.5,0.8-3.1,1.3-4.7,1.5c-3.3,0.8-6.6,1.4-10,1.7
	c-6.2,0.9-10,2-11.8,3.2s-2.4,2.7-2.4,5c-0.1,2.2,1,4.4,2.9,5.6c2.1,1.5,4.7,2,8,2c5.3,0,9.4-1.2,12.9-3.9c3.2-2.2,5.1-5.8,5-9.7
	C141.5,91.1,141.5,85.5,141.5,85.5L141.5,85.5z M165.4,108.8h-5.6V66.1h5.6v7.1c1.1-2.6,3-4.8,5.3-6.5c2.3-1.5,4.9-2.4,7.6-2.4
	c0.9,0,1.8,0.1,2.7,0.3c0.9,0.3,1.7,0.6,2.9,0.9v5.3c-0.9-0.3-1.8-0.5-2.7-0.6c-0.9,0-1.5-0.3-2.4-0.3c-3-0.1-5.9,0.8-8.2,2.7
	c-2.4,1.7-3.9,4.4-5,8.2v28C165.6,108.8,165.4,108.8,165.4,108.8z M189.2,108.8V50.5h5.6v58.3H189.2z M209.8,84.1h33
	c-0.3-4-2.1-7.7-5-10.3c-2.9-2.7-6.8-3.9-11.5-3.9s-8.5,1.2-11.5,3.9C211.8,76.4,210,80.1,209.8,84.1L209.8,84.1z M247.5,95.3
	c-1.1,4.5-3.7,8.4-7.3,11.2c-4,2.8-8.9,4.2-13.8,4.1c-6.8,0-12.4-2.1-16.5-6.1s-6.1-9.7-6.1-16.5s2.1-12.4,6.1-16.5
	s9.7-6.2,16.5-6.2s12.4,2,16.5,6.2c4.1,4.2,6.1,9.7,6.1,16.5v1.2h-39.4c0.1,4.5,1.8,8.7,4.7,12.1c2.9,2.9,6.8,4.1,11.8,4.1
	c3.3,0.1,6.6-0.8,9.4-2.7c2.6-1.7,4.5-4.2,5.6-7.1h6.5L247.5,95.3z M253.4,95.3h5.6c0.1,3,1.8,5.7,4.4,7.1c2.4,1.5,5.9,2.4,10.6,2.4
	s8.5-0.6,10.9-2.1c2.7-1.5,3.9-3.2,3.9-5.9c0.1-1.6-0.5-3.1-1.7-4.1c-1.8-1.2-4-1.9-6.1-2L268.5,89c-3.8-0.3-7.5-1.6-10.6-3.9
	c-2-1.7-3.2-4.4-3.2-8c0-3.9,1.7-6.8,5-9.2s8-3.2,13.8-3.2s10.6,1.2,14.1,3.6s5,5.9,5.3,10.3h-5.6c-0.2-2.7-1.8-5.1-4.1-6.5
	c-2.4-1.5-5.9-2.1-10.3-2.1c-3.9,0-7.1,0.6-9.1,1.7c-2,1-3.3,3-3.2,5.3c-0.1,1.6,0.6,3.2,2,4.1c2.4,1.2,5,2,7.6,2.4l10.9,1.7
	c4.7,0.6,8.2,2.1,10.3,3.9c2.2,1.9,3.4,4.7,3.2,7.6c0.2,4.1-1.8,8.1-5.3,10.3c-3.5,2.4-8.8,3.6-15.6,3.6c-6.1,0-10.9-1.2-14.1-3.9
	C255.7,103.8,254,99.9,253.4,95.3L253.4,95.3z M324.6,108.8H319V66.1h5.6v7.1c1.1-2.6,3-4.8,5.3-6.5c2.3-1.5,4.9-2.4,7.6-2.4
	c0.9,0,1.8,0.1,2.7,0.3c1,0.3,1.7,0.6,2.9,0.9v5.3c-0.9-0.3-1.8-0.5-2.7-0.6c-0.9,0-1.5-0.3-2.4-0.3c-3-0.1-5.9,0.8-8.2,2.7
	c-2.4,1.7-3.9,4.4-5,8.2v28C324.8,108.8,324.6,108.8,324.6,108.8z M348.4,57.2v-6.5h5.6v6.5H348.4z M348.4,108.8V66.1h5.6v42.7
	H348.4z M377.9,108.8l-19.4-42.7h6.5l15.9,37.1L397,66.1h6.1l-19.4,42.7H377.9z M410.6,83.8h33c-0.3-4-2.1-7.7-5-10.3
	c-2.9-2.7-6.8-3.9-11.5-3.9s-8.5,1.2-11.5,3.9C412.5,76,410.7,79.8,410.6,83.8L410.6,83.8z M448.2,95c-1.1,4.5-3.7,8.4-7.3,11.2
	c-4.1,2.8-8.9,4.3-13.9,4.1c-6.8,0-12.4-2.1-16.5-6.2s-6.1-9.7-6.1-16.5s2-12.4,6.1-16.5S420.2,65,427,65s12.4,2,16.5,6.2
	s6.1,9.7,6.1,16.5v1.2h-39.4c0.3,5.3,2,9.1,4.7,12.1c2.9,2.9,6.8,4.1,11.8,4.1c3.3,0.1,6.6-0.8,9.4-2.7c2.6-1.7,4.6-4.2,5.6-7.1h6.5
	V95L448.2,95z M462.9,108.4h-5.6V65.8h5.6v7.1c1.1-2.6,3-4.8,5.3-6.5c2.3-1.5,4.9-2.4,7.7-2.4c0.9,0,1.8,0.1,2.7,0.3
	c0.9,0.3,1.7,0.6,2.9,0.9v5.3c-0.9-0.3-1.8-0.5-2.7-0.6c-0.9,0-1.5-0.3-2.4-0.3c-3-0.1-5.9,0.8-8.2,2.7c-2.4,1.7-3.9,4.4-5,8.2v27.9
	H462.9z"/>
</svg>
