<?xml version="1.0" encoding="utf-8"?>
<!-- Generator: Adobe Illustrator 25.1.0, SVG Export Plug-In . SVG Version: 6.00 Build 0)  -->
<svg version="1.1" id="Layer_1" xmlns="http://www.w3.org/2000/svg" xmlns:xlink="http://www.w3.org/1999/xlink" x="0px" y="0px"
	 viewBox="0 0 355 190" style="enable-background:new 0 0 355 190;" xml:space="preserve">
<style type="text/css">
	.st0{fill:#FFFFFF;}
</style>
<path class="st0" d="M259.2,76.6h84.3v2.5c0,18.2-0.3,36.4,0.1,54.5c0.2,8.8-2,17.4-6.5,24.9c-7.7,13.4-18.4,23.4-33.1,28.8
	c-1.7,0.7-3.5,0.7-5.2,0c-20-7.9-32.8-22.4-39-42.8c-0.4-1.4-0.6-2.9-0.6-4.3c0-20.8,0-41.6,0-62.3
	C259.1,77.6,259.2,77.1,259.2,76.6z M341.4,101.5c-0.7,0-1.1-0.1-1.5-0.1c-25.7,0-51.4,0-77.1,0c-1.5,0-1.9,0.5-1.9,2
	c0,11.9,0,23.7,0,35.6c0,1.4,0.1,2.8,0.5,4.2c5.3,19.3,17.1,33.2,35.4,41.6c2.8,1.4,6,1.4,8.8,0c14.8-6.4,25.1-17.3,32-31.6
	c2.8-5.5,4.1-11.7,3.9-17.9c-0.2-5.3,0-10.7,0-16L341.4,101.5z M302.4,81.7V94c3.6,0.9,6.9,2.9,10.6,1.7V83.1L302.4,81.7z M300,94.3
	c0-3.9-0.1-7.3,0-10.7c0-1.7-0.7-2.2-2.1-1.9c-2.8,0.5-5.5,1.1-8.3,1.6v13.1L300,94.3z M267.6,86.7c-1.6,3.6,2.1,4.6,2.8,7.1h2.9
	v3.7l0.7,0.1c0.1-1.2,0.3-2.5,0.5-3.8h3l-0.3-0.4l3.2-3.6c-0.1-1.1-0.2-2-0.3-3.1h-3.7v-2.4l-0.5,0.4l-2.1-2.4l-2.4,2.3l-0.5-0.4
	c0.1,1,0.2,2,0.2,2.5L267.6,86.7z M331.4,93.7c0.6-2.5,4.3-3.5,2.7-7h-3.7c0.1-0.7,0.2-1.6,0.3-2.7c-2.2,0.9-1.8-1.4-2.6-1.9
	l-2.9,2.8l0.1,1.8H322c-2,3.7,2.5,4.3,2.6,7h2.9c0.2,0.6,0.3,1.3,0.3,1.9s-0.1,1.2-0.2,1.7c0.6-0.1,1-0.4,0.9-0.6
	C328.3,93.7,328.3,93.7,331.4,93.7L331.4,93.7z"/>
<path class="st0" d="M178.6,62.9c0.1,2.5-0.4,3.1-2.7,3.1c-6,0-11.9,0-17.9,0c-1.4,0-2.7-0.3-2.8-1.8s1.2-2.2,2.7-2.3
	c0.4-0.1,0.8,0,1.3,0c2.8-0.1,3.9-1.2,4-4c0.1-9.8,0.1-19.5,0.1-29.2c0-4.3,0-8.7-0.4-13.1c-0.3,0.8-0.7,1.7-1,2.5
	c-5.4,13.8-10.7,27.9-16,41.9c-0.2,0.8-0.6,1.6-1,2.3c-0.5,0.7-1.3,1.5-1.9,1.5s-1.5-1-1.7-1.7c-1.3-3.5-2.3-7-3.5-10.5
	c-3.8-11.1-7.7-22.2-11.4-33.3c-0.2-0.7-0.6-1.4-1.1-2.6c-0.3,4.7-0.6,8.8-0.9,12.9c-0.5,7.9-0.9,15.8-1.3,23.7
	c-0.1,1.8-0.1,3.7,0,5.5c0.1,2.5,1.4,3.8,3.9,4.1c0.9,0,1.8,0.1,2.7,0.4c0.8,0.5,1.3,1.3,1.4,2.2c0,0.5-1.1,1.5-1.8,1.5
	c-5.5,0.1-10.9,0.1-16.4,0c-0.8-0.1-1.4-0.6-1.8-1.3c-0.1-0.9,0.3-1.7,0.9-2.2c0.8-0.4,1.7-0.6,2.6-0.6c2.1-0.1,3.3-1.1,3.5-3.2
	c0.3-3.7,0.6-7.4,0.9-11.1c0.6-8.1,1.1-16.2,1.6-24.3c0.3-4.3,0.4-8.5,0.6-12.8c0.1-1.4-0.3-2.3-1.9-2.3c-0.8,0-1.5-0.2-2.3-0.3
	c-1.8,0-2.3-1-2.2-2.6s1-1.7,2.2-1.7c3.4,0,6.8,0.1,10.1,0c1.6-0.2,3.1,0.8,3.4,2.4c4.7,13.4,9.4,26.8,14.2,40.1
	c0.2,0.7,0.5,1.4,0.9,2.5c3.2-8.3,6.2-16.2,9.2-24.1c2.4-6.2,4.8-12.5,7.1-18.7c0.4-1.6,1.9-2.7,3.6-2.5c3.4,0.1,6.7,0.1,10.1,0
	c1.5,0,2.5,0.5,2.6,2c0.1,1.3-0.9,2.5-2.2,2.6l0,0c-0.2,0-0.4,0-0.6,0c-3.4,0.2-3.6,0.4-3.6,3.8c0,15.2,0,30.3,0,45.5
	c0,3.8,0.6,4.4,4.4,4.8C176.8,62,177.8,62.4,178.6,62.9L178.6,62.9z"/>
<path class="st0" d="M60.7,15.4c-3.2,8.7-6.5,17.3-9.7,25.9c-2.4,6.4-4.8,12.8-7.1,19.1c-0.1,0.4-0.3,0.8-0.5,1.2
	c-0.7,0.8-1.5,1.5-2.3,2.3c-0.8-0.7-1.4-1.5-1.9-2.5c-5.1-14.5-10.1-29-15.1-43.5c-0.2-0.6-0.5-1.2-1-1.7c-0.2,3.2-0.5,6.5-0.7,9.7
	c-0.5,8.1-1,16.2-1.4,24.3c-0.2,2.6-0.2,5.3,0,7.9c0.2,2.4,1.4,3.4,3.8,3.7c1,0,2,0.1,2.9,0.5c0.7,0.4,1.2,1.2,1.2,2
	c-0.2,0.8-0.9,1.4-1.7,1.6c-5.6,0.1-11.1,0.1-16.7,0c-0.7-0.1-1.3-0.6-1.7-1.2c-0.1-0.8,0.2-1.6,0.7-2.2c0.5-0.4,1-0.7,1.7-0.7
	c4.2-0.6,4.5-0.8,4.7-5c0.6-9,1.1-18,1.7-27c0.4-6.2,0.7-12.4,1.2-18.6C19.1,8.9,18.3,8,16.2,8c-0.6,0-1.3-0.1-1.9-0.1
	c-1.2,0-2.1-1-2.1-2.2c0-0.1,0-0.1,0-0.2c0-1.4,0.9-1.9,2.3-1.8c3.5,0.1,7,0.1,10.5,0c1.8-0.1,2.6,0.8,3.2,2.4
	c4.7,13.5,9.5,27,14.3,40.5c0.2,0.5,0.4,1,0.8,1.9c1.5-3.8,2.8-7.3,4.2-10.7C51.6,27.4,55.7,17,59.6,6.5c0.8-2.1,2-2.9,4.2-2.8
	c3.3,0.2,6.6,0.1,9.9,0c1.4,0,2.4,0.6,2.2,1.8c-0.1,0.9-1.3,1.7-2,2.5c-0.1,0.2-0.5,0.1-0.8,0.1c-3.4,0.2-3.7,0.4-3.7,3.9
	c0,15,0,30,0,45c-0.1,1,0.1,2.1,0.5,3.1c0.6,0.8,1.4,1.4,2.3,1.8c0.7,0.3,1.8-0.1,2.4,0.2s1.7,1.5,1.7,2.2c0,0.6-1.3,1.7-2.1,1.7
	c-6.4,0.1-12.8,0.1-19.2,0c-0.9-0.1-1.6-0.7-2-1.6c-0.1-0.6,0.7-1.6,1.4-2.2c0.6-0.3,1.3-0.5,2-0.4c3.3-0.1,4.5-1.3,4.5-4.7
	c0-10.6,0-21.2,0-31.8v-9.9L60.7,15.4z"/>
<path class="st0" d="M178.6,63c-2.6-7,0.4-11.3,4.9-14.3c4.9-3.2,10-6.1,15.2-8.7c1.9-1,2.9-2.2,2.7-4.4c-0.2-3-0.3-6-0.4-9
	s-2.5-4-5.4-3.8c-3.8,0.3-6.3,2.4-7.9,5.7c-0.5,0.9-0.8,1.8-1.1,2.7c-1,3.2-3.6,4.3-6.5,4.9c-1.3,0.3-2.5-0.5-2.2-2
	c0.2-1.8,0.8-3.5,1.6-5.1c4.4-7.1,15.8-11.4,23.8-9.3c4.1,1.1,6.2,3.8,6.2,8c0,9,0,18.1,0,27.1c0,1.3,0.2,2.5,0.5,3.7
	c0.5,2.1,1.9,2.5,3.5,1.1c0.3-0.2,0.5-0.6,0.8-0.7c0.7-0.2,1.6-0.6,2.2-0.3c0.4,0.2,0.6,1.4,0.5,2c-0.8,3.3-8,7-11.1,5.6
	c-1.2-0.8-2.3-1.8-3-3.1c-0.6-1-1-2-1.3-3c-2.5,1.7-4.8,3.6-7.4,5.1c-4.3,2.4-8.8,3.1-13.2,0C180.2,64.5,179.4,63.7,178.6,63
	L178.6,63z M201.4,42.3c-4.2,2.5-8.2,4.6-11.9,7.1c-1.4,1.1-2.4,2.7-3,4.4c-1.1,2.7,0.2,5.7,2.8,6.8c0.1,0.1,0.3,0.1,0.4,0.1
	c4.4,1.4,11.2-2.7,11.6-7.4C201.6,49.9,201.4,46.4,201.4,42.3z"/>
<path class="st0" d="M298.4,38.6c-4,0-8,0-12,0c-4.8,0-4.2,0.1-4,4.2c0.3,5.9,2.4,11.2,7.1,15c5.8,4.5,14,4.2,19.3-0.8
	c0.6-0.5,1-1.3,1.7-1.6c0.9-0.3,1.8-0.5,2.7-0.5c0,0.9,0.4,2,0,2.6c-3.1,4.5-7.3,7.8-12.7,8.9c-14.8,3-24.2-7-26.2-18.5
	c-2.3-13.2,3.9-24,16.3-27.8c6.2-1.9,12.3-1.6,17.7,2.6c4.6,3.6,6.1,8.6,6,14.3c0,1.5-1,1.8-2.3,1.8c-4.6,0-9.1,0-13.7,0L298.4,38.6
	z M283.1,34.8c2.9,0,5.5,0.1,8.2,0c3.8-0.2,7.5-0.4,11.3-0.8c2.2-0.2,3.1-1.5,3-3.5c-0.2-3.2-2.3-6-5.3-7.2
	C293,20.8,284.8,25.3,283.1,34.8L283.1,34.8z"/>
<path class="st0" d="M217.7,57.8c0.1-2,0.3-3.9,0.6-5.8c0.3-0.8,0.9-1.4,1.7-1.7c0.5-0.1,1.6,0.7,1.8,1.3c0.6,1.7,0.9,3.5,1.4,5.2
	c1.4,5,4.5,7.4,9.4,7c5.3-0.4,9.2-3.8,9.5-8.6c0.3-3-1.2-5.8-3.9-7.2c-2.1-1.1-4.3-2-6.5-2.8c-3.7-1.4-7.4-2.8-9.9-6
	c-4.2-5.4-2.4-13.4,3.9-17.4c4.9-3.1,10.3-3.2,15.8-2.1c6.1,1.2,5.9,1.6,5.8,7.3c0.1,0.9,0.1,1.8-0.1,2.7c-0.3,0.8-0.8,1.5-1.6,1.9
	c-0.5,0.1-1.5-0.7-1.9-1.3c-0.6-1-1-2.1-1.5-3.2c-1.9-4.2-6.8-6-11-4.1c-0.4,0.2-0.8,0.4-1.2,0.7c-4.2,2.7-4.1,8,0.2,10.7
	c2,1.1,4.1,2.1,6.2,2.9c1.7,0.7,3.5,1.4,5.2,2.1c10.5,4.7,9.6,18.6,1.8,24s-15.7,4.8-23.7,1.1c-1.4-0.5-2.2-1.9-2-3.4
	C217.9,60.1,217.8,59,217.7,57.8L217.7,57.8z"/>
<path class="st0" d="M110.9,28c-0.1,1.2-0.2,2.5-0.5,3.7c-0.2,0.7-0.9,1.6-1.4,1.7c-0.9,0-1.7-0.3-2.3-1c-1-1.3-1.9-2.7-2.7-4.2
	c-3.8-6.4-7.8-7.3-14.2-2.8c-10.5,7.4-10.1,26.7,0.6,33.9c5.4,3.8,12.8,3.2,17.4-1.6c0.3-0.3,0.5-0.8,0.9-0.9
	c0.7-0.2,1.8-0.5,2.1-0.2c0.5,0.6,0.6,1.4,0.3,2.2c-1.9,3-4.6,5.3-7.9,6.6C92.6,70,80.8,65.1,75.9,54.1
	c-5.7-12.5-0.1-27.2,12.3-32.8c1.4-0.6,2.8-1.1,4.3-1.5c4.6-1.2,9.5-0.8,13.9,1C110.3,22.5,110.8,23.3,110.9,28z"/>
<path class="st0" d="M254.1,24c-1.2-0.1-2.2-0.1-3.2-0.2c-1.7-0.2-2.3-1.4-1.2-2.8c0.7-0.8,1.6-1.6,2.5-2.2c2.8-2.1,5-4.8,6.4-7.9
	c0.1-0.3,0.2-0.7,0.5-0.9c0.6-0.4,1.3-1,1.9-0.9s1,1,1.1,1.6c0.1,2,0.1,4.1,0,6.1c-0.2,1.9,0.6,2.4,2.4,2.3c2.3-0.1,4.6,0,6.9,0
	c1.6,0,2.1,0.8,2.1,2.2s-0.4,2.5-2.1,2.4c-2.9,0-5.7,0-8.7,0c-0.1,0.8-0.2,1.4-0.2,2c0,9.5,0,19.1,0.1,28.6c0,1.3,0.2,2.5,0.6,3.7
	c1,3.2,3.7,4.3,6.5,2.5c0.9-0.5,1.6-1.4,2.5-1.9c0.7-0.2,1.4-0.3,2.1-0.3c0.1,0.7,0.4,1.5,0.2,2.1c-2.3,6.2-12.1,8.7-17,4.4
	c-2.9-2.5-3.3-6.1-3.3-9.6c-0.1-9.6,0-19.2,0-28.8L254.1,24z"/>
<path class="st0" d="M329.8,26c1.9-1.8,3.4-3.5,5.2-4.8c2.3-2,5.6-2.3,8.3-0.9c1.8,0.9,2.8,2.9,2.6,4.9c-0.1,2.2-0.9,3.9-3.2,4.7
	c-1.8,0.6-3.8,0-4.8-1.6c-2.3-2.7-3-2.7-5.4-0.1c-1.9,2.1-2.9,4.8-2.8,7.6v21.5c0,4,0.4,4.5,4.4,5.2c0.5,0.1,1.2,0.2,1.5,0.5
	c0.5,0.5,0.7,1.3,0.7,2c-0.3,0.7-0.9,1.1-1.6,1.2c-5.8,0.1-11.6,0.1-17.5,0c-0.8-0.2-1.4-0.8-1.7-1.5c0.1-0.8,0.5-1.6,1.2-2.1
	c0.5-0.4,1.3-0.3,2-0.4c2.4-0.3,3.4-1.1,3.4-3.6c0-8.8-0.2-17.5-0.3-26.3c0-1.9-1-2.6-2.8-2.5c-1.1,0-2.6,0.1-2.6-1.3
	c0.3-1.1,1-2,2-2.4c3-1.3,5.8-3.2,8-5.6c0.6-0.7,1.6-1,2.5-1c0.5,0.1,0.9,1.4,1,2.2C329.8,23.1,329.8,24.6,329.8,26z"/>
<path class="st0" d="M14.2,93.6c0-3.7-0.1-7.4,0.1-11.2c0.1-2.1-0.7-3-2.7-3c-1.1,0-2.2-0.1-2.1-1.7s1.1-1.3,2.1-1.3
	c3.7,0,7.4,0,11.2,0c1.1,0,1.9,0.1,1.9,1.5S24,79.4,23,79.5c-2.8,0.3-2.8,0.3-2.8,3.2c0,6.9,0,13.8,0,20.6c0,3.2,0.4,6.3,4,7.7
	c4.1,1.6,10,1,12.1-1.8c1.1-1.5,1.7-3.3,1.8-5.1c0.2-6.9,0.1-13.8,0.1-20.6c0-3.1-0.2-3.3-3.3-3.8c-1.1-0.2-2.1-0.7-1.6-1.8
	c0.4-0.8,1.1-1.4,2-1.5c2.6-0.2,5.3-0.2,7.9,0c0.9,0.1,2.3,0.8,2.5,1.5c0.3,1.4-1,1.8-2.2,1.7c-1.7,0-1.9,1-1.9,2.3
	c0,6.8,0,13.6,0,20.4c0,1.7-0.1,3.4-0.5,5c-0.6,2.6-2.3,4.9-4.8,6c-6.3,2.9-12.5,2.8-18.5-0.9c-2.5-1.5-3.5-4-3.6-6.7
	C14.1,101.7,14.2,97.7,14.2,93.6L14.2,93.6z"/>
<path class="st0" d="M49.3,93.3c-0.8,0-1.4,0.2-1.7,0C47,93,46.3,92.5,46.3,92c0.1-0.6,0.4-1.2,0.9-1.6c1.6-1.2,3.3-2.4,5-3.5
	c0.5-0.4,1.1-0.5,1.6-0.5c0.4,0.1,0.7,0.9,0.8,1.4c0.1,0.6,0.1,1.1,0,1.7c2-1,3.8-2.4,5.8-2.9C66.1,85.1,71,89,71.1,95
	c0.1,4.5,0,9,0,13.5c0,1.7,0.2,2.9,2.3,3c0.4,0,1.1,1,1,1.1c-0.3,0.7-0.9,1.6-1.5,1.7c-3.4,0.2-6.7,0.1-10.1,0
	c-0.5,0-0.9-0.8-1.4-1.2c0.5-0.6,1.1-1.6,1.6-1.6c2.4,0.1,2.6-1.4,2.6-3.1c-0.1-4.3-0.2-8.7-0.3-13c0.1-2.1-1.3-4-3.3-4.5
	c-2.2-0.7-4.6,0.1-6,2c-0.7,0.9-1.2,2-1.3,3.2c-0.2,4.1-0.3,8.3-0.3,12.4c0,1.6,0.1,3.1,2.4,3.1c0.5,0,1,1,1.6,1.6
	c-0.6,0.4-1.2,1.2-1.8,1.2c-3.1,0.1-6.2,0.2-9.3,0c-0.7,0-1.3-0.8-1.9-1.3c0.6-0.6,1.2-1.6,1.8-1.6c1.7-0.1,2.1-0.9,2.1-2.4
	C49.3,104,49.3,98.8,49.3,93.3z"/>
<path class="st0" d="M232.3,105.9c1.8-4.7,3.6-9.4,5.3-14.2c0.4-1-0.1-1.8-1.4-1.8c-0.5,0.1-1,0-1.4-0.2c-0.5-0.3-0.8-0.8-0.8-1.4
	c0-0.4,0.7-1.2,1-1.2c3-0.1,6-0.1,9,0c0.6,0.2,1,0.6,1.1,1.2c0,0.4-0.6,1.2-1,1.2c-1.8,0-2.6,1.2-3.1,2.6
	c-2.8,7.2-5.6,14.5-8.4,21.7c-1.4,3.7-2.8,7.4-4.1,11.1c-0.7,2-2.7,2.8-5,2c-1.6-0.5-2.4-2.2-1.8-4.1c0.3-1.2,1.6-1.9,2.8-1.6
	c1.3,0.2,1.9-0.5,2.5-1.7c2-3.7,2.1-8.2,0.1-11.9c-2.4-5.1-4.1-10.5-6.1-15.7c-0.3-1.3-1.4-2.3-2.8-2.4c-0.5-0.1-1.3-0.6-1.3-1
	c0.1-0.6,0.4-1.1,0.9-1.4c0.6-0.3,1.3-0.4,2-0.4c2.6,0,5.2,0,7.8,0c0.5-0.1,1,0,1.4,0.2c0.5,0.5,1,1,1.5,1.5c-0.5,0.4-1,1.1-1.6,1.2
	c-2.7,0.7-2.7,0.6-1.7,3.3c1.6,4.3,3.1,8.6,4.7,12.9L232.3,105.9z"/>
<path class="st0" d="M124,98.4c-0.5,6,2.3,10.4,7.1,11.9c3.3,1,5.9-0.3,8.2-2.4c0.7-0.6,1.5-1.8,2.4-0.6c0.4,0.5,0,2-0.5,2.7
	c-3.2,4.3-8.9,6.1-14,4.3c-4.8-1.6-8.4-6.9-8.8-12.2c-0.3-4.8,0.8-9,4.4-12.3s11.1-5.4,16-1.4c2.3,1.9,3.6,4.7,3.7,7.7
	c0.1,1.7-0.6,2.4-2.3,2.4c-4.9-0.1-9.8,0-14.7,0L124,98.4z M124.7,95.5c3.5-0.2,6.9-0.3,10.4-0.6c0.6,0,1.5-1.3,1.4-1.8
	c-0.3-1.2-0.9-2.4-1.9-3.2C130.6,87.2,124.8,91,124.7,95.5L124.7,95.5z"/>
<path class="st0" d="M175.8,86.2c0.6,0,1.1,0,1.7,0c4.5,0.1,6.2,2.5,5,6.8c-0.1,0.4-0.6,1.1-1,1.1c-0.6,0-1.1-0.3-1.5-0.8
	c-0.5-0.7-0.8-1.7-1.2-2.4c-1.1-1.8-3.4-2.5-5.3-1.7c-1.6,0.6-2.9,1.8-2.4,3.7c0.3,1,0.9,1.9,1.8,2.6c1.7,0.9,3.5,1.7,5.3,2.3
	c4.6,2,6.2,4.4,5.9,8.6c-0.2,3.6-3.2,6.9-7.2,8c-3.4,1-7,0.6-10.1-1.1c-0.8-0.4-1.4-1.1-1.6-1.9c-0.1-2.1-0.1-4.2,0.1-6.2
	c0-0.4,0.8-1.1,1.1-1c0.6,0.1,1.2,0.5,1.6,1.1c0.5,1.1,0.6,2.4,1,3.6c0.8,2.6,2.2,3.4,5.4,3.1c2.2-0.1,4.1-1.8,4.5-4
	c0.4-2.1-0.6-3.8-3-4.9c-2-0.9-4-1.6-6-2.5c-5.4-2.4-5.1-9.7-0.6-12.5c1.9-1.1,4.2-1.6,6.3-2.4L175.8,86.2z"/>
<path class="st0" d="M90.4,87c3.6,0,7.3,0,10.9,0c0.5,0,1,0.7,1.4,1.1c-0.4,0.5-0.9,1-1.4,1.4c-0.7,0.3-1.4,0.5-2.1,0.7
	c1.9,5.1,3.8,10,5.8,15.3l6.2-15.4c-0.8-0.1-1.7-0.3-2.5-0.6c-0.5-0.4-1-0.8-1.4-1.3c0.5-0.4,0.9-1.1,1.4-1.2c2.7-0.1,5.3-0.1,8,0
	c0.5,0,1.4,0.7,1.4,0.8c-0.2,0.7-0.6,1.7-1,1.8c-2.8,0.4-3.4,2.6-4.2,4.6c-2.6,6.4-5.2,12.9-7.9,19.3c-0.3,0.7-1.1,1.1-1.7,1.7
	c-0.5-0.6-1.2-1-1.4-1.7c-2.6-7-5.1-13.9-7.7-20.9c-0.5-1.4-0.9-2.8-2.9-2.8c-0.6,0-1.1-1.4-1.7-2.2L90.4,87z"/>
<path class="st0" d="M208.9,86.3c1.7,0,3.2,0,4.6,0c1.1,0,1.8,0.4,1.8,1.7s-0.7,1.7-1.8,1.7c-1.5,0-2.9,0-4.6,0c0,5,0,9.7,0,14.5
	c-0.1,1.4,0,2.8,0.2,4.2c0.1,1,0.6,1.9,1.4,2.5c0.6,0.3,1.8-0.3,2.6-0.7c0.6-0.4,1.3-0.8,1.8-1.3c1.8,1,1,2.2,0.4,3.2
	c-1.8,2.4-4.9,3.4-7.8,2.7c-2.4-0.7-3.9-3.1-3.9-6.3c0-6.1,0-12.2,0-18.4c-0.6-0.1-1.1-0.2-1.7-0.3c-1.5-0.5-1.7-1.5-0.6-2.7
	c1.7-2,3.4-4,5.1-6c0.3-0.4,1.1-0.9,1.3-0.7c0.6,0.3,1,0.9,1.2,1.5C208.9,83.4,208.9,84.8,208.9,86.3z"/>
<path class="st0" d="M154.2,89.2c1.4-1,2.9-1.8,4.5-2.5c1.9-0.6,4,0.5,4.5,2.5c0,0.1,0.1,0.2,0.1,0.3c0.4,1.8-0.7,3.9-2.5,3.8
	c-1.4,0-2.8-1-4.6-1.8c-1.5,0.7-2.2,2.5-2.3,4.5c-0.2,4.4-0.1,8.8-0.1,13.2c0,1.4,0.6,2.1,2.2,2.2c0.6,0,1,1.1,1.6,1.7
	c-0.6,0.4-1.2,1.2-1.8,1.2c-3,0.1-6,0.1-9.1,0c-0.6,0-1.2-0.7-1.8-1.1c0.5-0.6,1-1.7,1.6-1.7c1.8-0.1,2.2-0.9,2.2-2.6
	c-0.1-5.2,0-10.3,0-15.5c-0.5,0-1,0-1.5-0.1c-0.6-0.3-1.6-0.7-1.6-1.2s0.6-1.3,1.1-1.7c1.6-1.2,3.2-2.3,4.8-3.4
	c0.5-0.4,1-0.6,1.6-0.5c0.4,0.2,0.8,0.9,1,1.4C154.3,88.4,154.3,88.8,154.2,89.2z"/>
<path class="st0" d="M80.9,93.6c-0.3-0.1-0.6-0.1-0.9-0.3l-2.5-1.4c0.7-0.7,1.4-1.3,2.1-1.9c1.2-0.9,2.4-1.8,3.7-2.6
	c0.6-0.4,1.6-1,2.1-0.8c0.6,0.5,0.9,1.3,0.9,2.1c0.1,6.6,0.1,13.2,0,19.8c0,1.7,0,3.3,2.4,3.2c0.3,0,0.9,0.7,0.9,1.1
	c-0.1,0.6-0.3,1.1-0.7,1.6c-0.2,0.2-0.8,0.2-1.2,0.2c-3,0-6,0.1-9-0.1c-0.7,0-1.3-0.9-2-1.3c0.5-0.6,1.1-1.1,1.8-1.5
	c0.9-0.4,2.2-0.4,2.2-1.8C80.9,104.3,80.9,99,80.9,93.6z"/>
<path class="st0" d="M190.9,93.4c-0.6,0-1.1,0-1.7-0.1c-0.5-0.2-1.2-0.7-1.2-1.1c0-0.6,0.3-1.3,0.8-1.7c1.7-1.3,3.5-2.5,5.2-3.6
	c0.4-0.3,1.2-0.5,1.5-0.3c0.5,0.4,0.8,1,0.8,1.7c0.1,6.6,0,13.2,0,19.8c0,1.8-0.1,3.6,2.6,3.6c0.4,0,1.1,1,1,1.4s-0.8,1.3-1.2,1.4
	c-3.5,0.1-7,0.1-10.5,0c-0.4,0-1.2-0.9-1.1-1.1c0.3-0.7,0.9-1.7,1.4-1.7c2.3,0.1,2.4-1.3,2.4-3C190.9,103.6,190.9,98.6,190.9,93.4z"
	/>
<path class="st0" d="M86.8,79.4c0,2.2-1.3,3.5-3.3,3.4c-1.8-0.2-3.2-1.7-3-3.6l0,0c0.1-2.2,1.4-3.6,3.3-3.6S86.8,77.1,86.8,79.4z"/>
<path class="st0" d="M190.9,79.2c0-2.3,1.1-3.6,3.1-3.6s3,1.3,2.9,3.5c0,2.5-1,3.7-3,3.7S190.9,81.6,190.9,79.2z"/>
<path class="st0" d="M279.6,140.7c-7.5,4.3-11.5,2-12-2.7c4.5,1,7.9-0.8,10.8-3.5c-2.7-0.5-5.7-0.6-8.4-1.5c-3.2-1-3.3-4.4-4.9-7.2
	c7.3,3.2,9,3.5,12.5,2.3l-7-3.5c-4.9-2.4-5.5-3.6-5.1-9.4c3.2,2.9,7,4.3,11.3,5.3c-2.6-2.3-5-4.4-7.4-6.4c-2.1-1.7-3-4.3-2.4-6.9
	c0.1-1,0.2-2,0.2-2.9c2,1.8,4,3.7,6.1,5.2c2.2,1.5,4.4,2.9,6.7,4.2c2,1.2,2.1,3.2,0,4.5c-0.5,0.3-1,0.7-1.5,1.1l1.4,3.2l-2.4,2.7
	c0.7,0.9,1.4,1.7,2.1,2.6l-1.2,2.4l2.5,2c-0.6,3.1-0.6,3.1,2.4,4.6c0.4,0.2,0.7,0.4,1,0.7c2.5,3.7,2.5,3.7,6.2,2.1
	c2.9,3.3,0.5,5.9-2.5,8.5c-2.3,2-5.2,2.8-9,2.7c3.2-1.7,5.5-3.7,6.1-6.9c-2,1.7-4.1,3.3-6.3,4.7c-4.3,2.6-7.7,1.2-9.5-3.7
	C273.8,145.6,277.3,144.6,279.6,140.7z"/>
<path class="st0" d="M326,120.5c4.4-1.3,8.4-2.3,11.3-5.6c1.1,3.1-0.1,6.5-2.9,8.3c-1.5,0.8-3,1.5-4.5,2.3l-4.8,2.4
	c4.8,1.4,8.5-0.1,12.6-2.4c-1.4,3-1.6,6.3-4.9,7.3c-2.7,0.8-5.6,0.9-8.5,1.3c3,2.7,6.3,4.6,10.7,3.5c-0.4,3.5-2,5.2-5,4.9
	c-2.5-0.3-4.8-1.4-7-2c1.9,3.5,4.6,4.6,10,4c-0.8,4-4.7,6.2-8.1,4.3c-2.4-1.5-4.8-3.1-7-4.9c0.3,2.2,1.1,3.5,5.4,6.4
	c-4.5,0.8-11-3.1-12.1-7.6c-0.3-1.1,0.5-2.4,0.9-3.7l3.8,1.9c0.9-1.2,1.8-2.4,2.7-3.6c0.3-0.4,0.7-0.8,1.2-1.1
	c2.9-1.2,3-1.3,2.1-4.4l1.3-1l1.3-1l-1.2-2.4c0.5-0.5,1-1,1.4-1.6c0.2-0.4,0.3-1.4,0.1-1.6c-2.3-1.6-1.6-3.3-0.4-5.2
	c-0.7-0.5-1.3-1-1.9-1.4c-1.1-0.6-1.5-1.9-0.9-3c0.2-0.4,0.5-0.7,0.9-0.9c3.2-2.2,6.5-4.3,9.6-6.6c1.2-0.9,2.3-2,3.4-2.9
	c1.6,3.3,0.7,7.3-2.1,9.6C331.2,116.1,328.8,118.1,326,120.5z"/>
<path class="st0" d="M307.8,157.6l-5.1-1.2l-0.6,3.4l-0.8,0.1c-0.3-1.2-0.7-2.4-1-3.7c-1.5,1-3.2,2.1-5.2,0.9c0-0.2,0-0.3,0.1-0.4
	c4.5-4.5,4.5-5.6,1.2-11c-1.8-2.9-3.4-6-4.8-9.2c-1.1-2.6-0.6-5.2,0.6-7.7c0.9-2.3,2.1-4.6,3.5-6.7c1.1-1.3,2.7-2.1,4.3-2.4
	c1.6-0.3,3.3,0.4,5,0.6s2.5,1.2,3.1,2.6c0.8,1.7,1.7,3.4,2.5,5c2.1,3.8,1.9,8.5-0.4,12.1c-1.4,2.5-3,4.9-4.4,7.3
	c-2,3.5-1.8,5.1,1.1,8c0.4,0.4,0.8,0.9,1.2,1.4L307.8,157.6z M299.2,125.7c-0.3,1.2-0.7,2.4-1,3.5c-2.2-1.1-3.1,1.4-4.6,2.4
	c-0.2,0.2-0.2,1.1,0,1.5c1,1.8,3.3,2.6,6.5,2c-0.6,1.4-1,2.6-1.6,3.6c-0.7,1.3,1.6,5.7,3,5.3c1.3-0.6,2.3-1.5,3-2.7
	c0.4-0.9,0.4-1.9-0.1-2.7c-1-1.2-0.9-2.3-0.5-3.6c2.4,1,3.4,0.8,5.5-1.6c0.4-0.4,0.6-1.6,0.3-1.8c-1.5-1.3-2.6-3.5-5.3-2.2
	c0.8-2.8,0.2-4.8-2.2-5.9C300.2,122.6,300.1,124.9,299.2,125.7L299.2,125.7z"/>
<path class="st0" d="M283.8,130.9l-3.5-1.7l3.4-2.1l-3.8-2.2l3.1-2.4c-0.6-0.8-1.3-1.7-2.2-3l3.4-1.2c-1.3-3-0.4-5.8,1.4-8.6
	c0,0.5,0.1,1,0.1,1.5c-0.2,2.7,1.3,5.3,3.7,6.6c0.7,0.4,1.3,0.9,1.8,1.4c1.4,1.1,1.7,3.1,0.6,4.5c-1,1.6-2.4,1-3.7,0.5
	c-0.3-0.1-0.5-0.2-1-0.3c-0.4,2.3,0,4.1,1.8,5.6c1,0.9,0.8,7.7-0.2,8.4c-0.6,0.6-1.5,0.6-2.1,0c-0.2-0.2-0.4-0.5-0.4-0.8
	c-0.3-1-0.4-2-0.5-3.1h-3.5L283.8,130.9z"/>
<path class="st0" d="M315.9,124.1c-0.7,0.2-1,0.3-1.2,0.4c-1.5,0.6-2.9,0.8-3.8-0.8c-0.8-1.6-0.2-3.6,1.4-4.6c3.5-2,5.5-4.8,5.3-9.1
	c1.7,2.7,2.7,5.5,1.2,8.7l3.4,0.9l-2.2,3.2l3.1,2.4l-3.3,2.1l2.4,2.6L319,131l1.2,3.2l-3.1,0.4c0,0.9-0.1,1.9-0.3,2.8
	c-0.2,0.6-1.2,1.4-1.5,1.2c-0.8-0.3-1.4-0.8-1.6-1.6c-0.3-2.1-0.4-4.2-0.4-6.2c0-0.3,0.5-0.8,0.9-1
	C316,128.3,315.9,126.4,315.9,124.1z"/>
<path class="st0" d="M298.1,168.1c-1.9,2.4-1.9,3.3-0.1,7.1l-2.4-2c-1.2,0.2-2.7,0.9-3.3,0.4c-1.8-1.5,0.1-2.4,1-3.6l-1.8-1.4
	c4.3-0.4,7-2.6,8.8-6.1c1.8-0.4,2.9,0.2,3.8,1.9c1.3,2.2,3.6,3.5,6.1,3.6c0.5,0,0.9,0.1,1.9,0.3l-2.3,1.7c1.1,1,2.6,2.1,1.1,3.7
	c-1.4,1.4-2.1-0.1-2.8-0.8l-2.8,2.5l-0.5-0.4c2-2.2,2.1-4.5,0.3-7.1c-0.2,1.5-0.5,3-1,4.4c-0.5,1.1-1.4,1.9-2.6,2.2
	c-0.7,0.1-1.9-1.2-2.3-2.1C298.7,171,298.3,169.6,298.1,168.1z"/>
<path class="st0" d="M306.5,106.2l-1.1-0.9c0.1-0.1,0.2-0.3,0.3-0.3c0.6,0.2,1.6,0.4,1.7,0.8c0.2,0.8,0.1,1.6-0.4,2.2
	c-1.7,1.1-2.5,3.2-1.9,5.1c0.6,1.8,1.3,3.6,2.1,5.3c0,0.1,0.1,0.2-0.1,0.9l-4.3-2.5c-0.5,1.2-1.3,1.8-2.1,0.1l-3.9,1.9l-0.2-0.4
	l1.4-1.1c-0.1-3.1-3.4,0.2-3.9-2.2c1.8-0.8,4.1,0.4,5.7-0.8l-0.1-0.6c-1.9,0-3.8,0-5.7,0s-2.5-0.5-2.4-2.6c2.2,2.6,5,1.3,7.7,1.5
	c-1.5-3-3.9-3.5-5.8-1.4c-1.3-1.6-0.7-3.4,1.4-4c1.6-0.4,3.1-1,4.8-1.3c0.7-0.1,1.4,0.1,1.9,0.5
	C303.1,107.6,304.6,107.3,306.5,106.2z"/>
<path class="st0" d="M323,156.1c0.8,0,1.7,0.1,2.5,0.3c0.7,0.3,1.3,0.8,1.7,1.4c0.1,0.6,0,1.1-0.4,1.6c-0.7,0.3-1.4,0.3-2,0
	c-1.2-0.5-2.3-1.3-4,0.3c1,0.7,1.9,1.4,2.8,2.3c0.5,0.7,0.7,1.5,0.6,2.4c0,0.4-1,1.1-1.2,1c-0.8-0.4-1.5-1-2.1-1.6
	c-0.3-0.4-0.3-1.1-0.5-1.6c-0.7-2.5-1.3-2.7-3.8-1.7c-0.6,0.2-1.3,0.1-1.8-0.2c-0.4-0.5-0.5-1.1-0.3-1.6c0.3-0.4,1.1-0.4,1.8-0.4
	c0.5,0,1,0,1.6,0l-4.7-4c2.4-1.2,3.8-0.6,5.2,0.9c1.9,2,3.3,1.6,4.2-0.9c0.3-0.6,0.7-1.1,1.3-1.4c0.2-0.1,1.1,0.5,1.1,0.6
	c-0.1,0.6-0.4,1.2-0.7,1.8C323.9,155.4,323.5,155.6,323,156.1z"/>
<path class="st0" d="M279.5,156.1c-0.5-0.9-0.9-1.8-1.3-2.7c0.3-0.3,0.8-0.6,1.2-0.8c0.6,0.7,1,1.6,1.6,2.2s1.2,1.2,1.8,1.2
	c0.8-0.1,1.6-0.5,2.1-1.1c2.1-1.7,2.1-1.8,5.3-1l-4.5,3.8l3.2,0.9c-0.2,0.6-0.5,1.3-0.8,2c-3-2.3-4.2-1.9-5,1.5
	c-0.5,2.3-1.6,3.2-2.9,2.6c-1.6-0.8-1.4-1.9-0.5-3c0.4-0.6,1.2-0.9,1.7-1.5c0.3-0.5,0.5-1.1,0.6-1.7c-0.6-0.1-1.3-0.2-1.9-0.2
	c-0.6,0.1-1.1,0.7-1.7,0.8s-1.2,0-1.7-0.4c-0.4-0.4-0.5-0.9-0.4-1.5c0.3-0.5,0.8-0.9,1.4-1.1C278.3,156.1,278.9,156,279.5,156.1z"/>
<path class="st0" d="M303.6,160c3.8-0.9,6.6,0.8,9.4,2.4c4.2,2.6,4.5,7.2,1,10.4c0-1.6,0-3.3,0-5c-0.1-1.9-0.9-2.2-2.8-2.1
	c-1.5,0-2.9-0.4-4.1-1.3C305.7,163.3,304.8,161.5,303.6,160z"/>
<path class="st0" d="M289.3,172.8c-3.6-3-3.9-8.2,1.7-11.2c1.1-0.6,2.1-1.2,3.2-1.8c0.3-0.1,0.6-0.2,0.9-0.1c1.3,0,2.6,0,3.8,0
	c-0.8,4-4.1,6.5-7.9,5.8c-1.7-0.3-1.9,1-1.9,2C289.1,169.3,289.2,171,289.3,172.8z"/>
<path class="st0" d="M309.6,144.5l6.3,6.7h-4.2c-0.1,1.7-0.2,3.5-0.4,5.4l-0.6,0.1c-0.1-2.6-1.2-5-3.1-6.7c-0.3-0.4-0.4-1-0.2-1.5
	C308.1,147,309,145.6,309.6,144.5z"/>
<path class="st0" d="M291.9,151.2h-4.7c2-2.1,4.1-4.3,6.3-6.6c0.8,1.2,1.5,2.4,2.1,3.7c0.2,0.5-0.3,1.4-0.6,2
	c-1,2.1-2.2,4.1-3.2,5.9v-5H291.9z"/>
<path class="st0" d="M299.1,125.8l2.3-1.6c0.6,0.6,1.4,1.2,2.1,1.9c0.1,0.3,0.1,0.7,0,1c-2.1,0.8-0.6,2.5-1.5,4.2
	c1.5-0.6,2.9,0.9,3.2-1.3c0.4,0.1,1,0,1.3,0.3c0.7,0.6,1.3,1.3,1.9,2c-0.6,0.5-1.1,1-1.6,1.6s-1.1,1.3-1.8-0.1
	c-0.2-0.5-1.4-0.4-2.6-0.8c0.6,2.6-1.2,5,1.2,7c0.1,0.1,0,0.8-0.2,1.1c-0.6,0.6-1.2,1.2-1.8,1.7c-0.9-0.8-1.7-1.6-2.7-2.4
	c2.5-2,0.6-4.6,1.4-6.9l-0.5-0.5c-0.8,0.4-1.6,0.8-2.4,1.2c-0.4,0.1-0.9,0.1-1.3-0.1c-0.6-0.6-1.2-1.2-1.7-1.8
	c0.6-0.7,1.3-1.4,2-2.1c0.3-0.2,0.7-0.2,1.1,0c0.8,0.4,1.5,0.9,2.6,1.7c0-2.1,0.9-3.6-0.7-4.8C299,126.9,299.2,126.2,299.1,125.8
	L299.1,125.8z"/>
</svg>
