<?xml version="1.0" encoding="utf-8"?>
<!-- Generator: Adobe Illustrator 25.1.0, SVG Export Plug-In . SVG Version: 6.00 Build 0)  -->
<svg version="1.1" id="Layer_1" xmlns="http://www.w3.org/2000/svg" xmlns:xlink="http://www.w3.org/1999/xlink" x="0px" y="0px"
	 viewBox="0 0 314.7 128.4" style="enable-background:new 0 0 314.7 128.4;" xml:space="preserve">
<style type="text/css">
	.st0{fill:#FFFFFF;}
</style>
<path class="st0" d="M33.2,56.3c-0.2,0.7-0.3,1.4-0.3,2.1c0,8.1,0.1,16.1,0.2,24.2c0,2-0.1,2.1-2,2c-0.9-0.1-1.8-0.1-2.8,0
	c-1.4,0.1-1.9-0.4-1.9-1.8c0.1-6.2,0-12.4,0-18.6V42.3c0-2.4,0.5-3,3-3c1.6,0,3.3-0.4,4.4,1.4c0.5,0.8,0.9,1.7,1.2,2.6
	c0.8,2.4,1.6,4.8,2.5,7.3c0.4,1.2,1,2.4,1.5,3.6c1,2.5,1.9,5.1,2.9,7.6c0.6,1.4,1.2,2.7,1.8,4.1s1,2.9,1.5,4.4
	c0.3,0.5,0.6,0.9,0.9,1.3c0.5-0.4,1.2-0.7,1.3-1.2c0.5-2,1.2-4,2.2-5.8c0.5-1.4,0.9-2.8,1.3-4.2c0.3-0.8,0.7-1.6,1.1-2.4
	c1-2.2,2.1-4.5,3-6.7c0.5-1.3,0.8-2.6,1.3-3.9c0.6-1.6,1.3-3.1,2-4.7c0.1-0.6,0.3-1.2,0.6-1.8c0.9-1.5,5-2.1,6.3-0.9
	c0.6,0.5,0.9,1.3,1,2.1c0.1,13.7,0,27.3,0.1,41c0,1.3-0.5,1.8-1.7,1.7c-0.6,0-1.2,0-1.8,0c-3.8,0.3-3.1-0.1-3.1-2.9
	c0-8,0.1-16,0.1-24c-0.1-0.5-0.3-1.1-0.6-1.5c-0.3,0.4-0.5,0.9-0.8,1.3c-0.7,1.4-1.3,2.8-1.9,4.3c-0.5,1.3-0.9,2.6-1.4,3.9
	c-0.4,1-0.7,2-1.2,3c-1,2.2-2.1,4.3-3.1,6.5c-0.5,1.2-0.8,2.6-1.3,3.9c-0.3,0.9-0.7,1.7-1.1,2.6c-0.6,1.1-1.4,2.2-1.1,3.6
	c0,0.1-0.7,0.5-1,0.5c-0.4-0.1-0.7-0.3-0.9-0.7c-1.1-2.4-2.2-4.8-3.2-7.3c-0.5-1.3-0.9-2.7-1.3-4c-0.3-0.9-0.7-1.7-1.1-2.6
	c-0.6-1.3-1.2-2.6-1.7-3.8c-0.9-2.3-1.8-4.6-2.7-6.9c-0.5-1.3-1.1-2.7-1.6-4L33.2,56.3z"/>
<path class="st0" d="M272.3,54.8l4.1-3.6l0.1-0.1c2.5-0.4,4.8-2.2,7.5-0.9c0.3,0.2,0.7,0.3,1.1,0.3c2.5,0.1,4.8,1.4,6,3.6
	c0.8,1.3,2.2,2.6,1.6,4.4c0,0.2,0,0.3,0.1,0.5c1.6,1.9,1,4.1,1,6.2c0.1,5.8,0,11.5,0,17.3c0,1.8-0.4,2.2-2.2,2.2
	c-4.4,0-4.4,0-4.4-4.3c0-6.3,0-12.5,0.1-18.8c0.1-2-0.8-3.9-2.4-5.1c-1.1-0.6-2.4-0.8-3.7-0.6c-1.5,0.2-3.4-0.6-4.5,1.1
	c-0.8,1.3-1.8,2.6-1.8,4.3c0.1,7.1,0,14.2,0.1,21.4c0.1,1-0.5,1.8-1.5,2c-0.1,0-0.2,0-0.4,0h-0.2c-4.4,0.2-4.4,0.2-4.4-4.2
	c0-6,0-12,0.1-18c0.1-2-0.9-3.5-1.6-5.2c-0.9-2.1-3.1-1.4-4.8-1.6c-2.1-0.4-4.2,0.6-5.3,2.4c-0.2,0.3-0.5,0.5-0.5,0.8
	c-0.5,2.2-0.8,4.4-0.9,6.7c-0.1,5.7,0,11.3,0.1,17c0,1.3-0.4,2-1.9,2.1c-3.9,0-3.9,0.1-3.9-3.8c0-9.6,0.1-19.3,0-28.9
	c0-1.3,0.4-1.7,1.6-1.6c0.8,0.1,1.5,0,2.3,0s1.5,0.1,1.5,1.2s0.8,1.2,1.5,0.6c1.6-1.4,3.6-1.7,5.4-2.5c0.1-0.1,0.3-0.2,0.5-0.2
	c2.4,0.7,5.1,0.3,6.9,2.4C270.4,53,271.4,53.8,272.3,54.8z"/>
<path class="st0" d="M121.6,46.6c0-0.9,0-1.8,0-2.8c0.2-1.6-0.5-3.2-1.8-4.1c-4.1-3.4-3-7.5,1.2-10.4c4-2.8,9.1,1.8,9.2,5.4
	c-0.1,1.4-0.6,2.8-1.5,4c-1.1,1.6-1.7,3.5-1.7,5.5c0.1,10.8,0,21.7,0,32.5c0,2,0.1,3.9,0.1,5.9c0.1,1.7-0.3,2.1-2.1,2.1
	c-0.8,0-1.5-0.1-2.3-0.1s-1.3-0.2-1.3-1.2s-1.2-1.5-1.8-0.7c-1.4,1.9-3.6,2.1-5.5,2.7c-1.4,0.5-3.3-0.1-5-0.5c-1-0.3-2-0.8-3-1.3
	c-1.7-0.6-3.1-2-3.7-3.8c-0.5-1.1-1.2-2.2-1.9-3.3c-0.1-0.1-0.2-0.2-0.2-0.3c0.4-3.5-2.1-6.9-1-10.4c0.6-1.9,1-3.9,1-5.8
	c0-1,0.9-1.9,1.4-2.9c0.9-1.9,2.3-3.6,4-4.9c1.2-0.7,2.5-1.4,3.9-1.9c0.5-0.2,1.1-0.4,1.7-0.5c0.6-0.2,1.2-0.3,1.9-0.3
	c1.3,0.1,2.6,0.4,3.9,0.8c1,0.5,1.9,1.1,2.7,1.7c1.1,0.7,1.6,0.4,1.7-0.9C121.6,49.7,121.6,48.2,121.6,46.6z M121.6,67.7
	c0-1.9-0.1-3.8,0-5.7c0.3-1.5-0.4-3-1.6-3.8c-1.2-0.8-2.4-2-3.7-2.3c-2.1-0.2-4.1-0.3-6.2-0.1c-0.4,0.1-0.7,0.3-0.9,0.6
	c-1.1,1.1-1.9,2.6-2.3,4.1c-0.2,1.1-1.1,2.1-1,3.4c0.2,2,0.2,4,0.1,6c-0.2,3.3,0.6,6.1,3.1,8.3c0.6,0.5,1.6,0.6,2.1,1.1
	c0.8,0.9,2.1,1.2,3.1,0.6c1.8-0.9,4-0.8,5.1-2.9c0.3-0.5,0.9-0.8,1.3-1.2c0.4-0.5,0.7-1.1,0.8-1.8C121.7,72.1,121.6,69.9,121.6,67.7
	L121.6,67.7z"/>
<path class="st0" d="M132.8,62.5c0-6.5,0-13,0-19.6c0-0.9-0.7-2,0.5-2.6c0.6-0.4,1.3-0.8,2.1-0.9c5.4-0.1,10.9-0.3,16.3,0.1
	c2.6,0.2,5,1.4,7.4,2.6s3.1,3.4,4.4,5.4c1.9,3.2,1.1,6.7,0.8,9.7c-0.4,3.8-3,6.9-6.8,8.6c-1.4,0.7-3.1,0.7-4.4,1.2
	c-4.2,1.7-8.4,0.6-12.5,0.9c-1.2,0.1-1.6,0.4-1.6,1.7c0.1,4.4,0,8.8,0.1,13.2c0,1.3-0.3,1.9-1.7,1.8c-3.9-0.2-4.8,0.9-4.6-4.5
	C132.9,74.3,132.7,68.4,132.8,62.5L132.8,62.5z M139.1,53.7L139.1,53.7c0,2.1,0,4.2,0,6.3c0,1.2,0.4,1.5,1.5,1.5c4-0.1,8,0,12.1,0
	c0.5,0.1,1-0.1,1.4-0.3c1.7-1.7,3.9-2.6,4.3-5.7c0.5-2.6-0.2-5.3-1.7-7.4c-0.7-1-1.7-1.8-2.9-2.1c-4.4-0.3-8.8-0.2-13.2-0.2
	c-1,0-1.5,0.4-1.4,1.5C139.1,49.4,139.1,51.5,139.1,53.7z"/>
<path class="st0" d="M167.7,63c0-6.9,0-13.8,0-20.7c0-0.6,0.3-1.2,0.7-1.7c1-0.9,2.2-1.6,3.4-2.3c0.8-0.4,1.6-0.2,1.6,1.1
	c0,3.9,0,7.7,0,11.6c0,0.5,0.1,0.9,0.2,1.4c0.4-0.2,0.8-0.3,1.3-0.4c1.6-0.2,2.5-2.1,4.4-1.5c0.2,0.1,0.6-0.3,0.9-0.3
	c1.1-0.1,2.2-0.1,3.2-0.1c0.5,0,0.9,0.4,1.4,0.4c4,0,5.8,3,7.5,5.9c0.5,1.1,0.8,2.2,1,3.3c0,0.2,0,0.5,0.1,0.6c1.7,2,1,4.5,1,6.7
	c0.1,4.6,0,9.2,0.1,13.9c0,0.8,0.4,1.6,1.1,2.1c1.5,0.9,2.5,2.3,2.9,4c0.1,1.3-0.1,2.5-0.7,3.7c-1,2.1-4.1,3.3-5.9,2.5
	c-3.4-1.6-4.6-4.1-3.4-6.8c0.2-0.4,0.3-1.1,0.1-1.2c-1.3-1-0.8-2.4-0.8-3.6c0-6.1,0-12.3,0.1-18.4c0.1-4.5-2.8-7.3-7.4-7.2
	c-2.3,0-4.5,0.3-5.6,2.6c-0.9,1.6-1.4,3.3-1.5,5.2c-0.2,6.6,0,13.2,0,19.7c0,0.4-0.3,1.2-0.5,1.2c-1.5,0.1-3,0-4.5-0.1
	c-0.3,0-0.6-1-0.6-1.5c0-6.6,0-13.2,0-19.8L167.7,63z"/>
<path class="st0" d="M217.3,64.2c1.2-2.8,0.3-6.5-2.1-8c-0.9-0.6-1.9-1-3-1.3c-0.6-0.2-1.5-0.2-1.9,0.1c-1,1-2.3,0.7-3.5,1
	c-1.5,0.5-3,1.2-4.3,2c-0.8-1.2-1.7-2.4-2.5-3.8c-0.4-0.8,0.8-2.1,2-2.5c3.1-0.9,6.2-1.5,9.4-1.8c0.9,0,1.8,0.1,2.6,0.4
	c0.5,0.1,1,0.2,1.6,0.3c1.8-0.1,3,0.8,4.3,1.8c0.6,0.5,1.2,1.1,1.8,1.7c0.7,0.8,1.2,1.8,1.5,2.8c1.9,4.2,0.7,8.6,1,12.8
	s0,8.6,0.1,12.9c0,1.4-0.5,2.2-2,2.1c-0.8,0-1.6,0.1-2.5,0.1c-1,0-2.4,0.3-2.1-1.5c-0.3-0.2-0.7-0.4-1.1-0.4c-0.5,0.2-1,0.4-1.4,0.7
	c-1.3,0.6-2.6,1.6-4,1.8c-1.9,0.2-3.9,0.1-5.8-0.1c-0.3,0-0.7-0.5-1-0.5c-3.3-0.1-4.3-3.3-6.5-4.9c-0.2-0.1,0-0.7-0.1-1.1
	c-0.1-0.7-0.3-1.5-0.6-2.1c-0.8-1.4-0.8-3.1,0.1-4.4c0.7-1,1.1-2.1,1.4-3.3c0.4-2.7,2.7-3.2,4.5-4.1c1.2-0.6,2.9-0.4,3.9-1.2
	c1.5-1.2,3.1-0.8,4.7-0.9c0.4,0,0.8,0.2,1.2,0.3c0.7,0.2,1.4,0.5,2,0.7S216.5,64,217.3,64.2z M217.7,73L217.7,73
	c0-0.8,0.1-1.5,0.1-2.3c0.1-1.1-0.2-1.7-1.5-1.7c-0.7-0.1-1.3-0.3-1.9-0.6c-0.4-0.2-0.8-0.4-1.3-0.5c-2.4,0.1-4.7-0.3-7.1,1.1
	c-3,1.8-3.2,5.2-2.3,8.1c0.5,1.4,1.7,2.5,3.2,2.8c1.7,0.4,3.4,0.3,5-0.1c1.1-0.2,1.9-1.2,3-1.7c2.8-1.3,2.8-1.2,2.7-4.3
	C217.7,73.6,217.7,73.3,217.7,73z"/>
<path class="st0" d="M86.5,70.3c-2.8,0-5.7,0-8.5,0c-0.6,0-1.8,0.2-1.8,0.5c-0.2,0.9-0.1,1.8,0.2,2.6c0.5,1.1,1.1,2.2,1.9,3.3
	c0.3,0.7,0.8,1.3,1.3,1.7c1.9,1.1,3.8,2.6,6.2,1.8c2-0.6,3.9-1.5,5.7-2.7c1-0.7,1.7-0.9,2.4,0.1l0.2,0.2c0.8,0.8,2.4,1.6,1.6,2.8
	c-0.9,1.2-2,2.1-3.4,2.8c-1.5,0.9-3.2,1.5-4.9,1.8c-2.3,0.3-4.8,1-7.1-0.4c-0.8-0.5-1.8-0.8-2.7-1.2c-2.9-1.3-5.1-3.7-6.2-6.7
	c-1.3-3.6-2.4-7.2-2.1-11c0.2-1.1,0.5-2.3,0.9-3.4c0.1-0.3,0.2-0.6,0.3-0.9c0.4-3.6,2.3-6.8,5.1-9c1.4-1.1,3-2.4,5.1-2.1
	c0.4,0,0.8-0.4,1.2-0.4c1.2,0,2.4,0,3.6,0c0.4,0,0.7,0.4,1.1,0.3c2.4,0,4.7,1.1,6.1,3.1c0.4,0.5,0.9,0.9,1.4,1.3
	c1.8,1.6,2.4,3.7,2.8,5.9c0.1,0.7,0.3,1.4,0.6,2.1c0.9,1.5,0.7,5.7-0.5,6.7c-0.5,0.4-1.2,0.7-1.9,0.7C92.4,70.3,89.5,70.3,86.5,70.3
	z M84.4,55.9c-1-0.1-2.1-0.1-3.1,0.1c-1.1,0.4-2.2,1-3,1.9c-0.8,1.2-1.4,2.4-2,3.6c-0.9,1.5-0.4,3.2,1.1,3.2
	c4.2,0.1,8.5,0.1,12.7,0.1c1.1,0,1.5-0.5,1.6-1.6c0.2-2.1-0.9-3.7-1.9-5.3C88.5,55.9,86.5,55.7,84.4,55.9z"/>
<path class="st0" d="M248.1,51.6c-0.3,1.4-0.4,2.4-0.7,3.5c-0.2,0.6-0.5,1.2-0.8,1.8c-0.5-0.2-0.9-0.5-1.4-0.7
	c-0.3-0.2-0.7-0.2-1.1-0.3c-0.9,0.1-1.7,0.1-2.6,0c-2-0.5-3.3,0.7-4.4,2c-1.2,1.2-1.9,2.9-1.8,4.7c0.2,6.9,0.1,13.8,0.1,20.7
	c0,1-0.4,1.4-1.4,1.4h-0.3c-5,0.2-5,0.2-5-4.7V53c0-2.6,0.1-2.6,2.7-2.6c0.7,0,1.4,0,2.1,0c1,0,1.7,0.1,1.7,1.4
	c0,1.1,0.6,1.1,1.4,0.3c0.8-1.2,2.2-1.8,3.6-1.7c1.1,0.1,2.4-0.6,3.5-0.6C246.1,49.8,247.5,50.6,248.1,51.6z"/>
<path class="st0" d="M208.3,91.3c2.5,0.1,6,3.6,6,6s-3.5,6.1-6.1,6s-6.1-3.6-6-6.2S205.9,91.3,208.3,91.3z"/>
<path class="st0" d="M223.7,111.1c-2.6,0-6-3.4-6-6s3.6-6.1,6.1-6.1s6,3.6,6,6.1C229.8,107.7,226.4,111.1,223.7,111.1z"/>
<path class="st0" d="M92.6,15c3.9,0,5.6,1.8,5.6,6c-0.1,2.9-2.5,5.1-5.4,5.1c-3.7,0-5.6-2-5.6-5.9C87.3,16.9,89.2,15,92.6,15z"/>
<path class="st0" d="M108.5,21.8c2.8,0.1,5.3,2,6,4.8c0.2,2.1-0.9,4.1-2.8,5.1c-0.5,0.2-0.9,0.4-1.3,0.7c-0.8,0.8-2.1,0.7-2.8-0.1
	c-0.2-0.2-0.6-0.5-0.8-0.4c-2.7,0.3-3.1-1.9-3.8-3.6c-0.3-0.8-0.3-1.6-0.1-2.4C103.8,23.5,106,21.9,108.5,21.8z"/>
<path class="st0" d="M245.2,111.1c0.3,2.9-3.4,5.5-5.4,5.5c-2.3,0-5.5-3.1-5.5-5.4s3.2-5.5,5.6-5.5
	C241.7,105.6,245.5,108.4,245.2,111.1z"/>
<path class="st0" d="M75.9,20.6c-2.7,0-5.2-2-5.2-4c0-3.5,2.3-6,5.4-5.9c2.7,0,4.8,2.5,4.8,5.6C80.8,18.7,78.6,20.6,75.9,20.6z"/>
<path class="st0" d="M62.9,12.9c0,3.1-0.8,4.3-2.8,4.3c-1.7,0-3.6,0.5-4.8-1.5c-0.6-0.7-1-1.6-1.2-2.4c0-2.3,1.6-4.3,3.8-4.8
	C62.5,7.9,63,9.8,62.9,12.9z"/>
<path class="st0" d="M253.1,114.8c0.1-2.1,2-4.4,3.7-4.3c2.2,0.1,5,2.8,4.8,4.7s-2.9,4.5-4.5,4.4
	C254.8,119.1,253.1,117.1,253.1,114.8z"/>
<path class="st0" d="M45.1,11.5c0,2.3-1.7,4.2-3.9,4.6c-1.5,0.1-3.7-2.6-3.7-4.6c0-1.5,2.2-4.1,3.6-4.2C43.6,7.3,45.1,8.8,45.1,11.5
	z"/>
<path class="st0" d="M270.8,116.8c-0.1-2.7,1.7-3.7,3.9-3.7c2.5,0,3.7,1.8,3.7,4c0,1.6-2.3,4-3.8,4
	C273,121.1,270.8,118.6,270.8,116.8z"/>
<path class="st0" d="M295,117.2c0,1.8-2,3.9-3.6,3.9c-1.5,0-4-2.4-4-3.9s2.6-3.9,4.2-3.9C293.6,113.6,295.1,115.3,295,117.2z"/>
<path class="st0" d="M20.9,11.5c0-1.8,1.1-3.1,2.5-3c0.9-0.1,1.9,0.1,2.7,0.5c0.7,0.7,1.2,1.6,1.4,2.6S24.8,15,23.7,15
	C21.9,15,20.9,13.7,20.9,11.5z"/>
<path class="st0" d="M311.6,116.2c0,1.4-1.4,3-2.4,2.6c-1.2-0.6-2.2-1.5-2.9-2.7c-0.4-0.7,1.8-2.7,2.9-2.7
	C310.6,113.4,311.7,114.7,311.6,116.2C311.6,116.1,311.6,116.2,311.6,116.2z"/>
<path class="st0" d="M6.3,15c-1.4,0.2-1.9-0.6-1.9-2c0-1.8,0.4-2.3,1.9-2.3c1.7,0,2.4,0.5,2.5,2.1C8.8,14.5,8.4,14.9,6.3,15z"/>
</svg>
