<svg enable-background="new 0 0 462.3 198.4" viewBox="0 0 462.3 198.4" xmlns="http://www.w3.org/2000/svg"><g fill="#fff"><path d="m225.9 179h11.5v-61.7l63 66v-89.3h-11.5v61.2l-63-66z"/><path d="m368 93.6c-3.6-.9-7.3-1.4-11.1-1.4-18.1-.2-34.5 10.5-41.6 27.1-2.4 5.6-3.6 11.6-3.5 17.7 0 5.9 1.2 11.8 3.5 17.2 7.1 16.2 23.1 26.7 40.8 26.6 3.9 0 7.7-.5 11.5-1.5s7.4-2.5 10.8-4.4l.3-.2v-13.9l-.9.8c-3 2.7-6.5 4.9-10.3 6.4s-7.7 2.2-11.8 2.2c-4.4 0-8.8-.9-12.8-2.7-3.9-1.7-7.4-4.2-10.3-7.3s-5.3-6.7-6.9-10.7c-3.3-8.3-3.3-17.6.1-25.9 1.6-4 4-7.6 6.9-10.7s6.5-5.5 10.4-7.3c4-1.8 8.4-2.7 12.9-2.7 4 0 7.9.7 11.6 2.1s7.2 3.4 10.2 6l.9.8v-13.6l-.3-.2c-3.2-2-6.7-3.4-10.4-4.4"/><path d="m413.3 132.3 38.3-38.3h-15.2l-34.8 35.6v-35.6h-11.6v85h11.6v-35.4l3.6-3.4 31.4 38.8h15.5z"/><path d="m130.6 143.8-65.4 21.4-40.6-56.3 40.4-56.3 25.3 8.3-1.8-12.9-28-9.2-50.3 70.1 50.5 70.1 81.6-26.8v-30.8l-11.7-2.2z"/><path d="m99.5 41.8 8.5 61.3 60.9 11.3 29.2-54.3-42.9-44.9z"/></g></svg>