<?xml version="1.0" encoding="utf-8"?>
<!-- Generator: Adobe Illustrator 25.1.0, SVG Export Plug-In . SVG Version: 6.00 Build 0)  -->
<svg version="1.1" id="Layer_1" xmlns="http://www.w3.org/2000/svg" xmlns:xlink="http://www.w3.org/1999/xlink" x="0px" y="0px"
	 viewBox="0 0 431.7 176.7" style="enable-background:new 0 0 431.7 176.7;" xml:space="preserve">
<style type="text/css">
	.st0{fill:#FFFFFF;}
</style>
<path class="st0" d="M281.8,2.5c8.2,1.7,16.4,3.2,24.8,1.7c1.4-0.2,2.9-0.5,4.3-0.7c0,0,0.1,0,0.5,0.2c-2.6,1.7-5,3.3-7.5,4.7
	c-3.8,2.1-7.5,4.1-11.4,5.9c-7.7,3.6-16.5,3.8-24.3,0.5c-3.8-1.5-7.7-3-12-2.6c-2.4,0.2-4.8,0.8-7.4,1.2c0.4-0.4,0.8-0.7,1.2-1
	c7.7-4.6,15.8-8.3,24.8-9.8c0.3-0.1,0.6-0.2,0.8-0.3L281.8,2.5z"/>
<path class="st0" d="M239.3,81.8c2-1.2,4.1-2.3,6.2-3.2c4.5-1.8,9.6-2.1,14.2-0.6c4.8,1.2,8.2,5.4,8.3,10.4
	c0.4,5.1,0.3,10.3,0.3,15.4c0,5,0,9.9,0,14.9c0,1.7-0.6,2.5-2.3,2.4c-1.3-0.1-2.5-0.1-3.8,0c-1.6,0.1-2.2-0.6-2.2-2.3
	c0-8.3,0-16.7,0-25.1c0-1-0.1-1.9-0.1-2.9c0-5.4-4.6-8.6-9.8-8.5c-3.7,0.2-7.2,1.7-10,4.2c-0.5,0.6-0.8,1.4-0.7,2.2
	c0,9.8,0,19.5,0,29.2c0,2.9,0,3-3.1,3h-3.5c-1.2,0-1.8-0.6-1.8-1.8c0-0.5,0-1,0-1.4V20.3c0-3.1,0.1-3.2,3.2-3.2h3.6
	c0.7-0.1,1.4,0.4,1.5,1.1c0,0.1,0,0.3,0,0.4c0,0.5,0,1.1,0,1.6L239.3,81.8L239.3,81.8z"/>
<path class="st0" d="M187.3,119.1v52.3c0,2.6-0.1,2.7-2.8,2.7c-1.2,0-2.4,0-3.6,0c-0.9,0.1-1.7-0.5-1.8-1.4c0-0.1,0-0.3,0-0.4
	c0-0.5,0-1,0-1.5c0-26.9,0-53.7,0-80.6c0-1.6,0.1-3.3,0.2-4.9c0-2.2,1.3-4.2,3.4-5c8.5-4,17.2-4.8,26-1c5.6,2.4,8.7,7.2,9.8,13.1
	c1.5,8.7-0.4,16.5-6.3,23.1C206.6,121.9,196,124.1,187.3,119.1z M187.3,100.3V111c0,3.4,0,3.4,3.2,4.7c8,3.2,15.4,0.1,18.4-8
	c1.9-4.9,2.1-10.3,0.6-15.3c-2.1-7.5-8.4-11.6-16.1-10.6c-4.2,0.6-6,2.4-6,6.7C187.3,92.4,187.3,96.4,187.3,100.3L187.3,100.3z"/>
<path class="st0" d="M363.2,101.9c0-5.4,0-10.8,0-16.2c0-3.5,1.1-5.2,4.4-6.4c6.3-2.5,13.2-3,19.7-1.4c2.1,0.5,4,2,6,3.2
	c0.7,0.4,1,0.8,1.8,0.2c4.7-4.1,10.4-4.4,16.2-4.1c1.6,0.1,3.2,0.3,4.8,0.8c6,1.9,7.8,5.3,7.9,10.7c0.2,10.1,0,20.2,0.1,30.3
	c0,1.3-0.6,1.9-1.8,2c-1.7,0.1-3.4,0.1-5.1,0s-1.6-1.1-1.6-2.3c0-8.6,0-17.2,0-25.8c0-1.4,0-2.8-0.2-4.2c-0.7-4.4-2.2-6.2-6.6-6.8
	c-3.7-0.6-7.4-0.1-9.7,3.3c-0.8,1.3-1.2,2.9-1.2,4.4c-0.1,9.6,0,19.1,0,28.7c0,2.6-0.1,2.7-2.8,2.7h-3c-2.3,0-2.5-0.2-2.5-2.5
	c0-9.6,0-19.1,0-28.7c0.2-2.8-1.2-5.5-3.6-7.1c-5-3.2-12.6-0.8-13.9,4.5c-0.2,1-0.3,2-0.2,3.1c0,9.4,0,18.8,0,28.1
	c0,2.4-0.2,2.6-2.6,2.6c-1.3,0-2.5,0-3.8,0c-1.5,0.1-2-0.6-2-2.1C363.3,113.3,363.2,107.6,363.2,101.9z"/>
<path class="st0" d="M30.2,93.6c2.4,3.2,4.7,6.4,7.1,9.5c4,5.3,8,10.7,11.9,16c0.4,0.7,0.7,1.5,0.9,2.3c-0.8,0.2-1.6,0.4-2.4,0.5
	c-2.4,0-5.2,0.6-7.2-0.4s-3-3.6-4.4-5.6c-4.2-5.9-8.2-12-12.5-17.8c-1.1-1.5-2.5-2.7-4.2-3.4c-2.2-0.9-3.4,0.2-3.4,2.6
	c0,7.1,0,14.2,0.1,21.2v2.1c-2.7,0-5.2,0.1-7.7-0.1c-0.5,0-1-0.8-1.3-1.3c-0.2-0.2,0-0.7,0-1.1V66.3c0-2.7,0.2-3.2,2.8-3.5
	c8.3-1,16.6-1.7,24.8,0.3c9.5,2.3,14.3,11.5,10.5,20.2c-1.9,4.4-5.7,6.9-10,8.6C33.6,92.5,32,93,30.2,93.6z M16.1,90.7
	c5,0.2,9.8,0.4,14.4-1.7s6.9-6.1,6.6-11.6c0-4.7-3.2-8.7-7.7-9.8c-3.8-1-7.8-1.3-11.7-0.7C16.4,67,16,67.5,16,68.8
	c0.1,6.8,0,13.6,0,20.3C16,89.5,16.1,90,16.1,90.7z"/>
<path class="st0" d="M62.9,98.2c0.5,6,2,11.2,6.9,14.7c6.1,4.2,14.4,2.5,19.2-3.7c0.6-0.8,1.1-1.6,1.7-2.4c0.7-1,1.7-1.8,2.7-1
	c0.7,0.7,1,1.6,0.9,2.6c-1,4.4-3.7,8.1-7.5,10.6c-12.4,8.2-29.4-0.1-30.8-14.8c-0.5-5.1-0.3-10.1,1.5-15c4.3-11.7,18.4-15.9,28-8.2
	c4.5,3.6,6.6,8.7,7.3,14.3c0.3,1.3-0.5,2.5-1.8,2.8c-0.1,0-0.2,0-0.4,0c-0.7,0.1-1.3,0.1-2,0.1H65H62.9z M84.9,93.9
	c-0.4-4.9-2.3-8.7-6.4-11.1c-3.2-1.8-6.6-1.3-9.7,0.6c-3.8,2.4-5.3,6.2-5.9,10.5H84.9z"/>
<path class="st0" d="M315,101c0,4.1,0,8.1,0,12.2c0,3.8-1.4,5.9-4.9,7c-6.9,2.1-13.9,2.7-20.9,0.5c-4.1-1.3-6.8-4.1-7.3-8.6
	c-0.6-4,1.3-8,4.7-10.1c4.2-2.9,9.1-4.2,13.9-5.6c1.7-0.5,3.5-0.9,5.2-1.5c0.6-0.3,1.1-0.8,1.3-1.5c0.1-1.8,0.1-3.6-0.1-5.4
	c-0.4-3.6-1.7-5.4-4.5-6.1c-3.6-0.9-7.1,0.2-8.9,2.9c-0.6,1-1.1,2-1.6,3c-1,2-2.6,3-4.5,2.6c-2.7-0.5-3.9-3.1-2.5-5.8
	c0.8-1.6,2-3,3.5-4c6.2-4.1,13.1-4.6,20-2.3c4.6,1.5,6.3,5.4,6.4,10C315.1,92.5,315,96.7,315,101L315,101z M306.8,98.5
	c-4.9,1.4-9.8,2.4-13.8,5.5c-3.2,2.5-3.7,7.1-1.2,10.2c0.2,0.3,0.4,0.5,0.7,0.8c2.7,2.6,9.4,3.4,12.4,1.2c1-0.7,1.7-1.7,1.9-2.9
	C306.9,108.5,306.8,103.7,306.8,98.5L306.8,98.5z"/>
<path class="st0" d="M111.4,97.5c0.1,4.6,0.9,8.9,3.8,12.6c3.9,5.5,11.6,6.8,17.1,2.9c1.1-0.8,2.1-1.8,2.9-2.9
	c0.6-1,1.3-1.9,2.1-2.7c0.7-0.6,1.6-0.9,2.5-0.7c0.7,0.5,1.1,1.3,1.1,2.1c-0.6,4.2-3.1,7.9-6.7,10.1c-9.4,6.2-26.1,3.8-29.5-12.7
	c-1.4-6.8-0.9-13.5,2.6-19.7c3.2-5.6,8.2-8.6,14.6-9.2c5.8-0.6,11.3,0.4,15.6,4.7c1,1,1.8,2.1,2.4,3.3c1.1,2.1,0.6,4.1-1,5.1
	c-2,1.1-4.5,0.5-5.8-1.4c-0.5-0.8-1-1.7-1.5-2.5c-2.7-4.6-8.6-6.2-13.2-3.5c-0.6,0.4-1.2,0.8-1.8,1.3c-3,2.6-4.4,6-4.9,9.8
	C111.4,95.3,111.4,96.4,111.4,97.5z"/>
<path class="st0" d="M329,101.6c0-5.6,0-11.3,0-16.9c0-2.3,0.6-4.1,3-5c6.3-2.5,13.1-3.2,19.8-1.9c1.7,0.2,3.2,1.4,3.8,3.1
	c0.6,1.5,0,3.2-1.4,4c-1.6,1.1-3.7,0.9-5-0.5c-1.8-1.8-3.7-3.3-6.5-3.2c-3.3,0.1-4.9,1.4-5.3,4.7c-0.1,0.8-0.1,1.7-0.1,2.5v30.2
	c0,2.4-0.1,2.4-2.5,2.5h-3.3c-2.3,0-2.5-0.2-2.5-2.5C329,112.9,329,107.2,329,101.6z"/>
<path class="st0" d="M162.6,99.7c0,6.2,0,12.5,0,18.7c0,2.4-0.1,2.5-2.4,2.5c-5.8,0.1-5.8,0.1-5.8-5.8c0-11.6,0-23.1,0-34.7
	c0-2.4,0.1-2.4,2.4-2.5h2.7c3.1,0,3.1,0,3.1,3V99.7z"/>
<path class="st0" d="M210.8,140.7c0,4.2,0.2,8.5-0.1,12.8c-0.2,3.4-3.5,4.8-7.9,4c-1.4-0.3-1.9-0.8-1.3-2.3c2.2,0.2,4.6,1.5,6.5-0.4
	c0.7-0.7,0.7-2,1-3c-0.5-0.1-0.5-0.2-0.6-0.2c-3.4,1.7-5.7,1.5-7.3-0.6s-1.7-6.8,0.3-8.8c1.1-1,2.5-1.7,4.1-1.9
	C207.2,140,209,140.5,210.8,140.7z M208.8,146.1h0.2c-0.2-1.1,0-2.6-0.7-3.4c-1.4-1.6-5.1-0.6-5.8,1.5c-0.3,1.2-0.4,2.4-0.3,3.6
	c0.2,2.1,1.4,3.2,3.3,3.1c2.4-0.1,3.3-1.1,3.3-3.4V146.1z"/>
<path class="st0" d="M257,153.2l-2.8-0.9c-2.9,1.5-4.7,1.5-6.4-0.2c-2.5-2.5-2.3-8.2,0.4-10.6c2-1.8,4.2-1.4,6.7-0.7
	c-0.1-1.3-0.1-2.6,0-3.9c0-0.5,0.7-0.8,1.1-1.2c0.4,0.4,1,0.7,1,1.1C257.1,142,257,147.3,257,153.2z M254.8,146.4
	c0-0.9,0.1-1.8,0-2.7c0-0.4-0.3-0.9-0.6-1.1c-1.8-1.1-4.2-0.5-5.3,1.3c-0.2,0.3-0.3,0.6-0.4,0.9c-0.2,1.1-0.3,2.3-0.1,3.4
	c0.2,2.2,1.4,3.3,3.2,3.2c2.2-0.1,3.3-1.2,3.3-3.5L254.8,146.4z"/>
<path class="st0" d="M321.4,141.3c1.3-0.5,2.5-0.8,3.9-1.1c2.3-0.2,4.1,0.8,4.5,3s0.4,4.5-0.1,6.7c-0.8,2.8-3.6,3.8-6.5,3.1
	c-1.2-0.2-2.4-0.3-3.6-0.3c-0.1-0.4-0.1-0.7-0.2-1.1c0-4.8,0-9.7,0-14.5c0-1.4,0.5-1.8,2-1.4L321.4,141.3L321.4,141.3z M321.5,147.1
	c0,0.9,0,1.8,0,2.7c0,0.4,0.2,0.8,0.5,1.1c1.7,1.2,4.1,0.8,5.3-1c0.2-0.3,0.3-0.6,0.5-0.9c0.3-1.3,0.4-2.6,0.2-3.9
	c-0.3-2.2-1.5-3.1-3.4-2.9c-2.3,0.3-3.1,1.2-3.1,3.5V147.1z"/>
<path class="st0" d="M388.9,147c0.2,4.3,3.1,5.3,8.5,3.2c0.5,1.9,0.4,2.3-1.3,2.5c-2,0.4-4,0.3-6-0.1c-3.2-0.9-4.5-5.2-3.1-8.8
	c1.2-3,4.6-4.5,7.7-3.4c2.3,0.9,3.6,3.3,3.1,5.7c-0.1,0.4-0.9,0.8-1.5,0.8C394,147,391.5,147,388.9,147z M389,145.1h6.7
	c-0.1-2.2-1-3.2-2.9-3.3c-1.9-0.2-3.6,1.1-3.8,3C389,144.9,389,145,389,145.1z"/>
<path class="st0" d="M158.6,62c2.8,0,4.9,1.8,4.8,4.3c0,2.5-2.1,4.4-5,4.3s-4.9-1.8-4.9-4.2C153.5,63.7,155.5,62,158.6,62z"/>
<path class="st0" d="M293.5,146.4c0,5.3-3.2,8.1-7.7,6.5c-1.3-0.6-2.4-1.6-3.1-2.9c-1.5-2.6-0.6-7.1,1.4-8.7
	c1.7-1.4,4.1-1.7,6.1-0.7C292.8,141.7,293.7,144,293.5,146.4z M284.3,146.6c0,3.4,1.7,5.4,4.3,4.8c1.9-0.5,3.2-2.9,2.8-5.5
	s-1.4-3.7-3.1-3.8C285.5,141.9,284.3,143.3,284.3,146.6z"/>
<path class="st0" d="M242.3,146.7c0,4.9-3.4,7.6-7.7,6.2c-0.1,0-0.2-0.1-0.4-0.1c-2.8-1.1-4.2-5.2-3.1-8.8c0.9-3,4-4.7,7-3.8l0,0
	C240.8,141,242.3,143.3,242.3,146.7z M240.3,146.7c-0.2-1.1-0.5-2.1-0.9-3.1c-0.9-1.6-2.9-2.2-4.5-1.3c-0.5,0.3-0.9,0.6-1.2,1.1
	c-1.2,2-1.2,4.4,0,6.4c0.6,0.8,1.6,1.4,2.6,1.5C238.7,151.7,240.1,149.8,240.3,146.7L240.3,146.7z"/>
<path class="st0" d="M227,146.5c0,5.1-3.3,7.9-7.6,6.5c-1.2-0.4-2.2-1.2-2.9-2.2c-1.3-2.1-1.5-4.7-0.5-7c1-2.8,3.2-3.9,6.4-3.6
	c2.5,0.4,4.3,2.4,4.5,4.9C227,145.7,227,146.2,227,146.5z M224.9,146.7c0-3.3-1.7-5.1-4.3-4.6c-1.9,0.3-2.8,1.7-2.9,4.4
	c0,2.8,0.9,4.6,2.7,4.9c0.1,0,0.2,0,0.4,0C223.4,151.7,224.9,149.9,224.9,146.7L224.9,146.7z"/>
<path class="st0" d="M345.3,153.3l-2.8-1.1c-0.8,0.4-1.7,0.7-2.5,1c-2.5,0.6-4.7-0.6-4.9-3.2c-0.2-2.8-0.3-5.7-0.2-8.5
	c0-0.4,0.7-0.9,1.1-1s1,0.7,1,1.1c0.1,2.4,0,4.7,0.1,7.1c0.1,1.9,0.9,2.7,2.5,2.6c2,0,3.6-1.3,3.6-3c0-2.2-0.1-4.4,0.1-6.5
	c0-0.5,0.8-0.9,1.1-1.4c0.3,0.5,0.9,0.9,0.9,1.4C345.4,145.5,345.3,149.1,345.3,153.3z"/>
<path class="st0" d="M371.8,140.1l2.4,1.1c1.2-0.5,2.4-0.8,3.7-1c2.5-0.2,4,1.2,4.2,3.7c0.1,2.9,0,5.8,0,8.8
	c-1.4,0.4-2.2,0.4-2.1-1.4c0.1-2.1,0.1-4.2,0-6.4s-0.9-2.9-2.7-2.8c-2.1,0.1-3.4,1.3-3.4,3.1c0,2.5,0,4.9,0,7.6h-2L371.8,140.1z"/>
<path class="st0" d="M350,150.3c1.6,0.5,3.3,0.8,5,1c1-0.1,1.9-0.6,2.4-1.5c0.4-1.4-0.9-1.7-2-1.9s-2.2-0.5-3.3-0.9
	c-1.7-0.6-2.5-2.5-1.9-4.2c0.2-0.6,0.6-1.1,1-1.4c1.5-1.3,5.9-1.7,7.4-0.5c0.5,0.4,0.5,1.3,0.7,2.1c-1.5-0.4-3.1-0.8-4.6-1
	c-1.1-0.1-2.3,0.1-2.5,1.6s1.1,1.7,2.1,2c0.7,0.2,1.4,0.3,2.1,0.4c2.1,0.5,3.2,1.6,3.2,3.3c0,1.8-1.4,3.4-3.2,3.6
	c-1.7,0.2-3.3,0.1-5-0.1C350,152.6,349.6,151.6,350,150.3z"/>
<path class="st0" d="M415,150.3c1.7,0.4,3.4,0.9,5.1,1.1c1,0.3,2.1-0.3,2.4-1.3c0-0.1,0-0.2,0.1-0.3c0.1-1.3-1-1.6-2-1.9
	s-1.9-0.4-2.8-0.7c-1.5-0.2-2.6-1.5-2.7-3c-0.2-1.6,0.8-3.1,2.4-3.4c2-0.3,4-0.2,6,0.1c0.4,0,0.7,1.3,1.1,2.1
	c-1.7-0.4-3.4-0.6-5.1-0.8c-0.7,0-1.4,1-2.1,1.5c0.5,0.7,1.1,1.2,1.8,1.7c0.9,0.3,1.7,0.5,2.6,0.6c1.7,0.4,2.9,1.2,3.1,3.1
	c0.1,1.7-0.9,3.2-2.5,3.8c-2,0.6-4.2,0.6-6.2-0.2C414.5,152.2,414.9,151.1,415,150.3z"/>
<path class="st0" d="M411.1,142.9c-1.7-0.4-3.5-0.6-5.2-0.7c-0.6,0-1.3,0.9-2,1.4c0.6,0.6,1,1.4,1.7,1.8c0.9,0.3,1.9,0.5,2.8,0.6
	c1.6,0.4,2.8,1.2,2.9,3c0.2,1.6-0.8,3.2-2.3,3.7c-2.1,0.9-4.5,0.8-6.5-0.2c-0.6-0.3-0.8-1.4-1.2-2.3c2.1,0.5,3.8,1,5.5,1.2
	c1,0.3,2.1-0.3,2.4-1.3c0-0.1,0-0.2,0.1-0.3c0.1-1.4-0.9-1.6-2-1.9s-2-0.5-3-0.7c-1.4-0.3-2.4-1.4-2.5-2.8c-0.2-1.4,0.5-2.7,1.7-3.4
	c2.2-1.4,4.5-1.1,6.8-0.2C410.7,141.1,410.8,142.2,411.1,142.9z"/>
<path class="st0" d="M280.7,137.4c-4.5-0.1-5.2,0.3-4.8,3c0.5,0,0.9,0,1.4,0.1c0.7,0.2,1.9,0.5,1.9,0.8c0.1,1.5-1.1,0.7-1.8,0.9
	c-0.5,0.1-1.1,0.1-1.6,0.1v10.6h-2.2c0-2.9,0-5.7,0-8.5c0-0.9,0.4-2-1.1-2.3c-0.1-0.4-0.1-0.9,0.1-1.4c0.3-0.7,0.9-1.3,1.1-2
	c0.6-2.3,2.9-3.8,5.2-3.2c0.2,0,0.4,0.1,0.6,0.2C279.9,135.8,280.2,136.6,280.7,137.4z"/>
<path class="st0" d="M300.8,141.5l4.8-1.3c0.4,1.7,0.7,2.6-1.3,2.5c-2.9-0.2-4,0.9-4,3.8c0,1.7,0,3.4,0,5.1c0,0.8-0.1,1.6-1.1,1.3
	c-0.6-0.2-1-0.7-1.1-1.3c-0.1-3.1-0.1-6.3,0-9.4c0-0.6,0.5-1.1,0.8-1.7L300.8,141.5z"/>
<path class="st0" d="M366.2,152.7c-1.6,0.5-2.3,0.2-2.2-1.4c0.1-3.1,0-6.2,0-9.2c0-0.8-0.1-1.6,1.1-1.6s1.1,0.9,1.1,1.7
	C366.2,145.7,366.2,149.2,366.2,152.7z"/>
<path class="st0" d="M364,138.6v-2.4c0.7,0,1.4,0.2,2.1,0.4c0.2,0.1,0.3,1.1,0.1,1.3C365.5,138.2,364.8,138.4,364,138.6z"/>
</svg>
