<?xml version="1.0" encoding="utf-8"?>
<!-- Generator: Adobe Illustrator 25.1.0, SVG Export Plug-In . SVG Version: 6.00 Build 0)  -->
<svg version="1.1" id="Layer_1" xmlns="http://www.w3.org/2000/svg" xmlns:xlink="http://www.w3.org/1999/xlink" x="0px" y="0px"
	 viewBox="0 0 350.3 198.4" style="enable-background:new 0 0 350.3 198.4;" xml:space="preserve">
<style type="text/css">
	.st0{fill:#FFFFFF;}
</style>
<path class="st0" d="M11.5,58.8c0.3-1.9,0.6-3.8,0.9-5.7C16,32.6,32.7,15.5,53.1,11.6C71.5,8,87.7,12.8,101,25.9
	c9.3,9,14.8,21.3,15.2,34.3c0.9,14.8-4.6,29.2-15.2,39.6c-8.4,8.6-19.6,14-31.5,15.1c-27,2.9-51.7-15.2-57-41.8c-0.4-2-0.7-4-1-6.1
	L11.5,58.8z M64.2,36.5h-0.5c-1.8,5.4-4.5,10.5-5.1,16.3c-0.3,3.2,0.4,6.5,2,9.3c0.4,0.7,0.9,1.3,1.2,2c0.2,0.3,0.2,0.7,0.1,1
	c-0.2,0.2-0.6,0.2-1,0.2c-0.3-0.1-0.6-0.2-0.8-0.4c-1.5-1-2.5-2.6-2.8-4.4c-0.2-1.8-0.8-2.4-2.6-2.7c-2.9-0.5-5.8-1-8.6-1.5
	c-1.2-0.2-2.3-0.4-3.7-0.6c2.1,5.1,4.1,10.1,6.3,15c0.6,1.5,2,2.4,3.6,2.4c0.7,0,1.4,0.1,2.1,0.1c2.1,0,4.1-0.1,6.2,0
	c0.5,0,0.9,0.2,1.2,0.6c0.7,1.4-0.1,2.5-1.7,2.5h-7.9v3.8h2.1c-0.2,0.7-0.3,1.4-0.3,2.2c0,1.9-0.7,3-2.8,3.1c-0.2,0-0.4,0.1-0.6,0.2
	l0.8,3.5c1.6-0.3,3-0.7,4.5-0.9c0.6-0.1,0.8-0.4,0.9-1c0.3-1.7,0.6-3.4,0.9-5.1c0.3-1.9,0.3-1.9,2.3-1.9c1.8,0,1.8,0,1.8,1.8v6.1
	h3.9v-7.8c1-0.3,2.1,0.1,2.6,1c2,2.5,4,4.9,6.1,7.4l2.9-2.3c-0.6-0.7-1.1-1.4-1.6-2l-1.6-2c1.7-1.5,2.6-3.7,2.5-6
	c-0.9,0-1.8,0-2.6,0c-0.7,0-0.9,0.2-1,0.9c0,0.3-0.1,0.6-0.2,0.9c-0.2,0.4-0.4,1-0.8,1.1s-0.9-0.3-1.1-0.7c-0.8-1.6-2.5-2.5-4.2-2.1
	c-0.4,0-0.7-0.1-0.9-0.3c-0.6-0.8-0.4-1.9,0.4-2.4c0.3-0.2,0.7-0.3,1.1-0.3c2.2,0,4.5,0,6.8,0.1c2.8,0.1,4.4-1.3,5.4-3.7
	c1.1-2.8,2.3-5.5,3.4-8.3c0.7-1.8,1.4-3.5,2.2-5.4c-0.5,0-0.9,0.1-1.2,0.1l-10.4,1.7c-2.4,0.4-2.8,0.8-3.3,3.2
	c-0.4,1.8-1.5,3.3-3.2,4.2c-0.3,0.2-0.9,0-1.4,0c0-0.4,0.1-0.8,0.3-1.2c2.9-3.8,3.9-8.8,2.7-13.5C67.4,45.7,65.7,41.2,64.2,36.5z"/>
<path class="st0" d="M309.5,188l-1.1-0.5v-4.8c0.5,0.1,1,0.2,1.5,0.2c1.8,0.2,2.5-0.4,2.7-2.2c0-0.3,0-0.7,0-1v-12.8l-2.7,0.2v-4.8
	c1.4-0.2,2.9-0.4,4.3-0.5c4-0.3,8-0.7,12,0.1c3.4,0.7,5.3,2.8,5.4,6.2c0.2,5.8,0.2,11.5,0.2,17.3c0,0.7,0,1.5,0,2.3h-6.2v-16.2
	c0-3.6-1.4-5-5-5c-2.3,0-1.9-0.1-1.9,1.9c0,4,0,8.1,0,12.1c0,1-0.2,2.1-0.4,3.1c-0.4,2.2-2.1,4-4.3,4.4c-0.2,0.1-0.4,0.2-0.6,0.2
	L309.5,188z"/>
<path class="st0" d="M184.2,115.2c-11.1-0.1-19.7-2.8-27.5-8.1c-1-0.6-2.1-1.1-3.3-1.5c-16.9-6.6-27.1-18.7-29.7-36.6
	c-3.2-22.1,10-42.5,31.3-49.4c0.4-0.2,0.9-0.4,1.3-0.7c9.1-6.6,20.4-9.5,31.5-8.1c20.3,2.4,36.6,18,39.7,38.3
	c0.6,4.4,0.6,8.9,0.1,13.4c0,1.7,0.1,3.5,0.3,5.2c0.7,11.1-2.8,22-9.8,30.6C209,109.4,197,114.9,184.2,115.2z M183.4,36.2
	c-1.9,0.2-3.4,0.2-5,0.5c-13.8,1.9-25.1,12-28.4,25.5c-0.1,0.4-0.1,0.9,0,1.3c4.2,16.9,20.4,28,37.7,25.6c1.2-0.2,2.5-0.2,3.6-1.2
	c6.2-5.7,10-13.5,10.7-21.8c1-11.2-2.8-20.7-11-28.3c-0.4-0.4-0.9-0.6-1.4-0.8C187.4,36.6,185.3,36.4,183.4,36.2L183.4,36.2z"/>
<path class="st0" d="M293.2,10.6c20.9,0,37.1,11.1,43.5,28c2.8,7.7,3.4,16,1.6,24.1c-0.2,1.2-0.2,2.5,0.1,3.7
	c2.5,18-6.6,35.6-22.7,44c-16.5,8.5-37.1,6-50.7-6.6c-0.6-0.5-1.2-0.8-2-1c-13.5-5.2-22.8-14.6-26.8-28.6
	C230,52.5,242,30,263.3,22.5c2.1-0.7,4.1-1.8,5.9-3.1C277,13.5,285.9,10.6,293.2,10.6z M296,89.6c0.8,0,2.1-0.2,3.5-0.2
	c3.1,0.1,6.1-1.5,7.6-4.2c0.2-0.3,0.5-0.6,0.8-1c10.5-13.6,9.7-32.7-1.7-45.4c-0.6-0.6-1.3-1.1-2.1-1.3c-4.8-1.3-9.8-1.5-14.7-0.6
	c-14.3,2.6-24.2,10.6-29.4,24.3c-0.2,0.7-0.2,1.5,0,2.2C264.6,78.8,279,89.5,296,89.6L296,89.6z M256.8,33.2
	c-10.4,7.7-16,17.9-15.5,31c0.4,11,5.4,19.8,14,26.6c0-0.2,0-0.4-0.1-0.6c-3.6-7.8-4.7-16.5-3.2-25c0.4-1.3,0.5-2.6,0.5-4
	c-0.9-5.4-0.9-10.8,0.1-16.2C253.5,41,254.9,37,256.8,33.2z M281.9,19.9c1.1,0.1,2.1,0.2,3.2,0.4c8.6,1.3,16.7,5.1,23.1,11
	c0.5,0.4,1,0.7,1.6,0.9c8.9,3.1,16.6,8.9,21.8,16.7c0.2,0.3,0.4,0.5,0.6,0.9c-0.4-8.5-5.6-20.1-16.4-26.9S293.8,15.4,281.9,19.9z
	 M331.7,77.5c-0.3,0.3-0.4,0.4-0.4,0.5c-5.7,7.8-13.8,13.5-23,16.2c-0.7,0.2-1.3,0.6-1.8,1c-6.3,5.2-14,8.6-22.1,9.6
	c-1.5,0.2-3,0.3-4.7,0.5C302.8,115.8,328.7,100.7,331.7,77.5z M316.8,82.8c0.2-0.1,0.4-0.2,0.5-0.3c6.4-4.5,11.1-10.9,13.5-18.3
	c0.1-0.4,0.1-0.9,0-1.3c-1.4-5.2-4-10-7.7-14c-1.5-1.7-3.3-3.3-5-4.9l-0.2,0.2C323.7,57.2,323.4,70,316.8,82.8z M293.6,29.8
	c-0.1-0.1-0.1-0.2-0.2-0.3s-0.3-0.2-0.5-0.2c-7-2.9-14.8-3.7-22.2-2.1c-0.6,0.1-1.1,0.4-1.5,0.8c-4.9,4.8-8.3,10.9-9.8,17.5
	c-0.1,0.5-0.2,0.9-0.3,1.4s-0.1,0.8-0.2,1.5C267.7,36.8,279.2,30.6,293.6,29.8z M291.9,96.3V96c-14.2-1.5-25.5-8-33.6-20.1
	c0,0.5,0,0.8,0,1.1c0.9,7.5,4.2,14.5,9.4,20c0.3,0.3,0.8,0.6,1.2,0.7c5.7,1.5,11.8,1.6,17.5,0.2C288.3,97.4,290.1,96.8,291.9,96.3z"
	/>
<path class="st0" d="M165.8,132.9v1.6c0,4.1,0,8.3,0,12.4c0,0.9-0.1,1.8-0.3,2.8c-0.4,2.8-2.7,4.9-5.6,5c-1.3,0.1-2.6,0-3.8-0.2
	c-0.3,0-0.7-0.4-0.7-0.6c-0.1-1.5,0-2.9,0-4.4c0.7,0.1,1.2,0.2,1.8,0.3c1,0.3,2.1-0.3,2.4-1.3c0.1-0.2,0.1-0.4,0.1-0.6
	c0.1-0.6,0.1-1.2,0.1-1.8c0-3.7,0-7.4,0-11.1v-1.3l-2.7,0.1V129c1.3-0.1,2.7-0.4,4.1-0.4c3.6-0.3,7.1-0.3,10.7-0.1
	c4.9,0.4,6.8,2.6,7,7.5c0.2,6.1,0,12.2,0,18.5h-6.1v-1.2c0-5.3,0-10.6,0-16c0-1.6-0.6-3.1-2.2-3.6C169,133.2,167.4,133,165.8,132.9z
	"/>
<path class="st0" d="M315.4,137.5l-5.5-9c2.3,0,4.4,0,6.6,0c0.3,0,0.6,0.4,0.8,0.7c2.1,3.6,4.1,7.1,6.2,10.7
	c0.2,0.3,0.4,0.7,0.7,1.1c0.9-0.6,1.4-1.7,1.3-2.8c0-2.8,0-5.6,0-8.4v-1.3h6.2v2.8c0,2.2,0,4.4,0,6.6c0,3.4-1.2,6.1-4.9,7.3
	c1.8,3,3.6,5.9,5.5,9c-1.6-0.1-3.2-0.1-4.8,0c-1.4,0.3-2.8-0.5-3.4-1.9c-1.9-3.6-4-7.1-6.1-10.7c-1,0.5-1.6,1.6-1.4,2.7
	c0,2.8,0,5.7,0,8.5v1.3h-6c-0.1-0.1-0.1-0.3-0.1-0.4c0-3.3-0.1-6.6,0-9.9C310.5,140.9,312.5,138.3,315.4,137.5z"/>
<path class="st0" d="M265.6,175c-0.4,0.7-0.7,1.4-0.9,2.2c-0.1,2.9-0.1,5.9-0.1,8.9c0,0.5,0,0.9,0,1.5h-6.1V178
	c0-3.8,1.2-5.7,4.9-7.2c-1.8-2.9-3.5-5.8-5.5-9c1.6,0.1,3.2,0.1,4.8,0c1.4-0.3,2.8,0.5,3.3,1.9c1.9,3.6,4,7.1,6.1,10.7
	c1.3-0.8,1.4-2,1.4-3.1c0-2.7,0-5.4,0-8.1v-1.3h6.1v1.1c0,2.5-0.1,5,0,7.5c0.1,3.7-0.8,6.8-4.8,8.1l5.5,9c-2.4,0-4.5,0-6.7,0
	c-0.3,0-0.6-0.5-0.8-0.8c-2.1-3.6-4.1-7.1-6.2-10.7c-0.2-0.3-0.4-0.6-0.6-0.9L265.6,175z"/>
<path class="st0" d="M214.2,133.5c0-1.5,0-2.9,0-4.4c0.1-0.2,0.2-0.4,0.5-0.5c3.9-0.3,7.7-0.4,11.6-0.3c3.9,0.2,6.3,2.9,7.5,6.4
	c1.5,4.2,1.5,8.9,0.1,13.1c-1.6,4.8-5.1,7-10.2,6.9c-4.3-0.1-7.8-3-9-7.5c-1.3-4.8-1.2-9.5,1.9-13.8H214.2z M228.8,141.6
	c-0.2-1.8-0.3-3.4-0.7-4.9c-0.6-2.8-1.9-3.7-4.8-3.7c-0.7-0.1-1.4,0.4-1.7,1.1c-1.9,4-2.2,8.6-0.8,12.8c0.5,1.9,2.4,3.1,4.4,2.6
	c1.3-0.3,2.3-1.4,2.6-2.7C228.3,145.1,228.5,143.2,228.8,141.6L228.8,141.6z"/>
<path class="st0" d="M181.6,128.6h6v1.2c0,4.1-0.1,8.3,0,12.4c0.1,1.7,0.3,3.3,0.8,4.9c0.3,1.6,1.9,2.8,3.5,2.6
	c1.7,0.1,3.1-1,3.5-2.7c0.4-1.7,0.7-3.4,0.8-5.1c0-1.8-0.1-3.6-0.3-5.4c-0.3-2.4-1.4-3.3-3.8-3.3H191c0-1.4,0-2.8,0-4.2
	c0-0.2,0.4-0.6,0.7-0.6c5.2-0.9,8.6,0.8,9.8,5.5c1.2,4.4,1.2,9,0.1,13.5c-2.3,8.7-12.3,9-16.4,5c-2.2-2.1-3.5-5-3.6-8.1
	c-0.2-5.1-0.1-10.3-0.1-15.4C181.5,128.8,181.5,128.7,181.6,128.6z"/>
<path class="st0" d="M221.5,182.8h2.9v4.8h-19.9v-4.8h10.9c0-0.5,0.1-0.9,0.1-1.3c0-3.5,0-6.9,0-10.4s-1.5-4.9-4.9-4.8
	c-2,0-4,0.2-6.2,0.4c0-1.5,0-3,0-4.4c0.1-0.3,0.3-0.5,0.6-0.6c3.5-0.2,7-0.2,10.5,0.1c4.2,0.5,6,3.1,6,7.8c0.1,4,0,8,0,12
	L221.5,182.8z"/>
<path class="st0" d="M252.4,182.8h2.8v4.8h-19.8v-4.8h11v-1.2c0-3.4,0-6.9,0-10.3s-1.4-5-5-5c-2,0-4,0.2-6,0.4v-5
	c1.4-0.1,2.7-0.3,4.1-0.3c2.4-0.1,4.8,0.1,7.2,0.4c3.8,0.7,5.6,2.8,5.7,6.7c0.1,4.2,0.1,8.4,0.1,12.6
	C252.4,181.6,252.4,182.1,252.4,182.8z"/>
<path class="st0" d="M273.2,149.5h2.7v4.8h-19.8v-4.8H267c0-0.3,0.1-0.5,0.1-0.8c0-3.7,0-7.5,0-11.2c0-2.9-1.5-4.5-4.4-4.5
	c-2.2,0-4.3,0.2-6.6,0.4v-5c0.9-0.1,1.8-0.2,2.7-0.2c2.9-0.1,5.8,0,8.7,0.4c3.7,0.6,5.5,2.8,5.6,6.6c0.1,4.2,0.1,8.4,0.1,12.6
	L273.2,149.5z"/>
<path class="st0" d="M299.9,166.7h-12.7v-8.6h6.1v3.6h12.9c0.2,1.5,0.2,3,0,4.6c-1.6,6.9-3.4,13.8-5.1,20.7
	c-0.1,0.2-0.1,0.4-0.2,0.6h-6C296.5,180.6,298.2,173.7,299.9,166.7z"/>
<path class="st0" d="M52.9,161.6H56v25.8c-1,0-2,0.1-2.9,0c-0.4-0.1-0.7-0.4-0.8-0.7c-3.4-6.4-6.9-12.7-10.3-19.1
	c0-0.1-0.1-0.2-0.3-0.4v20.1h-3.1v-25.8c1,0,2.1-0.1,3.1,0c0.3,0,0.6,0.4,0.8,0.8c3.4,6.3,6.8,12.6,10.2,18.9
	c0.1,0.1,0.1,0.2,0.2,0.2V161.6z"/>
<path class="st0" d="M104.9,161.9c3.4-0.6,6.8-0.9,10.2,0.1c2.4,0.6,4.1,2.7,4.3,5.1c0.6,2.7-0.5,5.5-2.8,7.1
	c-0.4,0.3-0.8,0.5-1.3,0.8c2.2,1.3,2.9,3.4,3.4,5.7s1,4.4,1.6,6.7c-1,0-2,0.1-3,0c-0.2,0-0.6-0.5-0.7-0.8c-0.5-1.9-0.9-3.8-1.4-5.7
	c-0.1-0.6-0.3-1.1-0.5-1.7c-0.5-1.6-1.9-2.7-3.6-2.8c-0.9-0.1-1.8,0-2.8,0v11h-3.4V161.9z M108.4,164.3v9.2c3.6,0.4,6-0.3,7.1-2.3
	c1-1.7,0.9-3.8-0.3-5.4C113.3,163.7,110.9,164,108.4,164.3L108.4,164.3z"/>
<path class="st0" d="M285.7,154.4v-4.9c1.6,0,3.1-0.1,4.6,0c1,0,1.5-0.2,1.5-1.3c0-4.2,0.1-8.4,0.1-12.6c0-1.9-0.8-2.5-2.7-2.4
	c-0.8,0-1.5,0.1-2.4,0.2c0-1.5,0-3,0-4.4c0-0.2,0.4-0.6,0.6-0.6c2-0.1,4-0.1,6,0.1c2.7,0.5,4.3,2.6,4.5,5.6
	c0.2,6.1,0.5,12.3-0.4,18.4c0,0.2-0.1,0.4-0.1,0.6c0,1-0.6,1.2-1.5,1.2c-3-0.1-6,0-9,0L285.7,154.4z"/>
<path class="st0" d="M253.1,154.3h-6V153c0-5.1,0-10.2,0-15.3c0-3.2-1.5-4.7-4.7-4.6c-1.7,0-3.5,0.2-5.2,0.3l-1.1,0.1v-4.9
	c0.9-0.1,1.9-0.3,2.9-0.3c2.7-0.1,5.3,0,8,0.2c3.9,0.4,6.1,2.9,6.2,6.9c0.1,6.2,0.1,12.5,0.1,18.7
	C253.2,154.2,253.2,154.3,253.1,154.3z"/>
<path class="st0" d="M17.9,161.6h3.4v1.3c0,5.3,0,10.6,0.2,16c0.1,1.4,0.5,2.8,1.2,4c1.4,2.1,4.2,2.7,6.3,1.4c0.7-0.4,1.2-1,1.6-1.7
	c0.7-1.5,1-3.1,1.1-4.7c0.1-5,0-10,0-15v-1.2h3.3c0,0.4,0,0.7,0,1c0,5.1,0,10.2,0,15.3c0.1,2.5-0.6,5-2.2,7c-2.4,2.9-5.6,3.3-9,2.6
	c-3.2-0.7-4.8-3-5.5-6c-0.3-1.2-0.4-2.5-0.4-3.7C17.9,172.4,17.9,167,17.9,161.6z"/>
<path class="st0" d="M86.3,128.8c2.6,8.7,5.2,17.2,7.8,25.9c-1,0.1-2,0.1-3,0c-0.3,0-0.7-0.5-0.8-0.9c-0.7-2.3-1.4-4.6-2.1-7
	c-2.4,0-4.8,0-7.1,0c-0.3,0-0.7,0.4-0.8,0.8c-0.7,2.1-1.3,4.1-1.8,6.2c-0.2,0.7-0.5,1-1.2,0.9s-1.6,0-2.6,0c0.5-1.8,1-3.4,1.5-5
	c2-6.7,4.1-13.3,6-20c0.2-0.7,0.5-1,1.3-1C84.3,128.9,85.3,128.8,86.3,128.8z M84.2,133c-1,3.6-2.1,7.2-3.1,10.9h6.2L84.2,133z"/>
<path class="st0" d="M37.5,154.6v-25.8h12.7v2.9H41v7.9h8.6v3H41v9h9.6v3L37.5,154.6z"/>
<path class="st0" d="M100.1,175.4h-8.6v9h9.6v2.9H88.1v-25.7h12.7v2.9h-9.2v8h8.6V175.4z"/>
<path class="st0" d="M75.8,182.6c2-6.8,4-13.5,5.9-20.1c0.2-0.8,0.6-1,1.3-1s1.7,0,2.7,0c-0.7,2.1-1.3,4-1.9,5.9c-2,6.3-4,12.6-6,19
	c-0.2,0.7-0.5,1-1.3,1s-1.7,0-2.7,0c-2.5-8.6-5.1-17.1-7.6-25.9c1.2,0,2.2-0.1,3.3,0c0.3,0,0.6,0.5,0.7,0.8
	c1.8,6.5,3.6,13.1,5.4,19.6C75.6,182.2,75.7,182.4,75.8,182.6z"/>
<path class="st0" d="M127.2,154.7c-2.5-8.6-5.1-17.2-7.6-25.8h3.8c1.9,7,3.9,14,5.8,21c0.1-0.2,0.2-0.4,0.2-0.6
	c1.9-6.6,3.8-13.2,5.8-19.8c0.1-0.3,0.4-0.6,0.8-0.6c1-0.1,1.9,0,3.1,0c-0.6,2-1.2,3.8-1.8,5.7c-2,6.4-4,12.8-6,19.3
	c-0.2,0.6-0.5,1-1.2,0.9S128.2,154.7,127.2,154.7z"/>
<path class="st0" d="M107.5,128.8h3.7c-2.7,8.7-5.4,17.3-8.1,25.8l-0.4,0.1c-3.2,0.1-3.2,0.1-4.1-3c-2.2-7.3-4.3-14.5-6.4-21.8
	c-0.1-0.3-0.2-0.7-0.3-1.1h3.7c2,7,3.9,14.1,5.8,21L107.5,128.8z"/>
<path class="st0" d="M307.2,154.4c-0.4,0-0.7,0-1,0h-5v-25.8h5.9L307.2,154.4z"/>
<path class="st0" d="M124,183.2c1.8,1.1,4,1.6,6.1,1.4c1.7,0,3.2-1.1,3.7-2.7c0.7-1.6,0.2-3.5-1.1-4.6c-1-0.7-2.1-1.4-3.3-2
	c-1.3-0.7-2.5-1.4-3.6-2.3c-2.7-2.4-3-6.6-0.5-9.4c0.6-0.7,1.3-1.2,2.1-1.6c3-1.5,6.1-1.2,9.2,0.2l-0.8,2.8
	c-1.3-0.3-2.4-0.7-3.6-0.9c-0.8-0.1-1.5-0.1-2.3,0.1c-1.4,0.3-2.5,1.4-2.7,2.8c-0.3,1.4,0.2,2.8,1.3,3.7c0.9,0.6,1.9,1.2,2.8,1.7
	c0.9,0.5,2,1,2.9,1.6c3.4,2.2,4.4,6.7,2.2,10.1c-1.2,1.9-3.2,3.1-5.4,3.3c-2.3,0.3-4.7,0-6.9-0.9c-0.7-0.3-1-0.6-0.7-1.4
	S123.8,184,124,183.2z"/>
<path class="st0" d="M176,187.3h-3.4v-1.1c0-2.9,0-5.8,0-8.6c0-0.7-0.2-1.3-0.4-1.9c-2.1-4.4-4.3-8.8-6.5-13.2
	c-0.1-0.2-0.2-0.5-0.4-0.9c1.2,0,2.3-0.1,3.4,0c0.3,0,0.6,0.5,0.8,0.9c1.6,3.5,3.1,7,4.7,10.5c0.1,0.1,0.1,0.2,0.3,0.6
	c0.3-0.8,0.6-1.5,0.9-2.2c1.4-3,2.8-6,4.1-9c0.2-0.5,0.7-0.9,1.3-0.8c0.9,0.1,1.8,0,3,0c-1.1,2.1-2.1,4-3.1,5.9
	c-1.5,2.8-3,5.6-4.4,8.4c-0.2,0.5-0.3,1-0.3,1.5c0,2.9,0,5.9,0,8.9L176,187.3z"/>
<path class="st0" d="M35,128.9v3h-6.8v22.8h-3.4v-22.8H18v-3L35,128.9z"/>
<path class="st0" d="M156.8,187.3h-3.4v-1.4c0-6.7,0-13.4,0-20.1c0-1-0.2-1.3-1.3-1.3c-1.8,0.1-3.5,0-5.4,0v-2.9h16.9v2.9h-6.8
	L156.8,187.3z"/>
<path class="st0" d="M54.4,128.9h3.4v22.8h9.6v3H54.4V128.9z"/>
<path class="st0" d="M117,154.7h-3.3v-25.8h3.3V154.7z"/>
<path class="st0" d="M143.9,187.3h-3.3v-25.7h3.3V187.3z"/>
<path class="st0" d="M225.4,161.9h6c0,2.6-0.1,5.1,0,7.6c0.3,2.1-0.5,4.3-2,5.8c-0.4,0.4-0.8,0.9-1.1,1.4c-0.5,1.1-1.8,1.7-3,1.2
	L225.4,161.9z"/>
<path class="st0" d="M204.9,128.6h6v2.8c0,2.4,0,4.8,0,7.2c0,0.6-0.2,1.2-0.6,1.7c-0.7,1.1-1.6,2-2.3,3.1c-0.5,1.2-1.9,1.7-3.1,1.3
	L204.9,128.6z"/>
<path class="st0" d="M277.1,144.6v-16h6c0,0.3,0.1,0.7,0.1,1.1c0,2.9,0,5.9,0,8.9c-0.1,0.7-0.3,1.3-0.7,1.9c-0.7,1-1.5,1.9-2.2,2.9
	C279.8,144.6,278.4,145.1,277.1,144.6z"/>
<path class="st0" d="M63.6,187.3h-3.3v-25.7h3.3V187.3z"/>
<path class="st0" d="M80,60c-2.9,6.3-9.2,10.3-16.1,10.3C57,70.3,50,65.9,47.7,60c2,0.3,3.9,0.5,5.7,0.9c0.4,0.1,0.7,0.8,0.9,1.3
	c1.6,5.3,7.2,8.3,12.5,6.7c0.6-0.2,1.2-0.4,1.8-0.7c2.3-1.3,4-3.4,4.7-5.9c0.2-0.9,0.9-1.5,1.8-1.5C76.7,60.5,78.2,60.3,80,60z"/>
<path class="st0" d="M63.9,44.7c1.2,4.8,3.2,9.5,0.9,14.5l-0.8-8.3h-0.2l-0.8,8.6C60.6,54.2,62.7,49.5,63.9,44.7z"/>
</svg>
