<?xml version="1.0" encoding="utf-8"?>
<!-- Generator: Adobe Illustrator 25.1.0, SVG Export Plug-In . SVG Version: 6.00 Build 0)  -->
<svg version="1.1" id="Layer_1" xmlns="http://www.w3.org/2000/svg" xmlns:xlink="http://www.w3.org/1999/xlink" x="0px" y="0px"
	 viewBox="0 0 502.7 177.8" style="enable-background:new 0 0 502.7 177.8;" xml:space="preserve">
<style type="text/css">
	.st0{fill:#FFFFFF;}
</style>
<path class="st0" d="M485,94.3v9.8h-2.5v-8.9L485,94.3z M482.5,91.2H493v13h2.5v-13l0.8-0.3l0.3-2.7h-12.3l-0.9-1.2l-2,2.6
	L482.5,91.2z M476.5,97.7l1.6-9.6h-2.7l-1.3,6.8l-6.4-7.7l-1.8,1l-2.4,15.9h2.6L468,92l10.7,12.4l1.2-2.7L476.5,97.7z M456.6,86.9
	l3.8,1.8v15.4h-2.5V90.7l-2.9-1.6L456.6,86.9z M452.3,88.8v14.6l-7.5,1.5V102l5-1.1V90.7l-2.9-1.6l1.7-2.2L452.3,88.8z M439.1,86.9
	l3.8,1.8v8.2h-2.5v-6.2l-2.9-1.5L439.1,86.9z M425.7,86.9l0.9,1.2h8.1v12.8l2.2-0.1v2.9l-14,0.6v-2.9l9.3-0.4v-9.9h-7.3l-1.1-1.6
	L425.7,86.9z M409,91.2l-1.1-1.6l2-2.6l0.9,1.2h9.1v16h-2.5v-13H409z M400.8,100.4l1.5-9.2h-9l1.1,9.9L400.8,100.4z M391.8,88.1
	h13.6L403,103l-10.7,1.5l-1.6-13.3H390l-0.9-1.6l2-2.6L391.8,88.1z M382.4,86.9l3.8,1.8v8.2h-2.5v-6.2l-2.9-1.5L382.4,86.9z
	 M363.6,88.7l1.3,15.8l11.8-1.8l1.8-14.6h-7.3l-1.4,3h5.7l-1.1,9l-7.1,1l-1.1-14.3L363.6,88.7z M348.9,94.3v9.8h-2.5v-8.9
	L348.9,94.3z M346.4,91.2h10.4v13h2.5v-13l0.8-0.3l0.3-2.7h-12.3l-0.9-1.2l-2,2.6L346.4,91.2z M322.1,94.3v9.8h-2.5v-8.9L322.1,94.3
	z M319.6,91.2H330v13h2.5v-13l0.8-0.3l0.3-2.7h-12.3l-0.9-1.2l-2,2.6L319.6,91.2z M315.9,87.4l-2.8,0.9l-1.9,12.1l-3.5,0.5
	l-2.3-13.7l-2.5,1.5l2.2,12.6l-4.7,0.7v2.9l12.9-1.8L315.9,87.4z M287.5,86.9l0.9,1.2h8.1V101l2.2-0.1v2.9l-14,0.6v-2.9l9.3-0.4
	v-9.9h-7.3l-1.1-1.6L287.5,86.9z M270.9,91.2l-1.1-1.6l2-2.6l0.9,1.2h9.1v16h-2.5v-13H270.9z M263.1,86.9l3.8,1.8V97h-2.5v-6.2
	l-2.9-1.5L263.1,86.9z M243.7,91.2h1.4l0.4,9.9l-3.7,0.5v2.9l6.4-0.7l-0.5-12.6h7.6v13h2.5v-13l0.8-0.3l0.3-2.7h-13.5l-0.9-1.2
	l-1.9,2.6L243.7,91.2z M220.1,86.9l0.9,1.2h8.1v12.8l2.2-0.1v2.9l-14,0.6v-2.9l9.2-0.4v-9.9h-7.3l-1.1-1.6L220.1,86.9z M211.1,86.9
	l3.8,1.8v8.2h-2.5v-6.2l-2.9-1.5L211.1,86.9z M195.4,91.2l-1.1-1.6l1.9-2.6l0.9,1.2h9.1v16h-2.5v-13H195.4z M187.4,86.9l3.8,1.8
	v15.4h-2.5V90.7l-2.9-1.6L187.4,86.9z M181.6,86.9l-4.3,11.4l-6.6,2.5l-0.4-1.5l6.7-10.5l-1.7-1.9l-5.8,9.2l-2.5-9.2l-2.2,1.8
	l4.3,15.8l10.2-3.7l4.3-11.9L181.6,86.9z M149.2,78.1l2.6-1.1v11.1l9.5,0.1l0.8,2l-6.3,14.3l-2.3-1.1l5.5-12.3h-9.7L149.2,78.1z
	 M141.7,86.9l3.8,1.8v8.2H143v-6.2l-2.9-1.5L141.7,86.9z M134,101.4h-8.1V91.2h8.1V101.4z M137.6,88.1h-14l-0.9-1.2l-2,2.6l1.1,1.6
	h1.4v13h13.2v-13l0.8-0.3L137.6,88.1z"/>
<path class="st0" d="M495.6,132.6l-2.2-14.3h-2.8l-2.8,8.4c-0.3,0.9-0.6,1.9-0.8,2.8l0,0c-0.2-1-0.5-2-0.8-2.9l-2.8-8.3h-2.8
	l-2.1,14.3h2.4l0.9-7.4c0.1-1.4,0.3-2.5,0.4-3.7l0,0c0.2,1.2,0.5,2.3,0.9,3.4l2.6,7.7h2.4l2.7-8.3c0.3-0.9,0.6-1.9,0.7-2.8l0,0
	c0.1,0.9,0.2,2,0.4,3.5l1.1,7.6L495.6,132.6z M476.4,132.6v-2h-5.2v-4.5h5v-1.9h-5v-4.1h5.2v-1.9h-7.6v14.3L476.4,132.6z M467,132.6
	v-2h-5v-12.3h-2.3v14.3H467z M453.7,127.6h-4.6l1.6-4.4c0.3-0.7,0.5-1.5,0.7-2.3l0,0c0.2,0.7,0.4,1.5,0.6,2.2L453.7,127.6z
	 M458,132.6l-5.2-14.3h-2.6l-5.1,14.3h2.3l1.1-3.2h5.8l1.1,3.2H458z M444.1,128.3c0-4.5-6.3-3.4-6.3-6.3c0-1.2,0.9-2,2.7-2
	c0.9,0,1.8,0.1,2.6,0.4l0.1-2.1c-0.9-0.2-1.7-0.2-2.6-0.2c-3.3,0-5.3,1.7-5.3,4.2c0,4.6,6.3,3.4,6.3,6.4c0,1.6-1.3,2.2-2.8,2.2
	c-1,0-2-0.2-3-0.5l-0.1,2.2c0.9,0.2,1.9,0.3,2.9,0.3C442,132.9,444.1,131,444.1,128.3 M432.8,127.1v-8.8h-2.3v9
	c0,2.7-1.1,3.7-3.4,3.7c-2.6,0-3.3-1.4-3.3-3.4v-9.3h-2.3v9.4c0,2.6,1,5.1,5.5,5.1C430.7,132.9,432.8,131,432.8,127.1 M416.1,122.4
	c0,1.4-1.1,2.4-3,2.4c-0.5,0-0.9,0-1.1,0v-4.6c0.3,0,0.8,0,1.2,0C415.1,120.2,416.1,120.9,416.1,122.4 M419.4,132.8l-3.8-5
	c-0.4-0.5-0.8-1-1.2-1.5c2.3-0.3,4.1-1.7,4.1-4c0-2.9-2-3.9-5-3.9c-1.6,0-2.8,0-3.9,0.1v14.3h2.4v-6.2h0.1l4.5,6.2H419.4z
	 M406.6,132.8v-2h-5.2v-4.5h5v-1.9h-5v-4.1h5.2v-1.9H399v14.3L406.6,132.8z M395.4,128.9v-10.6h-2.3v10.4c0,1.8-0.6,2.2-1.7,2.2
	c-0.5,0-0.9-0.1-1.4-0.2v2c0.5,0.1,1.1,0.2,1.7,0.2C394.5,132.8,395.4,131.2,395.4,128.9 M384.6,120.3v-1.9h-7.4v14.3h2.3v-6.3h4.9
	v-1.9h-4.9v-4.2L384.6,120.3z M372.2,125.6c0,3.6-2.1,5.3-4.2,5.3c-2.8,0-4.2-2.2-4.2-5.4c0-3.4,2-5.2,4.2-5.2
	C370.7,120.2,372.2,122.1,372.2,125.6 M374.7,125.4c0-4.8-2.6-7.2-6.5-7.2s-6.9,2.8-6.9,7.5c0,4.4,2.1,7.2,6.5,7.2
	C371.6,132.9,374.7,130.1,374.7,125.4 M355.8,118.4h-2.4l-2,4.3c-0.4,0.9-0.9,1.8-1.2,2.7l0,0c-0.3-0.8-0.6-1.6-1-2.4l-2.1-4.6h-2.5
	l4.5,9.2v5.1h2.3v-5.1L355.8,118.4z M344,120.3v-1.9h-10.2v1.9h3.9v12.4h2.3v-12.4C340,120.3,344,120.3,344,120.3z M332,118.3h-2.3
	v14.3h2.3V118.3z M327,128.3c0-4.5-6.3-3.4-6.3-6.3c0-1.2,0.9-2,2.7-2c0.9,0,1.8,0.1,2.6,0.4l0.1-2.1c-0.9-0.2-1.7-0.2-2.6-0.2
	c-3.3,0-5.3,1.7-5.3,4.2c0,4.6,6.3,3.4,6.3,6.4c0,1.6-1.3,2.2-2.8,2.2c-1,0-2-0.2-3-0.5l-0.1,2.2c0.9,0.2,1.9,0.3,2.9,0.3
	C324.9,132.9,327,131,327,128.3 M313.6,122.4c0,1.4-1.1,2.4-3,2.4c-0.5,0-0.9,0-1.1,0v-4.6c0.3,0,0.8,0,1.2,0
	C312.6,120.2,313.6,120.9,313.6,122.4 M317,132.6l-3.8-5c-0.4-0.5-0.8-1-1.2-1.5c2.3-0.3,4-1.7,4-4c0-2.9-2-3.9-5-3.9
	c-1.6,0-2.8,0-3.8,0.1v14.3h2.3v-6.2h0.1l4.5,6.2H317z M304.2,132.6v-2H299v-4.5h5v-1.9h-5v-4.1h5.2v-1.9h-7.6v14.3L304.2,132.6z
	 M295,118.3h-2.4l-3.1,8.7c-0.4,1-0.7,2-0.9,3l0,0c-0.3-1.1-0.6-2.1-0.9-2.9l-3-8.8H282l5.1,14.3h2.6L295,118.3z M280.4,118.3H278
	v14.3h2.3L280.4,118.3z M274.4,132.6v-14.3H272v4.2c0,2.1,0.1,5.2,0.1,6.8c-0.5-1-1.1-2.2-1.7-3.2l-4.7-7.8h-3v14.3h2.2v-4.8
	c0-2,0-4.9-0.1-6.4c0.5,1,1,2,1.6,3l4.9,8.1L274.4,132.6z M259.1,127.1v-8.8h-2.3v9c0,2.7-1.1,3.7-3.4,3.7c-2.7,0-3.3-1.4-3.3-3.4
	v-9.3h-2.3v9.4c0,2.6,1,5.1,5.5,5.1C257.1,132.9,259.1,131,259.1,127.1 M241,118.4h-2.3l-2.2,8.9c-0.2,0.8-0.4,1.6-0.5,2.5l0,0
	c-0.1-0.9-0.3-1.8-0.6-2.6l-2.5-8.8h-2.5l-2.4,8.8c-0.3,0.9-0.4,1.8-0.6,2.7l0,0c-0.1-1-0.3-1.9-0.6-2.8l-2.2-8.7H222l3.7,14.3h2.7
	l2.4-8.9c0.2-0.9,0.4-1.8,0.5-2.6l0,0c0.1,0.9,0.3,1.8,0.6,2.7l2.4,8.9h2.8L241,118.4z M220.2,132.7v-2H215v-4.5h5v-1.9h-5v-4.1h5.2
	v-1.9h-7.6v14.3L220.2,132.7z M207,122.4c0,1.4-1.1,2.4-3,2.4c-0.5,0-0.9,0-1.1,0v-4.6c0.4,0,0.8,0,1.2,0
	C206,120.2,207,120.9,207,122.4 M210.4,132.8l-3.8-5c-0.4-0.5-0.8-1-1.2-1.5c2.3-0.3,4-1.7,4-4c0-2.9-2-3.9-5-3.9
	c-1.6,0-2.8,0-3.8,0.1v14.3h2.3v-6.2h0.1l4.5,6.2H210.4z M195.4,128.5c0,1.4-1,2.5-3.1,2.5c-0.6,0-1.1,0-1.7-0.1v-4.6
	c0.3,0,1.1,0,1.3,0C193.9,126.3,195.4,126.9,195.4,128.5 M195.1,122.2c0,1.4-1.1,2.3-3.3,2.3c-0.5,0-0.9,0-1.2,0v-4.2
	c0.6,0,1.2,0,1.8,0C194.4,120.3,195.1,121.1,195.1,122.2 M197.8,128.5c0-1.6-1.1-3-2.7-3.3l0,0c1.4-0.5,2.4-1.8,2.4-3.3
	c0-2.2-1.6-3.5-4.7-3.5c-1.7,0-3.4,0-4.5,0.1v14.3c1.6,0,3,0.1,3.9,0.1C196.6,133,197.8,130.4,197.8,128.5 M185.3,132.9v-2h-5.4
	v-4.5h5v-1.9h-5v-4.1h5.2v-1.9h-7.6v14.3L185.3,132.9z M174,132.9v-14.6h-2.3v5.9h-6.8v-5.9h-2.3v14.3h2.3v-6.4h6.8v6.4L174,132.9z
	 M155,132.9v-2h-5.2v-4.5h5v-1.9h-5v-4.1h5.2v-1.9h-7.6v14.3L155,132.9z M143.7,132.9v-14.6h-2.3v5.9h-6.8v-5.9h-2.3v14.3h2.3v-6.4
	h6.8v6.4L143.7,132.9z M130.5,120.5v-1.9h-10.3v1.9h3.9v12.4h2.3v-12.6L130.5,120.5z"/>
<polygon class="st0" points="76.4,126.1 86.8,141.6 93.7,132.7 85,115 "/>
<polygon class="st0" points="27.2,129.3 7.2,154 7.2,172.1 25.7,153.9 "/>
<polygon class="st0" points="44.7,107.7 45.8,134.3 67.7,112.9 55.3,94.4 "/>
<polygon class="st0" points="67.5,79.4 55.3,94.4 67.7,112.9 78.7,102.2 "/>
<polygon class="st0" points="97.7,98.7 92.8,88.5 78.7,102.2 85,115 "/>
<polygon class="st0" points="76.4,126.1 85,115 78.7,102.2 67.7,112.9 "/>
<polygon class="st0" points="41.4,41.1 32.6,41.1 27.2,129.3 44.7,107.7 "/>
<polygon class="st0" points="27.2,129.3 25.7,153.9 45.8,134.3 44.7,107.7 "/>
<path class="st0" d="M39.7,13.3L36,5.7c0,0-7.8,12-7.8,16.6c0,4.3,1.2,8.6,3.5,12.2h10.7l2-11.5h-6.9L39.7,13.3z"/>
</svg>
