<svg enable-background="new 0 0 521.7 128.4" viewBox="0 0 521.7 128.4" xmlns="http://www.w3.org/2000/svg"><g fill="#fff"><path d="m125.6 91.7 6.6-16.7 6.1 16.7zm29.2 16.9-16.8-44.3h-15.2l2.2 1.6c.9.5 1.5 1.4 1.5 2.4-.1 1.2-.4 2.4-.9 3.5l-14.7 37.2c-1.6 4-3 6.2-4.9 7.5l-2.3 1.6h17.4l-1.6-1.5c-1.4-1.3-2-2.3-2-3 0-1 .2-2.1.6-3l4.8-11.9h18.1l4.4 12c.5 1 .7 2.1.8 3.2 0 .6-.6 1.3-2 2.8l-1.4 1.5h19.4l-1.9-1.6c-2.5-2-4.4-4.8-5.5-8"/><path d="m185.4 85.3c-1.1 0-2.2-.1-3.3-.2v-13.6c1.5-.3 3-.5 4.6-.5 5.4 0 8.5 2.5 8.5 6.9-.1 4.7-3.6 7.4-9.8 7.4m2.6 25.6c-1.4 0-3.4-.2-5.9-.5v-18c1.9-.3 3.8-.5 5.7-.6 7.1 0 12.1 4.1 12.1 10 0 5.7-4.5 9.1-11.9 9.1m11.1-24.1c4.2-2.6 6.4-5.9 6.4-9.9 0-7.7-6.9-12.4-18-12.4h-20.1l1.8 1.6c2.6 2.2 2.8 4.7 2.8 8.5v33.8c0 3.8-.2 6.2-2.8 8.6l-1.8 1.6h19.1c14.6 0 23.6-6.6 23.6-17.4.1-6.9-3.7-11.8-11-14.4"/><path d="m238.9 110.6c-2.9-.1-5.8-.3-8.6-.8v-17h3.8c3.8 0 6.1.1 7.4 1.6l1.6 1.9v-11h-12.7v-13.1c2.3-.5 4.6-.8 6.9-.8 3.8 0 6.6.8 9 2.7l1.4 1.1v-10.9h-31.9l1.8 1.6c2.6 2.2 2.8 4.7 2.8 8.5v33.8c0 3.8-.2 6.2-2.8 8.6l-1.8 1.6h34.7l4.7-13.3-2.2 1.5c-4.3 2.6-9.2 4.1-14.1 4"/><path d="m274.4 89.7v-18c1.6-.3 3.2-.5 4.8-.5 5.4 0 9.1 3.2 9.1 8 0 5.2-3.9 8.3-12.7 10.3zm25.7 19.6-12.9-17.2c7.6-3.4 11.2-7.8 11.2-13.7 0-8.4-7.3-14.1-18.1-14.1h-20.5l1.8 1.6c2.6 2.2 2.8 4.7 2.8 8.5v33.8c0 3.8-.2 6.2-2.8 8.6l-1.8 1.6h19l-1.8-1.6c-2.6-2.3-2.8-4.8-2.8-8.6v-18.3l16.2 22.4c2.5 3.6 6.5 5.7 10.9 5.8l6.9-.4-1.6-1.4c-2.3-2.1-4.5-4.4-6.5-7"/><path d="m352.3 91.1c0 11.5-8.1 19.9-19.2 19.9-2.5-.1-5.1-.3-7.6-.7v-37.9c2.3-.6 4.6-.9 7-.9 12.1.1 19.8 7.7 19.8 19.6m.8-20.5c-6.5-5.2-13.3-6.3-21.5-6.3h-20.6l1.8 1.6c2.6 2.2 2.7 4.7 2.7 8.5v33.8c0 3.8-.1 6.3-2.7 8.6l-1.8 1.6h18c12.9 0 20.5-2.6 26.4-8.9 4.7-5.1 7.2-11.9 7.1-18.8.2-8-3.3-15.4-9.4-20.1"/><path d="m390.9 110.6c-2.9-.1-5.8-.3-8.6-.8v-17h3.8c3.8 0 6.1.1 7.4 1.6l1.6 1.9v-11h-12.8v-13.1c2.3-.5 4.6-.8 6.9-.8 3.8 0 6.6.8 9 2.7l1.4 1.1v-10.9h-31.9l1.8 1.6c2.6 2.2 2.8 4.7 2.8 8.5v33.8c0 3.8-.2 6.2-2.8 8.6l-1.8 1.6h34.7l4.7-13.3-2.2 1.5c-4.1 2.6-9 4.1-14 4"/><path d="m435.1 110.6c-2.9-.1-5.8-.3-8.6-.8v-17h3.8c3.8 0 6.1.1 7.4 1.6l1.6 1.9v-11h-12.8v-13.1c2.3-.5 4.6-.8 6.9-.8 3.8 0 6.6.8 9 2.7l1.4 1.1v-10.9h-31.9l1.8 1.6c2.6 2.2 2.8 4.7 2.8 8.5v33.8c0 3.8-.2 6.2-2.8 8.6l-1.8 1.6h34.7l4.7-13.3-2.2 1.5c-4.1 2.6-9 4.1-14 4"/><path d="m493.7 64.3 1.8 1.6c2.6 2.2 2.8 4.7 2.8 8.5v27.4l-29.5-37.4h-13.5l1.8 1.6c2.6 2.2 2.8 4.7 2.8 8.5v33.8c0 3.8-.2 6.2-2.8 8.6l-1.8 1.6h16.5l-1.8-1.6c-2.6-2.3-2.7-4.8-2.7-8.6v-29.3l25.3 31.9c3.7 4.8 7 8.4 12.1 8.6h.9v-45.1c0-3.8.2-6.2 2.8-8.5l1.8-1.6z"/><path d="m146.5 42.8c-2.4 3.2-7 4.6-10.9 4.6-3.7 0-7.6-1.2-10.1-3.9-3-3.2-2.8-7-2.8-11v-14.8c0-2.5.4-6.6-2.4-7.6v-.2h10.6v.1c-2.8 1.1-2.4 5.1-2.4 7.6v14.9c0 7.4 3.1 10.9 8.9 10.9 3.2.1 6.2-1.4 8.1-3.9 1.2-1.7 1.2-3.1 1.2-5.1v-16.7c0-2.5.3-6.6-2.4-7.6v-.2h10.6l.1.2c-2.9 1.1-2.5 5.1-2.5 7.7v21c0 2.5-.3 6.6 2.5 7.6v.2h-8.2z"/><path d="m167.5 39.3c0 3.1 0 5.3 2.9 7.1v.2h-9.9v-.2c3-1.7 3-4 3-7.1v-22.3c0-3.1 0-5.3-2.9-7v-.1h8.1v.1c.2.5.5 1 .8 1.4l.8 1.1 20.4 25.7v-21.2c0-3.1.1-5.3-2.9-7v-.1h9.8v.1c-2.9 1.7-2.9 3.9-2.9 7v31.3c-4-1.3-5.7-3.2-8.1-6.3l-19.1-24.2z"/><path d="m205.5 17.7c0-2.6.4-6.6-2.4-7.7v-.1h10.6v.1c-2.8 1.1-2.4 5.2-2.4 7.7v21c0 2.5-.3 6.6 2.4 7.6v.2h-10.7v-.2c2.8-1 2.4-5.1 2.4-7.6z"/><path d="m243.8 19.9c1.5-4 3.4-8.5-.1-9.9v-.1h8.3l-14.7 38.3c-3.9-2.6-5.2-3-6.8-7.4l-8.4-22.8c-1.1-2.8-1.9-6.1-4.3-8v-.2h8.1l-.1.7c0 1.2 1.1 4 1.5 5.2l8.9 24.2z"/><path d="m265.2 41.8 7.1.7c3.7.3 7.5-.8 10.3-3.3h.2l-2.5 7.3h-23.3v-.2c2.8-1 2.5-5.1 2.5-7.6v-21c0-2.6.3-6.6-2.5-7.7v-.1h17.8c.9.1 1.8 0 2.6-.3h.2v6.5h-.2c-1.7-2-4-2.2-6.6-2.2-1.9 0-3.8.1-5.7.4v10.4h6.6c.8.1 1.7 0 2.5-.3h.2v5.9h-.2c-.9-1.6-3.2-1.6-5-1.6h-4.1z"/><path d="m299.6 9.9c7.5 0 11.5 3.9 11.5 9 0 4.9-4.3 8.7-8.9 9.8l8 10.1c2.6 3 5.6 5.7 9 7.8h-5.1c-3 0-4.8-.7-6.5-2.8l-6.7-8.4-5.1-7.8c4.5-.7 9.6-2.7 9.6-8 0-4-3.5-6.3-7.2-6.2-1.3.1-2.5.2-3.8.4v25c0 2.6-.3 6.6 2.5 7.6v.2h-10.7v-.2c2.8-1 2.5-5.1 2.5-7.6v-21c0-2.6.4-6.6-2.5-7.7v-.2z"/><path d="m343.5 16.5c-2.4-2.2-5.5-3.5-8.8-3.5-3.2 0-7.2 1.2-7.2 5.1 0 7.6 19.1 7.5 19.1 17.8 0 6-6.2 11.5-14.9 11.5-3.4 0-6.8-.5-10-1.7l-1.6-7c3.4 2.9 7.7 4.5 12.2 4.6 3.2 0 8-1.9 8-5.8 0-8.7-19.2-7.1-19.2-18.9 0-7 7.2-9.7 14-9.7 2.8 0 5.6.4 8.3 1.2z"/><path d="m353.9 17.7c0-2.6.4-6.6-2.5-7.7v-.1h10.6v.1c-2.8 1.1-2.5 5.2-2.5 7.7v21c0 2.5-.3 6.6 2.5 7.6v.2h-10.6v-.2c2.8-1 2.5-5.1 2.5-7.6z"/><path d="m383.1 39.3c0 3.2-.1 5.3 2.9 7.1v.2h-11v-.2c2.8-1.1 2.5-5.1 2.5-7.6v-24.9h-4.9c-2.4-.1-4.8.7-6.6 2.2h-.2l2-6.6h.2c.7.2 1.4.3 2.1.4h22.2c.9.1 1.7-.1 2.6-.4h.2l-1.8 6.6h-.2c-.7-2-3-2.2-4.8-2.2h-5z"/><path d="m417.6 39.3c0 3.3 0 5 2.8 7.1v.2h-10.9v-.2c2.7-1.4 2.3-5 2.3-7.6v-8.2l-9.2-14.9c-1.5-2.5-2.6-4.3-5.3-5.7h5.1c1.8 0 3.5.4 4.2 1.6l8.9 14.6 6.9-10.3c1-1.4 2.2-4.1-.9-5.6v-.4h9.7l-13.7 20.6z"/><path d="m450.1 27.6c0 7.8 5.5 15.8 14.3 15.8 8.5 0 13.9-6.2 13.9-14.5 0-8.1-5.2-16-14-16-8.7 0-14.3 6.2-14.2 14.7m34.4.2c0 11.4-9.4 19.6-20.5 19.6s-20.3-7.9-20.3-19.3c0-10.6 9.2-19.4 20.9-19.2 11.7-.1 19.9 8.8 19.9 18.9"/><path d="m497.2 38.7c0 2.5-.4 6.6 2.3 7.6v.2h-10.5v-.2c2.8-1 2.5-5.1 2.5-7.6v-21c0-2.6.3-6.6-2.5-7.7v-.2h17.8c.9.1 1.8 0 2.6-.3h.2v6.5h-.2c-1.7-2-4-2.2-6.6-2.2-1.9 0-3.8.1-5.7.4v10.4h6.7c.8.1 1.6 0 2.4-.3h.2v5.9h-.2c-.9-1.7-3.2-1.6-5-1.6h-4.1z"/><path d="m26.5 66.9c-.4-.1-.8-.4-.9-.8v-.1c-.1-.4-.1-.7-.6-.7h-.1s0 .1.1.1c.4.1.5.3.5.7v.1c0 .3.4.7 1 .7.3.2.6.4.9.8s0 0 0-.1c-.3-.4-.6-.6-.9-.7"/><path d="m27.4 62.2c.1-.2.3-.4.5-.5-.4-.2-1-.3-1.5-.2.5.1.6.3 1 .7"/><path d="m24.4 67.2c-.1 0-.1 0 0 0-.1-.1-.1-.1-.1-.1 0 .3 0 .5.1.7v-.1c-.1-.1-.1-.3 0-.5"/><path d="m25.8 67.3c-.1 0-.1 0 0 0 0 .1 0 .1 0 0 .2.3.3.5.3.8 0 0 0 .1.1.1s.1 0 .1-.1c-.1-.4-.3-.6-.5-.8 0-.1 0-.1 0 0z"/><path d="m24.8 67c-.1-.1-.1-.1 0 0 0-.1-.1-.1-.1-.1 0 .3 0 .6.2.9h.1s0 0 0-.1c-.2-.2-.3-.5-.2-.7"/><path d="m20.7 68.6c-.2-.1-.3-.2-.5-.5h-.1v.1c.1.3.3.5.5.6l.1.1h.1v-.1z"/><path d="m26.4 67.3c-.1 0-.1 0 0 0-.2 0-.2.1 0 0 .2.2.4.4.6.7v.1h.1v-.1-.1c-.1-.3-.4-.5-.7-.6"/><path d="m23.9 67.2c-.1.3-.1.5-.1.8h.1v-.1c0-.2 0-.5 0-.7v-.1"/><path d="m23.5 67.3c-.1 0-.1.1 0 0-.1.3-.1.6-.1.9 0 0 0 .1.1.1s.1 0 0-.1c0-.2 0-.5 0-.9z"/><path d="m21.2 68.5c-.2-.1-.3-.2-.4-.4 0 0 0 0-.1 0 0 0-.1 0 0 .1 0 .2.2.4.4.5.2-.1.2-.1.1-.2 0 .1 0 .1 0 0z"/><path d="m22.6 67.6c0-.1-.1-.1 0 0-.1.2-.1.4 0 .6h.1s0 0 0-.1c-.1-.2-.1-.4-.1-.5"/><path d="m21.4 68s-.1-.1 0 0c-.1-.1-.1 0-.1 0 0 .2.1.3.2.4v-.1h-.1c0-.1-.1-.2 0-.3"/><path d="m15.4 66.3c.3-.3.7-.4 1.1-.5.1 0 .2 0 .3.1 1 .4 1.3.3 1.6.1.2-.1.3-.1.5-.2h.8l.1.1s0 0 0-.1c.1 0 .2.1.3.1h.1c.1.1.2.2.2.2s0 0 0-.1c.4.1.7.2 1.1.3-.2.1-.4.3-.6.5-.4-.1-.7-.4-.9-.7v-.1s0 0-.1 0c-.2.5-.2 1 .1 1.4-.2 0-.5.1-.7.1-.1 0-.1 0-.2 0-.4 0-.8.1-1.2.4-.7.4-1 .3-2.6-.3-.1-.1-.3-.4-.3-.6 0-.3.1-.5.4-.7m3.3-1.4h.1l.3-.1c0 .1 0 .2.1.3v.5c-.2-.2-.4-.4-.5-.7m.7.7c-.1 0-.1-.1-.1-.1zm-.2-.8c.2-.1.3-.1.5 0 0 .2.1.3.1.5v.2.2c-.2-.2-.4-.6-.6-.9m-1.4-.4c-.1-.3-.1-.6-.1-.8 0-.1.1-.2.2-.3.4-.2.7-.6.8-1 .1-.2.4-.3.6-.3.3 0 .5.2.6.4 0 .1.1.1.1.2.1.3.3.6.6.7.2.1.4.4.4.7 0 .2-.1.4-.3.5-.4.2-.5.2-.7.1-.4-.2-.9-.2-1.2.1-.3.1-.7 0-1-.3m6 .8c.1.4.3.7.6 1-.2 0-.4.1-.6.2h-.1c-.1.1-.2.1-.3.2 0-.6.2-1 .4-1.4m-.9.3c.2-.2.3-.4.3-.6.1.2.1.4.1.6-.1 0-.2 0-.4 0m-1.7-.3c0-.1.1-.2.2-.2.3-.2.6-.5.7-.9 0-.3-.1-.6-.3-.8.3 0 .6.2.8.4.2.3.3.7.2 1.1 0 .3-.2.6-.5.8-.2.1-.5.2-.7.1l-.2-.1c-.1 0-.1 0-.1-.1-.1-.1-.1-.2-.1-.3m-.2 0 .1.1c0 .1 0 .1.1.2s.1.1.2.2l.2.1c.1 0 .2.1.3.1h.1.5l.3-.1c.2-.1.5-.1.7-.1-.1.3-.1.5-.1.8-.2 0-.4 0-.5-.1-.2 0-.3 0-.5 0-.5-.1-1-.2-1.5-.4-.1-.3-.1-.5.1-.8m-1-.3c.2.1.4.1.6 0 .1.1.1.2.2.3-.2.3-.2.6-.2.9-.3-.3-.5-.7-.6-1.2m.3 2.6c-.2-.4-.3-.8-.2-1.2l.1.1c.2.3.5.6.9.8-.1.1-.3.2-.4.3zm.1-5h.6.3c.2 0 .4-.1.5-.2.3-.3.3-.7.1-1-.1-.1-.3-.2-.4-.2.5-.1 1-.1 1.4.2l.3.1c.3.2.5.2.8-.2.4-.4.9-.5 1.4-.3l-.1.1c-.1 0-.1.1 0 .2 0 .1.1.1.2 0 .4-.5 1-.9 1.6-.9.3 0 .5.1.7.2.1.1.2.2.3.3h.2c.1 0 .1-.1 0-.2-.1-.1-.2-.2-.3-.3.3-.6.8-1.1 1.5-1.2.5-.1 1-.4 1.2-.8l.3-.4c.1.2.2.5.2.8-.3.5-.8.8-1.3 1.1l-.2.1v.1h.1.8c-.3.4-.6.8-1 1.1-.7.2-1.1.6-1.2 1.7 0 .1.1.1.1.1.1 0 .1 0 .1-.1.1-1.2.5-1.3 1.4-1.5h.2.7c.8-.2 1.4-.7 1.8-1.5v.8c-.4 1-1.1 1.8-2 2.3l-.3.2v.1s0 0 .1.1c.3 0 .5 0 .8-.1-.4.6-.8 1.2-1.2 1.7v.1c.4.1.8.1 1.3.1h1 .1c.3-.1.6-.2.9-.3-.2.7-.7 1.2-1.5 1.4.1-.3.1-.3.1-.2s.1.1.1.1c.4 0 .9-.1 1.3-.2-.2.4-.4.7-.7 1-1.1-.1-2.1-.5-3-1.1h-.1v.1c.9.6 1.9 1 2.9 1.1-.1.1-.2.2-.3.2l-.1.1c-.4.1-.9.1-1.3-.2-.1 0-.1 0-.2 0v.2c.4.3.7.5 1 .7l.3.2c-.2 0-.3.1-.5.1-.7-.4-1.3-.9-1.8-1.5h-.1v.1c.5.5 1 1 1.7 1.4-.4 0-.8-.1-1.1-.3h-.1s-.1.1-.1.1v.8c-.2-.1-.3-.2-.5-.3l-.1-.1c-.2-.3-.4-.7-.5-1.1 0 0-.1-.1-.1 0 .1.4.2.7.4 1.1-1.2.3-2.4.2-3.5-.1-.5-.2-1-.2-1.5.1-.4.2-.9.2-1.3.1s-.8 0-1.1.2l-.1.1c-.3.3-.8.7-1.6-.2-.1-.2-.4-.3-.6-.3h-.1c-.1 0-.2-.3-.2-.5h.1.2c.4 0 .9-.1 1.3-.2.3-.1.5-.3.7-.5s.5-.4.8-.5h.4c.2.1.4.1.6.1s.3-.1.5-.2l.1-.1c.1-.1.2-.2.7-.2.1 0 .1 0 .1-.1v-.1c-.1-.2-.3-.3-.5-.4-.1-.2-.2-.4-.3-.7m0 0c-.1.1-.2.3-.2.4h-.1c0-.3-.1-.5-.2-.7m-.2 0c0 .3-.1.5-.3.7h-.1-.2c.2-.2.4-.4.4-.7.2-.7-.1-1.4-.8-1.6-.2-.1-.3-.1-.5-.1 0 0 0 0-.1 0v.1c.3.2.4.5.4.8-.1.3-.3.6-.6.8-.1 0-.2.1-.2.2-.1-.1-.2-.2-.2-.3.3-.1.4-.4.4-.7 0-.4-.2-.7-.5-.9-.2-.1-.4-.3-.5-.6 0-.1-.1-.1-.1-.2 0 0 0 0-.1-.1.1 0 .2.1.3.1m10.6-2.2c-.2.3-.4.6-.8.8h-.2-.2c.3-.3.6-.6.9-1 0 0 0 0 0-.1s-.3 0-.7 0c.5-.2.9-.6 1.2-1 .1.4 0 .9-.2 1.3m1 2.2v.1s.1.1.1.1c.3.1.6.1.9 0-.3.5-.9.9-1.5 1-.1 0-.1.1-.1.2s.1.1.1.1c.7 0 1.3-.2 1.9-.4-.2.5-.5.9-1 1.2v.1c-.7.1-1.4.1-2.1 0 .5-.5.9-1.1 1.3-1.7v-.1h-.1c-.2.1-.4.1-.6.1l.1-.1c.8-.5 1.5-1.2 1.9-2.1 0 .6-.3 1.2-.7 1.7m-16.7 5.4c.6.3 1.2.5 1.9.6.3 0 .6-.1.9-.3.2-.1.4-.2.7-.3 0 .1.1.7.4.7h.1c.1 0 .2 0 .4.2.3.3.7.5 1.1.6.3 0 .6-.2.9-.4l.1-.1c.2-.2.5-.3.8-.2.5.1 1 .1 1.5-.1.4-.2.9-.2 1.3-.1 1.2.4 2.4.4 3.6.1.2.3.5.4.8.5.1 0 .1 0 .1-.1 0 0 0-.1 0-.2-.1-.2-.1-.5-.1-.7.6.4 1.4.4 2.1.2 0 0 .1-.1.1-.1s0-.1-.1-.1c-.2-.1-.3-.2-.5-.3l-.3-.2c.3 0 .6 0 .8-.1l.1-.1c.3-.2.8-.4 1.4-1.8 0-.1 0-.1 0-.2 0 0-.1 0-.2 0-.2.1-.5.2-.7.3.5-.4.9-1 1-1.6 0-.1 0-.1-.1-.2-.1 0-.1 0-.2 0-.1.1-.3.2-.5.3.3-.4.5-.8.7-1.2 0 0 0-.1 0-.2 0 0-.1 0-.2 0-.3.2-.7.4-1.1.4.4-.3.6-.6.8-1.1 0-.1 0-.1 0-.2h-.1c-.3.1-.5.2-.8.2.7-.7.8-1.6.5-3.4 0-.1-.1-.1-.1-.1-.1 0-.1 0-.1.1-.2 1-.9 1.7-1.9 1.9h-.1c.1-.1.3-.3.4-.5.4-.9.4-1.9-.1-2.8 0 0-.1-.1-.1-.1s-.1 0-.1.1c-.2.2-.3.4-.4.6-.2.4-.6.7-1.1.8-.7.2-1.3.7-1.6 1.4-.2-.1-.5-.2-.7-.2-.6 0-1.1.2-1.5.7-.6-.3-1.4-.1-1.8.4-.2.3-.3.3-.5.2.1 0 0-.1-.1-.1-.7-.4-1.5-.3-2.1.1-.1 0-.1.1 0 .2 0 .1.1.1.1.1.4 0 .6 0 .8.1.1.1.1.2.1.3s0 .2-.1.3-.2.1-.3.1h-.3-.5c-.1 0-.2-.1-.2-.1-.3-.1-.6-.2-.9-.2-.3 0-.7.2-.9.4v.1c-.1.3-.3.6-.7.8-.2.1-.3.3-.3.5-.1.4-.1.7.1 1.1.2.3.5.4.9.4h.2c.1.3.3.5.5.6h-.2c-.2 0-.4.1-.6.2-.3.1-.5.2-1.4-.1-.4-.2-.8-.1-1.7.4-.3.2-.5.5-.5.9 0 .3.2.6.6.6"/><path d="m26.2 62.7.2.2v.3c-.2-.1-.4-.3-.5-.5 0 .3 0 .6.1.8h-.1c-.3 0-.5-.2-.5-.6 0-.3.3-.5.5-.5.1.2.2.2.3.3m-1.6 1c.1 0 .1 0 0 0 0-.3-.2-.4-.4-.4.1-.2.1-.4 0-.6.1 0 .2-.1.3-.2.3.1.7.1 1 0-.2.1-.3.3-.3.5 0 .4.3.7.7.7h.1c0 .1.1.3.2.4s0 0 0-.1.1-.1.1-.2c0 0 .1-.1.1-.1h.1c.1 0 .2-.1.3-.1h.2c-.2-.1-.3-.2-.5-.3v-.1c0-.1 0-.1 0-.2s0-.1 0-.2v-.1c-.1-.1-.1-.2-.2-.2-.1-.1-.1-.1-.2-.2h-.1c-.4.2-.9.2-1.4.1 0 0 0 0-.1 0-.1.1-.2.2-.4.2v.1c.2.2 0 .6 0 .6v.1c.3.1.5.2.5.3"/><path d="m20.3 64c0-.1 0-.1 0 0-.2-.1-.2-.1-.2-.1 0-.1 0-.1.1-.2h.1c.1 0 .2.1.2.2s0 0 0 0c0 .1 0 .2-.1.3-.1 0-.2 0-.2 0 0-.1 0-.2.1-.2m-.1.3h.2c.1-.1.2-.3.2-.5 0-.1-.1-.2-.3-.2-.1 0-.1 0-.2 0-.1.1-.1.2-.2.3 0 0 0 .1.2.2-.1 0-.1.1-.2.1h-.1v.1c.1-.1.2 0 .4 0"/><path d="m18.6 63.8c0 .1-.1.1-.2.1 0 0-.1 0-.1-.2-.1.1-.1.1-.2.2 0-.1 0-.2 0-.2 0-.1.2-.1.3-.1.1-.1.2-.1.2.2 0-.1 0 0 0 0m-.1-.4c-.1 0-.4.1-.5.2-.1.2 0 .4 0 .6h.1v-.1c0-.1 0-.2.1-.2 0 .2.2.2.2.2.1 0 .2-.1.3-.2 0-.1 0-.1 0-.2 0-.2-.1-.3-.2-.3"/><path d="m49.3 66.9c-.4-.1-.8-.4-.9-.8v-.1c-.1-.4-.1-.7-.7-.7h-.1s0 .1.1.1c.4.1.5.3.5.7v.1c.2.3.6.7 1.1.7.3.2.6.4.9.8v-.1c-.2-.4-.6-.6-.9-.7"/><path d="m50.2 62.2s.2-.3.5-.5c-.5-.2-1-.3-1.5-.2.5.1.6.3 1 .7"/><path d="m47.2 67.2c-.1-.1-.1-.1-.1-.1 0 .3 0 .5.1.7v-.1c-.1-.2-.1-.4-.1-.7"/><path d="m48.6 67.3c.2.3.3.5.3.8 0 0 0 .1.1.1s.1 0 .1-.1c-.1-.4-.2-.6-.5-.8.1-.1 0-.1 0 0z"/><path d="m47.6 67c-.1.2 0 .6.1.8h.1s0 0 0-.1c-.1-.2-.2-.5-.2-.7"/><path d="m43.5 68.6c-.2-.1-.3-.2-.5-.5h-.1v.1c.1.3.3.5.5.6l.2.1h.1v-.1z"/><path d="m49.2 67.3c-.1 0-.1.1 0 0 .2.2.4.4.6.7v.1h.1v-.1-.1c-.2-.3-.5-.5-.7-.6"/><path d="m46.8 67.2c-.1.3-.1.5-.1.8h.1v-.1c-.1-.2-.1-.5 0-.7 0 0-.1-.1 0 0-.1-.1-.1-.1-.1-.1"/><path d="m46.3 67.3c-.1.3-.1.6-.1.9 0 0 0 .1.1.1s.1 0 .1-.1c-.1-.2-.1-.5-.1-.9.1.1.1 0 0 0"/><path d="m44.1 68.5c-.2-.1-.3-.2-.3-.4h-.1v.1c0 .2.2.4.4.5 0-.1 0-.1 0-.2z"/><path d="m45.4 67.6c0-.1 0-.1 0 0-.1.2-.1.4 0 .6h.1s0 0 0-.1c-.1-.2-.1-.4-.1-.5"/><path d="m44.2 68c-.1-.1-.1-.1-.1 0 0 .2.1.3.3.4v-.1s-.3-.2-.2-.3"/><path d="m38.3 66.3c.3-.3.7-.4 1.1-.5.1 0 .2 0 .3.1 1 .4 1.3.3 1.6.1.2-.1.3-.1.5-.2h.8s.1.1.1.1 0 0 0-.1c.1 0 .2.1.3.1h.1c.1.1.1.2.2.2s0 0 0-.1c.2.1.6.2 1.1.3-.2.1-.3.3-.4.5-.4-.1-.7-.4-.8-.7l-.2-.1s0 0-.1 0c-.2.5-.1 1 .1 1.4-.2 0-.5.1-.7.1-.1 0-.1 0-.2 0-.4 0-.8.1-1.2.4-.7.4-1 .3-2.6-.3-.4-.1-.6-.5-.5-.8.2-.3.3-.4.5-.5m3.3-1.4.4-.1c0 .1 0 .2.1.3v.5c-.2-.2-.4-.4-.5-.7m.8.6c-.1 0-.1-.1-.1-.1zm-.2-.8c.2-.1.3-.1.5 0 0 .2.1.3.1.5v.2.2c-.3-.2-.5-.5-.6-.9m-1.5-.3c-.1-.3-.1-.6-.1-.8 0-.1.1-.2.2-.3.4-.2.7-.6.8-1 .1-.2.4-.3.6-.3.3 0 .5.2.6.4 0 .1.1.1.1.2.1.3.3.6.6.7.2.1.3.4.3.7 0 .2-.1.4-.3.5-.4.2-.5.2-.7.1-.4-.2-.9-.2-1.2.1-.3 0-.7 0-.9-.3m6 .7c.1.4.3.7.6 1-.2 0-.4.1-.6.2h-.1c-.1.1-.2.1-.3.2 0-.5.1-1 .4-1.4m-1 .4c.1-.2.2-.3.3-.6.1.2.1.4.1.6-.1 0-.3 0-.4 0m-1.7-.3c0-.1.1-.2.2-.2.3-.2.6-.5.7-.9 0-.3-.1-.6-.3-.8.3 0 .6.2.8.4.2.3.3.7.2 1.1 0 .3-.2.6-.5.8-.2.1-.5.2-.7.1l-.2-.1c-.1 0-.1 0-.1-.1-.1-.1-.1-.2-.1-.3m-.3 0 .1.1c0 .1 0 .1.1.2l.2.2.2.1c.1 0 .2.1.3.1h.2.5l.3-.1c.2-.1.5-.1.7-.1-.1.3-.1.5-.1.8-.2 0-.4 0-.5-.1-.2 0-.3 0-.5 0-.5-.1-1-.2-1.5-.4-.1-.3-.1-.5 0-.8m-.8.5c0-.1 0-.1 0 0zm-.1-.8c.2.1.4.1.6 0 .1.1.1.2.2.3-.2.3-.2.6-.2.9-.3-.3-.5-.7-.6-1.2m.3 2.6c-.2-.4-.3-.8-.2-1.2 0 0 .1.1.1.1.2.3.5.6.8.8-.1.1-.3.2-.4.3 0 0-.2 0-.3 0m.1-5h.5.3c.2 0 .4-.1.5-.2s.2-.3.2-.4c0-.2 0-.4-.2-.5-.1-.1-.3-.2-.4-.2.5-.1 1-.1 1.4.2l.3.1c.3.2.5.2.8-.2.4-.4.9-.5 1.4-.3 0 0-.1.1-.1.1v.2h.2c.4-.5 1-.9 1.6-.9.3 0 .5.1.7.2l.3.3h.2c.1 0 .1-.1 0-.2-.1-.1-.2-.2-.3-.3.3-.7.9-1.1 1.6-1.2.5-.1 1-.4 1.2-.8.1-.1.2-.3.3-.4.1.3.2.5.2.8-.3.5-.8.8-1.3 1.1l-.2.1v.1h.1.8c-.3.4-.6.7-1 1.1-.7.2-1.1.6-1.2 1.7 0 .1 0 .1.1.1.1 0 .1 0 .1-.1.1-1.2.5-1.3 1.4-1.5h.2l.7-.1c.8-.2 1.4-.7 1.8-1.5v.8c-.4 1-1.1 1.8-2 2.3-.1.1-.2.1-.3.2v.1s0 0 .1.1c.3 0 .5 0 .8-.1-.3.6-.7 1.2-1.2 1.7v.1c.4.1.8.1 1.3.1h1 .1c.3-.1.6-.2.9-.3-.2.7-.7 1.2-1.5 1.4-.1 0-.1.1-.1.2s.1.1.1.1c.4 0 .9-.1 1.3-.2-.2.4-.4.7-.7 1-1.1-.1-2.1-.5-3-1.1h-.1v.1c.9.6 1.9 1.1 3 1.2-.1.1-.2.2-.3.2 0 0-.1 0-.1.1-.4.1-.9.1-1.3-.2-.1 0-.1 0-.2 0v.2c.4.3.7.5 1 .7l.3.2c-.2 0-.3.1-.5.1-.7-.4-1.3-.9-1.8-1.5h-.1s0 .1 0 .1c.5.5 1 1 1.7 1.4-.4 0-.8-.2-1.1-.4h-.1s-.1.1-.1.1v.8c-.2-.1-.3-.2-.5-.3l-.1-.1c-.2-.3-.4-.7-.5-1.1 0 0 0-.1-.1-.1v.1c.1.4.2.7.4 1.1-1.2.3-2.4.2-3.5-.1-.5-.2-1-.2-1.5.1-.4.2-.9.2-1.3.1s-.8 0-1.1.2l-.1.1c-.3.3-.8.7-1.6-.2-.1-.2-.4-.3-.6-.3h-.1c-.1 0-.2-.3-.2-.5h.1.2c.4 0 .8-.1 1.3-.2.3-.1.5-.3.7-.5s.5-.4.8-.5h.4c.2.1.4.1.6.1s.4-.1.5-.2l.1-.1c.1-.1.2-.2.7-.2 0 0 .1 0 .1-.1v-.1c-.1-.2-.3-.3-.5-.4-.1-.2-.2-.4-.3-.7m.4-.4c-.1.1-.2.3-.2.4h-.1c0-.3-.1-.5-.2-.7 0 0 0 0-.1 0m-.1 0c0 .3-.1.5-.3.7h-.1-.2c.2-.2.4-.4.4-.7.2-.7-.1-1.4-.8-1.6-.2-.1-.4-.1-.5-.1 0 0 0 0-.1 0v.1c.3.2.4.5.4.8-.1.3-.3.6-.6.8-.1 0-.2.1-.2.2-.1-.1-.2-.2-.2-.3.3-.1.4-.4.4-.7 0-.4-.2-.7-.5-.9-.2-.1-.4-.3-.5-.6l-.3-.1s0 0-.1-.1c.1 0 .2.1.3.1m10.7-2.3c-.2.3-.5.6-.8.8h-.2-.2c.3-.3.6-.6.9-1 0 0 0 0 0-.1s-.3 0-.7 0c.5-.2.9-.6 1.2-1 .1.4 0 .9-.2 1.3m1 2.2v.1s.1.1.1.1c.3.1.6.1.9 0-.3.5-.9.9-1.5 1-.1 0-.1.1-.1.2s.1.1.1.1c.7 0 1.3-.2 1.9-.4-.2.5-.5.9-1 1.2v.1c-.7.1-1.4.1-2.1 0 .5-.5.9-1.1 1.3-1.7 0 0 0 0 0-.1h-.1c-.2.1-.4.1-.7.1l.1-.1c.8-.5 1.5-1.2 1.9-2.1 0 .6-.3 1.2-.7 1.7m-16.6 5.4c.6.3 1.2.5 1.9.6.3 0 .6-.1.9-.3.2-.1.4-.2.7-.3 0 .1.1.7.4.7h.1c.2 0 .2 0 .4.2.3.3.7.5 1.1.6.3 0 .6-.2.9-.4l.1-.1c.2-.2.5-.3.8-.2.5.1 1 .1 1.5-.1.4-.2.9-.2 1.3-.1 1.2.4 2.4.4 3.6.1.2.3.5.4.8.5.1 0 .1 0 .1-.1 0 0 0-.1 0-.2-.1-.2-.1-.5-.1-.7.6.4 1.4.4 2.1.2 0 0 .1-.1.1-.1s0-.1-.1-.1c-.2-.1-.3-.2-.5-.3l-.3-.2c.3 0 .6 0 .8-.1l.1-.1c.3-.2.8-.4 1.4-1.8 0-.1 0-.1 0-.2-.1 0-.1 0-.2 0-.2.1-.4.2-.7.3.5-.4.9-1 1-1.6 0-.1 0-.1-.1-.2-.1 0-.1 0-.2 0-.1.1-.3.2-.5.3.3-.4.5-.8.7-1.2 0 0 0-.1 0-.2-.1 0-.1 0-.2 0-.3.2-.7.4-1 .4.4-.3.6-.6.8-1.1 0 0 0-.1 0-.2 0 0-.1 0-.2 0-.3.1-.5.2-.8.2.7-.7.8-1.6.5-3.4 0-.1-.1-.1-.1-.1-.1 0-.1.1-.1.1-.2.9-.9 1.6-1.8 1.8h-.1c.1-.1.3-.3.4-.5.3-.9.3-1.9-.3-2.7 0 0-.1-.1-.1-.1s-.1 0-.1.1c-.2.2-.3.4-.4.6-.2.4-.6.7-1.1.8-.7.2-1.3.7-1.6 1.4.1 0-.2 0-.4 0-.6 0-1.1.2-1.5.7-.6-.3-1.4-.1-1.8.4-.2.3-.3.3-.5.2-.1-.1-.2-.1-.3-.2-.7-.4-1.5-.3-2.2.1-.1 0-.1.1 0 .2 0 0 .1.1.1.1.4 0 .6 0 .8.1.1.1.1.2.1.3s-.1.2-.1.3c-.1.1-.2.1-.3.1h-.3-.5c-.1-.1-.2-.1-.3-.2-.3-.1-.6-.2-.9-.2-.3 0-.7.2-.9.4v.1c-.1.3-.3.6-.7.8-.2.1-.3.3-.3.5-.1.4 0 .7.1 1.1.2.3.5.4.9.4h.2c.1.3.3.5.5.6h-.2c-.2 0-.4.1-.6.2-.3.1-.5.2-1.4-.1-.4-.2-.8-.1-1.7.4-.3.2-.5.5-.5.9.1.2.3.5.8.6"/><path d="m49 62.7.2.2v.3c-.2-.1-.4-.3-.5-.5 0 .3 0 .6.1.8h-.1c-.3 0-.5-.3-.5-.6s.2-.5.5-.5c.1.2.2.2.3.3m-1.5 1c0-.3-.2-.4-.4-.4.1-.2.1-.4 0-.6.1 0 .2-.1.3-.2.3.1.7.1 1 0-.2.1-.3.3-.3.5 0 .4.3.7.7.7h.1c0 .1.1.3.2.4s0 0 0-.1.1-.1.1-.2c0 0 .1-.1.1-.1h.1c.1 0 .2-.1.3-.1h.1c-.2-.1-.3-.2-.5-.3v-.1c0-.1 0-.1 0-.2s0-.1 0-.2c0 0 0 0 0-.1-.1-.1-.1-.2-.2-.2-.1-.1-.1-.1-.2-.2m-.1.2c-.4.2-.9.2-1.4.1 0 0 0 0-.1 0-.1.1-.2.2-.4.2v.1c.2.2 0 .6 0 .6v.1c.4.1.5.3.5.3"/><path d="m43.2 64c-.1-.1-.1-.1 0 0-.2-.1-.2-.1-.2-.1 0-.1 0-.1.1-.2h.1c.2 0 .2.1.2.2s0 0 0 0c0 .1 0 .2-.1.3-.1 0-.2 0-.2 0-.1-.1 0-.2.1-.2m-.2.3h.2c.1-.1.2-.3.2-.5 0-.1-.1-.2-.3-.2-.1 0-.2 0-.2 0-.1.1-.1.2-.2.3 0 0 0 .1.2.2-.1 0-.1.1-.2.1h-.1v.1z"/><path d="m41.4 63.8c0 .1-.1.1-.2.1 0 0-.1 0-.1-.2-.1.1-.1.1-.2.2 0-.1 0-.2 0-.2 0-.1.2-.1.3-.1.2-.1.2-.1.2.2.1-.1.1 0 0 0m-.1-.4c-.2 0-.3.1-.5.2-.1.2 0 .4.1.6h.1v-.1c0-.1 0-.2.1-.2.1.2.2.2.2.2.1 0 .2-.1.3-.2 0-.1 0-.1 0-.2-.1-.2-.2-.3-.3-.3"/><path d="m44.8 98.4c-.5 0-.9-.4-1-.8v-.1c-.1-.4-.1-.7-.7-.7 0 0-.1 0-.1.1s0 .1 0 .1c.4.1.5.3.5.6v.1c.1.5.5.8 1 .9.4.1.7.4.9.7v-.1c-.2-.4-.6-.6-1-.8"/><path d="m45.7 93.8s.2-.4.5-.5c-.4-.2-1-.3-1.5-.2.5 0 .6.3 1 .7"/><path d="m42.7 98.7c-.1-.1-.1 0-.1 0 0 .3 0 .5.1.7v-.1c-.1-.2-.1-.4-.1-.7"/><path d="m44.1 98.8c0 .1 0 .1 0 0 .2.3.3.5.3.8 0 0 0 .1.1.1s.1 0 .1-.1c-.1-.3-.2-.6-.5-.8z"/><path d="m43.1 98.5c0-.1 0-.1 0 0-.1.2-.1.6.1.8v-.1c-.1-.2-.1-.5-.1-.7"/><path d="m39 100.1c-.2-.1-.3-.1-.5-.5h-.1v.1c.1.3.3.5.5.6l.2.1h.1v-.1z"/><path d="m44.7 98.8c-.1 0-.1.1 0 0 .2.2.4.4.6.7l.1.1v-.1-.1c-.2-.3-.5-.5-.7-.6"/><path d="m42.3 98.7c-.1 0-.1 0 0 0-.1.1-.1.1 0 0-.1.3-.1.6-.1.9h.1s.1 0 0-.1c0-.2 0-.5 0-.8z"/><path d="m41.8 98.9c-.1.3-.1.6-.1.9 0 0 0 .1.1.1s.1 0 .1-.1c-.1-.3-.1-.6-.1-.9z"/><path d="m39.6 100c-.2-.1-.3-.2-.3-.4 0 0 0 0-.1 0v.1c0 .2.2.5.4.5.1-.1.1-.1 0-.2z"/><path d="m40.9 99.1c0-.1-.1-.1-.1-.1 0 .2 0 .5.1.7 0 0 0 0 .1.1s.1 0 0-.1c-.1-.2-.1-.4-.1-.6"/><path d="m39.7 99.5c0-.1 0-.1 0 0-.1-.1-.1 0-.1 0 0 .2.1.3.2.4h.2v-.1-.1c-.1 0-.2-.1-.3-.2"/><path d="m37 93.9c.1-.2.4-.3.6-.3.3 0 .5.2.6.4 0 .1.1.1.1.2.1.3.3.6.6.7.2.1.4.4.3.7 0 .2-.1.4-.3.5-.4.2-.5.2-.7.1-.4-.2-.9-.2-1.2.1-.3.1-.7.1-1-.2 0-.4 0-.7 0-1 0-.1.1-.2.2-.3.4-.2.7-.5.8-.9m1.7-.1c.1 0 .3 0 .5.1h.3c.2 0 .4-.1.5-.2s.2-.3.2-.5 0-.4-.2-.5c-.1-.1-.3-.2-.4-.2.5-.1 1-.1 1.5.2l.3.1c.3.2.5.2.8-.2.4-.4.9-.5 1.4-.3 0 0-.1.1-.1.1v.2h.2c.4-.5 1-.9 1.6-.9.3 0 .5.1.7.2l.3.3h.2c.1 0 .1-.1 0-.2-.1-.1-.2-.2-.3-.3.2-.6.8-1.1 1.4-1.3.5-.1 1-.4 1.2-.8l.3-.4c.1.2.2.5.2.8-.3.5-.8.8-1.3 1.1v.1h.1.8c-.3.4-.6.8-1 1.1-.7.2-1.1.6-1.2 1.6 0 .1 0 .1.1.1.1 0 .1 0 .1-.1.1-1.2.5-1.3 1.4-1.5h.2l.7-.1c.8-.1 1.5-.6 1.9-1.3v.8c-.4 1-1.1 1.8-2 2.3l-.3.2v.1.1c.3 0 .5 0 .8-.1-.4.6-.8 1.2-1.2 1.7v.1c.4.1.8.1 1.3.1.3 0 .7 0 1-.1 0 .1.1.1.1.1.3-.1.7-.2 1-.3-.2.7-.8 1.2-1.5 1.4-.1 0-.1.1-.1.1 0 .1.1.1.1.1.4 0 .9-.1 1.3-.2-.2.4-.4.7-.7 1-1.1-.1-2.1-.5-3-1.1m0-.1s0 .1 0 0c0 .1 0 .1 0 0 .9.7 1.9 1.1 3 1.2-.1.1-.2.2-.3.2l-.1.1c-.4.1-.9.1-1.3-.2 0 0-.1-.1-.2 0v.2c.4.3.7.5 1 .7l.3.2c-.2 0-.3.1-.5.1-.7-.4-1.3-.9-1.8-1.5h-.1v.1c.5.5 1.1 1 1.7 1.4-.4 0-.8-.2-1.1-.4h-.1s-.1.1-.1.1v.8c-.2-.1-.3-.2-.5-.3l-.1-.1c-.2-.3-.4-.7-.5-1.1 0 0 0-.1-.1-.1v.1c.1.4.2.7.4 1.1-1.2.3-2.4.2-3.5-.1-.5-.2-1-.2-1.5.1-.4.2-.9.2-1.3.1s-.8-.1-1 .2l-.1.1c-.3.3-.8.7-1.6-.2-.1-.2-.4-.3-.6-.3h-.1c-.1 0-.2-.3-.2-.5h.3c.4 0 .9-.1 1.3-.2.3-.1.5-.3.7-.5.2-.3.5-.4.8-.5h.4c.2.1.4.1.6.1s.3-.1.5-.2l.1-.1c.1-.1.2-.1.7-.2 0 0 .1 0 .1-.1v-.1c-.1-.2-.3-.3-.5-.4-.1-.2-.2-.4-.3-.7s0 0-.1 0c-.1.1-.2.3-.2.4h-.1c0-.3-.1-.5-.2-.7 0 0 0 0-.1 0s0 0 0 0v.1c0 .3-.1.5-.3.7h-.1-.2c.2-.2.4-.4.4-.7.2-.7-.1-1.4-.8-1.6-.2-.1-.3-.1-.5-.1m-.2.1s0 .1 0 0c.3.3.4.6.4.9-.1.3-.3.6-.6.8-.1 0-.2.1-.2.2-.1-.1-.2-.2-.2-.4.3-.1.4-.4.4-.7 0-.4-.2-.7-.5-.9-.2-.1-.4-.3-.5-.6l-.1-.2s0 0-.1-.1c.1.1.2.1.3.1m10.7-2.2c-.2.3-.5.6-.8.8h-.2-.2c.3-.3.7-.6.9-1-.2 0-.4 0-.7 0 .5-.2.9-.6 1.2-1 .1.5 0 .9-.2 1.4m1 2.1v.1s.1.1.1.1c.3.1.6 0 .9-.1-.3.6-.9 1-1.6 1.1-.1 0-.1.1-.1.1 0 .1.1.1.1.1.7 0 1.3-.2 1.9-.4-.2.5-.5.9-1 1.2v.1c-.7.1-1.4.1-2.1 0 .5-.5.9-1.1 1.2-1.7v-.1c-.2.1-.4.1-.7.1l.1-.1c.9-.5 1.5-1.2 1.9-2.1.1.7-.2 1.3-.7 1.6m-11 4.9c-.1.1-.3.2-.4.3-.1 0-.3.1-.4.1-.2-.4-.3-.8-.2-1.2l.1.1c.3.3.6.6.9.7m-1-1.5c-.1 0-.1 0 0 0l-.1-.1c.1 0 .1.1.1.1m.5.5c-.3-.3-.5-.7-.6-1.2.2.1.4.1.6 0 .1.1.1.2.2.3-.2.2-.2.5-.2.9m3.2-.9c.1.4.3.7.6 1-.2 0-.4.1-.6.2l-.1.1c-.1 0-.2 0-.3.1 0-.5.1-1 .4-1.4m-.9.4c.2-.2.3-.4.3-.6.1.2.1.4.1.6-.1-.1-.3-.1-.4 0m-1.8-.3c0-.1.1-.2.2-.2.3-.2.6-.5.7-.9 0-.3-.1-.6-.3-.8.3 0 .6.2.8.4.2.3.3.7.2 1.1 0 .3-.2.6-.5.8-.2.1-.5.2-.7.1l-.2-.1c-.1 0-.1 0-.1-.1-.1-.2-.1-.3-.1-.3m.2.4.2.1c.1 0 .2.1.3.1h.2.5l.3-.1c.2-.1.5-.1.7-.1-.1.3-.1.5-.1.8-.2 0-.4 0-.5-.1-.2 0-.3 0-.5 0-.5-.1-1-.2-1.5-.4 0-.2.1-.4.2-.6l.1.1c0 .1 0 .1.1.2-.2 0-.1.1 0 0m-3.2 2.3c-.7.4-1 .3-2.6-.3-.4-.1-.6-.5-.5-.8.1-.2.2-.4.4-.4.3-.3.7-.4 1.1-.5.1 0 .2 0 .3.1 1 .4 1.3.3 1.6.1.2-.1.3-.2.5-.2h.8l.1.1s0 0 0-.1v-.1l.3.1h.1c.1.1.2.2.2.2h.2c.3.1.7.3 1.1.3-.2.1-.4.3-.6.5-.4-.1-.7-.4-.9-.7l-.2-.2s0 0-.1 0c-.2.5-.1 1 .1 1.4l-.7.1h-.2c-.2 0-.5 0-1.2.4m1.6-2.4c-.1 0-.1-.1-.1-.1zm-.3-.8c.2 0 .3 0 .5.1 0 .2.1.3.1.5v.2.2c-.2-.2-.4-.6-.6-1m-.5.2.4-.1c0 .1.1.2.1.3v.5c-.2-.1-.4-.4-.5-.7m-1-1.8c-.2.1-.3.3-.3.5-.1.4-.1.7.1 1.1.2.3.5.4.8.4h.2c.1.3.3.5.5.6h-.2c-.2 0-.4.1-.6.2-.3.1-.5.2-1.4-.1-.4-.1-.8-.1-1.7.4-.3.2-.5.5-.5.9s.3.7.7.8c.6.3 1.2.5 1.9.6.3 0 .6-.1.9-.3.2-.1.4-.2.7-.3 0 .1.1.7.4.7h.1c.2 0 .2 0 .4.2.3.3.7.5 1.1.6.3 0 .6-.2.9-.4l.1-.1c.2-.2.5-.3.8-.2.5.1 1 .1 1.5-.1.4-.2.9-.2 1.3-.1 1.2.3 2.4.4 3.6.1v.1c.2.3.5.4.8.5.1 0 .1 0 .1-.1v-.1c-.1-.2-.1-.5-.1-.7.6.4 1.4.4 2.1.1 0 0 .1-.1.1-.1 0-.1 0-.1-.1-.1-.2-.1-.3-.2-.5-.4l-.3-.2c.3 0 .6 0 .8-.1l.1-.1c.3-.2.8-.4 1.4-1.8 0-.1 0-.1-.1-.2h-.1c-.2.1-.5.2-.7.2.5-.4.8-1 1-1.6 0-.1 0-.1-.1-.2-.1 0-.1 0-.2 0-.1.1-.3.2-.5.3.3-.4.5-.8.7-1.2 0-.1 0-.1 0-.2-.1 0-.1 0-.2 0-.3.2-.6.4-1 .4.4-.3.6-.7.8-1.1v-.1s-.1 0-.2 0c-.3.1-.5.2-.8.2.7-.7.8-1.5.5-3.4 0-.1-.1-.1-.1-.1-.1 0-.1 0-.1.1-.2.9-.9 1.6-1.8 1.8h-.1c.2-.1.3-.3.4-.5.4-.9.4-1.9-.1-2.8 0 0-.1-.1-.1-.1h-.1c-.2.2-.3.4-.4.6-.2.4-.6.7-1.1.8-.7.2-1.3.7-1.6 1.4-.2-.1-.5-.2-.7-.2-.6 0-1.1.2-1.5.7-.6-.3-1.4-.1-1.8.4-.2.3-.3.3-.5.2s-.2-.1-.3-.2c-.7-.4-1.5-.3-2.2.1v.2c0 .1.1.1.1.1.3-.1.5 0 .8.1.1.1.1.2.1.3s-.1.2-.1.3c-.1.1-.2.1-.3.1h-.3-.5c-.1 0-.2 0-.2-.1-.3-.2-.6-.2-.9-.2-.3 0-.7.1-.9.4.1.5-.1.8-.5 1"/><path d="m44.5 94.2.2.2v.3c-.2-.1-.4-.3-.5-.5 0 .3 0 .6.1.8h-.1c-.3 0-.5-.3-.5-.6 0-.2.2-.4.5-.5.1.2.2.2.3.3m-1.5 1.1c.1 0 .1 0 0 0 0-.3-.2-.4-.4-.4.1-.2.1-.4 0-.6.1 0 .2-.1.3-.2.3.1.7.1 1 0-.2.1-.3.3-.3.5 0 .4.3.7.7.7h.1c.1.2.2.4.2.4v-.1c0-.1.1-.1.1-.2l.1-.1h.1c.1 0 .2-.1.3-.1h.1c-.2-.1-.3-.2-.5-.3v-.1c0-.1 0-.1 0-.2s0-.1 0-.2v-.1c-.1-.1-.1-.2-.2-.2l-.2-.2s0 0-.1 0c-.4.2-.9.2-1.4.1 0 0 0 0-.1 0-.1.1-.2.2-.4.2v.1c.2.2 0 .6 0 .6v.1c.3.2.4.3.6.3"/><path d="m38.7 95.5c-.2-.1-.2-.1-.2-.1 0-.1 0-.1.1-.2h.1c.1 0 .2.1.2.2 0 .1 0 .2-.1.3-.1 0-.2 0-.2 0 0-.1.1-.1.1-.2m-.2.3c.1 0 .2 0 .2-.1.1-.1.2-.3.2-.4 0-.1-.1-.2-.3-.3-.1 0-.1 0-.2 0-.1.1-.1.2-.2.3 0 .1.1.2.2.2-.1 0-.1.1-.2.1h-.1v.1c.2 0 .3.1.4.1"/><path d="m36.4 95.1c0-.1.2-.1.3-.1.1 0 .2.1.2.2v.1c0 .1-.1.1-.2.1 0 0-.1 0-.1-.2 0 0 0 0 0-.1-.1.1-.1.1-.2.2 0 0 0-.1 0-.2m.1.6c0-.1 0-.1 0 0 0-.2 0-.2.1-.3.1.2.2.2.2.2.1 0 .2-.1.3-.2 0-.1 0-.1 0-.2s-.1-.2-.3-.3c-.2 0-.3.1-.5.2-.1.2 0 .4 0 .6"/><path d="m44.6 37.6c-.5-1-1.5-1.7-2.6-1.8-1-.1-2 .3-2.6 1.1-.4.7-.4 1.5 0 2.2.3.4.8.6 1.3.5.2 0 .4-.1.5-.3s.2-.4.1-.6c-.1-.3-.3-.5-.6-.6-.2 0-.4.1-.5.2h-.1s-.1-.1-.1-.1c-.1-.5 0-.9.4-1.2.5-.5 1.3-.6 1.9-.4s1.2.7 1.5 1.2.4 1 .2 1.5l-.1.2c-.2.8-.5 1.7-2.8 2.7.2.2.5.3.8.3h.2s.1 0 .1.1v.1c-1 1.7-1.9 3.7.1 5.8.3.2.6.3 1 .3.3 0 .5-.2.6-.4.3-.4.3-.9 0-1.2-.2-.2-.6-.3-.9-.2-.1.1-.2.2-.3.4 0 0-.1.1-.1.1s-.1 0-.1-.1c-.7-1-.8-2.3-.1-3.3.2-.4.4-.8.7-1.2 1.1-1.5 2.4-3.6 1.5-5.3z"/><path d="m39.1 47.8.3.3s.1.1.1.1c.3-.1.7-.2 1-.2-.2-.3-.6-.5-1-.5-.1 0-.1-.1-.1-.1 0-.4-.1-.7-.3-1 0 .4-.1.7-.3 1.1.1.1.2.2.3.3z"/><path d="m38.8 47.9c-.5-.4-.9-.7-1.4-.9-.4.3-.8.6-1.2 1l.3.3.5.6.2.2.1.1.2.2c.4.3.8.6 1.3.8.2.1.4.1.6 0l-.1-.2c-.2-.3-.5-.5-.8-.6v-.1h.1c.3.1.6.3.8.6l.1.1c.2-.4.2-.9 0-1.3-.1-.3-.4-.6-.7-.8zm-.4.1c-.2 0-.4.1-.6.3-.1.1-.2.3-.1.4v.1s0 0-.1 0c0-.2 0-.4.2-.5.2-.2.4-.3.6-.3.1-.1.1-.1.1 0 .1.1 0 .1-.1 0 .1.1 0 0 0 0zm.7 1c-.1 0-.1 0 0 0-.1-.1 0-.1 0-.1s.1 0 .1.1-.1.1-.1 0c0 .1 0 .1 0 0z"/><path d="m37.2 49.3-.3-.3c-1.1.5-1.4.5-2.1.1l-.3-.1-.4-.2-.4-.2c.1.4-.1.7-.5.9h-.1v-.1c.3-.1.5-.4.4-.8-.4-.2-.9-.3-1.3-.3h-.1c-.2 0-.4.1-.6.2.3 0 .6.2.7.4v.1s0 0-.1 0c-.1-.2-.3-.3-.6-.4v.4c.5.8 1.4 1.4 2.3 1.6.8.3 1.7.2 2.5-.2l.2-.1c.3-.2.6-.4.9-.6l-.2-.2zm-4.7-.8c-.1.1-.1 0 0 0-.1 0-.1 0 0 0-.1-.1 0-.2 0-.2v.2s0 .1 0 0z"/><path d="m37.1 31.5c.1-.3.2-.7.3-1-.3.3-.7.5-1.1.7.2.1.5.2.8.3z"/><path d="m34 32.3h.2.1c.1 0 .2 0 .3-.1.1 0 .2-.1.3-.2s.1 0 .1-.1c.1-.1.1-.2.2-.3 0-.1 0-.2 0-.3s0 0 0-.1v-.1c.1-.1.1-.2.2-.3 0-.1-.1-.2-.2-.3s0 0 0-.1c-.1-.1-.2-.1-.3-.2h-.1c-.1 0-.2-.1-.3-.1-.1 0-.2 0-.3.1-.1 0-.2.1-.2.1h-.1c-.2.2-.4.5-.4.8v.1.2c.1.5.3.7.5.9zm.4-1.5c.3 0 .5.2.5.5s-.2.5-.5.5-.5-.2-.5-.5.2-.5.5-.5z"/><path d="m34.3 30.1c.3 0 .4 0 .6.1.4-.9.1-2-.7-2.5-.7.7-.8 1.7-.4 2.6.2-.1.4-.1.5-.2z"/><path d="m37.8 28.8c.2-.9.3-1.8.2-2.7-.3.7-1 2-1.3 2.7z"/><path d="m35.2 30.4s.1.1.1.1c.1.1.1.2.2.3v.2h.3l.2-.1c.9-.3 1.6-1 1.9-1.9-.9-.2-1.9.1-2.4.8 0 0-.2.3-.4.5.1 0 .1.1.1.1z"/><path d="m29.2 42.6v-.1s.1-.1.1-.1h.2c.3.1.6 0 .9-.2-2.2-1-2.5-1.9-2.8-2.7v-.2c-.1-.5 0-1 .3-1.5.3-.6.8-1 1.5-1.2s1.4-.1 1.9.4c.3.3.5.8.4 1.2 0 0 0 .1-.1.1h-.1c-.2-.1-.3-.1-.5-.2-.3.1-.5.3-.6.6 0 .2 0 .4.1.6s.3.3.5.3c.5.1 1-.1 1.3-.5.4-.7.4-1.5 0-2.2-.6-.8-1.6-1.3-2.6-1.2-1.1.1-2 .8-2.5 1.7-.9 1.7.4 3.8 1.4 5.3.2.4.4.7.6 1.1.6 1 .6 2.3-.2 3.2 0 .1-.1.1-.2 0-.1-.2-.2-.3-.3-.4-.1 0-.1 0-.2 0-.2 0-.5.1-.7.2-.3.4-.3.9 0 1.2.1.2.4.4.6.4.4.1.8-.1 1-.3 1.8-1.8 1-3.8 0-5.5z"/><path d="m34 50.9c-.4-.1-.6-.2-.9-.3l-.1.1c-.3.3-.6.6-.9.9.3.1.7.1 1 0 0-.1-.1-.2-.1-.2 0-.1 0-.1.1-.2.1 0 .1 0 .2.1 0 0 .1.2.1.3.2.3.4.6.8.8-.3-.5-.3-1.1-.2-1.5z"/><path d="m38.6 38.6v-1.3h-5.7v1.3h2.9z"/><path d="m20.6 37.2c-.1.1-.1.1-.2.2l-.1.1-.7.3c-.8.3-1.3 1.1-1.4 1.9-.2.7-.2 1.3-.1 2s0 0 .1-.1c.4-.5.7-1 .8-1.6v-.2c0-.4.1-.7.4-1 .2-.2.4-.3.6-.4h.1v.1c0 .2-.1.4-.2.5l-.1.1c-.1.2-.2.4-.2.6-.1.7-.3 1.4-.7 2-.1.1-.2.3-.1.5 0 .1.2 0 .4-.2l.2-.2c1-.5 1.5-1.5 1.5-2.6 0-.2 0-.3 0-.5-.1-.6 0-1.1.3-1.6l-.6-.1z"/><path d="m32.2 36.2h.8c-.6-1-1.6-1.7-2.7-2l-.4-.2c-1.6-.6-3.4-.6-5 0h-.1c-1.1.3-2 .9-2.8 1.7-.4.4-.8.8-1.1 1.2l.6.1c1.2-1.4 2.9-2.4 4.7-2.8l.5-.1c1.3-.3 2.7-.1 3.9.5.1 0 .1.1 0 .1h-.1c-.7-.3-1.5-.4-2.3-.3-.9.1-1.7.4-2.5.9-1.3.9-2 2.4-1.7 4 .5-.5 1-.9 1.5-1.5l.4-.6c.3-.5.7-.9 1.1-1.3 1.5-1.2 3.8-1.1 5.2.3z"/><path d="m35.8 54h-3v.6h5.8v-.6z"/><path d="m35 49c.5.3.8.2 1.7-.1l-.4-.5c-.1-.1-.2-.2-.3-.3l-.4.3c-.2.1-.4.4-.6.6z"/><path d="m34.6 48.8.1.1c.2-.3.4-.5.7-.7.9-.6 1.7-1.3 2.5-2 .2-.2.3-.4.3-.6-.2 0-.5.1-.7.2v-.1c.2-.2.5-.3.8-.3-.1-.2-.3-.3-.7-.3-.5 0-1.1.1-1.6.3 0 .4.2.7.5.9v.1c-.3-.2-.5-.5-.6-.9-.8.5-1.3 1.2-1.7 2-.2.3-.3.6-.4.9l.4.2zm2.6-3.5c.1 0 .1 0 0 0 .1.1.1.1 0 0 .1.1 0 .2 0 .2s0-.1 0-.2z"/><path d="m34.9 45.9c-.8-.3-1-.9-1.2-2-.4.4-.5.9-.4 1.4v.1.2l.1.3c0 .1 0 .1-.1.2-.1 0-.1 0-.2-.1 0 0 0-.1-.1-.3-.3.1-.5.3-.7.9.6-.2 1.2-.2 1.7 0l.3.2c.2-.5.4-.7.6-.9z"/><path d="m38 32.8c-.5-.9-1.4-1.5-2.4-1.5v.1.1l-.1.2v.1l-.1.2c.3.3.7.6 1.1.8h.1c.5.1 1 .1 1.4 0z"/><path d="m35.6 32.6-.1.4c.1.6 0 1.2-.3 1.7l-.1.6v.9h.7c0-.1 0-.1 0-.2 0-1 .2-2 .7-2.9-.3-.1-.6-.2-.9-.5z"/><path d="m39.8 32.8c.7-.6 1.4-1.5 2-4.4-1.5 1-2.8 2.2-3.8 3.7v.1c.1.2.2.3.3.5v.1.1c-.3.1-.6.2-.9.2l-.2.3c-.4.9-.7 1.8-.6 2.8h.7.5c.4-1.3 1.1-2.5 2-3.4z"/><path d="m34.8 35.4h-.1c.1.3.2.5.3.8 0-.3 0-.6 0-.9v-.1c-.1 0-.1.1-.2.2z"/><path d="m35.1 32.4-.3.1c-.1 0-.3.1-.4.1h-.1-.1c-.1 0-.2 0-.2-.1-.4 1 0 2.1.8 2.7.7-.8.8-1.9.3-2.8z"/><path d="m52.2 39.8c-.1-.1-.2-.3-.3-.5v.1c.1.3.3.5.5.6l.2.1c-.1-.1-.2-.1-.4-.3z"/><path d="m50.4 37.2v.2.2c.4-.3.8-.6 1.3-.7-.1-.1-.3-.2-.5-.2h-.1c-.1 0-.3-.1-.4-.2-.3-.3-.5-.5-.7-.8l-.2-.3c-.6-.7-1.4-1.3-2.3-1.7-.8-.3-1.6-.4-2.4-.4-.2 0-.5 0-.8 0-.5.1-.5.1-.5 0s0-.1.1-.1.3-.1.4-.1h.1c.4-.1.8-.2 1.3-.2h2.4c1.4.1 2.8-.3 3.9-1.2-.8.1-1.6 0-2.4-.1-2.6-.3-6.3 1.2-6.4 1.2-.7.2-1.4.5-2.1.8l-.3.2h-.1-.1s0-.1 0-.1c.1-.1.3-.2.5-.2.8-.5 1.7-1 2.6-1.4.4-.3.8-.5 1.2-.8s1.2-.9 1.8-1.3c.8-.6 1.6-1.3 2.2-2.1.6-.6 1.3-1.2 2-1.6-1 0-1.9.2-2.8.6h-.1c-.7.4-1.4.9-2 1.5-.5.5-3.4 2.9-4.3 3.6-.9.6-1.7 1.4-2.4 2.2l-.1.1c-.5.6-.9 1.2-1.1 2h.9c1.3-.9 2.8-1.2 4.3-.9 2.9.7 4.8 3.6 4.8 3.6.5.4 1 .8 1.5 1.2.1-.6.1-1.1 0-1.7-.3-1.4-1.3-2.6-2.5-3.3-2.7-1.5-6.4-.4-6.4-.4-.1 0-.1 0-.1-.1s0-.1.1-.1c1.3-.5 2.8-.8 4.2-1h.3.3c1 .1 2 .4 2.9.9.7.5 1.4 1.2 2 1.8.1.1.1.2.2.2.1.1.2.2.2.3-.3.2-.3.3-.4.4z"/><path d="m32.5 29.2c-.2-.6-.5-1.4-.8-2.1l-.5-1.3c0 1.1.1 2.1.3 3.1.3.1.7.2 1 .3z"/><path d="m53.7 38.1-.2-.2c-.2-.3-.5-.5-.9-.6-.1 0-.2 0-.3 0s-.2 0-.3 0c-.1 0-.2-.1-.2-.1-.5.1-1 .4-1.4.8v.2.1.1c-.1.2-.1.3 0 .5 0 .1 0 .2.1.3 0 .1.1.3.1.4.1.5 0 1-.2 1.5v.1c.5-.1 1-.3 1.4-.6-.1-.1-.2-.1-.2-.2-.1-.1-.2-.2-.3-.4-.3-.5-.4-1.2-.3-1.8 0-.1.1-.1.1-.1.1 0 .1 0 .1.1 0 .4.1.7.2 1.1.2.7.9 1.2 1.6 1.2l-.6-.3c-.1 0-.3-.1-.4-.2-.1-.1-.2-.3-.3-.5v-.2s0-.1 0-.2c0-.2-.1-.3-.1-.5 0 0 0 0 0-.1 0-.2-.1-.4-.2-.5v-.1h.1l.2.2c.2.3.3.6.4 1 0 .1.1.2.2.3.4.5 1 .8 1.6.9-.1-.2-.2-.3-.3-.6 0-.1 0-.2 0-.3 0-.2-.1-.4-.1-.7 0 0 0-.1-.1-.2l-.1-.1c-.3-.3-.6-.6-1-.8v-.1s0-.1.1-.1c.2 0 .3.1.4.2l.2.1s.1.1.1.1c.5.4.8.9.8 1.5.4-.1.8-.4 1.1-.7-.2 0-.5-.1-.7-.2-.2.1-.4-.1-.6-.3z"/><path d="m33.6 32.5.1-.2c-.1-.1-.2-.2-.3-.3l-.1-.2-.1-.2c-.1 0-.2 0-.3 0-.2 0-.3 0-.5.1-.4.2-.7.9-1 2.2 1.6-.2 1.8-.7 2.2-1.4z"/><path d="m32.3 31.5c-.1-.1-.2-.2-.3-.3z"/><path d="m33.6 33s0 .1-.1.1l.1.1c0-.1 0-.1 0-.2z"/><path d="m32.6 31.4h.6c0-.4.2-.7.4-.9-.5-.8-1.5-1.3-2.5-1.3.3.9.8 1.6 1.5 2.2z"/><path d="m32.1 31.6c-.6-.8-1.3-1.6-2.1-2.2l-.5-.3-.5-.3c-1-.6-2.1-1.1-3.2-1.3l.1.2c.4.9.6 1.5 2.6 2.4 1.1.6 2.1 1.4 3 2.3.2-.3.4-.5.6-.8z"/><path d="m33.5 33.6c-.1-.1-.1-.2-.2-.3-.2.2-.4.4-.7.5.1.2.2.4.3.6v.1.1s-.1 0-.1.1c-.1 0-.1 0-.1-.2-.1-.2-.2-.4-.4-.5-.3-.1-.7 0-1 0h-.1v-.1c.1-.3.1-.6.2-.8-1.4-.9-3-1.7-4.6-2.2-.6-.2-1.2-.4-1.8-.5-.9-.1-1.7-.4-2.5-.8.2.3.5.8.7 1.1.3.5 1.7 1 3 1.4l.8.2c.8.3 1.2.4 2.5.9 1.6.6 3.2 1.3 4.1 2.9h.4.7c-.1-.3-.2-.7-.3-1-.6-.3-.8-.9-.9-1.5z"/><path d="m70.4 78h2v1.3h-2z"/><path d="m72.8 81h2v1.2h-2z"/><path d="m69.2 79.5h2v1.3h-2z"/><path d="m69.7 76.5h1.9v1.2h-1.9z"/><path d="m70.4 81h2.2v1.2h-2.2z"/><path d="m71.5 79.5h2.4v1.3h-2.4z"/><path d="m70.8 75.1h2.5v1.3h-2.5z"/><path d="m72.8 66.3h2v1.6h-2z"/><path d="m76.3 70.1h2v1.4h-2z"/><path d="m73.7 66.1h1.2 1.2v-.6h-2.4z"/><path d="m70.2 73.6h1.3v1.3h-1.3z"/><path d="m70.7 71.7h1.7v1.6h-1.7z"/><path d="m69.4 71.5h1.9v-1.4h-1.7z"/><path d="m71.5 70.1h2v1.4h-2z"/><path d="m79.8 74.8h1.1l-.2-1.2h-.8z"/><path d="m79.2 71.7v1.6h1.4l-.2-1.6z"/><path d="m79.2 76.3h1.9l-.2-1.2h-1.7z"/><path d="m80.3 77.8h1l-.2-1.3h-.8z"/><path d="m80.9 64.8h1.3v1.3h-1.3z" transform="matrix(.00209444 -1 1 .00209444 15.8743 146.8689)"/><path d="m79.1 69.6h1.1l1.9-1.4h-2.3z"/><path d="m79.8 66.3h2.4v1.6h-2.4z"/><path d="m77.2 81h2.2v1.2h-2.2z"/><path d="m74.1 79.5h1.6v1.3h-1.6z"/><path d="m75.9 79.5h2.4v1.3h-2.4z"/><path d="m80.9 60h-.3v.6c0 .1-.1.2-.2.2h-.6c-.1 0-.2-.1-.2-.2v-.6h-.4v.6c0 .1-.1.2-.2.2h-.6c-.1 0-.2-.1-.2-.2v-.6h-.2v1h2.9z"/><path d="m75 81h2v1.2h-2z"/><path d="m80.8 80.8h1l-.2-1.3h-.8z"/><path d="m78.5 79.5h2v1.3h-2z"/><path d="m79.6 79.3h2l-.3-1.3h-1.7z"/><path d="m78.3 64.8h2.4v.4h-2.4z"/><path d="m79.4 62.9c-.2 0-.3.2-.4.5v.9h.8v-.9c0-.3-.2-.5-.4-.5z"/><path d="m74.9 62.9c-.2 0-.4.2-.4.5v.9h.8v-.9c-.1-.3-.2-.5-.4-.5z"/><path d="m77.2 66.3h2.4v1.6h-2.4z"/><path d="m77 69.6h1.8l.7-1.4h-2.3z"/><path d="m77.2 78h-3.7-.8v1.3h4.6z"/><path d="m73.7 64.9h2.4v.4h-2.4z"/><path d="m78.3 65.5h2.4v.7h-2.4z"/><path d="m69.1 64.9h2.4v.4h-2.4z"/><path d="m79.6 82.1h2.4l-.2-1.1h-2.2z"/><path d="m70.3 62.9c-.2 0-.3.2-.4.5v.9h.8v-.9c-.1-.3-.3-.5-.4-.5z"/><path d="m72.7 69.6-.1-1.4h-2.5l.5 1.4z"/><path d="m70 66.3h2.6v1.6h-2.6z"/><path d="m69.1 65.5h2.4v.6h-2.4z"/><path d="m71.8 76.5h1.5v1.2h-1.5z"/><path d="m78.1 76.5h1.9v1.3h-1.9z"/><path d="m80.1 70.1h-1.6v1.4h1.8z"/><path d="m76.5 75h2.4v1.3h-2.4z"/><path d="m77.4 78h2v1.3h-2z"/><path d="m77.3 71.7h1.7v1.6h-1.7z"/><path d="m79.6 73.6h-1.3v1.2h1.3z"/><path d="m76.5 76.5h1.4v1.3h-1.4z"/><path d="m71.7 73.6h1.7v1.3h-1.7z"/><path d="m73.7 70.1h2.3v1.4h-2.3z"/><path d="m77 68.2h-2v1.4h1.8z"/><path d="m74.8 68.2h-2l.1 1.4h1.9z"/><path d="m72.7 73.3h.7c.1-.9.8-1.5 1.7-1.4.8.1 1.4.7 1.4 1.4h.6v-1.6h-4.4z"/><path d="m76.5 73.6h1.6v1.3h-1.6z"/><path d="m75 66.3h2v1.6h-2z"/><path d="m65.9 86.9h1.3v-1.9h-2.2v1.9z"/><path d="m68.6 87.1h2.4v1.3h-2.4z"/><path d="m65 87.1h.8v1.3h-.8z"/><path d="m79.8 88.6h2.6v1.2h-2.6z"/><path d="m65 91.6h2v1.1h-2z"/><path d="m65 90.1h.8v1.3h-.8z"/><path d="m67.4 85h2.4v1.8h-2.4z"/><path d="m66 90.1h2.4v1.3h-2.4z"/><path d="m66 87.1h2.4v1.3h-2.4z"/><path d="m81.2 87.1h2.4v1.3h-2.4z"/><path d="m83.6 90.1h-2.4v1.3h2.4z"/><path d="m67.2 88.6h2.5v1.2h-2.5z"/><path d="m68.6 90.1h2.3v1.3h-2.3z"/><path d="m67.2 91.6h2.6v1.1h-2.6z"/><path d="m65 88.6h2v1.2h-2z"/><path d="m83.8 87.1h.8v1.3h-.8z"/><path d="m70 91.6h2.1v1.1h-2.1z"/><path d="m83.8 90.1h.8v1.3h-.8z"/><path d="m82.4 85v1.8h2.2v-1.8z"/><path d="m82.6 91.6h2v1.1h-2z"/><path d="m103.9 55.8s-45.4-.1-45.4 0v63c.2-.8 45.3-23.3 45.3-53.3 0-1.7.1-6.2.1-9.7zm-18.9 37c0 .1-.1.2-.2.2h-20c-.1 0-.2-.1-.2-.2v-7.9c0-.1 0-.1.1-.2l2.7-2.6 1.8-12.3-1.9-1.6s-.1-.1-.1-.2v-3.5c0-.1.1-.2.2-.2h1.1l.4-2.2-.4-1v-1.4c0-.1.1-.1.2-.1h.6c.1 0 .1.1.2.1v.6h.3v-.6c0-.1.1-.2.2-.2h.7c.1 0 .2.1.2.2v.6h.3v-.6c0-.1.1-.2.2-.2h.6c.1 0 .2.1.2.2v1.3l-.4 1 .4 2.2h1.2l.4-2.2-.3-1.1v-1.3c0-.1.1-.1.2-.1h.3c.1 0 .1.1.2.1v.6h.3v-.6c0-.1.1-.2.2-.2h.7c.1 0 .2.1.2.2v.6h.3v-.6c0-.1.1-.2.2-.2h.6c.1 0 .2.1.2.2v1.3l-.4 1.1.4 2.2h1.1l.4-2.2-.3-1.1v-1.3c0-.1.1-.1.1-.2h.6c.1 0 .1.1.2.1v.6-.6c0-.1.1-.2.2-.2h.7c.1 0 .2.1.2.2v.6h.3v-.6c0-.1.1-.1.2-.1h.4c.1 0 .1.1.2.1v1.3l-.4 1.1.4 2.2h1.3c.1 0 .2.1.2.2v3.5c0 .1 0 .1-.1.2l-2 1.6 1.9 12.4 2.6 2.6v.2 8z"/><path d="m82.6 88.6h2v1.2h-2z"/><path d="m70 88.6h2.1v1.2h-2.1z"/><path d="m79.8 91.6h2.6v1.1h-2.6z"/><path d="m71.2 90.1h.9v1.3h-.9z"/><path d="m71.2 87.1h.9v1.3h-.9z"/><path d="m80.5 62.2.3-1h-2.7l.2 1z"/><path d="m77.5 91.6h2.1v1.1h-2.1z"/><path d="m79.6 85h-9.6v1.8h2.3c.7-.8 1.7-1.2 2.7-1.1.9 0 1.8.4 2.4 1.2h2.2z"/><path d="m67.6 64.9h1.3v1.3h-1.3z"/><path d="m70.5 71.7h-1.2l-.2 1.6h1.4z"/><path d="m71.3 62.2.3-.9h-2.7l.3.9z"/><path d="m71.7 60h-.3v.6c0 .1-.1.2-.2.2h-.6c-.1 0-.2-.1-.2-.2v-.6h-.4v.6c0 .1-.1.2-.2.2h-.6c-.1 0-.2-.1-.2-.2v-.6h-.3v1h2.8v-1z"/><path d="m67.6 66.3h2.2v1.6h-2.2z"/><path d="m70.4 69.6-.6-1.4h-2.1l1.8 1.4z"/><path d="m69.7 63.4c0-.4.3-.6.5-.6.2 0 .5.2.5.6v.9h.8l-.3-2h-2.1l-.3 2h.9z"/><path d="m76.3 64.9h1.8v1.3h-1.8z" transform="matrix(1 -.0010472 .0010472 1 -.068538 .080838)"/><path d="m73.8 62.2h2.1l.3-.9h-2.7z"/><path d="m78.9 63.4c.1-.4.3-.6.6-.6.2 0 .5.2.5.6v.9h.8l-.3-2h-2.1l-.3 2h.9z"/><path d="m76.3 60h-.3v.6c0 .1-.1.2-.2.2h-.6c-.1 0-.2-.1-.2-.2v-.6h-.4v.6c0 .1-.1.2-.2.2h-.4c-.1 0-.2-.1-.2-.2v-.6h-.3v1h2.9z"/><path d="m74.3 63.4c.1-.4.3-.6.5-.6.2 0 .5.2.5.6v.9h.8l-.3-2h-2.1l-.3 2h.9z"/><path d="m71.7 64.9h1.8v1.3h-1.8z"/><path d="m79.8 85h2.4v1.8h-2.4z"/><path d="m77.5 87.1h.9v1.3h-.9z"/><path d="m77.5 90.1h.9v1.3h-.9z"/><path d="m69.9 84.8h12.3.1 2l-1.1-1.1h-17l-1.1 1.1z"/><path d="m77.5 88.6h2.1v1.2h-2.1z"/><path d="m81 90.1h-2.4v1.3h2.4z"/><path d="m79.7 87.1h-1.1v1.3h2.4v-1.3z"/><path d="m69 79.5h-.8l-.2 1.3h1z"/><path d="m82.1 82.6h-14.5l-1.1.9h16.6z"/><path d="m69.5 76.5h-.9l-.2 1.3h1.1z"/><path d="m70.6 75.1h-1.8l-.1 1.2h1.9z"/><path d="m70.2 78h-1.8l-.2 1.3h2z"/><path d="m69.9 73.6h-.8l-.2 1.2h1z"/><path d="m70.2 81h-2.3l-.1 1.1h2.4z"/></g><path d="m103.4 28.5h-44.5v27h44.5c0-7.7 0-18.1 0-27z" fill="none"/><path d="m58.9 56.2v61.8l.8-.5c16.3-9.4 43.7-28.6 43.7-52.2v-9.1z" fill="none"/><path d="m22.1 88.2c7.3 10.1 19.3 20 35.3 29.3l.8.5v-25.3l-21.6-12.2z" fill="none"/><path d="m58.9 10.8h7.1v17.2h-7.1z" fill="none"/><path d="m73.8 10.8h7v17.2h-7z" fill="none"/><path d="m13.6 65.3c.1 5 1.2 10 3.4 14.5l19.5-10.4 21.6 12.2v-25.4h-44.5z" fill="none"/><path d="m88.6 10.8h7.2v17.2h-7.2z" fill="none"/><path d="m104.3 10.4v-.5h-56.7v1h10.6v44.6h-44.6c0-15 0-40.8 0-44.6h9.8v-1h-10.7v.5 54.9c0 17.8 15.7 36.6 44.2 53l1.6 1.1 1.7-1c28.5-16.4 44.2-35.2 44.2-53 0-7.9-.1-55-.1-55zm-46.1 107.6-.8-.5c-16-9.2-27.9-19.2-35.3-29.3l14.5-7.7 21.6 12.2zm0-36.4-21.6-12.2-19.5 10.4c-2.2-4.5-3.4-9.5-3.4-14.5v-9.1h44.6v25.4zm30.4-70.8h7.2v17.2h-7.2zm-14.8 0h7v17.2h-7zm-14.9 0h7.1v17.2h-7.1zm0 17.7h44.5v27h-44.5zm.8 89-.8.5v-61.8h44.5v9.1c0 23.6-27.4 42.8-43.7 52.2z" fill="#fff"/><path d="m34.3 10.8h-2.1z" fill="#fff"/><path d="m29.2 10.8h3 2.1 2.7 1.5 3.7 5.4v-.9h-24.1v.9z" fill="#fff"/><path d="m31.2 22.8.3 1.2 1.1-.7.3 1.5 1.2-1.1.7 1.3.8-1.3 1.1 1.2.5-1.3 1.1 1.1.4-1.7 1.2 1.5.2-1.9 1.6 1.5-.7-2.6 1.9 1.5-1-3 1.6 1-.8-1.6 1.6.8-1.6-2.6 2.1 1-.9-1.6 1.9.3-3-1.7h2.3l-2.3-1.3 1.9-.1-2.3-1 2.2-.3-2.5-.9 1.7-1-4.2-.1 1.1.5-1.5.3.8.8-1.2-.2.8 1.2-1.3-.6.4 1.2-1.1-.8.1 1-.7-.2c0 .6 0 .7-.1.7-.2.4-.3.8-.5 1.2.3 0 .6 0 .9.1h.1c.4 0 .8-.1 1.1-.3h.1v.1l.3-.2h.1v.1.2l.2-.1h.1v.1.2l.2-.2h.1v.1 5.3c-.8.6-1.8.9-2.8.8-.5 0-1 .2-1.4.4-.4-.3-.9-.4-1.5-.4h-.8c-.7-.2-1.3-.5-1.9-.9v-5s0-.1.1-.1c0 0 .1 0 .1.1v4.9c.6.4 1.2.7 1.8.8l.8.1c.5 0 1 .1 1.5.4v-.3c-.5-.1-1-.2-1.4-.2h-.4c-.8-.1-1.6-.3-2.3-.8v-5s0-.1.1-.1c0 0 .1 0 .1.1v5c.7.4 1.4.7 2.2.8h.4c.4 0 .8.1 1.2.3v-.3c-.4-.2-.8-.4-1.2-.3h-.4c-.7 0-1.4-.2-2-.6v-5s0-.1.1-.1c0 0 .1 0 .1.1v5c.6.4 1.2.6 1.9.6h.4c.4 0 .9.1 1.2.3v-.5c-.5-.2-1.1-.4-1.6-.3-.6 0-1.1-.2-1.6-.5v-5.1s0 0 0-.1h.1.1l.4.2c.2-.5.4-.9.7-1.4l-.1-.8-1 .5v-.7l-.9.5.3-1-1.3.2.8-1-1.4-.1 1.4-.8-4.1.1 1.1 1.1-1.6.6 1.4.6-2.2.6 1.6.6-1.8.9 1.4.3-2.1 1.7 2.5-.2-2 2 1.8-.3-1.6 2.2 2.2-.8-1.1 2.3 2-1.3v1.8l1.2-.9-.1 1.3z" fill="#fff"/><path d="m38.9 21.4c-.6.4-1.2.6-1.9.5h-.3c-.4 0-.9.1-1.2.3v.3c.4-.2.9-.3 1.4-.4 1 .1 1.9-.2 2.7-.8v-5.2l-.2.1v4.8.1z" fill="#fff"/><path d="m33.6 14c-.3.5-.6 1.1-.8 1.6.3.2.7.2 1.1.2.2 0 .5 0 .7.1 0 0 .1 0 .1.1.1.8.2 1.5.4 2.2 0 .1.1.2.1.3.1-.1.2-.1.4-.1.1 0 .1.1.2.1v.1h-.1s-.1-.1-.1-.1c-.1 0-.2 0-.3.1v.2c0 .1 0 .2.1.3h.2c.1 0 .3-.1.4-.3.2-.3.3-.6.2-.9l-.1-1.1s.4-1.2.8-2.2c.1-.8 0-1.6-.1-2.3 0-.4.1-.9.2-1.3h-2.4v1.1c0 .7-.3 1.3-.7 1.8z" fill="#fff"/><path d="m36.8 12.3c.1.6.1 1.1.2 1.5l.4.2-.1-1.1.9.7-.3-1 1 .4-.6-.9 1.1.1-.6-.6 1.1-.2-1.3-.6h-1.6v.1c-.2.4-.2.9-.2 1.4z" fill="#fff"/><path d="m38.9 16.2v4.7.1c-.5.4-1.2.6-1.8.6h-.3c-.5-.1-1 .1-1.4.3v.2c.4-.2.8-.3 1.2-.3h.4c.7.1 1.3-.1 1.9-.5l.3-.2v-5z" fill="#fff"/><path d="m31.8 11.7-.7 1 1-.2-.2.8.8-.4v.7l.7-.5.1.9v-.1c.4-.5.6-1.1.6-1.7v-1.2s0 0 .1-.1h-2l-1.4.8z" fill="#fff"/><path d="m42.2 10.8h2.4l-2 1.2 3.1 1.1-2.4.3 2.4 1.1-2 .1 2.3 1.3h-2.3l3.4 1.9-2.8-.4 1 1.8-2-1 1.6 2.6-1.6-.8.9 1.7-1.8-1.1.9 2.9-1.9-1.5.7 2.7-1.9-1.7-.2 2-1.2-1.6-.5 1.6-1.1-1.2-.5 1.3-1.2-1.1-.9 1.4-.7-1.4-1.2 1.2-.3-1.5-1.1.7-.3-1.2-1.2 1 .1-1.5-1.2.9v-1.9l-2.4 1.5 1.2-2.5-2.5.9 1.7-2.4-2 .3 2.1-2-2.6.3 2.4-1.9-1.6-.2 2-1-1.8-.6 2.2-.7-1.4-.6 1.9-.7-1.2-1.3h2.6-15.6v3l-.4 5.2.4 18.8v17.6h44.6v-44.6zm-16.6 27.2c-.5.6-1.1 1.1-1.6 1.7h-.1s0 0 0-.1c-.2-2.5.8-3.8 1.8-4.3.8-.5 1.6-.9 2.6-1h.7c-.7-.1-1.4-.1-2.1 0l-.5.1c-1.8.4-3.4 1.3-4.6 2.8-.3.5-.5 1.1-.4 1.6v.5c0 1.2-.6 2.3-1.6 2.8l-.2.2c-.1.1-.3.2-.5.2-.1 0-.2 0-.2-.1-.2-.2-.1-.6.1-.8.3-.5.6-1.1.7-1.8 0-.2.1-.5.2-.7l.1-.2c.1-.1.1-.1.1-.2-.1.1-.2.1-.3.2-.2.2-.3.5-.3.8v.2c0 .2-.1.3-.1.4v.1c-.1.1-.1.3-.2.4v.1c-.1.1-.1.2-.2.3l-.1.1c-.1.1-.2.2-.3.3-.3.4-.5.4-.5.4-.1 0-.1-.1-.1-.2-.1-.7-.1-1.4.1-2.1.1-.9.7-1.7 1.5-2.1 0 0 .4-.2.7-.3l.2-.2.1-.2c.4-.5.8-1 1.3-1.4.8-.8 1.8-1.3 2.9-1.7h.1c1.7-.6 3.5-.6 5.1 0l.3.1c1.2.4 2.3 1.2 2.9 2.3v.1h-.1-.4-.6s0 0-.1 0c-1.3-1.4-3.5-1.5-5-.2-.4.4-.7.8-1 1.2zm17.2 8.9c.2-.4.8-.6 1.2-.3l.3.3c.4.5.4 1.1.1 1.6-.2.3-.5.5-.8.6-.1 0-.1 0-.2 0-.4 0-.7-.2-1-.4-.3-.3-.5-.6-.7-1 .4 1.9 0 4.2-2.5 6.4h-.1v.9h-6.4v-1c-2.6-2.3-2.9-4.6-2.4-6.5-.2.4-.5.8-.8 1.2-.3.2-.6.4-1 .4h-.5c-.3-.1-.7-.3-.8-.6-.3-.5-.3-1.1.1-1.6.3-.3.8-.4 1.2-.2.1.1.2.2.3.3.6-.8.6-1.9 0-2.8-.2-.4-.4-.7-.6-1-.9-1.5-2.3-3.7-1.4-5.5.5-1.1 1.6-1.8 2.8-1.9 1.1-.1 2.2.4 2.8 1.3.4.8.4 1.7 0 2.5-.3.5-1 .7-1.5.6-.3-.1-.5-.2-.6-.4-.3-.5-.4-.8-.3-1 .1-.4.5-.7.9-.8.2 0 .4 0 .5.1 0-.3-.1-.6-.3-.8-.5-.4-1.1-.6-1.7-.3-.6.2-1.1.6-1.4 1.1-.3.4-.3.8-.3 1.3l.1.2c.2.8.5 1.6 2.8 2.6 0 0 .1.1.1.1v.1c-.3.3-.7.5-1.1.4.7 1 1 2.3.9 3.5.5-1.1 1.2-2.1 1.9-3.1l.2-.3c1.3-1.7.7-2.8 0-4v-.1-1.5c0-.1 0-.1.1-.1h5.9c.1 0 .1 0 .1.1v1.5.1c-.7 1.2-1.3 2.3 0 4l.2.3c.7.9 1.4 1.9 1.9 3-.1-1.2.3-2.4 1-3.4-.4 0-.8-.1-1.1-.5v-.1s0-.1.1-.1c2.3-1 2.6-1.8 2.8-2.6v-.2c.1-.4 0-.9-.2-1.3-.3-.5-.7-.9-1.3-1.1s-1.2-.1-1.7.3c-.2.2-.4.5-.3.8.2-.1.3-.1.5-.1.4.1.7.4.9.8.1.3 0 .6-.2.8s-.4.4-.7.4c-.6.1-1.2-.1-1.5-.6-.4-.8-.4-1.7 0-2.5.6-.9 1.7-1.4 2.8-1.3 1.2.1 2.3.8 2.8 1.9.9 1.8-.5 4-1.5 5.5-.2.4-.5.7-.7 1.1-.3 1-.3 2.1.3 2.9zm12.5-8.4v.1c-.9.8-1.4.9-1.5.9s0 0 0 0h-.1v.3c0 .1 0 .2.1.2.1.2.2.3.4.4v.1s-.1.1-.1.1c-.2 0-.4-.1-.6-.1l-.2-.1-.3-.1c.3.1.5.2.8.3.1 0 .1 0 .1.1 0 .1 0 .1-.1.1-.7.1-1.3-.1-1.9-.3 0 0 0 0-.1 0l-.2-.2c-.2-.2-.3-.5-.4-.7 0 .2.1.3.2.4.1.2.3.4.6.6 0 0 .1 0 .1.1v.1c-.5.5-1.1.7-1.8.8h-.1s0 0 0-.1c.3-.6.4-1.3.2-2v-.1s0 0 0 0c-.1-.3-.1-.6 0-.9v-.1s0-.1 0-.2v-.1-.1c0-.1-.1-.2-.1-.3s0-.2 0-.3 0-.1 0-.2c0 0-.1-.1-.2-.2s-.2-.2-.2-.3c-.6-.7-1.2-1.3-1.9-1.8-.9-.5-1.8-.8-2.8-.9h-.3c-.9 0-1.8.1-2.7.4 1.6-.2 3.3 0 4.8.7 1.3.7 2.3 2 2.6 3.5.1.6.1 1.3 0 1.9 0 0 0 .1-.1.1h-.1c-.6-.5-1.2-1-1.7-1.5 0 0-1.8-2.8-4.5-3.4-1.4-.3-3 0-4.2.9h-1s0 0-.1 0 0 .1-.1.1h-.6-.8s0 0-.1 0v-.1c0-1 .2-2.1.7-3l.1-.2h-.4c-.4.7-.7 1.6-.7 2.6v.3s-.1.1-.1.1h-.9-.1-.1-.8-.5-.1c-.9-1.6-2.5-2.3-4-2.9-.8-.3-1.6-.6-2.5-.9l-.8-.2c-1.5-.5-2.8-.9-3.2-1.5s-.9-1.4-.9-1.4v-.1h.1c.9.4 1.8.7 2.8.9.6.1 1.2.2 1.8.4 1.6.5 3.2 1.3 4.6 2.2 0-.1 0-.1.1-.2-.9-.9-1.9-1.7-3-2.3-2.1-1-2.4-1.7-2.8-2.5 0-.1-.1-.3-.2-.4v-.1s.1-.1.1 0c1.2.2 2.4.7 3.4 1.3.2.2.4.2.5.3s.2.2.5.3c.6.4 1.1.9 1.5 1.4-.3-.5-.6-1-.7-1.6v-.1h.1.3c-.3-1.2-.4-2.5-.3-3.7 0 0 0-.1.1-.1.1 0 .1 0 .1.1s.3.9.7 1.7.7 1.6.9 2.3c.3.2.6.4.8.6-.3-.9-.1-1.9.6-2.5h.1c.8.5 1.2 1.4 1 2.3 0 0 .1-.1.1-.1.3-.3.6-.6 1-.7 0 0 0 0 0-.1.6-1 1.1-2.1 1.5-3.2 0 0 .1-.1.1-.1s.1 0 .1.1c.1 1.1.1 2.1-.1 3.2h.2.1v.1c-.1.4-.3.8-.5 1.1-.1.5-.3 1-.4 1.5.2.1.4.3.5.5 1.1-1.6 2.4-2.9 4.1-3.9h.1v.1c-.5 3.2-1.3 4.1-2 4.8-.5.5-.9 1-1.3 1.6.1-.2.3-.4.4-.5l.1-.1c.7-.8 1.6-1.5 2.4-2.2 1-.7 3.8-3 4.2-3.5.6-.6 1.3-1.1 2-1.5l.3-.2c1-.4 2.1-.6 3.2-.6 0 0 .1 0 .1.1v.1c-.8.5-1.6 1.1-2.2 1.8-.7.8-1.5 1.5-2.4 2.1-.6.4-1.4 1-1.7 1.3-.4.3-.8.6-1.2.9-.3.1-.7.3-1 .4.1-.1.3-.1.5-.1 0 0 3.8-1.6 6.5-1.2.8.1 1.7.1 2.5 0 0 0 .1-.1.2 0v.2c-1.1 1.1-2.7 1.7-4.3 1.6-.8 0-1.6 0-2.4 0l-.5.1c.8 0 1.5.2 2.3.4.9.4 1.7 1 2.4 1.7l.2.3c.2.3.5.6.7.8.1.1.1.1.2.1h.1c.3 0 .6.2.7.4.1.1.2.1.4.1h.3c.5.2.9.5 1.2.9.1.1.2.2.4.3l.2.1c.1 0 .2.1.2.1h.1.3.2s.1 0 .1.1z" fill="#fff"/><path d="m38.6 20.6c-.4.4-.9.5-1.3.6-.6-.1-1.2 0-1.8.3v.3c.4-.3.9-.4 1.4-.3h.3c.6 0 1.2-.2 1.7-.5v-4.7-.2l-.2.1z" fill="#fff"/><path d="m34.8 18.4c-.2-.7-.3-1.5-.4-2.2-.1 0-.6 0-.8 0-.5-.1-1-.3-1.5-.5v4.9c.4.3.9.5 1.5.5s1.1.1 1.6.3v-1.9h-.1c-.1-.2-.1-.4-.1-.6-.1-.2-.1-.4-.2-.5z" fill="#fff"/><path d="m36.4 16.1c-.2.4-.2.7-.3.8l.1 1.1c.1.4 0 .8-.2 1.1-.1.2-.3.4-.5.4v1.8c.6-.2 1.2-.3 1.8-.2.4 0 .9-.2 1.2-.5v-4.6c-.4.2-.8.3-1.2.3-.3-.1-.6-.1-.9-.2z" fill="#fff"/></svg>