<?xml version="1.0" encoding="utf-8"?>
<!-- Generator: Adobe Illustrator 25.1.0, SVG Export Plug-In . SVG Version: 6.00 Build 0)  -->
<svg version="1.1" id="Layer_1" xmlns="http://www.w3.org/2000/svg" xmlns:xlink="http://www.w3.org/1999/xlink" x="0px" y="0px"
	 viewBox="0 0 432.3 149.4" style="enable-background:new 0 0 432.3 149.4;" xml:space="preserve">
<style type="text/css">
	.st0{fill:#FFFFFF;}
</style>
<path class="st0" d="M425.1,7.6c-1.8,2.1-4.2,1.6-6.5,1.6H8.2l1.8-2h413.6C424.1,7.3,424.6,7.4,425.1,7.6z"/>
<path class="st0" d="M136.3,92.9c-1.2-2.6-2.1-5.1-3.4-7.4c-1.5-2.8-4.5-4.5-7.6-4.5c-4.2-0.2-8.4-0.5-12.6,0.7
	c-2.9,0.7-5.4,2.4-7.1,4.8c-3.7,5-5.9,10.9-6.5,17.1c-0.7,6-0.3,12.1,1.2,17.9c2.2,8.1,8,12.8,16.4,13.2c2.7,0.1,5.4-0.1,8-0.7
	c3.5-0.9,5.9-4.2,5.6-7.8c-0.2-3.5-0.1-7,0-10.6c0.1-1.1-0.4-2.2-1.5-2.7c-1.8-0.8-3.7-1.5-5.7-2.2c-0.1-2.1,0.1-2.4,2.3-2.4h20.3
	c0.2,1.4,0,2.2-1.5,2.7c-3.4,1.1-4,2.2-4,5.8c0,5,0,10,0,15c0.1,0.8-0.4,1.6-1.2,1.8c-5.7,2.1-11.3,4.4-16.4,7.8
	c-3.2,2.1-6.9,1.7-10.4,1.2c-7.3-1.1-13.7-4.1-18.3-10.1c-2.8-3.6-3.8-8-4.5-12.4c-2.1-10.7-0.2-21.9,5.2-31.4
	c6.2-11,15.9-15.1,28.1-14.5c2.1,0.1,4.2,0.4,6.3,0.8c2.4,0.5,4.9,0.3,7.1-0.7c2-0.8,2.7-0.3,2.7,1.8c-0.1,4.8-0.3,9.6-0.3,14.5
	C138.3,92.2,137.7,92.9,136.3,92.9z"/>
<path class="st0" d="M9.1,16.6c0.5-1.1,1.1-1.8,2.4-1.8c6.7,0,13.5,0,20.2,0c0.6,0,1.1,0.2,1.6,0.5c-0.5,0.5-1,1.5-1.6,1.6
	c-3.4,0.7-4.5,3.2-5,6.2c-0.2,1.3-0.3,2.7-0.3,4c0,9.9,0,19.7,0,29.6c-0.1,3.4,0.6,6.7,2.1,9.8c3.3,6.1,8.7,8.4,15.3,8.2
	c2.5-0.1,5-0.5,7.3-1.4c5.7-2.1,8.9-6.3,9-12.4c0.2-11.8,0.1-23.5,0-35.3c0-5.5-2.9-8.2-8.9-9l-1.8-0.1c0.4-1.3,1.1-2,2.3-2
	c6.6,0,13.1,0,19.7,0c0.4,0,0.9,0.4,1.3,0.6c-0.3,0.5-0.6,1.4-1,1.5c-5.1,0.9-5.4,4.8-5.5,8.7c-0.2,11.1-0.5,22.1,0,33.2
	c0.5,10.2-7.9,21.1-19.9,22.7c-5.5,0.8-11.1,0.4-16.4-1.3C21.7,77.1,17,70.5,17,61.9c0-12.5,0-24.9-0.1-37.4c0-5.3-1.4-6.7-6.6-7.7
	C9.9,16.8,9.5,16.7,9.1,16.6z"/>
<path class="st0" d="M258.9,38.3c5.1,4.2,8.9,9.1,12.5,14.2c2.3,3.5,5,6.8,8,9.8c7.8,7.2,18.6,8.2,28.8,3.2c1-0.5,1.9-1,2.9-1.5
	c0.5-0.2,1-0.4,1.4-0.5l0.4,0.4c-0.6,0.9-1.3,1.7-2.1,2.5c-9.9,7.3-25.1,10.2-37.2-0.7c-3.1-3-5.9-6.2-8.5-9.6
	c-4.1-5-7.9-10.2-11.9-15.2c-1.2-1.6-3.4-2.3-5.3-1.7c0,0.5-0.1,1-0.1,1.4c0,5.6,0,11.3,0,16.9c0,2.4,1,3.6,3.3,4.5
	c0.8,0.3,2.2,1,2.1,1.5c-0.1,1.4-1.5,1-2.5,1c-4.8,0-9.5,0-14.4,0c-0.2-1.1,0.5-2.1,1.6-2.3c2.5-0.8,3.3-2.1,3.3-4.7
	c0-11.2,0-22.3,0-33.5c0-3.9-1.7-5.9-6.4-7.5c-0.1-1.4,0.7-2,2-1.9c1.9,0,3.7,0.2,5.5,0.2c6.1,0.1,12.3,0.2,18.4,0.1
	c4.4-0.3,8.5,2.2,10.1,6.3c2.1,3.9,1.4,8.6-1.5,11.8C266.7,35.9,263,37.9,258.9,38.3z M247.8,19.1c0,5,0,9.7,0,14.5
	c0.1,0.4,0.3,0.8,0.7,1c3.9,1,8,0.9,11.8-0.4c1.5-0.4,2.6-1.5,3-3c0.3-1.2,0.8-2.4,1-3.6c0.6-3.9-3.2-8.8-7-8.9
	C254.2,18.6,251.1,18.9,247.8,19.1L247.8,19.1z"/>
<path class="st0" d="M345,95.1c0-5,0.1-9.8-0.1-14.5c0-0.8-1-1.8-1.8-2.4c-0.8-0.5-1.7-0.8-2.7-1l0.3-1.7h16.5
	c0.3,1,0.1,1.5-0.9,1.8c-0.8,0.1-1.7,0.5-2.3,1c-0.8,0.7-1.4,1.7-1.6,2.8c-0.1,12.1-0.2,24.3-0.1,36.4c0,3.5,1.2,4.9,4.3,5.6v1.6
	c-5,0-10,0-15,0c-0.4,0-0.8-0.4-1.2-0.6c0.3-0.4,0.5-1.1,0.9-1.2c3.4-1.1,3.6-3.8,3.6-6.7c0-5.1,0-10.2,0-15.3v-1.9
	c-0.7,0-1.1-0.1-1.6-0.1c-6.4,0-12.7,0-19,0c-1.3,0-1.7,0.3-1.7,1.6c0.1,5.4,0,10.7,0,16.1c0,2.8,0.8,4.9,3.7,5.7
	c0.5,0.1,0.7,0.8,1.1,1.2c-0.5,0.4-0.9,1.1-1.4,1.1c-4.9,0.1-9.8,0-15.1,0c0.5-0.8,0.7-1.6,1.1-1.8c2.7-1.2,3.7-3.4,3.8-6.1
	c0.1-3.5,0.1-6.9,0.1-10.4c0-7.9,0-15.7,0-23.6c0-4.4-0.6-4.9-4.8-5.6c-0.2-1.5,0.5-1.9,1.9-1.9c4.5,0.1,9.1,0,13.7,0
	c0,1.4-0.2,2.5-1.8,2.8c-1.4,0.3-2.3,1.6-2.2,3c0,4.3-0.1,8.6,0,12.9c0.1,0.5,0.5,0.9,1,1C330.7,95.1,337.7,95.1,345,95.1z"/>
<path class="st0" d="M85.4,28.3v2.1c0,8.3,0,16.7,0,25c0,6.6,1.4,6.7,7,7.7c-0.2,1.1-1.2,1.9-2.3,1.8L76,64.6
	c-0.4-0.1-0.8-0.2-1.2-0.4c0.8-0.7,1.3-1.6,1.9-1.7c2.7-0.6,3.9-2.4,4.3-4.9c0.3-1.6,0.4-3.2,0.4-4.8c0-9.7,0-19.4,0-29.1
	c0-0.8,0-1.5-0.1-2.3c0-2-1.5-3.7-3.4-4c-1.1-0.3-2.2-0.4-3.5-0.6c0.5-1.3,1.2-2,2.6-1.9c2.7,0.2,5.3,0.3,8,0.3
	c0.9-0.1,1.8,0.4,2.2,1.2c6.9,10,13.8,20,20.7,30c1.4,1.9,2.9,3.8,4.6,6c0.1-0.9,0.2-1.3,0.2-1.7c0-8.3,0-16.6,0.1-24.9
	c0-1-0.1-2-0.1-2.9c-0.3-3.4-1.6-4.7-5-5.1c-0.7-0.1-1.4-0.2-2.1-0.3l-0.2-0.5c0.8-0.5,1.5-1.3,2.3-1.4c4.5-0.2,9-0.1,13.5-0.1
	c0.2,0,0.4,0.1,0.5,0.2c0.2,1-0.5,1.9-1.4,2c0,0-0.1,0-0.1,0c-1.6,0.4-2.8,1.6-3,3.2c-0.4,1.8-0.6,3.6-0.7,5.5c0,12.1,0,24.3,0,36.4
	c0,2.2-1.4,4.2-3.5,4.9c-0.5,0-1-0.3-1.2-0.7c-6.4-14-16.4-25.4-25.4-37.6C86.2,29.1,85.9,28.8,85.4,28.3z"/>
<path class="st0" d="M207.8,79.8v14.6c4.1-0.2,8.1-0.4,12.1-0.8c0.9-0.1,1.7-1,2.5-1.5c0.3-0.2,0.8-0.6,1-0.5c0.4,0.2,0.9,0.6,0.9,1
	c0.1,3.1,0.1,6.2,0,9.3c0,0.5-0.9,1-1.4,1.5c-0.3-0.3-0.4-0.4-0.4-0.5c-1.1-4.4-4.2-5.7-8.4-5.3c-1.7,0.1-3.3,0.3-5,0.6
	c-0.7,0.3-1.2,1-1.3,1.7c-0.1,5.5-0.1,10.9-0.1,16.4c0,2.2,0.8,3.1,2.9,3.5c4.3,0.8,8.8,0.8,13.1,0.1c2.1-0.4,4-1.7,4.9-3.6
	c0.7-1.4,1.5-2.8,2.3-4.1c0.2-0.3,0.9-0.7,1.1-0.6c0.4,0.2,0.7,0.7,0.7,1.1c-0.5,3.7-0.9,7.5-1.6,11.2c-0.1,0.5-1.5,1-2.2,1
	c-2.8,0-5.5-0.5-8.3-0.5c-7.7,0-15.4,0.1-23.1,0.1h-2.1c-0.3-1.1,0.4-2.2,1.5-2.6c2.5-0.9,3.4-2.8,3.4-5.3c0-10.4,0-20.7-0.1-31.1
	c0-1-0.1-2.1-0.4-3.1c-0.5-2.6-2.5-4.6-5.1-5c-0.4-0.1-1.1-0.6-1-0.9c0.1-0.5,0.4-1,0.8-1.3c0.8-0.3,1.7-0.4,2.6-0.3
	c9.2,0,18.5,0,27.7,0c1.6,0,3.1-0.2,4.5-0.3c0.6,3.3,1.3,6.4,1.9,9.6c0.1,0.3,0.1,0.5,0,0.8c-0.4,0.8-0.8,1.5-1.2,2.3
	c-0.5-0.6-1.5-1.1-1.6-1.8c-0.8-3.9-4.6-5.9-8.3-5.8C216.1,79.8,212,79.8,207.8,79.8z"/>
<path class="st0" d="M195,16.7c0.4-1.8,1.6-2.2,3-2.2h32.6c1.3,3.2,1.7,10.4,0.4,12.1c-0.4-0.5-0.7-1-1-1.5
	c-0.9-3.3-3.9-5.6-7.4-5.7c-4.5-0.3-9.1-0.1-13.7-0.1v15.8c3.9-0.6,7.6-1,11.2-1.7c1.1-0.2,2-1.5,3.1-2.2c0.5-0.3,1-0.6,1.5-0.8
	c0.3,0.5,0.5,1,0.6,1.5c0,3.2,0.1,6.5,0,9.7c0,0.6-0.7,1.1-1,1.7c-0.3-0.5-0.7-0.9-1-1.4c-0.7-1.3-1.4-2.6-2.3-3.8
	c-0.8-0.7-1.8-1.1-2.9-1.1c-2.6,0.2-5.2,0.6-7.7,1c-1,0-1.7,0.8-1.7,1.7c0,0.1,0,0.2,0,0.3c0.1,5.3,0,10.5,0,15.8
	c0,2.4,0.8,3.4,3.2,3.8c4.2,0.8,8.6,0.7,12.8-0.2c2.8-0.6,5.2-2.5,6.3-5.1c0.2-0.6,0.6-1.2,1-1.6c0.4-0.3,0.9-0.6,1.5-0.8
	c0.2,0.5,0.3,1,0.4,1.6c-0.3,2.3-0.7,4.5-1.1,6.7c-0.2,1.1-0.4,2.1-0.5,3.2s-0.7,1.3-1.6,1.3l-29.8-0.5c-0.8,0.1-1.6,0.1-2.4,0
	c-0.7-0.1-1.3-0.5-1.8-0.9c-0.7-0.8-0.6-1.5,0.6-1.9c3.8-1.5,4.1-2.1,4.1-6.2c0-9.8,0-19.6,0-29.4c0-1.4-0.1-2.8-0.5-4.2
	C200,18.6,198,17.1,195,16.7z"/>
<path class="st0" d="M144.2,77c0.4-1.3,1.6-2.1,3-2.1c4.8,0.1,9.6,0,14.5,0c0.3,1.5,0.2,2.5-1.4,3.1c-2.1,0.7-3.1,2.3-3.1,4.6
	c0.1,8.8,0,17.6,0,26.3c-0.2,6,4.5,11.1,10.5,11.3c0.7,0,1.5,0,2.2-0.1c3-0.4,5.8-1.6,8.1-3.5c2.5-2,4-5,4-8.2c0-8.8,0-17.7,0-26.5
	c0-1.9-1.3-3.6-3.1-4.1c-1.2-0.3-2.5-0.6-3.8-0.8c0.9-1.3,1.8-2.3,3.6-2.2c3.5,0.1,6.9,0,10.4,0c0.5,0,0.9,0,1.4,0.1
	c0.2,1.3-0.4,2.6-1.6,3.1c-1.5,0.9-2.3,2.5-2.2,4.3c0,8.1-0.1,16.1-0.2,24.2c-0.1,8.9-6.6,16.9-15.1,18.6c-5.1,1.1-10.4,0.3-15-2.2
	c-4-1.9-6.5-6-6.5-10.4c-0.2-6.3-0.1-12.6-0.1-18.9c0-3.9-0.1-7.8,0.1-11.7c0.3-1.8-0.9-3.5-2.6-3.9C146.2,77.7,145.2,77.4,144.2,77
	z"/>
<path class="st0" d="M313.7,14.7c-1.1,3.6-0.6,7.3-0.1,11c0.2,1.6-1.2,1.1-2,1.5c-2.4-7.8-9.4-10.9-17.1-7.7
	c-4.7,1.9-5.6,7.3-1.9,10.9c2.3,2.2,5.2,3.2,8.3,3.9c2,0.5,4.1,1,6.1,1.7c8.2,3,11,8.7,8.6,17.1c-1,4.1-3.9,7.5-7.7,9.2
	c-6.9,3.3-15,3.3-21.9,0c-1.3-0.7-2.5-1.5-3.6-2.4c-1.4-1-2.1-2.8-1.8-4.5c0.2-2.7,0.2-5.4,0.1-8.1l2.2-0.8c0.2,5.9,4,8.9,8.5,11.4
	c3.9,2.3,8.6,2.4,12.7,0.4c2.9-1.3,4.9-3.5,5-6.8s-1-6.5-4.3-8.1c-2.4-1.1-5.1-1.7-7.6-2.6c-2.7-1-5.6-1.8-8.1-3.3
	c-6.7-4.1-7.6-12.2-2.1-17.9c4.6-4.8,10.3-6.4,16.8-5.7c2.1,0.2,4.2,0.6,6.3,0.8C311.1,14.8,312.2,14.7,313.7,14.7z"/>
<path class="st0" d="M273.3,78.1c0.1-1.7,0.9-2.1,2.4-2.1c5.8-0.2,11.5-0.6,17.2-0.9c3.5-0.3,7,0.2,10.2,1.5c6,2.6,8.8,9.6,6.2,15.7
	c-0.3,0.7-0.7,1.4-1.2,2.1c-3.1,4.4-7.4,7-12.9,7.2c-2.7,0-5.4-0.1-8.1-0.3c-1.5-0.1-2,0.4-2,1.8c0,4.8,0,9.6,0,14.5
	c0,2.1,2,4,4.6,4.6c0.5,0.1,1,0.2,1.6,0.3c0,1.1-1,2-2.1,1.9c-0.1,0-0.2,0-0.3,0c-4.7-0.1-9.5,0-14.2-0.1c-0.6-0.1-1.1-0.3-1.6-0.6
	c0.4-0.4,0.7-1.1,1.2-1.3c2.1-0.6,3.5-2.7,3.2-4.9c0-11.6,0-23.2,0-34.8C277.8,80.2,276.8,79.2,273.3,78.1z M285.5,88.3
	c0,2.3,0.1,4.5,0,6.8c-0.2,1.2,0.6,2.4,1.8,2.6c1.4,0.4,2.8,0.6,4.3,0.8c6.5,0.4,11-3.9,10.9-10.4c0-4.1-3.7-8.1-7.8-8.3
	c-2.6-0.1-5.2,0-7.8,0c-1.1,0-1.5,0.4-1.5,1.5C285.6,83.7,285.5,86,285.5,88.3L285.5,88.3z"/>
<path class="st0" d="M144,16.3c0.6-1.3,2.1-1.1,3.3-1.1c3.8-0.1,7.6,0,11.4,0h4.1c0,1.3-0.3,2.2-1.7,2.5c-1.5,0.3-2.6,1.6-2.5,3.2
	c0,1.7,0.2,3.3,0.6,4.9c3.2,9.4,6.6,18.8,9.9,28.2c0.1,0.2,0.2,0.4,0.3,0.6c0.2-0.5,0.4-0.9,0.6-1.3c3.1-8.2,6.2-16.3,9.2-24.5
	c0.6-2,0.9-4,0.9-6.1c0.1-1.9-1-3.7-2.8-4.5c-0.5-0.2-1-0.5-1.4-0.8c-0.4-0.3-0.9-1-0.7-1.2c0.3-0.5,0.8-0.8,1.4-0.9
	c4.6-0.1,9.1,0,13.7,0c0.3,1,0.3,1.6-0.7,2.2c-1,0.6-1.8,1.4-2.3,2.4c-1.1,1.9-1.9,3.9-2.7,5.9c-5,14.6-10,29.2-15,43.8
	c-0.2,0.6-0.5,1.2-1,2.4c-0.4-0.7-0.8-1.4-1.2-2.1C162.3,55.9,157.2,42,152,28.1c-1-2.7-2.3-5.3-3.9-7.8
	C147.2,18.8,145.5,17.8,144,16.3z"/>
<path class="st0" d="M393.5,64.7c-0.2-1.2,0.6-1.7,1.5-1.9c2.4-0.6,3-2.2,3-4.4c0-0.2,0-0.3,0-0.5c0-13.7,0.9-9.5-5.1-20.7
	c-3-5.5-6.1-10.9-9-16.3c-0.8-1.7-2.2-3-4-3.5c-0.7-0.3-1.3-0.6-1.9-1c0.7-0.4,1.4-0.7,2.2-0.8c5.7,0,11.4,0,17.1,0
	c0.1,0,0.2,0.1,0.6,0.3c-0.3,0.6-0.7,1.1-1.2,1.6c-0.7,0.4-1.5,0.7-2.3,0.9c-1.8,0.5-2.3,1.5-1.7,3.3c0.1,0.3,0.3,0.7,0.5,1
	l9.2,16.1c0.1,0.2,0.3,0.4,0.5,0.6l4.6-7.4c1.6-2.6,3.3-5.2,4.9-7.9c1.9-3.2,0.4-6.3-3.3-6.7c-0.6-0.1-1.1-0.3-1.6-0.6v-0.5
	c0.4-0.3,0.9-0.4,1.4-0.5c5.1,0,10.3,0,16,0c-0.4,0.7-0.9,1.3-1.4,1.9c-0.5,0.4-1.1,0.6-1.8,0.7c-1.4,0.3-2.6,1.2-3.2,2.5
	c-4.2,7.5-8.4,15-12.6,22.5c-0.3,0.6-0.5,1.3-0.5,2c0,4,0,8,0,12s0.6,4.7,4.6,5.4c0.4,0.1,0.8,0.3,1.2,0.6c-0.9,0.7-1.5,1.5-2.2,1.6
	c-4.9,0.1-9.9,0.1-14.8,0C393.8,64.8,393.7,64.8,393.5,64.7z"/>
<path class="st0" d="M365.6,63c0,1.3-0.7,1.7-1.8,1.6c-5-0.1-10,0-15-0.1c-0.5,0-1-0.5-1.5-0.7c0.4-0.5,0.6-1.3,1.1-1.5
	c3-1.4,4.6-3.5,4.5-7c-0.1-10.5,0-20.9,0-31.4c0-3.1-0.7-3.8-3.8-3.9c-1.2-0.1-2.5-0.1-3.7,0c-3.2,0.2-4.5,1.3-5.4,4.4
	c-0.2,1-0.6,2-0.9,2.9c-0.2,0.4-0.8,0.6-1.2,0.9c-0.2-0.5-0.7-0.9-0.7-1.3c-0.1-3.5,0-7,0-10.6c0-1.2,0.7-1.5,1.7-1.4
	c9.6,1.5,19.2,0.3,28.8,0.6c1.9,0,3.9-0.3,5.8-0.7c1.2-0.2,2,0.1,2,1.4c0.1,3.5,0.2,6.9,0.1,10.4c0,0.5-0.9,0.9-1.3,1.4
	c-0.4-0.4-0.7-0.8-0.9-1.3c-0.4-1.2-0.5-2.4-0.9-3.6c-0.5-1.7-2.1-3-3.9-2.9c-1.7-0.1-3.4-0.2-5-0.2c-2.3,0-3,0.6-3,3
	c0,8,0,15.9,0,23.9c0,3.5,0,7,0,10.6c0,2.9,0.7,3.8,3.4,4.8L365.6,63z"/>
<path class="st0" d="M234.2,76.4c0.7-0.4,1.4-1,2.1-1.1c5.5-0.1,11,0,16.5,0c-0.1,1.2-0.4,1.9-1.7,2.1c-2.2,0.3-3.2,1.9-3.6,3.9
	c-0.2,1.1-0.3,2.3-0.2,3.4c-0.1,11-0.1,22,0,33c0.1,0.7,0.4,1.2,1,1.6c0.9,0.5,2,0.8,3.1,0.9c3.7,0.1,7.5-0.1,11.2-0.5
	c3.8-0.5,5.7-3.5,7-6.8c0.3-0.6,0.8-1.1,1.2-1.6l0.8,0.3c-0.4,3.8-0.8,7.7-1.3,11.5c-0.2,1.2-1.3,1.5-2.4,1.5
	c-10.4,0-20.7,0-31.1-0.1c-0.6-0.1-1.2-0.5-1.6-1c3.5-1.8,4.3-4.8,4.5-8c0.2-5.3,0.2-10.6,0.2-15.9c0-5.8,0-11.6,0-17.4
	c0-3.4-0.6-4-3.9-4.6c-0.6-0.2-1.1-0.3-1.7-0.6L234.2,76.4z"/>
<path class="st0" d="M357.6,129.9c-0.7,1.4-2.2,2.2-3.7,2c-68.6,0-137.3,0-205.9,0h-2.1c0.6-1.3,1.9-2.1,3.4-2
	c68.9,0,137.7,0,206.6,0H357.6z"/>
<path class="st0" d="M335.3,15.6c-0.5,0.4-0.9,1.1-1.4,1.2c-1.6,0.4-2.8,1.6-3.2,3.2c-0.4,1.5-0.6,3.1-0.7,4.6c0,10.1,0,20.3,0,30.4
	c0,1,0.1,1.9,0.2,2.9c0.4,2.9,1.5,4,4.4,4.7c0.3,0.1,0.7,0.2,1,0.4l0.2,0.5c-0.7,0.4-1.3,1.2-2,1.2c-4.8,0.1-9.5,0-14.3,0
	c-0.2,0-0.4-0.1-0.5-0.1c-0.3-1,0.4-2.1,1.4-2.3c0.1,0,0.1,0,0.2,0c1.9-0.4,3.2-2.2,3-4.1c0-11.3,0-22.5-0.1-33.8
	c-0.1-4.2-2.4-6.5-7.1-7c0.3-0.6,0.7-1.2,1.2-1.7c0.4-0.2,0.8-0.4,1.2-0.3c5.4,0,10.8,0,16.3,0L335.3,15.6z"/>
<path class="st0" d="M143.1,63.3c-0.9,0.7-1.4,1.5-2,1.5c-5,0.1-10.1,0.1-15.1,0.1c-0.4-1,0.1-2,1-2.4c0.1-0.1,0.3-0.1,0.4-0.1
	c2.2-0.7,3.1-2.2,3.1-4.4c0-10.8,0-21.6,0-32.3c0-2.1-0.3-4.4-1.9-5.9c-1.1-1-2.7-1.5-4-2.2c-0.4-0.2-0.8-0.5-1.2-0.7
	c0.3-0.5,0.7-0.9,1.1-1.2c0.5-0.2,0.9-0.3,1.4-0.2c5.1,0,10.3,0,15.4,0.1c0.2,0,0.4,0.1,0.6,0.1c0,1.1-0.8,2-1.8,2.1
	c-1,0.3-1.8,1-2.2,1.9c-0.6,1.3-0.9,2.7-0.9,4c-0.1,11.1-0.1,22.2,0,33.3C137.1,60.5,138.1,61.5,143.1,63.3z"/>
<path class="st0" d="M65.5,97.7c-2,0-1.9-1.5-2.3-3c3.3,1.1,4-1,5.3-3.3c4.9-8.7,12.6-14,22.2-16.3c0.7-0.1,1.3-0.2,2-0.2v8.7
	c-2.2,0-2.6-0.5-3-4.2c-4.9-0.8-16.2,9-17.5,15.4c2.4,0.1,4.7,0.2,6.7-1.5c0.2-0.2,0.7-0.4,0.9-0.3c0.3,0.2,0.5,0.5,0.6,0.8
	c0.1,2.6,0.1,5.1,0,7.6c0,0.7-0.9,1.4-1.4,2.1l-0.5-0.2c0-0.7,0-1.3,0-2c-0.1-1.8-0.9-2.9-2.6-3.1c-1.4-0.2-2.9-0.3-4.4-0.2
	c-0.3,0-0.8,0.8-0.9,1.2c-1.7,6-4.5,11.5-8.3,16.4c-4.2,5.2-9.3,8.8-16.1,9.4c-2.4,0.2-4.8-0.3-6.9-1.4c-1.3-0.4-2-1.8-1.6-3.1
	c0-0.1,0.1-0.3,0.2-0.4c1.2,0.4,2.4,0.8,3.7,1.1c5.4,1.3,11-0.4,14.7-4.6c4.8-5,7.3-11.4,9.3-18C65.5,98.2,65.5,98,65.5,97.7z"/>
<path class="st0" d="M60.9,100.5c-0.7,6.4-4.5,12.1-10.2,15.2c-1.9,1.1-4,1.5-6.1,1.2c-2.4-0.1-4.5-1.9-4.9-4.3
	c-0.4-1.8-0.4-3.7,0-5.5c1.6-6.9,5.5-12.1,12.4-14.5C57.5,90.8,61,93.7,60.9,100.5z M47.2,112.8c1.1-0.3,2.1-0.7,3.1-1.2
	c2.7-2,4.7-4.8,5.8-7.9c0.3-1.1,0.4-2.3,0.2-3.5c-0.6-3.5-2.7-4.5-5.7-2.6c-4,2.5-6.5,6.8-6.9,11.5
	C43.3,111.3,44.7,112.6,47.2,112.8z"/>
</svg>
