<svg height="92.953" viewBox="0 0 93.671 92.953" width="93.671" xmlns="http://www.w3.org/2000/svg"><g fill="#fff" transform="translate(-491.869 -132.186)"><path d="m551.07 227.128a36.618 36.618 0 1 1 36.618-36.618 36.618 36.618 0 0 1 -36.618 36.618zm0-66.951a30.358 30.358 0 1 0 30.358 30.358 30.38 30.38 0 0 0 -30.358-30.358z" transform="translate(-12.368 -11.888)"/><path d="m580.544 204.936h-.038a5.564 5.564 0 0 1 -6.059-4.857 3.763 3.763 0 0 1 .106-.911 6.466 6.466 0 0 1 11.893 0c.012.057.026.113.042.169a3.13 3.13 0 0 0 6.033-1.668 12.2 12.2 0 0 0 -8.885-8.381v-.236a3.13 3.13 0 1 0 -6.259 0v.2a12.047 12.047 0 0 0 -8.92 8.428 10.117 10.117 0 0 0 -.285 2.4 11.779 11.779 0 0 0 12.275 11.118h.043a5.568 5.568 0 0 1 6.062 4.857 4.152 4.152 0 0 1 -.106.939 6.483 6.483 0 0 1 -5.889 3.921h-.051-.029a6.482 6.482 0 0 1 -5.94-3.92 3.13 3.13 0 0 0 -6.078 1.5 12.037 12.037 0 0 0 8.917 8.395v.2a3.13 3.13 0 1 0 6.259 0v-.2a12.033 12.033 0 0 0 8.889-8.411 10.286 10.286 0 0 0 .288-2.425 11.779 11.779 0 0 0 -12.268-11.118z" transform="translate(-41.787 -29.428)"/><path d="m533.033 225.121a2.716 2.716 0 0 1 -2.37-3.022 2.72 2.72 0 0 1 3.022-2.37 2.716 2.716 0 0 1 2.37 3.021 2.718 2.718 0 0 1 -2.691 2.389 2.619 2.619 0 0 1 -.331-.018zm10.267-2.521a2.713 2.713 0 0 1 2.23-3.126 2.714 2.714 0 0 1 3.121 2.235 2.714 2.714 0 0 1 -2.235 3.121 2.56 2.56 0 0 1 -.448.036 2.711 2.711 0 0 1 -2.668-2.266zm-23.2-.978a2.713 2.713 0 0 1 -1.411-3.569 2.711 2.711 0 0 1 3.569-1.411 2.716 2.716 0 0 1 1.411 3.569 2.716 2.716 0 0 1 -2.492 1.633 2.767 2.767 0 0 1 -1.077-.224zm35.459-2.117a2.715 2.715 0 0 1 1.253-3.628 2.714 2.714 0 0 1 3.628 1.253 2.714 2.714 0 0 1 -1.253 3.628 2.659 2.659 0 0 1 -1.185.276 2.715 2.715 0 0 1 -2.447-1.534zm-46.859-4.919a2.713 2.713 0 0 1 -.343-3.823 2.716 2.716 0 0 1 3.822-.343 2.717 2.717 0 0 1 .344 3.822 2.714 2.714 0 0 1 -2.085.977 2.7 2.7 0 0 1 -1.738-.633zm57.733-1.529a2.717 2.717 0 0 1 .176-3.836 2.716 2.716 0 0 1 3.835.176 2.72 2.72 0 0 1 -.176 3.835 2.7 2.7 0 0 1 -1.828.706 2.708 2.708 0 0 1 -2.011-.881zm-66.689-8.432a2.712 2.712 0 0 1 .751-3.763 2.715 2.715 0 0 1 3.763.746 2.72 2.72 0 0 1 -.746 3.768 2.732 2.732 0 0 1 -1.506.457 2.718 2.718 0 0 1 -2.266-1.207zm75.306-.823a2.711 2.711 0 0 1 -.914-3.727 2.711 2.711 0 0 1 3.728-.914 2.711 2.711 0 0 1 .914 3.727 2.717 2.717 0 0 1 -2.325 1.307 2.688 2.688 0 0 1 -1.407-.395zm-81.078-11.263a2.712 2.712 0 0 1 1.787-3.4 2.713 2.713 0 0 1 3.4 1.782 2.722 2.722 0 0 1 -1.787 3.4 2.761 2.761 0 0 1 -.805.122 2.717 2.717 0 0 1 -2.599-1.904zm86.722-.05a2.707 2.707 0 0 1 -1.931-3.311 2.71 2.71 0 0 1 3.311-1.936 2.711 2.711 0 0 1 1.936 3.311 2.715 2.715 0 0 1 -2.624 2.026 2.627 2.627 0 0 1 -.695-.09zm-88.824-13.181a2.709 2.709 0 0 1 2.673-2.75 2.714 2.714 0 0 1 2.755 2.673 2.717 2.717 0 0 1 -2.673 2.755h-.041a2.717 2.717 0 0 1 -2.714-2.678zm88.243-.683a2.713 2.713 0 0 1 2.714-2.714 2.71 2.71 0 0 1 2.714 2.714 2.713 2.713 0 0 1 -2.714 2.714 2.716 2.716 0 0 1 -2.715-2.714zm-84.647-9.255a2.716 2.716 0 0 1 -1.886-3.343 2.716 2.716 0 0 1 3.343-1.886 2.716 2.716 0 0 1 1.886 3.343 2.717 2.717 0 0 1 -2.615 1.986 2.717 2.717 0 0 1 -.729-.1zm82.964-2.47a2.72 2.72 0 0 1 1.837-3.37 2.717 2.717 0 0 1 3.375 1.837 2.72 2.72 0 0 1 -1.837 3.37 2.523 2.523 0 0 1 -.769.109 2.72 2.72 0 0 1 -2.607-1.946zm-78.576-9.386a2.713 2.713 0 0 1 -.859-3.741 2.714 2.714 0 0 1 3.741-.859 2.713 2.713 0 0 1 .859 3.741 2.707 2.707 0 0 1 -2.3 1.271 2.7 2.7 0 0 1 -1.442-.412zm73.632-1.371a2.717 2.717 0 0 1 .805-3.754 2.711 2.711 0 0 1 3.75.8 2.716 2.716 0 0 1 -.805 3.754 2.717 2.717 0 0 1 -1.47.439 2.721 2.721 0 0 1 -2.28-1.238zm-66.064-8.757a2.718 2.718 0 0 1 .235-3.831 2.713 2.713 0 0 1 3.831.231 2.718 2.718 0 0 1 -.235 3.831 2.721 2.721 0 0 1 -1.8.683 2.711 2.711 0 0 1 -2.032-.913zm58.275-.172a2.711 2.711 0 0 1 -.29-3.827 2.714 2.714 0 0 1 3.827-.285 2.71 2.71 0 0 1 .29 3.827 2.708 2.708 0 0 1 -2.058.945 2.688 2.688 0 0 1 -1.766-.659zm-48.157-7.414a2.711 2.711 0 0 1 1.307-3.61 2.7 2.7 0 0 1 3.6 1.307 2.707 2.707 0 0 1 -1.3 3.605 2.686 2.686 0 0 1 -1.149.258 2.709 2.709 0 0 1 -2.458-1.56zm38.169 1.049a2.716 2.716 0 0 1 -1.362-3.592 2.714 2.714 0 0 1 3.592-1.357 2.711 2.711 0 0 1 1.357 3.587 2.713 2.713 0 0 1 -2.474 1.6 2.717 2.717 0 0 1 -1.113-.237zm-26.318-5.455a2.713 2.713 0 0 1 2.28-3.085 2.715 2.715 0 0 1 3.09 2.28 2.722 2.722 0 0 1 -2.28 3.089 3.173 3.173 0 0 1 -.407.027 2.717 2.717 0 0 1 -2.683-2.31zm14.937 2.194a2.713 2.713 0 0 1 -2.328-3.053 2.72 2.72 0 0 1 3.058-2.325 2.712 2.712 0 0 1 2.321 3.053 2.713 2.713 0 0 1 -2.682 2.352 2.606 2.606 0 0 1 -.369-.026z"/></g></svg>