<svg height="49.458" viewBox="0 0 130.212 49.458" width="130.212" xmlns="http://www.w3.org/2000/svg"><g fill="#fff"><path d="m396.329 117.7 13.911-13.911 13.917 13.911a2.521 2.521 0 0 1 -3.565 3.565l-7.831-7.825v46.075l32.285 22.22v49.745a2.521 2.521 0 1 1 -5.042 0v-47.1l-32.284-22.215v-48.727l-7.825 7.825a2.521 2.521 0 0 1 -3.565-3.565z" transform="matrix(0 1 -1 0 233.999 -395.589)"/><ellipse cx="2.521" cy="2.521" rx="2.521" ry="2.521" transform="matrix(0 1 -1 0 100.752 44.406)"/><ellipse cx="2.521" cy="2.521" rx="2.521" ry="2.521" transform="matrix(0 1 -1 0 119.66 44.406)"/><ellipse cx="2.521" cy="2.521" rx="2.521" ry="2.521" transform="matrix(0 1 -1 0 110.181 44.406)"/><ellipse cx="2.521" cy="2.521" rx="2.521" ry="2.521" transform="matrix(0 1 -1 0 91.273 44.406)"/><ellipse cx="2.521" cy="2.521" rx="2.521" ry="2.521" transform="matrix(0 1 -1 0 81.844 44.406)"/><ellipse cx="2.521" cy="2.521" rx="2.521" ry="2.521" transform="matrix(0 1 -1 0 62.936 44.406)"/><ellipse cx="2.521" cy="2.521" rx="2.521" ry="2.521" transform="matrix(0 1 -1 0 72.365 44.406)"/><path d="m399.926 108.326a3.118 3.118 0 0 1 -.857.555 2.935 2.935 0 0 1 -.958.151 3.166 3.166 0 0 1 -.958-.151 2.3 2.3 0 0 1 -.807-.555 2.884 2.884 0 0 1 -.555-.807 2.186 2.186 0 0 1 -.2-.958 2.4 2.4 0 0 1 .2-1.008 2.884 2.884 0 0 1 .555-.807 3.251 3.251 0 0 1 .807-.555 2.521 2.521 0 0 1 1.916 0 4.987 4.987 0 0 1 .857.555 2.706 2.706 0 0 1 .5.807 2.4 2.4 0 0 1 .2 1.008 2.184 2.184 0 0 1 -.2.958 2.706 2.706 0 0 1 -.5.807z" transform="matrix(0 1 -1 0 233.128 -351.185)"/></g></svg>