<svg xmlns="http://www.w3.org/2000/svg" width="130.212" height="49.458" viewBox="0 0 130.212 49.458">
  <g id="alternative-steroids" transform="translate(130.212 0) rotate(90)">
    <path id="Path_56" data-name="Path 56" d="M396.329,117.7l13.911-13.911L424.157,117.7a2.521,2.521,0,0,1-3.565,3.565l-7.831-7.825v46.075l32.285,22.22v49.745a2.521,2.521,0,1,1-5.042,0v-47.1l-32.284-22.215V113.438l-7.825,7.825a2.521,2.521,0,0,1-3.565-3.565Z" transform="translate(-395.589 -103.787)" fill="#fff"/>
    <ellipse id="Ellipse_14" data-name="Ellipse 14" cx="2.521" cy="2.521" rx="2.521" ry="2.521" transform="translate(44.406 29.46)" fill="#fff"/>
    <ellipse id="Ellipse_15" data-name="Ellipse 15" cx="2.521" cy="2.521" rx="2.521" ry="2.521" transform="translate(44.406 10.552)" fill="#fff"/>
    <ellipse id="Ellipse_16" data-name="Ellipse 16" cx="2.521" cy="2.521" rx="2.521" ry="2.521" transform="translate(44.406 20.031)" fill="#fff"/>
    <ellipse id="Ellipse_17" data-name="Ellipse 17" cx="2.521" cy="2.521" rx="2.521" ry="2.521" transform="translate(44.406 38.939)" fill="#fff"/>
    <ellipse id="Ellipse_18" data-name="Ellipse 18" cx="2.521" cy="2.521" rx="2.521" ry="2.521" transform="translate(44.406 48.368)" fill="#fff"/>
    <ellipse id="Ellipse_19" data-name="Ellipse 19" cx="2.521" cy="2.521" rx="2.521" ry="2.521" transform="translate(44.406 67.276)" fill="#fff"/>
    <ellipse id="Ellipse_20" data-name="Ellipse 20" cx="2.521" cy="2.521" rx="2.521" ry="2.521" transform="translate(44.406 57.847)" fill="#fff"/>
    <path id="Path_57" data-name="Path 57" d="M399.926,108.326a3.118,3.118,0,0,1-.857.555,2.935,2.935,0,0,1-.958.151,3.166,3.166,0,0,1-.958-.151,2.3,2.3,0,0,1-.807-.555,2.884,2.884,0,0,1-.555-.807,2.186,2.186,0,0,1-.2-.958,2.4,2.4,0,0,1,.2-1.008,2.884,2.884,0,0,1,.555-.807,3.251,3.251,0,0,1,.807-.555,2.521,2.521,0,0,1,1.916,0,4.987,4.987,0,0,1,.857.555,2.706,2.706,0,0,1,.5.807,2.4,2.4,0,0,1,.2,1.008,2.184,2.184,0,0,1-.2.958A2.706,2.706,0,0,1,399.926,108.326Z" transform="translate(-351.185 -102.916)" fill="#fff"/>
  </g>
</svg>
