<svg xmlns="http://www.w3.org/2000/svg" width="93.671" height="92.953" viewBox="0 0 93.671 92.953">
  <g id="affordable" transform="translate(-491.869 -132.186)">
    <g id="Group_407" data-name="Group 407" transform="translate(502.085 142.005)">
      <path id="Path_64" data-name="Path 64" d="M551.07,227.128a36.618,36.618,0,1,1,36.618-36.618A36.618,36.618,0,0,1,551.07,227.128Zm0-66.951a30.358,30.358,0,1,0,30.358,30.358h0a30.38,30.38,0,0,0-30.358-30.358Z" transform="translate(-514.453 -153.893)" fill="#fff"/>
      <path id="Path_65" data-name="Path 65" d="M580.544,204.936l-.038,0a5.564,5.564,0,0,1-6.059-4.857,3.763,3.763,0,0,1,.106-.911,6.466,6.466,0,0,1,11.893,0c.012.057.026.113.042.169a3.13,3.13,0,0,0,6.033-1.668,12.2,12.2,0,0,0-8.885-8.381v-.236a3.13,3.13,0,1,0-6.259,0v.2a12.047,12.047,0,0,0-8.92,8.428,10.117,10.117,0,0,0-.285,2.4,11.779,11.779,0,0,0,12.275,11.118l.043,0a5.568,5.568,0,0,1,6.062,4.857,4.152,4.152,0,0,1-.106.939,6.483,6.483,0,0,1-5.889,3.921l-.051,0-.029,0a6.482,6.482,0,0,1-5.94-3.92,3.13,3.13,0,0,0-6.078,1.5,12.037,12.037,0,0,0,8.917,8.395v.2a3.13,3.13,0,1,0,6.259,0v-.2a12.033,12.033,0,0,0,8.889-8.411,10.286,10.286,0,0,0,.288-2.425A11.779,11.779,0,0,0,580.544,204.936Z" transform="translate(-543.872 -171.433)" fill="#fff"/>
    </g>
    <path id="Path_66" data-name="Path 66" d="M533.033,225.121a2.716,2.716,0,0,1-2.37-3.022h0a2.72,2.72,0,0,1,3.022-2.37h0a2.716,2.716,0,0,1,2.37,3.021h0a2.718,2.718,0,0,1-2.691,2.389h0A2.619,2.619,0,0,1,533.033,225.121ZM543.3,222.6a2.713,2.713,0,0,1,2.23-3.126h0a2.714,2.714,0,0,1,3.121,2.235h0a2.714,2.714,0,0,1-2.235,3.121h0a2.56,2.56,0,0,1-.448.036h0A2.711,2.711,0,0,1,543.3,222.6Zm-23.2-.978h0a2.713,2.713,0,0,1-1.411-3.569h0a2.711,2.711,0,0,1,3.569-1.411h0a2.716,2.716,0,0,1,1.411,3.569h0a2.716,2.716,0,0,1-2.492,1.633h0A2.767,2.767,0,0,1,520.1,221.62Zm35.459-2.117a2.715,2.715,0,0,1,1.253-3.628h0a2.714,2.714,0,0,1,3.628,1.253h0a2.714,2.714,0,0,1-1.253,3.628h0a2.659,2.659,0,0,1-1.185.276h0A2.715,2.715,0,0,1,555.555,219.5ZM508.7,214.586h0a2.713,2.713,0,0,1-.343-3.823h0a2.716,2.716,0,0,1,3.822-.343h0a2.717,2.717,0,0,1,.344,3.822h0a2.714,2.714,0,0,1-2.085.977h0A2.7,2.7,0,0,1,508.7,214.586Zm57.733-1.529a2.717,2.717,0,0,1,.176-3.836h0a2.716,2.716,0,0,1,3.835.176h0a2.72,2.72,0,0,1-.176,3.835h0a2.7,2.7,0,0,1-1.828.706h0A2.708,2.708,0,0,1,566.429,213.057Zm-66.689-8.432h0a2.712,2.712,0,0,1,.751-3.763h0a2.715,2.715,0,0,1,3.763.746h0a2.72,2.72,0,0,1-.746,3.768h0a2.732,2.732,0,0,1-1.506.457h0A2.718,2.718,0,0,1,499.74,204.626Zm75.306-.823a2.711,2.711,0,0,1-.914-3.727h0a2.711,2.711,0,0,1,3.728-.914h0a2.711,2.711,0,0,1,.914,3.727h0a2.717,2.717,0,0,1-2.325,1.307h0A2.688,2.688,0,0,1,575.046,203.8Zm-81.078-11.263a2.712,2.712,0,0,1,1.787-3.4h0a2.713,2.713,0,0,1,3.4,1.782h0a2.722,2.722,0,0,1-1.787,3.4h0a2.761,2.761,0,0,1-.805.122h0A2.717,2.717,0,0,1,493.968,192.539Zm86.722-.05a2.707,2.707,0,0,1-1.931-3.311h0a2.71,2.71,0,0,1,3.311-1.936h0a2.711,2.711,0,0,1,1.936,3.311h0a2.715,2.715,0,0,1-2.624,2.026h0A2.627,2.627,0,0,1,580.691,192.489ZM491.87,179.308a2.709,2.709,0,0,1,2.673-2.75h0a2.714,2.714,0,0,1,2.755,2.673h0a2.717,2.717,0,0,1-2.673,2.755h-.041A2.717,2.717,0,0,1,491.87,179.308Zm88.243-.683a2.713,2.713,0,0,1,2.714-2.714h0a2.71,2.71,0,0,1,2.714,2.714h0a2.713,2.713,0,0,1-2.714,2.714h0A2.716,2.716,0,0,1,580.112,178.625Zm-84.647-9.255a2.716,2.716,0,0,1-1.886-3.343h0a2.716,2.716,0,0,1,3.343-1.886h0a2.716,2.716,0,0,1,1.886,3.343h0a2.717,2.717,0,0,1-2.615,1.986h0A2.717,2.717,0,0,1,495.465,169.37Zm82.964-2.47a2.72,2.72,0,0,1,1.837-3.37h0a2.717,2.717,0,0,1,3.375,1.837h0a2.72,2.72,0,0,1-1.837,3.37h0a2.523,2.523,0,0,1-.769.109h0A2.72,2.72,0,0,1,578.429,166.9Zm-78.576-9.386a2.713,2.713,0,0,1-.859-3.741h0a2.714,2.714,0,0,1,3.741-.859h0a2.713,2.713,0,0,1,.859,3.741h0a2.707,2.707,0,0,1-2.3,1.271h0A2.7,2.7,0,0,1,499.853,157.514Zm73.632-1.371a2.717,2.717,0,0,1,.805-3.754h0a2.711,2.711,0,0,1,3.75.8h0a2.716,2.716,0,0,1-.805,3.754h0a2.717,2.717,0,0,1-1.47.439h0A2.721,2.721,0,0,1,573.486,156.144Zm-66.064-8.757a2.718,2.718,0,0,1,.235-3.831h0a2.713,2.713,0,0,1,3.831.231h0a2.718,2.718,0,0,1-.235,3.831h0a2.721,2.721,0,0,1-1.8.683h0A2.711,2.711,0,0,1,507.421,147.387Zm58.275-.172a2.711,2.711,0,0,1-.29-3.827h0a2.714,2.714,0,0,1,3.827-.285h0a2.71,2.71,0,0,1,.29,3.827h0a2.708,2.708,0,0,1-2.058.945h0A2.688,2.688,0,0,1,565.7,147.215ZM517.54,139.8a2.711,2.711,0,0,1,1.307-3.61h0a2.7,2.7,0,0,1,3.6,1.307h0a2.707,2.707,0,0,1-1.3,3.605h0a2.686,2.686,0,0,1-1.149.258h0A2.709,2.709,0,0,1,517.54,139.8Zm38.169,1.049v0h0a2.716,2.716,0,0,1-1.362-3.592h0a2.714,2.714,0,0,1,3.592-1.357h0a2.711,2.711,0,0,1,1.357,3.587h0a2.713,2.713,0,0,1-2.474,1.6h0A2.717,2.717,0,0,1,555.709,140.85Zm-26.318-5.455a2.713,2.713,0,0,1,2.28-3.085h0a2.715,2.715,0,0,1,3.09,2.28h0a2.722,2.722,0,0,1-2.28,3.089h0a3.173,3.173,0,0,1-.407.027h0A2.717,2.717,0,0,1,529.391,135.395Zm14.937,2.194h0A2.713,2.713,0,0,1,542,134.535h0a2.72,2.72,0,0,1,3.058-2.325h0a2.712,2.712,0,0,1,2.321,3.053h0a2.713,2.713,0,0,1-2.682,2.352h0A2.606,2.606,0,0,1,544.328,137.589Z" transform="translate(0 0)" fill="#fff"/>
  </g>
</svg>
