<svg xmlns="http://www.w3.org/2000/svg" width="82.498" height="67.68" viewBox="0 0 82.498 67.68">
  <g id="minimal_side_effect" data-name="minimal side effect" transform="translate(-462.372 -359.98)">
    <path id="Path_68" data-name="Path 68" d="M537.328,390.15a24.746,24.746,0,0,0,1.049-7.212,23.854,23.854,0,0,0-6.059-16.3,20.569,20.569,0,0,0-15.295-6.662h-.07a19.4,19.4,0,0,0-12,4.177,26.316,26.316,0,0,0-4.583,4.71,26.309,26.309,0,0,0-4.592-4.718,19.5,19.5,0,0,0-12.047-4.169c-12.177,0-21.361,9.871-21.361,22.958,0,13.755,10.466,22.674,26.309,36.175,2.584,2.2,5.512,4.7,8.59,7.389a4.739,4.739,0,0,0,6.21,0c2.58-2.257,5.091-4.406,7.274-6.267a20.093,20.093,0,1,0,26.573-30.083Zm-36.954,32.424c-3.03-2.648-5.907-5.1-8.451-7.266-14.784-12.6-24.551-20.923-24.551-32.37,0-10.237,7.034-17.958,16.37-17.958h.051a14.358,14.358,0,0,1,8.874,3.082,21.307,21.307,0,0,1,5.5,6.615l2.2,4.117,2.2-4.117a21.287,21.287,0,0,1,5.491-6.607,14.516,14.516,0,0,1,8.94-3.09h.01a15.618,15.618,0,0,1,11.625,5.05,18.887,18.887,0,0,1,4.735,12.908,19.3,19.3,0,0,1-.529,4.488,20.076,20.076,0,0,0-25.213,28.9C505.465,418.173,502.961,420.314,500.374,422.574Zm24.384-.636a16.039,16.039,0,0,1-10.94-4.317,16.206,16.206,0,0,1-3.1-3.923,16.1,16.1,0,1,1,14.044,8.24Z" fill="#fff"/>
    <path id="Path_67" data-name="Path 67" d="M516.306,408.782h6.339v6.338a2.113,2.113,0,1,0,4.226,0v-6.338h6.338a2.113,2.113,0,0,0,0-4.226h-6.338v-6.338a2.113,2.113,0,0,0-4.226,0v6.338h-6.339a2.113,2.113,0,0,0,0,4.226Z" fill="#fff"/>
  </g>
</svg>
