<?xml version="1.0" encoding="utf-8"?>
<!-- Generator: Adobe Illustrator 25.1.0, SVG Export Plug-In . SVG Version: 6.00 Build 0)  -->
<svg version="1.1" id="Layer_1" xmlns="http://www.w3.org/2000/svg" xmlns:xlink="http://www.w3.org/1999/xlink" x="0px" y="0px"
	 viewBox="0 0 135.9 46" style="enable-background:new 0 0 135.9 46;" xml:space="preserve">
<style type="text/css">
	.st0{fill:#EF413D;}
</style>
<path class="st0" d="M5.9,5.6c1.6-0.5,17.8-0.3,24.4-0.3c4.3,0,4.4,0.1,4.4,4.5c0,0.7,0,1.8,0,2.5c-0.9,0.1-1.8,0.1-2.8,0.1l-0.4-4
	H9.7v29h21.8l0.2-4.4c0.9,0,1.3,0.2,3,0.2c0.1,2.6,0,5.1-0.3,7.7H5.9V5.6z"/>
<path d="M126.6,25.2l3.5,4.9c-3.1,1-7.5-3.3-8.1-8l4.3-0.3v-4.6h-5.5v13.1h-3V14.6c3.4,0,6.7-0.1,10,0.1c0.8,0.2,1.5,0.9,1.7,1.7
	c0.3,1.9,0.3,3.9,0,5.9C129.3,23.3,127.8,24,126.6,25.2z"/>
<path d="M83.6,22.6c0,8,0,8-8.2,8c-4.4,0-4.4,0-4.4-4.2c0-3.1,0.1-6.2,0-9.3c0-1.8,0.5-2.6,2.4-2.5c2.6,0.1,5.1,0.1,7.7,0
	c2.1-0.1,2.7,0.8,2.6,2.7S83.6,20.8,83.6,22.6z M80.4,28V17.3h-6.3V28H80.4z"/>
<path d="M15.2,14.6c3,0,5.8-0.1,8.6,0c2.4,0.1,3.6,1.6,3.7,3.9c0.1,2.7,0.1,5.5,0,8.2c-0.1,2.2-1.3,3.8-3.7,3.9
	c-2.8,0.1-5.6,0-8.6,0L15.2,14.6z M18.3,16.7v11.8c2.1-0.5,5.4-0.6,5.6-1.3c0.6-3,0.6-6.1,0-9.1C23.7,17.3,20.5,17.2,18.3,16.7z"/>
<path d="M50.5,19.3c-2.4,1-3-0.2-3-2.2h-6.2c0.9,1.3,1.3,2.5,2.2,3c1.6,1.1,3.6,1.7,5.2,2.9c1,0.7,1.7,1.8,1.9,3
	c0.4,4.6,0.3,4.6-4.5,4.6h-2.9c-4.8,0-4.8-0.1-4.1-5.1h2.5l0.3,2.5h5.3l0.7-0.6c-0.6-1.1-1.4-2-2.3-2.9c-1.6-1.1-3.6-1.8-5.2-2.9
	c-0.8-0.6-1.4-1.4-1.5-2.4c-0.5-4.6-0.3-4.8,4.4-4.8h3.1C51,14.6,51,14.6,50.5,19.3z"/>
<path d="M67,20h-2.8l-0.4-2.7H58V28h5.8l0.5-3l2.4-0.1c0.2,0.3,0.4,0.5,0.4,0.6c0.3,5.1,0.3,5.1-4.8,5.1c-7.6,0-7.6,0-7.6-7.6
	c0-2,0.1-4,0-5.9s0.8-2.7,2.7-2.6c2.1,0.2,4.2,0.2,6.3,0c2.7-0.2,4,0.6,3.5,3.4C67,18.7,67,19.3,67,20z"/>
<path d="M106.4,17.1v4h5.9c0.8,2.1,0.1,2.6-1.7,2.6c-1.3-0.1-2.6,0-4.1,0v4c2.4,1.4,6-1,7.9,1.5l-0.4,1.3h-10.7V14.8h10.4
	c1.1,2.7-1,2.3-2.5,2.3S108.3,17.1,106.4,17.1z"/>
<path d="M100.1,14.9c-1.6,4.8-3.1,9.5-4.7,14.1c-0.3,0.8-1,1.4-1.9,1.5c-0.8,0-1.6-0.5-2-1.2c-1.7-4.8-3.2-9.6-4.8-14.4
	c2.3-0.9,3.3-0.1,3.8,2c0.8,3,1.8,5.9,2.9,9.5c1.1-3.6,2.1-6.5,2.9-9.5C96.8,15,97.8,14,100.1,14.9z"/>
<path d="M34.8,14.8v15.6h-2.9V14.8H34.8z"/>
</svg>
