<svg id="Layer_1" data-name="Layer 1" xmlns="http://www.w3.org/2000/svg" viewBox="0 0 177.34 21.83"><path d="M63.53,4.6,65,5a6.18,6.18,0,0,1,4.44,7,6.1,6.1,0,0,1-6,5.25c-2.81.08-5.09-.91-6.31-3.51A6,6,0,0,1,58,6.94a6.18,6.18,0,0,1,3.89-2.13c.27,0,.53-.14.8-.21ZM63,7.5A3.3,3.3,0,0,0,59.76,11a3.25,3.25,0,0,0,3.32,3.43A3.21,3.21,0,0,0,66.29,11,3.36,3.36,0,0,0,63,7.5Z"/><path d="M4.19,5h8.73V7.6H7.42V9.72h4.16v2.42H7.39v2.1h5.52V17H4.19Z"/><path d="M111.86,4.6l3.85,1.08L115,8.24c-1-.28-1.93-.57-2.87-.8a2,2,0,0,0-1,0c-.33.11-.78.37-.84.64s.26.71.54.87a31.78,31.78,0,0,1,3.06,1.62,5.78,5.78,0,0,1,2,2.19c.74,1.78-.29,3.52-2.3,4.12a8.8,8.8,0,0,1-6.2-.41c-.74-.33-1-.72-.62-1.51a9.32,9.32,0,0,0,.53-1.46c1.15.36,2.21.72,3.29,1a1.76,1.76,0,0,0,1,0,6.92,6.92,0,0,0,1.14-.77c-.25-.34-.42-.81-.76-1-.9-.54-1.9-.92-2.82-1.42-1.87-1-2.48-2.14-2.14-3.77.29-1.47,1.57-2.46,3.47-2.74A4.43,4.43,0,0,0,111,4.6Z"/><path d="M28.18,5V16.9a2.75,2.75,0,0,1-2.91-.82c-1.73-2-3.6-3.81-5.6-5.9v6.75H16.52V5.09a2.65,2.65,0,0,1,2.86.77c1.73,2,3.61,3.78,5.65,5.9V5Z"/><path d="M87.66,11.68V5h3.11V16.9a2.79,2.79,0,0,1-3-.89c-1.73-2-3.6-3.8-5.57-5.85V16.9H79.07V5.08a2.73,2.73,0,0,1,3,.86c1.61,1.85,3.38,3.56,5.09,5.32A6.24,6.24,0,0,0,87.66,11.68Z"/><path d="M31.76,16.94V4.88A46.85,46.85,0,0,1,38,5.26a5.61,5.61,0,0,1,4.43,6.24A5.55,5.55,0,0,1,37,16.92C35.32,17,33.59,16.94,31.76,16.94ZM35,7.71V14.2c1.46.17,2.84.18,3.68-1.2a3.49,3.49,0,0,0,0-4A3.37,3.37,0,0,0,35,7.71Z"/><path d="M45.34,5c1.84,0,3.6-.09,5.35,0A3.87,3.87,0,0,1,54.45,9c0,2.11-1.33,3.55-3.66,3.83-.73.09-1.47.1-2.33.16v4H45.34Zm3.17,2.57v3.15a9.85,9.85,0,0,0,2.31-1c.25-.2.2-1.09,0-1.5C50.32,7.41,49.41,7.47,48.51,7.58Z"/><path d="M97.53,16.94V7.65h-3.6V5.07h10.39V7.62h-3.57v9.32Z"/><path d="M150.78,14.75c1.13-3.33,2.2-6.49,3.28-9.66l.25,0c1.12,3.16,2.24,6.32,3.43,9.7.22-.54.38-.9.52-1.26.94-2.55,1.89-5.1,2.79-7.66.25-.71.62-1,1.43-.67q-2.34,6-4.66,11.94l-.26,0c-1.09-3.09-2.17-6.18-3.35-9.52l-3.31,9.5h-.26q-2.37-5.94-4.73-11.9c.75-.32,1.11-.13,1.36.54,1,2.62,2,5.22,3,7.82C150.4,13.92,150.56,14.25,150.78,14.75Z"/><path d="M72.47,5h3V16.93h-3Z"/><path d="M121.65,7.17v9.68l-.28.24c-.24-.23-.68-.45-.69-.68,0-3.77,0-7.53,0-11.69a9.67,9.67,0,0,1,1.23,1c2.51,2.88,5,5.79,7.48,8.69.17.2.36.39.71.76v-10c.67-.17,1.05-.16,1,.59,0,3.7,0,7.4,0,11.43a6.38,6.38,0,0,1-1.26-.82c-2.54-2.9-5-5.83-7.56-8.76-.15-.17-.28-.36-.42-.55Z"/><path d="M135.56,5.1h7.55c.29.69,0,.87-.65.87-1.93,0-3.87,0-5.9,0v4.43h5.71c.39.73.16,1-.52.95-1.7,0-3.39,0-5.18,0v4.75h4.81c.46,0,.92,0,1.38,0,.66,0,.8.25.57.86h-7.77Z"/><path d="M164.43,15.75,165,15a3,3,0,0,1,.4.19,5.91,5.91,0,0,0,4.92,1A2.07,2.07,0,0,0,172,14.6a2,2,0,0,0-.94-2.26A18.9,18.9,0,0,0,169,11.28c-.85-.42-1.73-.77-2.56-1.22a2.43,2.43,0,0,1-1.41-2.49A2.8,2.8,0,0,1,167,5.16a5.39,5.39,0,0,1,4.31.22,18.22,18.22,0,0,1,1.63.9l-.56.86a5.48,5.48,0,0,0-4.25-1.31,2.06,2.06,0,0,0-2,1.63c-.2,1,.49,1.63,1.31,2,1.07.52,2.21.92,3.27,1.46,1.23.64,2.4,1.38,2.41,3a2.75,2.75,0,0,1-2,2.88A7.36,7.36,0,0,1,164.43,15.75Z"/></svg>