<?xml version="1.0" encoding="utf-8"?>
<!-- Generator: Adobe Illustrator 25.1.0, SVG Export Plug-In . SVG Version: 6.00 Build 0)  -->
<svg version="1.1" id="Layer_1" xmlns="http://www.w3.org/2000/svg" xmlns:xlink="http://www.w3.org/1999/xlink" x="0px" y="0px"
	 viewBox="0 0 298 42.5" style="enable-background:new 0 0 298 42.5;" xml:space="preserve">
<style type="text/css">
	.st0{fill:#CC1341;}
	.st1{fill:#7C76B4;}
	.st2{fill:#F36F1D;}
	.st3{fill:#0076B5;}
	.st4{fill:#FAB60E;}
	.st5{fill:#64B943;}
</style>
<path d="M258.9,36.3c-2.8,0-5.4,0-8,0c-0.4-0.1-0.8-0.4-1-0.8c-1.6-5.7-3-11.4-4.5-17.1c-0.1-0.3-0.2-0.7-0.4-1
	c-1.6,6-3.1,11.9-4.6,17.7c-0.2,0.9-0.6,1.3-1.7,1.3c-2.4-0.1-4.9,0-7.4,0l-7.9-30.1c2.7,0,5.2,0,7.7,0c0.3,0,0.7,0.4,0.8,0.8
	c1.3,4.9,2.5,9.8,3.8,14.8c0.2,1,0.5,2,0.9,3.3l5-18.8h7.5c1.6,6.1,3.2,12.3,4.9,18.4h0.2l4.7-18.5h8
	C264.1,16.3,261.5,26.2,258.9,36.3z"/>
<path d="M95.8,6.2c5.7,0,11.4-0.1,17,0.1c2.6,0,5,1,6.8,2.7c2.8,2.6,3,6.9,0.5,9.7c-0.8,0.8-1.7,1.5-2.8,1.9l-0.4,0.1
	c3.4,0.9,5.7,3.5,5.8,6.5c0.2,4.1-1.5,6.8-5.3,8.1c-1.8,0.6-3.6,0.9-5.4,1c-5.4,0.1-10.7,0-16.2,0L95.8,6.2z M103.9,29.8
	c2.4,0,4.8,0.1,7.1,0c1.9-0.1,3.1-1.1,3.2-2.5s-0.8-2.6-2.8-2.8c-2.5-0.2-4.9,0-7.4,0L103.9,29.8z M103.9,12.8v5.2
	c2.4,0,4.7,0.1,7.1,0c0.7-0.1,1.3-0.4,1.7-1c0.4-0.7,0.5-1.6,0.3-2.4c-0.3-1.3-1.6-1.7-2.8-1.8C108.2,12.7,106.1,12.8,103.9,12.8
	L103.9,12.8z"/>
<path d="M193.8,36.3c-2.1,0-4,0-6,0c-0.4-0.1-0.8-0.3-1-0.6c-4-5.4-8-10.9-12-16.3c-0.1-0.2-0.3-0.3-0.6-0.7v17.5h-7.5v-30
	c2.5,0,5,0,7.4,0c0.4,0.1,0.7,0.3,0.9,0.6c3.6,5,7.2,10.1,10.7,15.2c0.1,0.1,0.2,0.2,0.5,0.4V6.3h7.6L193.8,36.3z"/>
<path d="M64.3,36.2v-30c2.5,0,4.9,0,7.3,0c0.4,0,0.8,0.5,1.1,0.9c3.4,4.7,6.7,9.4,10.1,14.2c0.2,0.3,0.4,0.5,0.8,1v-16h7.6v30
	c-2,0-4,0-6,0c-0.4,0-0.8-0.5-1-0.9c-3.9-5.3-7.8-10.6-11.7-15.9c-0.2-0.2-0.3-0.3-0.5-0.5v17.1H64.3z"/>
<path d="M267.4,25.7l7.4-0.4c0.9,3.7,4.6,5.9,8.2,5c0.6-0.1,1.2-0.4,1.7-0.7c0.7-0.5,1.1-1.3,1.2-2.1c0-0.5-0.8-1.4-1.4-1.5
	c-2.5-0.6-5-1-7.5-1.5c-3.1-0.6-6.1-1.6-7.8-4.5c-2.3-4.1-1.5-10.6,4.1-13c4.8-2.2,10.4-2,15,0.4c3.5,1.8,4.9,5,5,8.9
	c-2.3,0.1-4.6,0.2-6.8,0.3c-0.4-0.1-0.7-0.4-0.8-0.7c-0.6-4.1-6.4-4.6-8.8-3c-0.8,0.5-1,1.5-0.7,2.3c0.4,0.7,1,1.1,1.7,1.4
	c2.8,0.6,5.6,1.1,8.4,1.6c4.5,0.7,7.8,4.6,7.6,9.1c-0.1,3.4-1.5,6.2-4.7,7.7c-6,2.8-12.1,2.7-17.8-0.9
	C268.6,32.3,267.3,29.3,267.4,25.7z"/>
<path d="M147.2,23.4h7.8c0.1,1.8-0.3,3.7-1.1,5.3c-2.4,5.4-6.8,7.9-12.7,8.1c-3.5,0.3-7-0.6-9.9-2.6c-3.9-2.6-6.3-6.9-6.4-11.6
	c-0.4-3.5,0.4-7,2.3-10.1c2.2-3.7,6-6.1,10.3-6.7c3.6-0.7,7.3-0.1,10.6,1.5c3.6,1.9,6,5.4,6.7,9.4c0.1,0.7,0.2,1.4,0.4,2.3h-7.9
	c-0.1-0.4-0.4-1-0.6-1.7c-1.4-5.2-8.5-5.5-11.2-2.5s-2.8,9.7,0,12.7c2.7,2.9,9.8,2.8,11.2-2.5C146.8,24.5,147.1,23.9,147.2,23.4z"/>
<path d="M198.4,6.2h23.2V13h-15v4.7h11.7c0,2.1,0,4.1-0.1,6.1c0,0.2-0.7,0.7-1.1,0.7c-3.5,0-7,0-10.6,0v4.9h15.6v6.7h-23.7V6.2z"/>
<path class="st0" d="M26.9,31.9c-1-2.4-2-4.8-3.1-7.2c-1.6-3.7-3.2-7.4-4.7-11c-1.2-2.7,0-6,2.7-7.2c0.2-0.1,0.5-0.2,0.8-0.3
	c3.1-0.9,6.4,0.3,7.1,3.8c0.2,1.9,0.2,3.9-0.2,5.8c-0.4,3.5-1,6.9-1.5,10.4c-0.3,1.9-0.6,3.8-0.9,5.7L26.9,31.9z"/>
<path class="st1" d="M34,32c-0.3-1.7-0.5-3.2-0.7-4.8c-0.6-3.8-1.2-7.7-1.8-11.5c-0.2-1.4,0.2-2.3,2.2-3.5l-2.3-0.3
	c-0.5-2.8,1.3-5.4,4.1-5.9c0.1,0,0.3,0,0.4-0.1c3.1-0.5,6,1.7,6.4,4.7c0.2,1.1,0,2.2-0.4,3.1c-2.5,5.9-5,11.8-7.5,17.6
	C34.2,31.7,34.1,31.8,34,32z"/>
<path class="st2" d="M26.8,34.2l-5.9-4c-3.4-2.3-6.8-4.5-10.1-6.9c-2.6-1.7-3.3-5.2-1.6-7.9c1.5-2.3,4.4-3.2,6.9-2.1
	c1.5,0.7,2.7,1.9,3.3,3.5c2.4,5.3,4.7,10.7,7,16C26.5,33.1,26.6,33.5,26.8,34.2z"/>
<path class="st3" d="M34.2,33.9c1-2.4,2-4.6,3-6.8c1.5-3.5,3-7,4.6-10.5c0.9-2.4,3.3-3.9,5.9-3.6c2.5,0.3,4.4,2.1,4.9,4.6
	c0.5,2.2-0.4,4.5-2.4,5.6c-5.2,3.6-10.3,7.1-15.5,10.6C34.5,33.8,34.4,33.9,34.2,33.9z"/>
<path class="st4" d="M27.6,36c-6.4,0-12.5,0-18.7,0c-2-0.1-3.8-1.3-4.5-3.2c-1-1.9-0.8-4.3,0.7-6c2-2.4,5.5-2.9,8-1
	c4.8,3.3,9.5,6.6,14.3,9.9L27.6,36z"/>
<path class="st5" d="M33.7,35.8c5-3.4,10-6.9,15-10.2c1.9-1.2,4.5-1,6.2,0.5c1.9,1.5,2.6,4.1,1.8,6.3c-0.7,2.2-2.7,3.7-5.1,3.6H33.8
	L33.7,35.8z"/>
</svg>
