<svg xmlns="http://www.w3.org/2000/svg" width="14.167" height="16" viewBox="0 0 14.167 16">
  <path id="favicon" d="M46.624,38.249a1.153,1.153,0,0,0-.577-1l-5.93-3.424a1.153,1.153,0,0,0-1.154,0l-5.93,3.424a1.172,1.172,0,0,0-.129.087,1.157,1.157,0,0,0-.448.912V45.1a1.166,1.166,0,0,0,.577,1l2.682,1.548.442.255,1.293.747.442.255,1.071.618a1.17,1.17,0,0,0,1.154,0l.724-.418.522-.3,1.239-.716.442-.255,3-1.734a1.154,1.154,0,0,0,.577-1Z" transform="translate(-32.456 -33.671)" fill="#ffd534"/>
</svg>
