<svg viewBox="0 0 135.95 45.96" xmlns="http://www.w3.org/2000/svg"><path d="m5.89 5.6c1.57-.48 17.83-.28 24.4-.27 4.34 0 4.43.08 4.37 4.46v2.46a13.19 13.19 0 0 1 -2.77.05l-.37-4h-21.84v29h21.83l.24-4.4c.91 0 1.27.16 3 .16a54.63 54.63 0 0 1 -.29 7.66h-28.57z"/><path d="m126.59 25.18 3.46 4.91c-3.14 1-7.48-3.3-8.05-8l4.32-.26v-4.56h-5.49v13.12h-3v-15.79c3.41 0 6.71-.09 10 .08a2.43 2.43 0 0 1 1.69 1.66 17.58 17.58 0 0 1 0 5.88c-.24 1.04-1.72 1.78-2.93 2.96z"/><path d="m83.62 22.61c0 8 0 8-8.25 8-4.38 0-4.38 0-4.38-4.22 0-3.1.06-6.2 0-9.3 0-1.77.53-2.61 2.43-2.54 2.56.1 5.13.12 7.69 0 2.06-.1 2.68.81 2.56 2.69s-.05 3.58-.05 5.37zm-3.18 5.39v-10.71h-6.28v10.71z"/><path d="m15.23 14.63c3 0 5.82-.09 8.65 0 2.39.1 3.57 1.64 3.66 3.87.12 2.72.11 5.45 0 8.16-.09 2.25-1.3 3.76-3.67 3.86-2.82.12-5.65 0-8.64 0zm3.06 2.06v11.78c2.14-.47 5.42-.56 5.58-1.32a22.12 22.12 0 0 0 0-9.06c-.14-.77-3.4-.89-5.58-1.4z"/><path d="m50.46 19.34c-2.44 1-3-.22-3-2.23h-6.2c.92 1.34 1.35 2.48 2.17 3 1.64 1.1 3.62 1.73 5.22 2.88a4.67 4.67 0 0 1 1.92 3.01c.38 4.64.27 4.65-4.45 4.65h-2.86c-4.8 0-4.85-.06-4.12-5.15h2.55l.31 2.55h5.34l.67-.6a13.2 13.2 0 0 0 -2.35-2.9c-1.62-1.12-3.57-1.77-5.22-2.86a3.73 3.73 0 0 1 -1.55-2.35c-.51-4.55-.26-4.75 4.37-4.76h3.14c4.6.01 4.6.01 4.06 4.76z"/><path d="m67 20h-2.77l-.36-2.74h-5.87v10.74h5.77l.5-3 2.36-.11c.19.3.36.45.37.61.35 5.15.34 5.15-4.79 5.15-7.58 0-7.58 0-7.58-7.56 0-2 .08-3.95 0-5.92s.77-2.68 2.7-2.58a43.73 43.73 0 0 0 6.27 0c2.7-.25 4 .65 3.52 3.43a20.12 20.12 0 0 0 -.12 1.98z"/><path d="m106.44 17.13v4h5.89c.79 2.07.08 2.65-1.68 2.56-1.31-.07-2.63 0-4.14 0v4c2.37 1.38 6-1 7.93 1.5l-.4 1.3h-10.65v-15.67h10.44c1.06 2.73-1 2.28-2.52 2.3s-3.02.01-4.87.01z"/><path d="m100.14 14.9c-1.58 4.8-3.06 9.46-4.69 14.06a2.71 2.71 0 0 1 -1.87 1.55 2.48 2.48 0 0 1 -2-1.2c-1.71-4.76-3.24-9.58-4.83-14.37 2.33-.93 3.27-.09 3.79 2 .75 3 1.79 5.87 2.92 9.5 1.11-3.64 2.09-6.53 2.87-9.47.5-1.97 1.45-2.97 3.81-2.07z"/><path d="m34.75 14.79v15.62h-2.86v-15.62z"/></svg>