<svg xmlns="http://www.w3.org/2000/svg" width="30" height="30" viewBox="0 0 30 30">
  <g id="Group_98" data-name="Group 98" transform="translate(-25 -760)">
    <path id="Path_15" data-name="Path 15" d="M-192.02,128.505h0a15,15,0,0,0-15,15h0a15,15,0,0,0,15,15h0a15,15,0,0,0,15-15h0A15,15,0,0,0-192.02,128.505Zm4.185,9.111h-1.977c-.7,0-.843.285-.843,1.007v1.744h2.819l-.272,3.061h-2.547v9.144h-3.652v-9.105h-1.9v-3.1h1.9v-2.441c0-2.291,1.226-3.487,3.943-3.487h2.529Z" transform="translate(232.02 631.495)" fill="#636466"/>
  </g>
</svg>
