<svg xmlns="http://www.w3.org/2000/svg" width="32.21" height="32.21" viewBox="0 0 32.21 32.21">
  <path id="Path_15" data-name="Path 15" d="M-190.916,128.505h0a16.105,16.105,0,0,0-16.1,16.105h0a16.1,16.1,0,0,0,16.1,16.1h0a16.105,16.105,0,0,0,16.105-16.1h0A16.106,16.106,0,0,0-190.916,128.505Zm4.494,9.782h-2.122c-.749,0-.9.306-.9,1.082v1.872h3.027l-.292,3.287h-2.735v9.818h-3.921v-9.776h-2.039V141.24h2.039V138.62c0-2.459,1.316-3.744,4.233-3.744h2.715Z" transform="translate(207.02 -128.505)" fill="#636466"/>
</svg>
