<svg id="Layer_1" data-name="Layer 1" xmlns="http://www.w3.org/2000/svg" viewBox="0 0 170.89 61.28"><defs><style>.cls-1{fill:#fff;}</style></defs><path d="M95.72,23.53c.49-.21.88-.41,1.3-.56a11.28,11.28,0,0,1,8.28-.17,10.35,10.35,0,0,1,5.63,5.73,14.56,14.56,0,0,1,1.19,5.21,18.94,18.94,0,0,1-1,7.59,12.75,12.75,0,0,1-9.75,8.47,23.47,23.47,0,0,1-6.09.31A44.24,44.24,0,0,1,88.09,49c-.29-.05-.34-.19-.34-.45.07-6,.17-12,.19-18,0-3.95-.11-7.91-.18-11.87A6.65,6.65,0,0,0,87.17,16a2,2,0,0,0-1.39-1.19c-.41-.09-.81-.2-1.22-.3a.45.45,0,0,1-.41-.52v-.1c0-.68,0-.69.63-.82l8.56-1.64c.7-.13,1.4-.24,2.1-.38.25-.05.34,0,.35.27s0,.4,0,.61l-.06,11Zm0,13.11h-.09q.12,5.32.25,10.65c0,.51.09.58.59.63l.71,0a4.22,4.22,0,0,0,3.55-1.53,9.07,9.07,0,0,0,1.54-2.5,19.16,19.16,0,0,0,1.5-7,19.58,19.58,0,0,0-.69-6.81A8.14,8.14,0,0,0,101,26.45a3.84,3.84,0,0,0-2.2-1.13,6.64,6.64,0,0,0-2.72.27.44.44,0,0,0-.36.5Q95.76,31.36,95.75,36.64Z"/><path d="M10.75,13.57V11.74c10.08,0,20.17,0,30.31,0a4.63,4.63,0,0,1,.08.47c.07,3.36.14,6.71.2,10.07,0,.1-.07.26-.15.28-.39.14-.8.26-1.2.36s-.57,0-.75-.38c-.26-.61-.49-1.24-.75-1.85a11.37,11.37,0,0,0-2.79-4.21,6.38,6.38,0,0,0-4.18-1.7c-2.14,0-4.28,0-6.42-.07l-.22,0c-.26,4.92-.33,9.83-.31,14.79.4,0,.77,0,1.14,0,1-.05,2.06-.08,3.08-.15a3.38,3.38,0,0,0,2.71-1.7,8.74,8.74,0,0,0,1.07-2.8c.15-.58.14-.58.76-.58h1.11V37.11c-.54,0-1.08,0-1.62,0-.06,0-.14-.15-.17-.24-.21-.68-.38-1.37-.61-2a5.41,5.41,0,0,0-.47-1,3.2,3.2,0,0,0-2.68-1.77l-4.3-.27c0,.16,0,.27,0,.37.09,3.18.16,6.36.28,9.53a11.3,11.3,0,0,0,.59,3.4,6.07,6.07,0,0,0,.24.59,2.76,2.76,0,0,0,2.16,1.67l2,.35c.35,0,.56.2.56.58s0,.52,0,.78-.15.4-.45.4c-1.11,0-2.22,0-3.33,0l-15.32,0c-.5,0-.51,0-.55-.5-.08-1.08,0-1.15,1-1.37l1-.2a3.14,3.14,0,0,0,2.56-2.34,15.33,15.33,0,0,0,.59-4c.3-6.25.24-12.5.12-18.76a27.05,27.05,0,0,0-.45-5.16c-.08-.34-.18-.68-.29-1a3.34,3.34,0,0,0-3-2.37Z"/><path d="M50.27,50.13a12.23,12.23,0,0,1-6.16-1.24,11.16,11.16,0,0,1-5.63-6.29,17.49,17.49,0,0,1-.16-12.42,12.2,12.2,0,0,1,10.06-8.26,14.78,14.78,0,0,1,7.63.69,11.21,11.21,0,0,1,6.74,7,18.94,18.94,0,0,1,1,8.08,14.12,14.12,0,0,1-2.37,7,12.05,12.05,0,0,1-8.08,5.26,29.86,29.86,0,0,1-3,.29ZM45.7,35.6v1.32a23,23,0,0,0,1,7,7.86,7.86,0,0,0,1.79,3.23,3.05,3.05,0,0,0,3.18.84,3.6,3.6,0,0,0,1.88-1.49A9.3,9.3,0,0,0,55,42.54a40.48,40.48,0,0,0,.39-8.73,22.3,22.3,0,0,0-.79-5.25,8.32,8.32,0,0,0-2.17-3.85,3,3,0,0,0-4.51.23,4.29,4.29,0,0,0-.78,1.22,23.12,23.12,0,0,0-1,3A29.25,29.25,0,0,0,45.7,35.6Z"/><path d="M138.22,34.88h-15.9c0,.66.05,1.26.09,1.87a11.56,11.56,0,0,0,1.44,5,7.85,7.85,0,0,0,6.71,4.18,9.16,9.16,0,0,0,4.48-.69c.6-.29,1.17-.64,1.74-1a.47.47,0,0,1,.7.13c.47.55.5.77,0,1.33a12.51,12.51,0,0,1-5.74,3.81,15.28,15.28,0,0,1-5.5.58,12.55,12.55,0,0,1-11.59-9.78,18.5,18.5,0,0,1-.42-5.35A14.43,14.43,0,0,1,116,28.38a12.1,12.1,0,0,1,9.15-6.46,12.7,12.7,0,0,1,5.78.3,9.27,9.27,0,0,1,5.91,5.31,16.17,16.17,0,0,1,1.37,7A2.67,2.67,0,0,1,138.22,34.88Zm-8.11-2.45c0-.09,0-.12,0-.15-.15-1.53-.26-3.06-.48-4.58a6.39,6.39,0,0,0-1-2.78,2.12,2.12,0,0,0-3.28-.54,5.37,5.37,0,0,0-1.22,1.42,13.73,13.73,0,0,0-1.64,5.34c-.07.47-.09,1-.14,1.47Z"/><path d="M139.74,44.52c0-1.23,0-2.47,0-3.7,0-.21,0-.35.26-.4l.92-.19c.22,0,.31.06.4.26.43,1,.85,2,1.35,2.91a7.43,7.43,0,0,0,3,3.25,5.25,5.25,0,0,0,5.2.16,3.86,3.86,0,0,0,1.68-4.73,3.55,3.55,0,0,0-1.37-1.6,18.11,18.11,0,0,0-3.32-1.67c-1.2-.51-2.43-1-3.57-1.57a7.26,7.26,0,0,1-4-7.21,8.65,8.65,0,0,1,6.36-7.7,14.45,14.45,0,0,1,4.76-.59,22.39,22.39,0,0,1,6.34,1.05c1,.33,1,.33,1,1.36,0,2,.08,3.92.14,5.87a.38.38,0,0,1-.3.44c-1,.37-1.08.35-1.48-.68a13.49,13.49,0,0,0-1.87-3.59A5.27,5.27,0,0,0,150.61,24a3.38,3.38,0,0,0-3.12,3c0,.15,0,.31-.05.47a3.2,3.2,0,0,0,1,2.7,11.84,11.84,0,0,0,3.33,2.07c1.42.67,2.86,1.29,4.27,2a8.25,8.25,0,0,1,2.49,1.86,6,6,0,0,1,1.62,3.65,9.85,9.85,0,0,1-.58,4.83,8.62,8.62,0,0,1-4.84,4.64,11.15,11.15,0,0,1-4.49.9c-1,0-2.06,0-3.09,0a23.52,23.52,0,0,1-6.89-1.39.44.44,0,0,1-.34-.46c0-1.24-.06-2.49-.1-3.73Z"/><path d="M75.51,21.79l-.19,5.48.06,0,.28-.48a10.82,10.82,0,0,1,3.16-3.76A7.1,7.1,0,0,1,85.05,22l.06,0c1,.3,1.06.47.71,1.39-.77,2.07-1.57,4.14-2.34,6.21-.12.32-.27.36-.58.23a23.37,23.37,0,0,0-2.76-1,5.74,5.74,0,0,0-3.9.46,1.46,1.46,0,0,0-.94,1.42,133.13,133.13,0,0,0,.18,13.4A9.19,9.19,0,0,0,75.81,46a2,2,0,0,0,1.79,1.58c.66.08,1.32.17,2,.23.24,0,.32.09.32.32,0,.44,0,.88,0,1.34l-.3,0H64.45c-.75,0-.75,0-.74-.79s0-.82.83-1l.2,0C66,47.49,67,47,67.22,44.92c.12-1.14.2-2.28.21-3.42,0-3.52,0-7,0-10.55a23.42,23.42,0,0,0-.33-3.44,2.1,2.1,0,0,0-1.94-1.88c-.36-.05-.71-.14-1.06-.21-.1,0-.27-.05-.28-.1a3.67,3.67,0,0,1-.07-1c0-.12.24-.28.4-.31,1.45-.32,2.9-.63,4.35-.92,2.21-.44,4.42-.86,6.63-1.28A3.66,3.66,0,0,1,75.51,21.79Z"/><path class="cls-1" d="M130.11,32.43l-7.76.18c.05-.52.07-1,.14-1.47a13.73,13.73,0,0,1,1.64-5.34,5.37,5.37,0,0,1,1.22-1.42,2.12,2.12,0,0,1,3.28.54,6.39,6.39,0,0,1,1,2.78c.22,1.52.33,3.05.48,4.58C130.15,32.31,130.13,32.34,130.11,32.43Z"/></svg>