<svg id="Group_97" data-name="Group 97" xmlns="http://www.w3.org/2000/svg" width="32.21" height="32.21" viewBox="0 0 32.21 32.21">
  <path id="Path_16" data-name="Path 16" d="M-126.687,141.013a2.725,2.725,0,0,0-.661-1.016,2.731,2.731,0,0,0-1.015-.66,4.9,4.9,0,0,0-1.64-.3c-.931-.042-1.21-.052-3.568-.052s-2.637.009-3.569.052a4.888,4.888,0,0,0-1.639.3,2.734,2.734,0,0,0-1.016.66,2.746,2.746,0,0,0-.661,1.016,4.921,4.921,0,0,0-.3,1.639c-.042.932-.052,1.211-.052,3.569s.009,2.637.052,3.568a4.922,4.922,0,0,0,.3,1.64,2.753,2.753,0,0,0,.661,1.016,2.734,2.734,0,0,0,1.016.66,4.871,4.871,0,0,0,1.639.3c.932.042,1.21.052,3.569.052s2.637-.009,3.568-.052a4.883,4.883,0,0,0,1.64-.3,2.73,2.73,0,0,0,1.015-.66,2.731,2.731,0,0,0,.661-1.016,4.878,4.878,0,0,0,.3-1.64c.042-.931.052-1.21.052-3.568s-.009-2.637-.052-3.569A4.876,4.876,0,0,0-126.687,141.013Zm-6.884,9.742a4.535,4.535,0,0,1-4.535-4.534,4.535,4.535,0,0,1,4.535-4.534,4.534,4.534,0,0,1,4.534,4.534A4.534,4.534,0,0,1-133.57,150.755Zm4.714-8.188a1.06,1.06,0,0,1-1.06-1.06,1.06,1.06,0,0,1,1.06-1.06,1.059,1.059,0,0,1,1.059,1.06A1.06,1.06,0,0,1-128.856,142.567Z" transform="translate(149.675 -130.115)" fill="#636466"/>
  <path id="Path_17" data-name="Path 17" d="M-132.79,144.058A2.943,2.943,0,0,0-135.733,147a2.943,2.943,0,0,0,2.943,2.943A2.943,2.943,0,0,0-129.846,147,2.943,2.943,0,0,0-132.79,144.058Z" transform="translate(148.895 -130.896)" fill="#636466"/>
  <path id="Path_18" data-name="Path 18" d="M-135.181,128.505a16.105,16.105,0,0,0-16.105,16.105h0a16.1,16.1,0,0,0,16.105,16.1,16.1,16.1,0,0,0,16.1-16.1h0A16.105,16.105,0,0,0-135.181,128.505Zm8.777,19.746a6.484,6.484,0,0,1-.411,2.144,4.321,4.321,0,0,1-1.018,1.564,4.335,4.335,0,0,1-1.564,1.019,6.515,6.515,0,0,1-2.144.41c-.942.042-1.242.052-3.641.052s-2.7-.01-3.641-.052a6.506,6.506,0,0,1-2.144-.41,4.335,4.335,0,0,1-1.564-1.019,4.335,4.335,0,0,1-1.019-1.564,6.487,6.487,0,0,1-.41-2.144c-.043-.942-.053-1.242-.053-3.641s.01-2.7.053-3.641a6.487,6.487,0,0,1,.41-2.144,4.335,4.335,0,0,1,1.019-1.564,4.334,4.334,0,0,1,1.564-1.019,6.483,6.483,0,0,1,2.144-.41c.942-.043,1.242-.053,3.641-.053s2.7.01,3.641.053a6.492,6.492,0,0,1,2.144.41,4.334,4.334,0,0,1,1.564,1.019,4.321,4.321,0,0,1,1.018,1.564,6.485,6.485,0,0,1,.411,2.144c.042.942.052,1.242.052,3.641S-126.361,147.309-126.4,148.251Z" transform="translate(151.286 -128.505)" fill="#636466"/>
</svg>
