<svg id="Layer_1" data-name="Layer 1" xmlns="http://www.w3.org/2000/svg" viewBox="0 0 297.97 42.51"><path d="M258.86,36.29c-2.75,0-5.37,0-8,0a1.4,1.4,0,0,1-1-.82c-1.55-5.68-3-11.38-4.53-17.07a8.11,8.11,0,0,0-.39-1c-1.57,6-3.09,11.85-4.59,17.67-.23.89-.6,1.34-1.67,1.29-2.44-.11-4.89,0-7.37,0l-7.91-30.1c2.71,0,5.19,0,7.68,0,.28,0,.73.44.81.75,1.28,4.91,2.5,9.84,3.75,14.76.24,1,.52,2,.89,3.3l5-18.79H249c1.62,6.1,3.25,12.27,4.89,18.43l.22,0,4.71-18.49h8C264.11,16.28,261.5,26.23,258.86,36.29Z"/><path d="M95.83,6.2c5.74,0,11.38-.14,17,.06A9.83,9.83,0,0,1,119.68,9a6.88,6.88,0,0,1-2.32,11.58l-.4.14c3.38.92,5.66,3.49,5.81,6.49.2,4.08-1.51,6.84-5.3,8.08a19.33,19.33,0,0,1-5.43,1c-5.37.13-10.74,0-16.21,0Zm8.09,23.55c2.45,0,4.76.06,7.07,0,1.89-.07,3.11-1.11,3.22-2.54s-.76-2.63-2.84-2.81c-2.46-.21-4.94-.05-7.45-.05Zm0-17v5.19c2.4,0,4.74.07,7.08,0a2.35,2.35,0,0,0,1.71-1,3.58,3.58,0,0,0,.35-2.38c-.32-1.33-1.58-1.69-2.76-1.75C108.22,12.68,106.13,12.75,103.93,12.75Z"/><path d="M193.8,36.29c-2.06,0-4,0-6,0a1.47,1.47,0,0,1-1-.61q-6-8.13-12-16.31c-.12-.16-.26-.3-.58-.67V36.22h-7.47v-30c2.54,0,5,0,7.42,0a1.43,1.43,0,0,1,.85.63q5.39,7.56,10.74,15.16c.08.1.19.17.46.42V6.25h7.56Z"/><path d="M64.3,36.2v-30c2.49,0,4.92,0,7.35,0,.39,0,.84.54,1.12.93q5.06,7.07,10.06,14.18c.2.28.42.54.79,1V6.27h7.55v30c-2,0-4,0-6,0-.36,0-.76-.5-1-.86q-5.86-8-11.68-15.91a3.33,3.33,0,0,0-.51-.45V36.2Z"/><path d="M267.4,25.65l7.43-.37a6.82,6.82,0,0,0,9.92,4.39,2.89,2.89,0,0,0,1.16-2.1c0-.51-.82-1.37-1.42-1.52-2.46-.63-5-1.05-7.47-1.53-3.13-.6-6.09-1.57-7.76-4.54-2.34-4.14-1.47-10.57,4.12-12.95a17.05,17.05,0,0,1,15.05.42c3.49,1.81,4.88,5,5,8.88-2.32.11-4.58.25-6.84.3a1.12,1.12,0,0,1-.78-.73c-.64-4.15-6.38-4.62-8.75-3a1.86,1.86,0,0,0-.66,2.33,2.81,2.81,0,0,0,1.71,1.35c2.78.63,5.59,1.07,8.38,1.63a9,9,0,0,1,7.65,9.12c-.11,3.37-1.54,6.23-4.7,7.69-6.05,2.8-12.14,2.7-17.83-.9C268.63,32.28,267.32,29.27,267.4,25.65Z"/><path d="M147.23,23.37H155a10.49,10.49,0,0,1-1.14,5.34c-2.44,5.42-6.82,7.9-12.68,8.12a15.5,15.5,0,0,1-9.85-2.59,14.53,14.53,0,0,1-6.45-11.57,16,16,0,0,1,2.27-10.06,14.19,14.19,0,0,1,10.31-6.7,16.7,16.7,0,0,1,10.61,1.51,13.18,13.18,0,0,1,6.72,9.35c.15.67.23,1.35.38,2.29h-7.94c-.14-.42-.38-1-.56-1.7-1.45-5.19-8.47-5.49-11.25-2.47s-2.78,9.68,0,12.74c2.66,2.9,9.79,2.78,11.24-2.53C146.83,24.49,147.06,23.89,147.23,23.37Z"/><path d="M198.45,6.24h23.19V13h-15v4.72H218.3c0,2.14,0,4.13-.05,6.12,0,.25-.69.67-1.06.68-3.49.05-7,0-10.59,0v4.94h15.56v6.73H198.45Z"/><path d="M26.86,31.91q-1.53-3.61-3.08-7.23c-1.57-3.68-3.16-7.36-4.71-11a5.45,5.45,0,0,1,3.5-7.48c3.1-.91,6.39.32,7.1,3.78a18.67,18.67,0,0,1-.19,5.81c-.4,3.47-.95,6.92-1.46,10.38-.28,1.91-.6,3.81-.9,5.72Z"/><path d="M34,32c-.26-1.72-.48-3.24-.72-4.76-.59-3.84-1.17-7.69-1.79-11.53-.23-1.42.22-2.31,2.16-3.54l-2.31-.26a5.07,5.07,0,0,1,4.49-5.94,5.65,5.65,0,0,1,6,7.89c-2.45,5.91-5,11.77-7.53,17.64A3.26,3.26,0,0,1,34,32Z"/><path d="M26.83,34.18l-5.92-4c-3.37-2.29-6.75-4.55-10.11-6.85a5.67,5.67,0,0,1,5.23-10,6.06,6.06,0,0,1,3.29,3.5q3.54,8,7.05,16C26.52,33.12,26.6,33.48,26.83,34.18Z"/><path d="M34.23,33.9c1-2.36,2-4.6,3-6.84,1.52-3.5,3-7,4.58-10.48A5.48,5.48,0,0,1,47.67,13a5.56,5.56,0,0,1,4.87,4.58,5.13,5.13,0,0,1-2.38,5.63C45,26.8,39.83,30.28,34.66,33.79A2.5,2.5,0,0,1,34.23,33.9Z"/><path d="M27.65,36c-6.36,0-12.52,0-18.69,0a5,5,0,0,1-4.51-3.22,5.44,5.44,0,0,1,.65-6,5.81,5.81,0,0,1,8-1c4.78,3.29,9.54,6.61,14.31,9.91Z"/><path d="M33.68,35.77c5-3.42,10-6.89,15-10.25a5.23,5.23,0,0,1,6.18.5,5.71,5.71,0,0,1,1.8,6.34A5.09,5.09,0,0,1,51.59,36H33.78Z"/></svg>