<svg xmlns="http://www.w3.org/2000/svg" width="46.8" height="43.125" viewBox="0 0 46.8 43.125">
  <g id="QUOTE" transform="translate(-364.537 -226.335)" style="isolation: isolate">
    <path id="Path_55" data-name="Path 55" d="M367.537,269.46a30.648,30.648,0,0,1-3-13.049,31.265,31.265,0,0,1,4.5-16.013,49.217,49.217,0,0,1,12.825-14.063l5.025,3.3a2.275,2.275,0,0,1,1.125,2.1,3.013,3.013,0,0,1-.413,1.537,10.58,10.58,0,0,1-1.387,1.763q-.9,1.052-2.063,2.663a23.217,23.217,0,0,0-2.137,3.675,27.527,27.527,0,0,0-1.65,4.537,19.88,19.88,0,0,0-.675,5.25,21.9,21.9,0,0,0,.487,4.5,23.052,23.052,0,0,0,1.613,4.8,3.41,3.41,0,0,1,.225,1.2,3.056,3.056,0,0,1-.825,2.062,6,6,0,0,1-2.325,1.538Zm23.325,0a30.647,30.647,0,0,1-3-13.049,31.265,31.265,0,0,1,4.5-16.013,49.216,49.216,0,0,1,12.825-14.063l5.025,3.3a2.275,2.275,0,0,1,1.125,2.1,3.023,3.023,0,0,1-.413,1.537,10.58,10.58,0,0,1-1.387,1.763q-.9,1.052-2.063,2.663a23.137,23.137,0,0,0-2.137,3.675,27.617,27.617,0,0,0-1.65,4.537,19.88,19.88,0,0,0-.675,5.25,21.828,21.828,0,0,0,.487,4.5,23.054,23.054,0,0,0,1.613,4.8,3.411,3.411,0,0,1,.225,1.2,3.051,3.051,0,0,1-.825,2.062,5.994,5.994,0,0,1-2.325,1.538Z" fill="#ffd534"/>
  </g>
</svg>
