<svg xmlns="http://www.w3.org/2000/svg" width="32.21" height="32.21" viewBox="0 0 32.21 32.21">
  <path id="Path_14" data-name="Path 14" d="M-301.755,128.505a16.105,16.105,0,0,0-16.1,16.105h0a16.1,16.1,0,0,0,16.1,16.1,16.1,16.1,0,0,0,16.105-16.1h0A16.105,16.105,0,0,0-301.755,128.505Zm6.824,12.605a9.958,9.958,0,0,1-10.008,10.473,9.961,9.961,0,0,1-5.4-1.583,7.074,7.074,0,0,0,5.212-1.457,3.523,3.523,0,0,1-3.289-2.446,3.525,3.525,0,0,0,1.589-.059,3.527,3.527,0,0,1-2.824-3.5,3.521,3.521,0,0,0,1.6.441,3.525,3.525,0,0,1-1.09-4.7,9.992,9.992,0,0,0,7.257,3.679,3.524,3.524,0,0,1,3.429-4.323,3.515,3.515,0,0,1,2.571,1.111,7.057,7.057,0,0,0,2.235-.855,3.527,3.527,0,0,1-1.547,1.948,7.031,7.031,0,0,0,2.022-.554A7.143,7.143,0,0,1-294.93,141.11Z" transform="translate(317.859 -128.505)" fill="#636466"/>
</svg>
