<svg xmlns="http://www.w3.org/2000/svg" width="30" height="30" viewBox="0 0 30 30">
  <g id="youtube" transform="translate(0 -88.652)">
    <path id="Path_540" data-name="Path 540" d="M224.113,213.659l4.879-2.81-4.879-2.81Z" transform="translate(-210.981 -107.197)" fill="#636466"/>
    <path id="Path_541" data-name="Path 541" d="M15,0A15,15,0,1,0,30,15,15,15,0,0,0,15,0Zm9.373,15.015a24.757,24.757,0,0,1-.386,4.509,2.349,2.349,0,0,1-1.652,1.652A57.011,57.011,0,0,1,15,21.562a54.969,54.969,0,0,1-7.335-.4,2.349,2.349,0,0,1-1.652-1.652A24.648,24.648,0,0,1,5.627,15a24.74,24.74,0,0,1,.386-4.509A2.4,2.4,0,0,1,7.665,8.824,57.01,57.01,0,0,1,15,8.438a54.851,54.851,0,0,1,7.335.4,2.349,2.349,0,0,1,1.652,1.652A23.492,23.492,0,0,1,24.373,15.015Z" transform="translate(0 88.652)" fill="#636466"/>
  </g>
</svg>
