<svg xmlns="http://www.w3.org/2000/svg" viewBox="0 0 94.5 25.85"><defs><style>.cls-1{isolation:isolate;}.cls-2{fill:#636466;}</style></defs><g id="Layer_2" data-name="Layer 2"><g id="Layer_1-2" data-name="Layer 1"><g class="cls-1"><path class="cls-2" d="M14,22.88a1.49,1.49,0,0,1,.45,1.1A1.44,1.44,0,0,1,14,25.06a1.57,1.57,0,0,1-1.1.43H1.76a1.5,1.5,0,0,1-1.08-.43A1.5,1.5,0,0,1,.25,24a1.55,1.55,0,0,1,.43-1.1,1.44,1.44,0,0,1,1.08-.45H6.05V4.18L2.38,6,2,6.12a2.06,2.06,0,0,1-.67.07,1.29,1.29,0,0,1-.92-.43A1.72,1.72,0,0,1,0,4.48,1.43,1.43,0,0,1,.94,3.17L5.83.61a2.22,2.22,0,0,1,1-.25H7.6A1.71,1.71,0,0,1,9.32,2.09V22.43h3.57A1.5,1.5,0,0,1,14,22.88Z"/><path class="cls-2" d="M37.24,22.88a1.49,1.49,0,0,1,.45,1.1,1.44,1.44,0,0,1-.45,1.08,1.55,1.55,0,0,1-1.1.43H22.25A1.93,1.93,0,0,1,20.88,25a1.8,1.8,0,0,1-.54-1.35A5.76,5.76,0,0,1,21.4,20.2a13.81,13.81,0,0,1,2.67-2.81,31.47,31.47,0,0,1,3.47-2.45c1.25-.77,2.41-1.54,3.47-2.3a15.42,15.42,0,0,0,2.67-2.38,3.8,3.8,0,0,0,1.06-2.45,5.67,5.67,0,0,0-.31-2,3.49,3.49,0,0,0-1-1.39A6.49,6.49,0,0,0,29.05,3.1,15.18,15.18,0,0,0,22.9,4.39a1.84,1.84,0,0,1-.83.18,1.16,1.16,0,0,1-.85-.39A1.64,1.64,0,0,1,20.84,3a1.31,1.31,0,0,1,.8-1.18,17.51,17.51,0,0,1,8-1.84A8.65,8.65,0,0,1,35.5,2a6.64,6.64,0,0,1,2.41,5.29c0,2.18-1.1,4.28-3.28,6.3a29.27,29.27,0,0,1-3.15,2.45l-3.29,2.21c-1.06.71-2,1.4-2.85,2.09a5.78,5.78,0,0,0-1.72,2.07H36.14A1.49,1.49,0,0,1,37.24,22.88Z"/><path class="cls-2" d="M46.69,11.05a12.53,12.53,0,0,1,6.09-1.47A8.37,8.37,0,0,1,59,11.88a8,8,0,0,1,2.12,5.83,7.24,7.24,0,0,1-5.43,7.49,13.48,13.48,0,0,1-4.39.65,14.18,14.18,0,0,1-7.71-2.09,1.32,1.32,0,0,1-.72-1.17,1.8,1.8,0,0,1,.4-1.21,1.17,1.17,0,0,1,.92-.46,2.91,2.91,0,0,1,1.27.39,11.39,11.39,0,0,0,5.37,1.3q5.15,0,6.51-2.63a5.23,5.23,0,0,0,.51-2.45A4.43,4.43,0,0,0,56.39,14a5.43,5.43,0,0,0-3.69-1.29,11.3,11.3,0,0,0-5.94,1.55,3.07,3.07,0,0,1-1.51.43,2.28,2.28,0,0,1-1.44-.56,1.88,1.88,0,0,1-.68-1.53,4.26,4.26,0,0,1,.07-.86l1.62-9.58A2.06,2.06,0,0,1,45.45.85,1.78,1.78,0,0,1,46.73.36H58.28a1.5,1.5,0,0,1,1.1.45,1.5,1.5,0,0,1,.45,1.1A1.44,1.44,0,0,1,59.38,3a1.52,1.52,0,0,1-1.1.43H47.84Z"/><path class="cls-2" d="M93.82.88a2.35,2.35,0,0,1,.68,1.68V24.05a1.6,1.6,0,0,1-1.62,1.62,1.62,1.62,0,0,1-1.17-.47,1.52,1.52,0,0,1-.49-1.15V3.6L82.91,24.16a2.48,2.48,0,0,1-2.31,1.51,2.43,2.43,0,0,1-1.4-.42,2.4,2.4,0,0,1-.9-1.09L70,3.6V24.05a1.55,1.55,0,0,1-.48,1.15,1.66,1.66,0,0,1-1.17.47,1.56,1.56,0,0,1-1.15-.47,1.54,1.54,0,0,1-.47-1.15V2.56A2.35,2.35,0,0,1,67.39.88a2.23,2.23,0,0,1,1.66-.7h1.19a2.19,2.19,0,0,1,1.31.43,2.62,2.62,0,0,1,.88,1.08L80.6,22.07,88.78,1.69A2.62,2.62,0,0,1,89.66.61,2.14,2.14,0,0,1,91,.18h1.19A2.23,2.23,0,0,1,93.82.88Z"/></g></g></g></svg>