<svg xmlns="http://www.w3.org/2000/svg" viewBox="0 0 83.74 25.85"><defs><style>.cls-1{isolation:isolate;}.cls-2{fill:#636466;}</style></defs><g id="Layer_2" data-name="Layer 2"><g id="Layer_1-2" data-name="Layer 1"><g class="cls-1"><path class="cls-2" d="M16.88,6.48c0,2.9-1.45,4.91-4.35,6a6.53,6.53,0,0,1,4.71,3.6,6.71,6.71,0,0,1,.54,2.85,6,6,0,0,1-.72,3,6.2,6.2,0,0,1-2,2.16,11.38,11.38,0,0,1-6.62,1.77A19.85,19.85,0,0,1,.94,24.41,1.42,1.42,0,0,1,0,23a1.54,1.54,0,0,1,.4-1,1.11,1.11,0,0,1,.88-.47,3.22,3.22,0,0,1,1.2.29,14.37,14.37,0,0,0,5.37.9q4.5,0,6.08-2.06a3.07,3.07,0,0,0,.58-1.94q0-4.53-8-4.54H6a1.47,1.47,0,0,1-1.07-.45,1.47,1.47,0,0,1,0-2.12A1.47,1.47,0,0,1,6,11.16h.21q7.43,0,7.42-4.36a3.2,3.2,0,0,0-1.39-2.71,7.21,7.21,0,0,0-4.3-1A13.41,13.41,0,0,0,2.34,4.25a1.74,1.74,0,0,1-.74.14A1.22,1.22,0,0,1,.76,4,1.37,1.37,0,0,1,.36,3a1.21,1.21,0,0,1,.72-1.11A15.06,15.06,0,0,1,8.42,0a10.11,10.11,0,0,1,6.21,1.69A5.65,5.65,0,0,1,16.88,6.48Z"/><path class="cls-2" d="M26.77,21.94a2,2,0,0,1,.59,1.42v.22a2,2,0,0,1-2,2H25a2,2,0,0,1-2-2v-.22a2,2,0,0,1,2-2h.36A2,2,0,0,1,26.77,21.94Z"/><path class="cls-2" d="M49.08,22.88a1.49,1.49,0,0,1,.46,1.1,1.45,1.45,0,0,1-.46,1.08,1.54,1.54,0,0,1-1.09.43H34.09A1.93,1.93,0,0,1,32.72,25a1.8,1.8,0,0,1-.54-1.35,5.77,5.77,0,0,1,1.07-3.42,13.48,13.48,0,0,1,2.66-2.81,32.45,32.45,0,0,1,3.47-2.45c1.25-.77,2.41-1.54,3.48-2.3a15.71,15.71,0,0,0,2.66-2.38,3.75,3.75,0,0,0,1.06-2.45,5.91,5.91,0,0,0-.3-2,3.62,3.62,0,0,0-1-1.39A6.48,6.48,0,0,0,40.89,3.1a15.21,15.21,0,0,0-6.15,1.29,1.84,1.84,0,0,1-.83.18,1.14,1.14,0,0,1-.84-.39A1.59,1.59,0,0,1,32.69,3a1.3,1.3,0,0,1,.79-1.18,17.54,17.54,0,0,1,8-1.84,8.65,8.65,0,0,1,5.87,2,6.61,6.61,0,0,1,2.41,5.29q0,3.27-3.28,6.3a30.15,30.15,0,0,1-3.14,2.45c-1.15.76-2.24,1.5-3.3,2.21s-2,1.4-2.84,2.09a5.82,5.82,0,0,0-1.73,2.07H48A1.48,1.48,0,0,1,49.08,22.88Z"/><path class="cls-2" d="M83.05.88a2.32,2.32,0,0,1,.69,1.68V24.05a1.6,1.6,0,0,1-1.62,1.62A1.62,1.62,0,0,1,81,25.2a1.52,1.52,0,0,1-.49-1.15V3.6L72.14,24.16a2.48,2.48,0,0,1-2.3,1.51,2.45,2.45,0,0,1-2.3-1.51L59.22,3.6V24.05a1.52,1.52,0,0,1-.49,1.15,1.62,1.62,0,0,1-1.17.47,1.6,1.6,0,0,1-1.62-1.62V2.56A2.32,2.32,0,0,1,56.63.88a2.19,2.19,0,0,1,1.65-.7h1.19a2.19,2.19,0,0,1,1.32.43,2.79,2.79,0,0,1,.88,1.08l8.17,20.38L78,1.69A2.7,2.7,0,0,1,78.89.61,2.19,2.19,0,0,1,80.21.18h1.18A2.23,2.23,0,0,1,83.05.88Z"/></g></g></g></svg>