<svg id="Clock" xmlns="http://www.w3.org/2000/svg" width="49.357" height="49.358" viewBox="0 0 49.357 49.358">
  <path id="Path_25" data-name="Path 25" d="M38.957,21.807l-6.414,5.987V18.771a.771.771,0,1,0-1.542,0v10.8a.771.771,0,0,0,.771.771.778.778,0,0,0,.527-.207l7.712-7.2a.772.772,0,0,0-1.053-1.128Z" transform="translate(-7.092 -4.118)" fill="#636466"/>
  <path id="Path_26" data-name="Path 26" d="M31.771,12.162a.771.771,0,0,0,.771-.771V9.848a.771.771,0,0,0-1.542,0v1.542A.771.771,0,0,0,31.771,12.162Z" transform="translate(-7.092 -2.077)" fill="#636466"/>
  <path id="Path_27" data-name="Path 27" d="M16.568,15.32a.771.771,0,0,0-1.013,1.163L17.1,17.825a.771.771,0,0,0,1.013-1.163Z" transform="translate(-3.498 -3.461)" fill="#636466"/>
  <path id="Path_28" data-name="Path 28" d="M11.392,31H9.849a.771.771,0,1,0,0,1.542h1.542a.771.771,0,0,0,0-1.542Z" transform="translate(-2.077 -7.092)" fill="#636466"/>
  <path id="Path_29" data-name="Path 29" d="M16.988,44.946l-1.343,1.343a.771.771,0,0,0,1.091,1.09l1.343-1.343a.771.771,0,0,0-1.091-1.09Z" transform="translate(-3.528 -10.231)" fill="#636466"/>
  <path id="Path_30" data-name="Path 30" d="M31.771,50.719A.771.771,0,0,0,31,51.49v1.542a.771.771,0,0,0,1.542,0V51.49A.771.771,0,0,0,31.771,50.719Z" transform="translate(-7.092 -11.604)" fill="#636466"/>
  <path id="Path_31" data-name="Path 31" d="M46.327,44.946a.771.771,0,1,0-1.09,1.09l1.118,1.119a.771.771,0,1,0,1.09-1.09Z" transform="translate(-10.298 -10.231)" fill="#636466"/>
  <path id="Path_32" data-name="Path 32" d="M53.033,31H51.49a.771.771,0,0,0,0,1.542h1.542a.771.771,0,1,0,0-1.542Z" transform="translate(-11.604 -7.092)" fill="#636466"/>
  <path id="Path_33" data-name="Path 33" d="M46.355,15.646l-1.118,1.119a.771.771,0,1,0,1.09,1.09l1.118-1.119a.771.771,0,1,0-1.09-1.091Z" transform="translate(-10.298 -3.528)" fill="#636466"/>
  <path id="Path_34" data-name="Path 34" d="M24.679,0A24.679,24.679,0,1,0,49.358,24.679,24.679,24.679,0,0,0,24.679,0Zm0,47.815A23.137,23.137,0,1,1,47.815,24.679,23.163,23.163,0,0,1,24.679,47.815Z" fill="#636466"/>
  <path id="Path_35" data-name="Path 35" d="M25.823,5A20.823,20.823,0,1,0,46.646,25.823,20.823,20.823,0,0,0,25.823,5Zm0,40.1A19.28,19.28,0,1,1,45.1,25.823,19.3,19.3,0,0,1,25.823,45.1Z" transform="translate(-1.144 -1.144)" fill="#636466"/>
</svg>
