<svg id="Clock" xmlns="http://www.w3.org/2000/svg" width="36.246" height="36.246" viewBox="0 0 36.246 36.246">
  <path id="Path_25" data-name="Path 25" d="M36.843,20.8l-4.71,4.4V18.566a.566.566,0,0,0-1.133,0V26.5a.566.566,0,0,0,.566.566.571.571,0,0,0,.387-.152l5.663-5.286a.567.567,0,0,0-.774-.829Z" transform="translate(-13.444 -7.806)" fill="#636466"/>
  <path id="Path_26" data-name="Path 26" d="M31.566,11.342a.566.566,0,0,0,.566-.566V9.643a.566.566,0,0,0-1.133,0v1.133A.566.566,0,0,0,31.566,11.342Z" transform="translate(-13.444 -3.936)" fill="#636466"/>
  <path id="Path_27" data-name="Path 27" d="M16.228,15.269a.566.566,0,0,0-.744.854l1.133.986a.566.566,0,0,0,.744-.854Z" transform="translate(-6.631 -6.561)" fill="#636466"/>
  <path id="Path_28" data-name="Path 28" d="M10.777,31H9.644a.566.566,0,0,0,0,1.133h1.133a.566.566,0,0,0,0-1.133Z" transform="translate(-3.937 -13.444)" fill="#636466"/>
  <path id="Path_29" data-name="Path 29" d="M16.571,44.886l-.986.986a.566.566,0,0,0,.8.8l.986-.986a.566.566,0,0,0-.8-.8Z" transform="translate(-6.687 -19.393)" fill="#636466"/>
  <path id="Path_30" data-name="Path 30" d="M31.566,50.719a.566.566,0,0,0-.566.566v1.133a.566.566,0,0,0,1.133,0V51.285A.566.566,0,0,0,31.566,50.719Z" transform="translate(-13.444 -21.995)" fill="#636466"/>
  <path id="Path_31" data-name="Path 31" d="M45.978,44.886a.566.566,0,0,0-.8.8l.821.822a.566.566,0,0,0,.8-.8Z" transform="translate(-19.519 -19.393)" fill="#636466"/>
  <path id="Path_32" data-name="Path 32" d="M52.418,31H51.285a.566.566,0,0,0,0,1.133h1.133a.566.566,0,0,0,0-1.133Z" transform="translate(-21.995 -13.444)" fill="#636466"/>
  <path id="Path_33" data-name="Path 33" d="M46,15.586l-.821.822a.566.566,0,1,0,.8.8l.821-.822a.566.566,0,0,0-.8-.8Z" transform="translate(-19.519 -6.687)" fill="#636466"/>
  <path id="Path_34" data-name="Path 34" d="M18.123,0A18.123,18.123,0,1,0,36.246,18.123,18.123,18.123,0,0,0,18.123,0Zm0,35.113a16.99,16.99,0,1,1,16.99-16.99A17.009,17.009,0,0,1,18.123,35.113Z" fill="#636466"/>
  <path id="Path_35" data-name="Path 35" d="M20.291,5A15.291,15.291,0,1,0,35.582,20.291,15.291,15.291,0,0,0,20.291,5Zm0,29.45A14.158,14.158,0,1,1,34.45,20.291,14.175,14.175,0,0,1,20.291,34.45Z" transform="translate(-2.168 -2.168)" fill="#636466"/>
</svg>
