<svg xmlns="http://www.w3.org/2000/svg" width="31.415" height="39.423" viewBox="0 0 31.415 39.423">
  <g id="iv-icon-drops" transform="translate(-64.371 -14.202)">
    <path id="Path_543" data-name="Path 543" d="M75.273,114.1a.7.7,0,0,0-1.131,0l-.007.01c-.4.6-9.764,14.846-9.764,20.4a10.338,10.338,0,1,0,20.673,0c0-5.564-9.365-19.794-9.765-20.4Zm8.4,20.41h0a8.965,8.965,0,1,1-17.927,0c0-4.453,7.307-16.158,8.963-18.752C76.364,118.345,83.671,130.05,83.671,134.505Z" transform="translate(0 -91.374)" fill="#636466"/>
    <path id="Path_544" data-name="Path 544" d="M293.605,14.49l-.013-.019a.675.675,0,0,0-1.087.007l-.008.012c-.244.369-5.969,9.077-5.969,12.519a6.524,6.524,0,1,0,13.047,0C299.575,23.56,293.849,14.859,293.605,14.49Zm4.641,12.522v0a5.2,5.2,0,1,1-10.39,0c0-2,2.67-6.932,5.195-10.925C295.576,20.08,298.246,25.013,298.246,27.013Z" transform="translate(-203.789 0)" fill="#636466"/>
  </g>
</svg>
