<svg xmlns="http://www.w3.org/2000/svg" width="37" height="37" viewBox="0 0 37 37">
  <path id="iv-icon" d="M36.321,4.579,32.672.93a2.006,2.006,0,0,0-2.854,0l-.163.163a2.006,2.006,0,0,0,0,2.854l.56.56L27.181,7.541,24.037,4.4a2.006,2.006,0,0,0-2.854,0l-.163.163a2.006,2.006,0,0,0,0,2.854h0l.163.163L8.195,20.566a1.963,1.963,0,0,0,0,2.764l.741.741L3.859,29.164a.491.491,0,0,0,0,.7l1.409,1.409-5.2,5.185a.512.512,0,0,0,0,.723.491.491,0,0,0,.7,0H.788l5.185-5.2,1.409,1.409a.491.491,0,0,0,.7,0h0l5.094-5.076.741.741a1.963,1.963,0,0,0,2.764,0l1.536-1.535,6.937-6.937,4.516-4.516.163.163a2.006,2.006,0,0,0,2.854,0l.163-.163a2.006,2.006,0,0,0,0-2.854L29.71,10.07l3.035-3.035.56.56a2.006,2.006,0,0,0,2.854,0l.163-.163A2.006,2.006,0,0,0,36.321,4.579ZM12.458,27.593,7.743,32.308,6.334,30.917,4.943,29.508l4.715-4.715,1.409,1.391ZM27.126,17.188l-1.969-1.951a.491.491,0,0,0-.7-.018.513.513,0,0,0-.018.723h.018L26.4,17.91l-1.59,1.59-1.138-1.12a.512.512,0,0,0-.723,0,.491.491,0,0,0,0,.7l1.138,1.138L22.484,21.83l-1.951-1.969a.511.511,0,0,0-.723.723l1.969,1.951-1.608,1.608L19.033,23a.491.491,0,0,0-.7,0,.512.512,0,0,0,0,.723l1.138,1.12-1.608,1.608L15.89,24.5a.5.5,0,0,0-.7.7l1.951,1.969-1.174,1.174a.938.938,0,0,1-1.319,0L8.9,22.607a.938.938,0,0,1,0-1.319L21.888,8.3l7.063,7.063Zm5.022-1.843-.181.181a1.014,1.014,0,0,1-1.409,0L21.725,6.692a1.014,1.014,0,0,1,0-1.409h0l.181-.181a1.014,1.014,0,0,1,1.409,0l3.5,3.5,1.825,1.825,3.5,3.5A1.014,1.014,0,0,1,32.148,15.345ZM29.005,9.366l-1.12-1.12,3.053-3.035,1.1,1.1ZM35.617,6.71l-.181.181a1.014,1.014,0,0,1-1.409,0l-.921-.921L31.281,4.145l-.921-.921a1.014,1.014,0,0,1,0-1.409l.181-.181a1.014,1.014,0,0,1,1.409,0L35.617,5.3A1.015,1.015,0,0,1,35.617,6.71Z" transform="translate(0.083 -0.333)" fill="#636466"/>
</svg>
