<svg xmlns="http://www.w3.org/2000/svg" width="45.135" height="61.438" viewBox="0 0 45.135 61.438">
  <g id="PILLS_ICON" data-name="PILLS ICON" transform="translate(-245.001 -59.276)">
    <path id="Path_21" data-name="Path 21" d="M267.056,60.521a9.228,9.228,0,0,0-12.616,3.371h0l-8.218,14.254a9.234,9.234,0,0,0,15.987,9.246l8.218-14.254a9.207,9.207,0,0,0-3.371-12.616Zm-6.613,25.843a7.2,7.2,0,1,1-12.52-7.127c.032-.032.032-.064.064-.064l3.6-6.228,12.456,7.191Zm8.218-14.254h0l-3.6,6.228-12.456-7.191,3.6-6.228a7.191,7.191,0,0,1,13.162,1.734,7.039,7.039,0,0,1-.706,5.457Z" transform="translate(0 0)" fill="#636466"/>
    <path id="Path_22" data-name="Path 22" d="M352.114,91.928h0a4.839,4.839,0,0,0-2.568-.706,5.217,5.217,0,0,0-4.462,2.568,1.035,1.035,0,1,0,1.8,1.027,3.149,3.149,0,0,1,4.205-1.124,1.039,1.039,0,0,0,1.413-.353,1.014,1.014,0,0,0-.385-1.413Z" transform="translate(-87.113 -27.844)" fill="#636466"/>
    <path id="Path_23" data-name="Path 23" d="M413.991,301.8l-8.218-14.254a9.238,9.238,0,1,0-16.051,9.149c0,.032.032.064.064.1L398,311.048a9.234,9.234,0,0,0,15.987-9.246Zm-22.44-6.035a7.191,7.191,0,1,1,12.456-7.191h0l3.6,6.228-12.456,7.191Zm18.042,16.886h0a7.222,7.222,0,0,1-9.823-2.632l-3.6-6.228L408.63,296.6l3.6,6.228a7.193,7.193,0,0,1-2.632,9.823Z" transform="translate(-125.073 -194.893)" fill="#636466"/>
    <path id="Path_24" data-name="Path 24" d="M439.787,315.222a5.147,5.147,0,0,0-2.568.706,1.021,1.021,0,1,0,1.027,1.766h0a3.149,3.149,0,0,1,4.205,1.124,1.049,1.049,0,0,0,1.413.385,1.08,1.08,0,0,0,.385-1.413,5.217,5.217,0,0,0-4.462-2.568Z" transform="translate(-167.081 -223.08)" fill="#636466"/>
  </g>
</svg>
