<svg xmlns="http://www.w3.org/2000/svg" width="26.864" height="36.567" viewBox="0 0 26.864 36.567">
  <g id="pills-icon" transform="translate(-245 -59.276)">
    <path id="Path_21" data-name="Path 21" d="M258.128,60.017a5.492,5.492,0,0,0-7.509,2.006h0l-4.891,8.484a5.5,5.5,0,0,0,9.515,5.5l4.891-8.484a5.48,5.48,0,0,0-2.006-7.509ZM254.191,75.4a4.287,4.287,0,1,1-7.452-4.242c.019-.019.019-.038.038-.038l2.14-3.707,7.414,4.28Zm4.891-8.484h0l-2.14,3.707-7.414-4.28,2.14-3.707a4.28,4.28,0,0,1,7.834,1.032,4.19,4.19,0,0,1-.42,3.248Z" transform="translate(0 0)" fill="#636466"/>
    <path id="Path_22" data-name="Path 22" d="M349.213,91.642h0a2.88,2.88,0,0,0-1.529-.42,3.105,3.105,0,0,0-2.656,1.529.616.616,0,0,0,1.07.611,1.874,1.874,0,0,1,2.5-.669.618.618,0,0,0,.841-.21.6.6,0,0,0-.229-.841Z" transform="translate(-92.308 -29.504)" fill="#636466"/>
    <path id="Path_23" data-name="Path 23" d="M403.672,294.143l-4.892-8.484a5.5,5.5,0,1,0-9.554,5.446c0,.019.019.038.038.057l4.891,8.484a5.5,5.5,0,0,0,9.515-5.5Zm-13.356-3.592a4.28,4.28,0,1,1,7.414-4.28h0l2.14,3.707-7.414,4.28Zm10.738,10.05h0a4.3,4.3,0,0,1-5.847-1.567l-2.14-3.707,7.414-4.28,2.14,3.707a4.281,4.281,0,0,1-1.567,5.847Z" transform="translate(-132.532 -206.516)" fill="#636466"/>
    <path id="Path_24" data-name="Path 24" d="M438.537,315.222a3.064,3.064,0,0,0-1.529.42.608.608,0,1,0,.611,1.051h0a1.874,1.874,0,0,1,2.5.669.624.624,0,0,0,.841.229.643.643,0,0,0,.229-.841,3.105,3.105,0,0,0-2.656-1.529Z" transform="translate(-177.046 -236.384)" fill="#636466"/>
  </g>
</svg>
