<svg id="tube" xmlns="http://www.w3.org/2000/svg" width="31.166" height="36.416" viewBox="0 0 31.166 36.416">
  <path id="Path_453" data-name="Path 453" d="M9.179,30.483H9.133L4.2,30.028a1.266,1.266,0,0,1-.516-.152L2.5,30.847a.818.818,0,0,1-.516.2.6.6,0,0,1-.455-.2L-.153,29.178a.722.722,0,0,1,.015-.971l.971-1.184a1.119,1.119,0,0,1-.152-.516L.226,21.576a.444.444,0,0,1,.106-.334L15.551,3.065l-.182-.182a.77.77,0,0,1-.228-.546.779.779,0,0,1,.228-.561L16.917.243A.787.787,0,0,1,17.463,0a.847.847,0,0,1,.561.228L29.541,11.759a.77.77,0,0,1,.228.546.721.721,0,0,1-.228.546L27.993,14.4a.769.769,0,0,1-1.092,0l-.182-.182L9.467,30.377A.479.479,0,0,1,9.179,30.483ZM.651,28.677l1.366,1.381.986-.8L1.44,27.706Zm.926-2.261a.384.384,0,0,0,.152.288L4,28.966v.015c.137.121.167.137.273.137l3.687.334L1.243,22.745Zm25.87-12.745,1.366-1.366L17.463.971l-1.35,1.366,7.025,7.025.364.364Zm-1.381-.091-3.133-3.146a.413.413,0,0,1-.068-.055L16.2,3.717,3.2,19.255,8.147,24.2a.448.448,0,0,1,.06.075l3.248,3.233ZM7.494,24.839,7.4,24.747,2.609,19.953,1.3,21.5l7.89,7.905,1.563-1.3Z" transform="translate(1.397)" fill="#636466"/>
  <path id="Path_454" data-name="Path 454" d="M379.379,691.712c.076-.121.2-.394.5-.394.319-.015.455.212.577.41a2.124,2.124,0,0,0,2.064,1.062h8.649a1.737,1.737,0,0,1,0,3.475H380.881a1.985,1.985,0,0,1-1.517-1.077A4.26,4.26,0,0,1,379.379,691.712Zm.789,3.05a1.065,1.065,0,0,0,.8.592h10.2a.827.827,0,0,0,0-1.654H382.52a3.072,3.072,0,0,1-2.5-1.032A3.176,3.176,0,0,0,380.168,694.762Z" transform="translate(-379 -659.849)" fill="#636466"/>
</svg>
